<?xml version="1.0" encoding="utf-8"?>
<svg xmlns="http://www.w3.org/2000/svg" xmlns:xlink="http://www.w3.org/1999/xlink" width="576" height="384" viewBox="0 0 2304 1536">
<defs>
  <clipPath id="clip6600">
    <rect x="0" y="0" width="2000" height="2000"/>
  </clipPath>
</defs>
<defs>
  <clipPath id="clip6601">
    <rect x="0" y="0" width="2304" height="1536"/>
  </clipPath>
</defs>
<polygon clip-path="url(#clip6601)" points="
0,1536 2304,1536 2304,0 0,0 
  " fill="#ffffff" fill-rule="evenodd" fill-opacity="1"/>
<defs>
  <clipPath id="clip6602">
    <rect x="460" y="0" width="1614" height="1536"/>
  </clipPath>
</defs>
<polygon clip-path="url(#clip6601)" points="
174.809,1444.25 2225.26,1444.25 2225.26,47.2441 174.809,47.2441 
  " fill="#ffffff" fill-rule="evenodd" fill-opacity="1"/>
<defs>
  <clipPath id="clip6603">
    <rect x="174" y="47" width="2051" height="1398"/>
  </clipPath>
</defs>
<polyline clip-path="url(#clip6603)" style="stroke:#000000; stroke-width:2; stroke-opacity:0.1; fill:none" points="
  256.146,1444.25 256.146,47.2441 
  "/>
<polyline clip-path="url(#clip6603)" style="stroke:#000000; stroke-width:2; stroke-opacity:0.1; fill:none" points="
  722.264,1444.25 722.264,47.2441 
  "/>
<polyline clip-path="url(#clip6603)" style="stroke:#000000; stroke-width:2; stroke-opacity:0.1; fill:none" points="
  1188.38,1444.25 1188.38,47.2441 
  "/>
<polyline clip-path="url(#clip6603)" style="stroke:#000000; stroke-width:2; stroke-opacity:0.1; fill:none" points="
  1654.5,1444.25 1654.5,47.2441 
  "/>
<polyline clip-path="url(#clip6603)" style="stroke:#000000; stroke-width:2; stroke-opacity:0.1; fill:none" points="
  2120.62,1444.25 2120.62,47.2441 
  "/>
<polyline clip-path="url(#clip6603)" style="stroke:#000000; stroke-width:2; stroke-opacity:0.1; fill:none" points="
  174.809,1404.72 2225.26,1404.72 
  "/>
<polyline clip-path="url(#clip6603)" style="stroke:#000000; stroke-width:2; stroke-opacity:0.1; fill:none" points="
  174.809,1075.23 2225.26,1075.23 
  "/>
<polyline clip-path="url(#clip6603)" style="stroke:#000000; stroke-width:2; stroke-opacity:0.1; fill:none" points="
  174.809,745.749 2225.26,745.749 
  "/>
<polyline clip-path="url(#clip6603)" style="stroke:#000000; stroke-width:2; stroke-opacity:0.1; fill:none" points="
  174.809,416.265 2225.26,416.265 
  "/>
<polyline clip-path="url(#clip6603)" style="stroke:#000000; stroke-width:2; stroke-opacity:0.1; fill:none" points="
  174.809,86.7821 2225.26,86.7821 
  "/>
<polyline clip-path="url(#clip6601)" style="stroke:#000000; stroke-width:4; stroke-opacity:1; fill:none" points="
  174.809,1444.25 2225.26,1444.25 
  "/>
<polyline clip-path="url(#clip6601)" style="stroke:#000000; stroke-width:4; stroke-opacity:1; fill:none" points="
  174.809,1444.25 174.809,47.2441 
  "/>
<polyline clip-path="url(#clip6601)" style="stroke:#000000; stroke-width:4; stroke-opacity:1; fill:none" points="
  256.146,1444.25 256.146,1423.3 
  "/>
<polyline clip-path="url(#clip6601)" style="stroke:#000000; stroke-width:4; stroke-opacity:1; fill:none" points="
  722.264,1444.25 722.264,1423.3 
  "/>
<polyline clip-path="url(#clip6601)" style="stroke:#000000; stroke-width:4; stroke-opacity:1; fill:none" points="
  1188.38,1444.25 1188.38,1423.3 
  "/>
<polyline clip-path="url(#clip6601)" style="stroke:#000000; stroke-width:4; stroke-opacity:1; fill:none" points="
  1654.5,1444.25 1654.5,1423.3 
  "/>
<polyline clip-path="url(#clip6601)" style="stroke:#000000; stroke-width:4; stroke-opacity:1; fill:none" points="
  2120.62,1444.25 2120.62,1423.3 
  "/>
<polyline clip-path="url(#clip6601)" style="stroke:#000000; stroke-width:4; stroke-opacity:1; fill:none" points="
  174.809,1404.72 205.565,1404.72 
  "/>
<polyline clip-path="url(#clip6601)" style="stroke:#000000; stroke-width:4; stroke-opacity:1; fill:none" points="
  174.809,1075.23 205.565,1075.23 
  "/>
<polyline clip-path="url(#clip6601)" style="stroke:#000000; stroke-width:4; stroke-opacity:1; fill:none" points="
  174.809,745.749 205.565,745.749 
  "/>
<polyline clip-path="url(#clip6601)" style="stroke:#000000; stroke-width:4; stroke-opacity:1; fill:none" points="
  174.809,416.265 205.565,416.265 
  "/>
<polyline clip-path="url(#clip6601)" style="stroke:#000000; stroke-width:4; stroke-opacity:1; fill:none" points="
  174.809,86.7821 205.565,86.7821 
  "/>
<g clip-path="url(#clip6601)">
<text style="fill:#000000; fill-opacity:1; font-family:Arial,Helvetica Neue,Helvetica,sans-serif; font-size:48px; text-anchor:middle;" transform="rotate(0, 256.146, 1497.77)" x="256.146" y="1497.77">-2</text>
</g>
<g clip-path="url(#clip6601)">
<text style="fill:#000000; fill-opacity:1; font-family:Arial,Helvetica Neue,Helvetica,sans-serif; font-size:48px; text-anchor:middle;" transform="rotate(0, 722.264, 1497.77)" x="722.264" y="1497.77">0</text>
</g>
<g clip-path="url(#clip6601)">
<text style="fill:#000000; fill-opacity:1; font-family:Arial,Helvetica Neue,Helvetica,sans-serif; font-size:48px; text-anchor:middle;" transform="rotate(0, 1188.38, 1497.77)" x="1188.38" y="1497.77">2</text>
</g>
<g clip-path="url(#clip6601)">
<text style="fill:#000000; fill-opacity:1; font-family:Arial,Helvetica Neue,Helvetica,sans-serif; font-size:48px; text-anchor:middle;" transform="rotate(0, 1654.5, 1497.77)" x="1654.5" y="1497.77">4</text>
</g>
<g clip-path="url(#clip6601)">
<text style="fill:#000000; fill-opacity:1; font-family:Arial,Helvetica Neue,Helvetica,sans-serif; font-size:48px; text-anchor:middle;" transform="rotate(0, 2120.62, 1497.77)" x="2120.62" y="1497.77">6</text>
</g>
<g clip-path="url(#clip6601)">
<text style="fill:#000000; fill-opacity:1; font-family:Arial,Helvetica Neue,Helvetica,sans-serif; font-size:48px; text-anchor:end;" transform="rotate(0, 151.769, 1422.22)" x="151.769" y="1422.22">0.00</text>
</g>
<g clip-path="url(#clip6601)">
<text style="fill:#000000; fill-opacity:1; font-family:Arial,Helvetica Neue,Helvetica,sans-serif; font-size:48px; text-anchor:end;" transform="rotate(0, 151.769, 1092.73)" x="151.769" y="1092.73">0.25</text>
</g>
<g clip-path="url(#clip6601)">
<text style="fill:#000000; fill-opacity:1; font-family:Arial,Helvetica Neue,Helvetica,sans-serif; font-size:48px; text-anchor:end;" transform="rotate(0, 151.769, 763.249)" x="151.769" y="763.249">0.50</text>
</g>
<g clip-path="url(#clip6601)">
<text style="fill:#000000; fill-opacity:1; font-family:Arial,Helvetica Neue,Helvetica,sans-serif; font-size:48px; text-anchor:end;" transform="rotate(0, 151.769, 433.765)" x="151.769" y="433.765">0.75</text>
</g>
<g clip-path="url(#clip6601)">
<text style="fill:#000000; fill-opacity:1; font-family:Arial,Helvetica Neue,Helvetica,sans-serif; font-size:48px; text-anchor:end;" transform="rotate(0, 151.769, 104.282)" x="151.769" y="104.282">1.00</text>
</g>
<circle clip-path="url(#clip6603)" style="fill:#000000; stroke:none; fill-opacity:1" cx="232.84" cy="1404.72" r="18"/>
<circle clip-path="url(#clip6603)" style="fill:#009af9; stroke:none; fill-opacity:1" cx="232.84" cy="1404.72" r="14"/>
<circle clip-path="url(#clip6603)" style="fill:#000000; stroke:none; fill-opacity:1" cx="419.287" cy="1404.72" r="18"/>
<circle clip-path="url(#clip6603)" style="fill:#009af9; stroke:none; fill-opacity:1" cx="419.287" cy="1404.72" r="14"/>
<circle clip-path="url(#clip6603)" style="fill:#000000; stroke:none; fill-opacity:1" cx="629.04" cy="1404.72" r="18"/>
<circle clip-path="url(#clip6603)" style="fill:#009af9; stroke:none; fill-opacity:1" cx="629.04" cy="1404.72" r="14"/>
<circle clip-path="url(#clip6603)" style="fill:#000000; stroke:none; fill-opacity:1" cx="1165.08" cy="1404.72" r="18"/>
<circle clip-path="url(#clip6603)" style="fill:#009af9; stroke:none; fill-opacity:1" cx="1165.08" cy="1404.72" r="14"/>
<circle clip-path="url(#clip6603)" style="fill:#000000; stroke:none; fill-opacity:1" cx="1910.86" cy="1404.72" r="18"/>
<circle clip-path="url(#clip6603)" style="fill:#009af9; stroke:none; fill-opacity:1" cx="1910.86" cy="1404.72" r="14"/>
<circle clip-path="url(#clip6603)" style="fill:#000000; stroke:none; fill-opacity:1" cx="2167.23" cy="1404.72" r="18"/>
<circle clip-path="url(#clip6603)" style="fill:#009af9; stroke:none; fill-opacity:1" cx="2167.23" cy="1404.72" r="14"/>
</svg>
