<?xml version="1.0" encoding="utf-8"?>
<svg xmlns="http://www.w3.org/2000/svg" xmlns:xlink="http://www.w3.org/1999/xlink" width="576" height="384" viewBox="0 0 2304 1536">
<defs>
  <clipPath id="clip7400">
    <rect x="0" y="0" width="2000" height="2000"/>
  </clipPath>
</defs>
<defs>
  <clipPath id="clip7401">
    <rect x="0" y="0" width="2304" height="1536"/>
  </clipPath>
</defs>
<polygon clip-path="url(#clip7401)" points="
0,1536 2304,1536 2304,0 0,0 
  " fill="#ffffff" fill-rule="evenodd" fill-opacity="1"/>
<defs>
  <clipPath id="clip7402">
    <rect x="460" y="0" width="1614" height="1536"/>
  </clipPath>
</defs>
<polygon clip-path="url(#clip7401)" points="
188.156,1439.47 2225.26,1439.47 2225.26,47.2441 188.156,47.2441 
  " fill="#ffffff" fill-rule="evenodd" fill-opacity="1"/>
<defs>
  <clipPath id="clip7403">
    <rect x="188" y="47" width="2038" height="1393"/>
  </clipPath>
</defs>
<polyline clip-path="url(#clip7403)" style="stroke:#000000; stroke-width:2; stroke-opacity:0.1; fill:none" points="
  459.343,1439.47 459.343,47.2441 
  "/>
<polyline clip-path="url(#clip7403)" style="stroke:#000000; stroke-width:2; stroke-opacity:0.1; fill:none" points="
  993.175,1439.47 993.175,47.2441 
  "/>
<polyline clip-path="url(#clip7403)" style="stroke:#000000; stroke-width:2; stroke-opacity:0.1; fill:none" points="
  1527.01,1439.47 1527.01,47.2441 
  "/>
<polyline clip-path="url(#clip7403)" style="stroke:#000000; stroke-width:2; stroke-opacity:0.1; fill:none" points="
  2060.84,1439.47 2060.84,47.2441 
  "/>
<polyline clip-path="url(#clip7403)" style="stroke:#000000; stroke-width:2; stroke-opacity:0.1; fill:none" points="
  188.156,1400.07 2225.26,1400.07 
  "/>
<polyline clip-path="url(#clip7403)" style="stroke:#000000; stroke-width:2; stroke-opacity:0.1; fill:none" points="
  188.156,1076.08 2225.26,1076.08 
  "/>
<polyline clip-path="url(#clip7403)" style="stroke:#000000; stroke-width:2; stroke-opacity:0.1; fill:none" points="
  188.156,752.086 2225.26,752.086 
  "/>
<polyline clip-path="url(#clip7403)" style="stroke:#000000; stroke-width:2; stroke-opacity:0.1; fill:none" points="
  188.156,428.094 2225.26,428.094 
  "/>
<polyline clip-path="url(#clip7403)" style="stroke:#000000; stroke-width:2; stroke-opacity:0.1; fill:none" points="
  188.156,104.101 2225.26,104.101 
  "/>
<polyline clip-path="url(#clip7401)" style="stroke:#000000; stroke-width:4; stroke-opacity:1; fill:none" points="
  188.156,1439.47 2225.26,1439.47 
  "/>
<polyline clip-path="url(#clip7401)" style="stroke:#000000; stroke-width:4; stroke-opacity:1; fill:none" points="
  188.156,1439.47 188.156,47.2441 
  "/>
<polyline clip-path="url(#clip7401)" style="stroke:#000000; stroke-width:4; stroke-opacity:1; fill:none" points="
  459.343,1439.47 459.343,1418.59 
  "/>
<polyline clip-path="url(#clip7401)" style="stroke:#000000; stroke-width:4; stroke-opacity:1; fill:none" points="
  993.175,1439.47 993.175,1418.59 
  "/>
<polyline clip-path="url(#clip7401)" style="stroke:#000000; stroke-width:4; stroke-opacity:1; fill:none" points="
  1527.01,1439.47 1527.01,1418.59 
  "/>
<polyline clip-path="url(#clip7401)" style="stroke:#000000; stroke-width:4; stroke-opacity:1; fill:none" points="
  2060.84,1439.47 2060.84,1418.59 
  "/>
<polyline clip-path="url(#clip7401)" style="stroke:#000000; stroke-width:4; stroke-opacity:1; fill:none" points="
  188.156,1400.07 218.713,1400.07 
  "/>
<polyline clip-path="url(#clip7401)" style="stroke:#000000; stroke-width:4; stroke-opacity:1; fill:none" points="
  188.156,1076.08 218.713,1076.08 
  "/>
<polyline clip-path="url(#clip7401)" style="stroke:#000000; stroke-width:4; stroke-opacity:1; fill:none" points="
  188.156,752.086 218.713,752.086 
  "/>
<polyline clip-path="url(#clip7401)" style="stroke:#000000; stroke-width:4; stroke-opacity:1; fill:none" points="
  188.156,428.094 218.713,428.094 
  "/>
<polyline clip-path="url(#clip7401)" style="stroke:#000000; stroke-width:4; stroke-opacity:1; fill:none" points="
  188.156,104.101 218.713,104.101 
  "/>
<g clip-path="url(#clip7401)">
<text style="fill:#000000; fill-opacity:1; font-family:Arial,Helvetica Neue,Helvetica,sans-serif; font-size:48px; text-anchor:middle;" transform="rotate(0, 459.343, 1492.99)" x="459.343" y="1492.99">-5</text>
</g>
<g clip-path="url(#clip7401)">
<text style="fill:#000000; fill-opacity:1; font-family:Arial,Helvetica Neue,Helvetica,sans-serif; font-size:48px; text-anchor:middle;" transform="rotate(0, 993.175, 1492.99)" x="993.175" y="1492.99">0</text>
</g>
<g clip-path="url(#clip7401)">
<text style="fill:#000000; fill-opacity:1; font-family:Arial,Helvetica Neue,Helvetica,sans-serif; font-size:48px; text-anchor:middle;" transform="rotate(0, 1527.01, 1492.99)" x="1527.01" y="1492.99">5</text>
</g>
<g clip-path="url(#clip7401)">
<text style="fill:#000000; fill-opacity:1; font-family:Arial,Helvetica Neue,Helvetica,sans-serif; font-size:48px; text-anchor:middle;" transform="rotate(0, 2060.84, 1492.99)" x="2060.84" y="1492.99">10</text>
</g>
<g clip-path="url(#clip7401)">
<text style="fill:#000000; fill-opacity:1; font-family:Arial,Helvetica Neue,Helvetica,sans-serif; font-size:48px; text-anchor:end;" transform="rotate(0, 165.116, 1417.57)" x="165.116" y="1417.57">0.00</text>
</g>
<g clip-path="url(#clip7401)">
<text style="fill:#000000; fill-opacity:1; font-family:Arial,Helvetica Neue,Helvetica,sans-serif; font-size:48px; text-anchor:end;" transform="rotate(0, 165.116, 1093.58)" x="165.116" y="1093.58">0.05</text>
</g>
<g clip-path="url(#clip7401)">
<text style="fill:#000000; fill-opacity:1; font-family:Arial,Helvetica Neue,Helvetica,sans-serif; font-size:48px; text-anchor:end;" transform="rotate(0, 165.116, 769.586)" x="165.116" y="769.586">0.10</text>
</g>
<g clip-path="url(#clip7401)">
<text style="fill:#000000; fill-opacity:1; font-family:Arial,Helvetica Neue,Helvetica,sans-serif; font-size:48px; text-anchor:end;" transform="rotate(0, 165.116, 445.594)" x="165.116" y="445.594">0.15</text>
</g>
<g clip-path="url(#clip7401)">
<text style="fill:#000000; fill-opacity:1; font-family:Arial,Helvetica Neue,Helvetica,sans-serif; font-size:48px; text-anchor:end;" transform="rotate(0, 165.116, 121.601)" x="165.116" y="121.601">0.20</text>
</g>
<polyline clip-path="url(#clip7403)" style="stroke:#009af9; stroke-width:4; stroke-opacity:1; fill:none" points="
  245.81,1398.46 265.222,1397.67 284.634,1396.54 304.046,1394.96 323.459,1392.76 342.871,1389.77 362.283,1385.75 381.695,1380.43 401.107,1373.5 420.519,1364.61 
  439.931,1353.39 459.343,1339.43 478.755,1322.34 498.167,1301.75 517.579,1277.34 536.991,1248.85 556.403,1216.14 575.816,1179.23 595.228,1138.26 614.64,1093.59 
  634.052,1045.75 653.464,995.485 672.876,943.705 692.288,891.479 711.7,839.991 731.112,790.489 750.524,744.223 769.936,702.391 789.348,666.063 808.761,636.132 
  828.173,613.259 847.585,597.837 866.997,589.97 886.409,589.473 905.821,595.891 925.233,608.528 944.645,626.503 964.057,648.808 983.469,674.376 1002.88,702.15 
  1022.29,731.138 1041.71,760.47 1061.12,789.426 1080.53,817.459 1099.94,844.187 1119.35,869.374 1138.77,892.902 1158.18,914.721 1177.59,934.806 1197,953.115 
  1216.41,969.557 1235.83,983.964 1255.24,996.094 1274.65,1005.64 1294.06,1012.27 1313.47,1015.64 1332.89,1015.47 1352.3,1011.59 1371.71,1003.98 1391.12,992.81 
  1410.53,978.456 1429.95,961.51 1449.36,942.769 1468.77,923.192 1488.18,903.86 1507.6,885.91 1527.01,870.473 1546.42,858.598 1565.83,851.195 1585.24,848.977 
  1604.66,852.418 1624.07,861.729 1643.48,876.852 1662.89,897.467 1682.3,923.024 1701.72,952.779 1721.13,985.846 1740.54,1021.25 1759.95,1058 1779.36,1095.11 
  1798.78,1131.68 1818.19,1166.92 1837.6,1200.16 1857.01,1230.9 1876.42,1258.8 1895.84,1283.66 1915.25,1305.42 1934.66,1324.15 1954.07,1339.99 1973.49,1353.16 
  1992.9,1363.95 2012.31,1372.63 2031.72,1379.51 2051.13,1384.88 2070.55,1389 2089.96,1392.12 2109.37,1394.44 2128.78,1396.13 2148.19,1397.36 2167.61,1398.23 
  
  "/>
<polyline clip-path="url(#clip7403)" style="stroke:#e26f46; stroke-width:4; stroke-opacity:1; fill:none" points="
  245.81,1400.07 265.222,1400.07 284.634,1400.07 304.046,1400.07 323.459,1400.07 342.871,1400.07 362.283,1400.07 381.695,1400.07 401.107,1400.07 420.519,1400.07 
  439.931,1400.07 459.343,1400.07 478.755,1400.07 498.167,1400.07 517.579,1400.07 536.991,1400.07 556.403,1400.07 575.816,1400.07 595.228,1400.07 614.64,1040.08 
  634.052,1040.08 653.464,1040.08 672.876,1040.08 692.288,1040.08 711.7,680.088 731.112,680.088 750.524,680.088 769.936,680.088 789.348,680.088 808.761,320.096 
  828.173,320.096 847.585,320.096 866.997,320.096 886.409,320.096 905.821,320.096 925.233,320.096 944.645,680.088 964.057,680.088 983.469,680.088 1002.88,680.088 
  1022.29,1040.08 1041.71,680.088 1061.12,680.088 1080.53,680.088 1099.94,680.088 1119.35,1040.08 1138.77,1040.08 1158.18,1040.08 1177.59,1040.08 1197,1040.08 
  1216.41,1040.08 1235.83,1040.08 1255.24,1040.08 1274.65,1040.08 1294.06,1040.08 1313.47,1040.08 1332.89,1040.08 1352.3,1040.08 1371.71,1400.07 1391.12,1040.08 
  1410.53,1040.08 1429.95,1040.08 1449.36,1040.08 1468.77,1040.08 1488.18,1040.08 1507.6,680.088 1527.01,680.088 1546.42,680.088 1565.83,680.088 1585.24,680.088 
  1604.66,680.088 1624.07,680.088 1643.48,680.088 1662.89,680.088 1682.3,680.088 1701.72,1040.08 1721.13,1040.08 1740.54,1040.08 1759.95,1040.08 1779.36,1040.08 
  1798.78,1040.08 1818.19,1400.07 1837.6,1400.07 1857.01,1400.07 1876.42,1400.07 1895.84,1400.07 1915.25,1400.07 1934.66,1400.07 1954.07,1400.07 1973.49,1400.07 
  1992.9,1400.07 2012.31,1400.07 2031.72,1400.07 2051.13,1400.07 2070.55,1400.07 2089.96,1400.07 2109.37,1400.07 2128.78,1400.07 2148.19,1400.07 2167.61,1400.07 
  
  "/>
<polyline clip-path="url(#clip7403)" style="stroke:#3da44d; stroke-width:4; stroke-opacity:1; fill:none" points="
  245.81,1400.07 265.222,1400.07 284.634,1400.07 304.046,1400.07 323.459,1400.07 342.871,1400.07 362.283,1400.07 381.695,1400.07 401.107,1400.07 420.519,1400.07 
  439.931,1400.07 459.343,1400.07 478.755,1400.07 498.167,1400.07 517.579,1400.07 536.991,1400.07 556.403,1400.07 575.816,1400.07 595.228,1400.07 614.64,1373.89 
  634.052,1286.62 653.464,1199.35 672.876,1112.08 692.288,1024.81 711.7,858.993 731.112,684.452 750.524,509.91 769.936,344.096 789.348,344.096 808.761,261.188 
  828.173,173.918 847.585,86.6468 866.997,112.828 886.409,200.099 905.821,287.37 925.233,374.64 944.645,392.095 964.057,514.274 983.469,688.815 1002.88,863.357 
  1022.29,1002.99 1041.71,1064.08 1061.12,1064.08 1080.53,1064.08 1099.94,1064.08 1119.35,1024.81 1138.77,937.537 1158.18,850.266 1177.59,762.995 1197,684.452 
  1216.41,771.722 1235.83,858.993 1255.24,946.264 1274.65,1033.53 1294.06,1120.81 1313.47,1208.08 1332.89,1295.35 1352.3,1382.62 1371.71,1400.07 1391.12,1338.98 
  1410.53,1251.71 1429.95,1164.44 1449.36,1077.17 1468.77,989.899 1488.18,902.629 1507.6,758.632 1527.01,584.09 1546.42,488.092 1565.83,488.092 1585.24,488.092 
  1604.66,488.092 1624.07,488.092 1643.48,488.092 1662.89,557.909 1682.3,732.451 1701.72,889.538 1721.13,976.809 1740.54,1064.08 1759.95,1151.35 1779.36,1238.62 
  1798.78,1325.89 1818.19,1400.07 1837.6,1400.07 1857.01,1400.07 1876.42,1400.07 1895.84,1400.07 1915.25,1400.07 1934.66,1400.07 1954.07,1400.07 1973.49,1400.07 
  1992.9,1400.07 2012.31,1400.07 2031.72,1400.07 2051.13,1400.07 2070.55,1400.07 2089.96,1400.07 2109.37,1400.07 2128.78,1400.07 2148.19,1400.07 2167.61,1400.07 
  
  "/>
<polygon clip-path="url(#clip7401)" points="
1709.09,366.924 2156.14,366.924 2156.14,125.004 1709.09,125.004 
  " fill="#ffffff" fill-rule="evenodd" fill-opacity="1"/>
<polyline clip-path="url(#clip7401)" style="stroke:#000000; stroke-width:4; stroke-opacity:1; fill:none" points="
  1709.09,366.924 2156.14,366.924 2156.14,125.004 1709.09,125.004 1709.09,366.924 
  "/>
<polyline clip-path="url(#clip7401)" style="stroke:#009af9; stroke-width:4; stroke-opacity:1; fill:none" points="
  1732.13,185.484 1870.37,185.484 
  "/>
<g clip-path="url(#clip7401)">
<text style="fill:#000000; fill-opacity:1; font-family:Arial,Helvetica Neue,Helvetica,sans-serif; font-size:48px; text-anchor:start;" transform="rotate(0, 1893.41, 202.984)" x="1893.41" y="202.984">Gaussian</text>
</g>
<polyline clip-path="url(#clip7401)" style="stroke:#e26f46; stroke-width:4; stroke-opacity:1; fill:none" points="
  1732.13,245.964 1870.37,245.964 
  "/>
<g clip-path="url(#clip7401)">
<text style="fill:#000000; fill-opacity:1; font-family:Arial,Helvetica Neue,Helvetica,sans-serif; font-size:48px; text-anchor:start;" transform="rotate(0, 1893.41, 263.464)" x="1893.41" y="263.464">Box</text>
</g>
<polyline clip-path="url(#clip7401)" style="stroke:#3da44d; stroke-width:4; stroke-opacity:1; fill:none" points="
  1732.13,306.444 1870.37,306.444 
  "/>
<g clip-path="url(#clip7401)">
<text style="fill:#000000; fill-opacity:1; font-family:Arial,Helvetica Neue,Helvetica,sans-serif; font-size:48px; text-anchor:start;" transform="rotate(0, 1893.41, 323.944)" x="1893.41" y="323.944">Triangular</text>
</g>
</svg>
