<?xml version="1.0" encoding="utf-8"?>
<svg xmlns="http://www.w3.org/2000/svg" xmlns:xlink="http://www.w3.org/1999/xlink" width="576" height="384" viewBox="0 0 2304 1536">
<defs>
  <clipPath id="clip4800">
    <rect x="0" y="0" width="2000" height="2000"/>
  </clipPath>
</defs>
<defs>
  <clipPath id="clip4801">
    <rect x="0" y="0" width="2304" height="1536"/>
  </clipPath>
</defs>
<polygon clip-path="url(#clip4801)" points="
0,1536 2304,1536 2304,0 0,0 
  " fill="#ffffff" fill-rule="evenodd" fill-opacity="1"/>
<defs>
  <clipPath id="clip4802">
    <rect x="460" y="0" width="1614" height="1536"/>
  </clipPath>
</defs>
<polygon clip-path="url(#clip4801)" points="
161.394,1439.47 2225.26,1439.47 2225.26,47.2441 161.394,47.2441 
  " fill="#ffffff" fill-rule="evenodd" fill-opacity="1"/>
<defs>
  <clipPath id="clip4803">
    <rect x="161" y="47" width="2065" height="1393"/>
  </clipPath>
</defs>
<polyline clip-path="url(#clip4803)" style="stroke:#000000; stroke-width:2; stroke-opacity:0.1; fill:none" points="
  484.093,1439.47 484.093,47.2441 
  "/>
<polyline clip-path="url(#clip4803)" style="stroke:#000000; stroke-width:2; stroke-opacity:0.1; fill:none" points="
  987.682,1439.47 987.682,47.2441 
  "/>
<polyline clip-path="url(#clip4803)" style="stroke:#000000; stroke-width:2; stroke-opacity:0.1; fill:none" points="
  1491.27,1439.47 1491.27,47.2441 
  "/>
<polyline clip-path="url(#clip4803)" style="stroke:#000000; stroke-width:2; stroke-opacity:0.1; fill:none" points="
  1994.86,1439.47 1994.86,47.2441 
  "/>
<polyline clip-path="url(#clip4803)" style="stroke:#000000; stroke-width:2; stroke-opacity:0.1; fill:none" points="
  161.394,1400.6 2225.26,1400.6 
  "/>
<polyline clip-path="url(#clip4803)" style="stroke:#000000; stroke-width:2; stroke-opacity:0.1; fill:none" points="
  161.394,1050.48 2225.26,1050.48 
  "/>
<polyline clip-path="url(#clip4803)" style="stroke:#000000; stroke-width:2; stroke-opacity:0.1; fill:none" points="
  161.394,700.358 2225.26,700.358 
  "/>
<polyline clip-path="url(#clip4803)" style="stroke:#000000; stroke-width:2; stroke-opacity:0.1; fill:none" points="
  161.394,350.238 2225.26,350.238 
  "/>
<polyline clip-path="url(#clip4801)" style="stroke:#000000; stroke-width:4; stroke-opacity:1; fill:none" points="
  161.394,1439.47 2225.26,1439.47 
  "/>
<polyline clip-path="url(#clip4801)" style="stroke:#000000; stroke-width:4; stroke-opacity:1; fill:none" points="
  161.394,1439.47 161.394,47.2441 
  "/>
<polyline clip-path="url(#clip4801)" style="stroke:#000000; stroke-width:4; stroke-opacity:1; fill:none" points="
  484.093,1439.47 484.093,1418.59 
  "/>
<polyline clip-path="url(#clip4801)" style="stroke:#000000; stroke-width:4; stroke-opacity:1; fill:none" points="
  987.682,1439.47 987.682,1418.59 
  "/>
<polyline clip-path="url(#clip4801)" style="stroke:#000000; stroke-width:4; stroke-opacity:1; fill:none" points="
  1491.27,1439.47 1491.27,1418.59 
  "/>
<polyline clip-path="url(#clip4801)" style="stroke:#000000; stroke-width:4; stroke-opacity:1; fill:none" points="
  1994.86,1439.47 1994.86,1418.59 
  "/>
<polyline clip-path="url(#clip4801)" style="stroke:#000000; stroke-width:4; stroke-opacity:1; fill:none" points="
  161.394,1400.6 192.352,1400.6 
  "/>
<polyline clip-path="url(#clip4801)" style="stroke:#000000; stroke-width:4; stroke-opacity:1; fill:none" points="
  161.394,1050.48 192.352,1050.48 
  "/>
<polyline clip-path="url(#clip4801)" style="stroke:#000000; stroke-width:4; stroke-opacity:1; fill:none" points="
  161.394,700.358 192.352,700.358 
  "/>
<polyline clip-path="url(#clip4801)" style="stroke:#000000; stroke-width:4; stroke-opacity:1; fill:none" points="
  161.394,350.238 192.352,350.238 
  "/>
<g clip-path="url(#clip4801)">
<text style="fill:#000000; fill-opacity:1; font-family:Arial,Helvetica Neue,Helvetica,sans-serif; font-size:48px; text-anchor:middle;" transform="rotate(0, 484.093, 1492.99)" x="484.093" y="1492.99">-5</text>
</g>
<g clip-path="url(#clip4801)">
<text style="fill:#000000; fill-opacity:1; font-family:Arial,Helvetica Neue,Helvetica,sans-serif; font-size:48px; text-anchor:middle;" transform="rotate(0, 987.682, 1492.99)" x="987.682" y="1492.99">0</text>
</g>
<g clip-path="url(#clip4801)">
<text style="fill:#000000; fill-opacity:1; font-family:Arial,Helvetica Neue,Helvetica,sans-serif; font-size:48px; text-anchor:middle;" transform="rotate(0, 1491.27, 1492.99)" x="1491.27" y="1492.99">5</text>
</g>
<g clip-path="url(#clip4801)">
<text style="fill:#000000; fill-opacity:1; font-family:Arial,Helvetica Neue,Helvetica,sans-serif; font-size:48px; text-anchor:middle;" transform="rotate(0, 1994.86, 1492.99)" x="1994.86" y="1492.99">10</text>
</g>
<g clip-path="url(#clip4801)">
<text style="fill:#000000; fill-opacity:1; font-family:Arial,Helvetica Neue,Helvetica,sans-serif; font-size:48px; text-anchor:end;" transform="rotate(0, 138.354, 1418.1)" x="138.354" y="1418.1">0.0</text>
</g>
<g clip-path="url(#clip4801)">
<text style="fill:#000000; fill-opacity:1; font-family:Arial,Helvetica Neue,Helvetica,sans-serif; font-size:48px; text-anchor:end;" transform="rotate(0, 138.354, 1067.98)" x="138.354" y="1067.98">0.2</text>
</g>
<g clip-path="url(#clip4801)">
<text style="fill:#000000; fill-opacity:1; font-family:Arial,Helvetica Neue,Helvetica,sans-serif; font-size:48px; text-anchor:end;" transform="rotate(0, 138.354, 717.858)" x="138.354" y="717.858">0.4</text>
</g>
<g clip-path="url(#clip4801)">
<text style="fill:#000000; fill-opacity:1; font-family:Arial,Helvetica Neue,Helvetica,sans-serif; font-size:48px; text-anchor:end;" transform="rotate(0, 138.354, 367.738)" x="138.354" y="367.738">0.6</text>
</g>
<polyline clip-path="url(#clip4803)" style="stroke:#009af9; stroke-width:4; stroke-opacity:1; fill:none" points="
  219.805,1400.07 225.292,1400 276.027,1398.66 326.763,1395.02 357.252,1390.64 387.742,1383.52 413.521,1374.49 439.299,1361.85 453.301,1353.15 467.302,1343.01 
  481.304,1331.29 495.305,1317.91 508.213,1304.02 521.121,1288.63 534.029,1271.73 546.937,1253.35 574.615,1209.4 602.293,1160.52 634.36,1100.91 666.427,1042.99 
  680.676,1019.32 694.925,997.698 709.174,978.615 723.422,962.543 735.917,951.247 748.412,942.802 760.907,937.378 773.402,935.085 787.025,936.206 800.648,941.076 
  814.27,949.576 827.893,961.505 841.597,976.677 855.301,994.68 869.005,1015.1 882.708,1037.5 913.011,1091.67 943.313,1148.12 972.146,1199.86 1000.98,1246.71 
  1015.97,1268.48 1030.96,1288.29 1045.95,1306.06 1060.94,1321.8 1086.17,1343.88 1111.41,1360.9 1142.22,1375.87 1173.03,1385.82 1201.99,1391.83 1230.95,1395.58 
  1277.35,1398.7 1323.75,1399.95 1330.89,1400.05 
  "/>
<polyline clip-path="url(#clip4803)" style="stroke:#e26f46; stroke-width:4; stroke-opacity:1; fill:none" points="
  300.38,1400.07 305.867,1400 356.602,1398.66 407.337,1395.02 437.827,1390.64 468.316,1383.52 494.095,1374.49 519.874,1361.85 533.875,1353.15 547.876,1343.01 
  561.878,1331.29 575.879,1317.91 588.787,1304.02 601.695,1288.63 614.604,1271.73 627.512,1253.35 655.189,1209.4 682.867,1160.52 714.934,1100.91 747.001,1042.99 
  761.25,1019.32 775.499,997.698 789.748,978.615 803.997,962.543 816.492,951.247 828.986,942.802 841.481,937.378 853.976,935.085 867.599,936.206 881.222,941.076 
  894.845,949.576 908.468,961.505 922.171,976.677 935.875,994.68 949.579,1015.1 963.283,1037.5 993.585,1091.67 1023.89,1148.12 1052.72,1199.86 1081.55,1246.71 
  1096.54,1268.48 1111.53,1288.29 1126.52,1306.06 1141.51,1321.8 1166.75,1343.88 1191.98,1360.9 1222.79,1375.87 1253.6,1385.82 1282.56,1391.83 1311.52,1395.58 
  1357.92,1398.7 1404.32,1399.95 1411.47,1400.05 
  "/>
<polyline clip-path="url(#clip4803)" style="stroke:#3da44d; stroke-width:4; stroke-opacity:1; fill:none" points="
  391.026,1400.07 396.513,1400 447.248,1398.66 497.983,1395.02 528.473,1390.64 558.962,1383.52 584.741,1374.49 610.52,1361.85 624.521,1353.15 638.522,1343.01 
  652.524,1331.29 666.525,1317.91 679.433,1304.02 692.341,1288.63 705.25,1271.73 718.158,1253.35 745.835,1209.4 773.513,1160.52 805.58,1100.91 837.647,1042.99 
  851.896,1019.32 866.145,997.698 880.394,978.615 894.643,962.543 907.138,951.247 919.632,942.802 932.127,937.378 944.622,935.085 958.245,936.206 971.868,941.076 
  985.491,949.576 999.114,961.505 1012.82,976.677 1026.52,994.68 1040.22,1015.1 1053.93,1037.5 1084.23,1091.67 1114.53,1148.12 1143.37,1199.86 1172.2,1246.71 
  1187.19,1268.48 1202.18,1288.29 1217.17,1306.06 1232.16,1321.8 1257.39,1343.88 1282.63,1360.9 1313.44,1375.87 1344.25,1385.82 1373.21,1391.83 1402.17,1395.58 
  1448.57,1398.7 1494.97,1399.95 1502.11,1400.05 
  "/>
<polyline clip-path="url(#clip4803)" style="stroke:#c271d2; stroke-width:4; stroke-opacity:1; fill:none" points="
  622.676,1400.07 628.163,1400 678.899,1398.66 729.634,1395.02 760.123,1390.64 790.613,1383.52 816.392,1374.49 842.171,1361.85 856.172,1353.15 870.173,1343.01 
  884.175,1331.29 898.176,1317.91 911.084,1304.02 923.992,1288.63 936.9,1271.73 949.809,1253.35 977.486,1209.4 1005.16,1160.52 1037.23,1100.91 1069.3,1042.99 
  1083.55,1019.32 1097.8,997.698 1112.04,978.615 1126.29,962.543 1138.79,951.247 1151.28,942.802 1163.78,937.378 1176.27,935.085 1189.9,936.206 1203.52,941.076 
  1217.14,949.576 1230.76,961.505 1244.47,976.677 1258.17,994.68 1271.88,1015.1 1285.58,1037.5 1315.88,1091.67 1346.18,1148.12 1375.02,1199.86 1403.85,1246.71 
  1418.84,1268.48 1433.83,1288.29 1448.82,1306.06 1463.81,1321.8 1489.04,1343.88 1514.28,1360.9 1545.09,1375.87 1575.9,1385.82 1604.86,1391.83 1633.82,1395.58 
  1680.22,1398.7 1726.62,1399.95 1733.76,1400.05 
  "/>
<polyline clip-path="url(#clip4803)" style="stroke:#ac8d18; stroke-width:4; stroke-opacity:1; fill:none" points="
  944.973,1400.07 950.46,1400 1001.2,1398.66 1051.93,1395.02 1082.42,1390.64 1112.91,1383.52 1138.69,1374.49 1164.47,1361.85 1178.47,1353.15 1192.47,1343.01 
  1206.47,1331.29 1220.47,1317.91 1233.38,1304.02 1246.29,1288.63 1259.2,1271.73 1272.11,1253.35 1299.78,1209.4 1327.46,1160.52 1359.53,1100.91 1391.6,1042.99 
  1405.84,1019.32 1420.09,997.698 1434.34,978.615 1448.59,962.543 1461.09,951.247 1473.58,942.802 1486.08,937.378 1498.57,935.085 1512.19,936.206 1525.82,941.076 
  1539.44,949.576 1553.06,961.505 1566.77,976.677 1580.47,994.68 1594.17,1015.1 1607.88,1037.5 1638.18,1091.67 1668.48,1148.12 1697.31,1199.86 1726.15,1246.71 
  1741.14,1268.48 1756.12,1288.29 1771.11,1306.06 1786.1,1321.8 1811.34,1343.88 1836.57,1360.9 1867.38,1375.87 1898.19,1385.82 1927.16,1391.83 1956.12,1395.58 
  2002.52,1398.7 2048.92,1399.95 2056.06,1400.05 
  "/>
<polyline clip-path="url(#clip4803)" style="stroke:#00a9ad; stroke-width:4; stroke-opacity:1; fill:none" points="
  1055.76,1400.07 1061.25,1400 1111.99,1398.66 1162.72,1395.02 1193.21,1390.64 1223.7,1383.52 1249.48,1374.49 1275.26,1361.85 1289.26,1353.15 1303.26,1343.01 
  1317.26,1331.29 1331.26,1317.91 1344.17,1304.02 1357.08,1288.63 1369.99,1271.73 1382.89,1253.35 1410.57,1209.4 1438.25,1160.52 1470.32,1100.91 1502.38,1042.99 
  1516.63,1019.32 1530.88,997.698 1545.13,978.615 1559.38,962.543 1571.87,951.247 1584.37,942.802 1596.86,937.378 1609.36,935.085 1622.98,936.206 1636.61,941.076 
  1650.23,949.576 1663.85,961.505 1677.55,976.677 1691.26,994.68 1704.96,1015.1 1718.67,1037.5 1748.97,1091.67 1779.27,1148.12 1808.1,1199.86 1836.94,1246.71 
  1851.92,1268.48 1866.91,1288.29 1881.9,1306.06 1896.89,1321.8 1922.13,1343.88 1947.36,1360.9 1978.17,1375.87 2008.98,1385.82 2037.95,1391.83 2066.91,1395.58 
  2113.31,1398.7 2159.71,1399.95 2166.85,1400.05 
  "/>
<polyline clip-path="url(#clip4803)" style="stroke:#ed5d92; stroke-width:4; stroke-opacity:1; fill:none" points="
  282.658,1397.99 300.97,1396.71 319.283,1394.88 337.595,1392.31 355.907,1388.75 374.219,1383.9 392.532,1377.38 410.844,1368.76 429.156,1357.53 447.469,1343.12 
  465.781,1324.93 484.093,1302.3 502.406,1274.6 520.718,1241.23 539.03,1201.65 557.343,1155.47 575.655,1102.46 593.967,1042.62 612.28,976.208 630.592,903.796 
  648.904,826.256 667.217,744.778 685.529,660.845 703.841,576.189 722.154,492.729 740.466,412.486 758.778,337.492 777.091,269.682 795.403,210.796 813.715,162.28 
  832.028,125.203 850.34,100.204 868.652,87.4513 886.965,86.6468 905.277,97.0494 923.589,117.533 941.902,146.67 960.214,182.826 978.526,224.272 996.839,269.292 
  1015.15,316.281 1033.46,363.826 1051.78,410.764 1070.09,456.204 1088.4,499.529 1106.71,540.357 1125.02,578.495 1143.34,613.862 1161.65,646.419 1179.96,676.099 
  1198.27,702.749 1216.59,726.103 1234.9,745.766 1253.21,761.244 1271.52,771.984 1289.84,777.443 1308.15,777.17 1326.46,770.884 1344.77,758.551 1363.08,740.443 
  1381.4,717.174 1399.71,689.707 1418.02,659.327 1436.33,627.594 1454.65,596.257 1472.96,567.162 1491.27,542.137 1509.58,522.889 1527.9,510.889 1546.21,507.294 
  1564.52,512.871 1582.83,527.964 1601.15,552.477 1619.46,585.894 1637.77,627.321 1656.08,675.553 1674.39,729.154 1692.71,786.55 1711.02,846.118 1729.33,906.275 
  1747.64,965.553 1765.96,1022.67 1784.27,1076.55 1802.58,1126.38 1820.89,1171.61 1839.21,1211.9 1857.52,1247.18 1875.83,1277.53 1894.14,1303.2 1912.45,1324.56 
  1930.77,1342.04 1949.08,1356.12 1967.39,1367.28 1985.7,1375.98 2004.02,1382.66 2022.33,1387.71 2040.64,1391.47 2058.95,1394.22 2077.27,1396.2 2095.58,1397.61 
  
  "/>
</svg>
