<?xml version="1.0" encoding="utf-8"?>
<svg xmlns="http://www.w3.org/2000/svg" xmlns:xlink="http://www.w3.org/1999/xlink" width="576" height="384" viewBox="0 0 2304 1536">
<defs>
  <clipPath id="clip2800">
    <rect x="0" y="0" width="2000" height="2000"/>
  </clipPath>
</defs>
<defs>
  <clipPath id="clip2801">
    <rect x="0" y="0" width="2304" height="1536"/>
  </clipPath>
</defs>
<polygon clip-path="url(#clip2801)" points="
0,1536 2304,1536 2304,0 0,0 
  " fill="#ffffff" fill-rule="evenodd" fill-opacity="1"/>
<defs>
  <clipPath id="clip2802">
    <rect x="460" y="0" width="1614" height="1536"/>
  </clipPath>
</defs>
<polygon clip-path="url(#clip2801)" points="
188.156,1439.47 2225.26,1439.47 2225.26,47.2441 188.156,47.2441 
  " fill="#ffffff" fill-rule="evenodd" fill-opacity="1"/>
<defs>
  <clipPath id="clip2803">
    <rect x="188" y="47" width="2038" height="1393"/>
  </clipPath>
</defs>
<polyline clip-path="url(#clip2803)" style="stroke:#000000; stroke-width:2; stroke-opacity:0.1; fill:none" points="
  459.343,1439.47 459.343,47.2441 
  "/>
<polyline clip-path="url(#clip2803)" style="stroke:#000000; stroke-width:2; stroke-opacity:0.1; fill:none" points="
  993.175,1439.47 993.175,47.2441 
  "/>
<polyline clip-path="url(#clip2803)" style="stroke:#000000; stroke-width:2; stroke-opacity:0.1; fill:none" points="
  1527.01,1439.47 1527.01,47.2441 
  "/>
<polyline clip-path="url(#clip2803)" style="stroke:#000000; stroke-width:2; stroke-opacity:0.1; fill:none" points="
  2060.84,1439.47 2060.84,47.2441 
  "/>
<polyline clip-path="url(#clip2803)" style="stroke:#000000; stroke-width:2; stroke-opacity:0.1; fill:none" points="
  188.156,1402.69 2225.26,1402.69 
  "/>
<polyline clip-path="url(#clip2803)" style="stroke:#000000; stroke-width:2; stroke-opacity:0.1; fill:none" points="
  188.156,1192.28 2225.26,1192.28 
  "/>
<polyline clip-path="url(#clip2803)" style="stroke:#000000; stroke-width:2; stroke-opacity:0.1; fill:none" points="
  188.156,981.876 2225.26,981.876 
  "/>
<polyline clip-path="url(#clip2803)" style="stroke:#000000; stroke-width:2; stroke-opacity:0.1; fill:none" points="
  188.156,771.469 2225.26,771.469 
  "/>
<polyline clip-path="url(#clip2803)" style="stroke:#000000; stroke-width:2; stroke-opacity:0.1; fill:none" points="
  188.156,561.063 2225.26,561.063 
  "/>
<polyline clip-path="url(#clip2803)" style="stroke:#000000; stroke-width:2; stroke-opacity:0.1; fill:none" points="
  188.156,350.656 2225.26,350.656 
  "/>
<polyline clip-path="url(#clip2803)" style="stroke:#000000; stroke-width:2; stroke-opacity:0.1; fill:none" points="
  188.156,140.25 2225.26,140.25 
  "/>
<polyline clip-path="url(#clip2801)" style="stroke:#000000; stroke-width:4; stroke-opacity:1; fill:none" points="
  188.156,1439.47 2225.26,1439.47 
  "/>
<polyline clip-path="url(#clip2801)" style="stroke:#000000; stroke-width:4; stroke-opacity:1; fill:none" points="
  188.156,1439.47 188.156,47.2441 
  "/>
<polyline clip-path="url(#clip2801)" style="stroke:#000000; stroke-width:4; stroke-opacity:1; fill:none" points="
  459.343,1439.47 459.343,1418.59 
  "/>
<polyline clip-path="url(#clip2801)" style="stroke:#000000; stroke-width:4; stroke-opacity:1; fill:none" points="
  993.175,1439.47 993.175,1418.59 
  "/>
<polyline clip-path="url(#clip2801)" style="stroke:#000000; stroke-width:4; stroke-opacity:1; fill:none" points="
  1527.01,1439.47 1527.01,1418.59 
  "/>
<polyline clip-path="url(#clip2801)" style="stroke:#000000; stroke-width:4; stroke-opacity:1; fill:none" points="
  2060.84,1439.47 2060.84,1418.59 
  "/>
<polyline clip-path="url(#clip2801)" style="stroke:#000000; stroke-width:4; stroke-opacity:1; fill:none" points="
  188.156,1402.69 218.713,1402.69 
  "/>
<polyline clip-path="url(#clip2801)" style="stroke:#000000; stroke-width:4; stroke-opacity:1; fill:none" points="
  188.156,1192.28 218.713,1192.28 
  "/>
<polyline clip-path="url(#clip2801)" style="stroke:#000000; stroke-width:4; stroke-opacity:1; fill:none" points="
  188.156,981.876 218.713,981.876 
  "/>
<polyline clip-path="url(#clip2801)" style="stroke:#000000; stroke-width:4; stroke-opacity:1; fill:none" points="
  188.156,771.469 218.713,771.469 
  "/>
<polyline clip-path="url(#clip2801)" style="stroke:#000000; stroke-width:4; stroke-opacity:1; fill:none" points="
  188.156,561.063 218.713,561.063 
  "/>
<polyline clip-path="url(#clip2801)" style="stroke:#000000; stroke-width:4; stroke-opacity:1; fill:none" points="
  188.156,350.656 218.713,350.656 
  "/>
<polyline clip-path="url(#clip2801)" style="stroke:#000000; stroke-width:4; stroke-opacity:1; fill:none" points="
  188.156,140.25 218.713,140.25 
  "/>
<g clip-path="url(#clip2801)">
<text style="fill:#000000; fill-opacity:1; font-family:Arial,Helvetica Neue,Helvetica,sans-serif; font-size:48px; text-anchor:middle;" transform="rotate(0, 459.343, 1492.99)" x="459.343" y="1492.99">-5</text>
</g>
<g clip-path="url(#clip2801)">
<text style="fill:#000000; fill-opacity:1; font-family:Arial,Helvetica Neue,Helvetica,sans-serif; font-size:48px; text-anchor:middle;" transform="rotate(0, 993.175, 1492.99)" x="993.175" y="1492.99">0</text>
</g>
<g clip-path="url(#clip2801)">
<text style="fill:#000000; fill-opacity:1; font-family:Arial,Helvetica Neue,Helvetica,sans-serif; font-size:48px; text-anchor:middle;" transform="rotate(0, 1527.01, 1492.99)" x="1527.01" y="1492.99">5</text>
</g>
<g clip-path="url(#clip2801)">
<text style="fill:#000000; fill-opacity:1; font-family:Arial,Helvetica Neue,Helvetica,sans-serif; font-size:48px; text-anchor:middle;" transform="rotate(0, 2060.84, 1492.99)" x="2060.84" y="1492.99">10</text>
</g>
<g clip-path="url(#clip2801)">
<text style="fill:#000000; fill-opacity:1; font-family:Arial,Helvetica Neue,Helvetica,sans-serif; font-size:48px; text-anchor:end;" transform="rotate(0, 165.116, 1420.19)" x="165.116" y="1420.19">0.00</text>
</g>
<g clip-path="url(#clip2801)">
<text style="fill:#000000; fill-opacity:1; font-family:Arial,Helvetica Neue,Helvetica,sans-serif; font-size:48px; text-anchor:end;" transform="rotate(0, 165.116, 1209.78)" x="165.116" y="1209.78">0.02</text>
</g>
<g clip-path="url(#clip2801)">
<text style="fill:#000000; fill-opacity:1; font-family:Arial,Helvetica Neue,Helvetica,sans-serif; font-size:48px; text-anchor:end;" transform="rotate(0, 165.116, 999.376)" x="165.116" y="999.376">0.04</text>
</g>
<g clip-path="url(#clip2801)">
<text style="fill:#000000; fill-opacity:1; font-family:Arial,Helvetica Neue,Helvetica,sans-serif; font-size:48px; text-anchor:end;" transform="rotate(0, 165.116, 788.969)" x="165.116" y="788.969">0.06</text>
</g>
<g clip-path="url(#clip2801)">
<text style="fill:#000000; fill-opacity:1; font-family:Arial,Helvetica Neue,Helvetica,sans-serif; font-size:48px; text-anchor:end;" transform="rotate(0, 165.116, 578.563)" x="165.116" y="578.563">0.08</text>
</g>
<g clip-path="url(#clip2801)">
<text style="fill:#000000; fill-opacity:1; font-family:Arial,Helvetica Neue,Helvetica,sans-serif; font-size:48px; text-anchor:end;" transform="rotate(0, 165.116, 368.156)" x="165.116" y="368.156">0.10</text>
</g>
<g clip-path="url(#clip2801)">
<text style="fill:#000000; fill-opacity:1; font-family:Arial,Helvetica Neue,Helvetica,sans-serif; font-size:48px; text-anchor:end;" transform="rotate(0, 165.116, 157.75)" x="165.116" y="157.75">0.12</text>
</g>
<polyline clip-path="url(#clip2803)" style="stroke:#009af9; stroke-width:4; stroke-opacity:1; fill:none" points="
  245.81,1400.07 265.222,1398.79 284.634,1396.96 304.046,1394.38 323.459,1390.82 342.871,1385.96 362.283,1379.43 381.695,1370.8 401.107,1359.55 420.519,1345.12 
  439.931,1326.9 459.343,1304.23 478.755,1276.49 498.167,1243.07 517.579,1203.42 536.991,1157.17 556.403,1104.07 575.816,1044.13 595.228,977.622 614.64,905.095 
  634.052,827.431 653.464,745.824 672.876,661.757 692.288,576.967 711.7,493.374 731.112,413.004 750.524,337.89 769.936,269.973 789.348,210.994 808.761,162.4 
  828.173,125.265 847.585,100.225 866.997,87.4526 886.409,86.6468 905.821,97.066 925.233,117.583 944.645,146.766 964.057,182.979 983.469,224.491 1002.88,269.582 
  1022.29,316.646 1041.71,364.267 1061.12,411.279 1080.53,456.792 1099.94,500.185 1119.35,541.078 1138.77,579.277 1158.18,614.7 1177.59,647.309 1197,677.036 
  1216.41,703.729 1235.83,727.119 1255.24,746.814 1274.65,762.316 1294.06,773.073 1313.47,778.541 1332.89,778.268 1352.3,771.972 1371.71,759.619 1391.12,741.482 
  1410.53,718.176 1429.95,690.665 1449.36,660.237 1468.77,628.454 1488.18,597.067 1507.6,567.925 1527.01,542.861 1546.42,523.582 1565.83,511.563 1585.24,507.962 
  1604.66,513.549 1624.07,528.666 1643.48,553.218 1662.89,586.688 1682.3,628.18 1701.72,676.489 1721.13,730.176 1740.54,787.663 1759.95,847.325 1779.36,907.577 
  1798.78,966.95 1818.19,1024.15 1837.6,1078.12 1857.01,1128.04 1876.42,1173.33 1895.84,1213.69 1915.25,1249.02 1934.66,1279.42 1954.07,1305.14 1973.49,1326.53 
  1992.9,1344.04 2012.31,1358.14 2031.72,1369.31 2051.13,1378.03 2070.55,1384.72 2089.96,1389.78 2109.37,1393.54 2128.78,1396.3 2148.19,1398.29 2167.61,1399.7 
  
  "/>
</svg>
