<?xml version="1.0" encoding="utf-8"?>
<svg xmlns="http://www.w3.org/2000/svg" xmlns:xlink="http://www.w3.org/1999/xlink" width="576" height="384" viewBox="0 0 2304 1536">
<defs>
  <clipPath id="clip8100">
    <rect x="0" y="0" width="2304" height="1536"/>
  </clipPath>
</defs>
<path clip-path="url(#clip8100)" d="
M0 1536 L2304 1536 L2304 0 L0 0  Z
  " fill="#ffffff" fill-rule="evenodd" fill-opacity="1"/>
<defs>
  <clipPath id="clip8101">
    <rect x="460" y="0" width="1614" height="1536"/>
  </clipPath>
</defs>
<path clip-path="url(#clip8100)" d="
M241.556 1362.26 L2256.76 1362.26 L2256.76 47.2441 L241.556 47.2441  Z
  " fill="#ffffff" fill-rule="evenodd" fill-opacity="1"/>
<defs>
  <clipPath id="clip8102">
    <rect x="241" y="47" width="2016" height="1316"/>
  </clipPath>
</defs>
<polyline clip-path="url(#clip8102)" style="stroke:#000000; stroke-width:2; stroke-opacity:0.1; fill:none" points="
  291.913,1362.26 291.913,47.2441 
  "/>
<polyline clip-path="url(#clip8102)" style="stroke:#000000; stroke-width:2; stroke-opacity:0.1; fill:none" points="
  768.865,1362.26 768.865,47.2441 
  "/>
<polyline clip-path="url(#clip8102)" style="stroke:#000000; stroke-width:2; stroke-opacity:0.1; fill:none" points="
  1245.82,1362.26 1245.82,47.2441 
  "/>
<polyline clip-path="url(#clip8102)" style="stroke:#000000; stroke-width:2; stroke-opacity:0.1; fill:none" points="
  1722.77,1362.26 1722.77,47.2441 
  "/>
<polyline clip-path="url(#clip8102)" style="stroke:#000000; stroke-width:2; stroke-opacity:0.1; fill:none" points="
  2199.72,1362.26 2199.72,47.2441 
  "/>
<polyline clip-path="url(#clip8102)" style="stroke:#000000; stroke-width:2; stroke-opacity:0.1; fill:none" points="
  241.556,1339.27 2256.76,1339.27 
  "/>
<polyline clip-path="url(#clip8102)" style="stroke:#000000; stroke-width:2; stroke-opacity:0.1; fill:none" points="
  241.556,1025.55 2256.76,1025.55 
  "/>
<polyline clip-path="url(#clip8102)" style="stroke:#000000; stroke-width:2; stroke-opacity:0.1; fill:none" points="
  241.556,711.829 2256.76,711.829 
  "/>
<polyline clip-path="url(#clip8102)" style="stroke:#000000; stroke-width:2; stroke-opacity:0.1; fill:none" points="
  241.556,398.109 2256.76,398.109 
  "/>
<polyline clip-path="url(#clip8102)" style="stroke:#000000; stroke-width:2; stroke-opacity:0.1; fill:none" points="
  241.556,84.3895 2256.76,84.3895 
  "/>
<polyline clip-path="url(#clip8100)" style="stroke:#000000; stroke-width:4; stroke-opacity:1; fill:none" points="
  241.556,1362.26 2256.76,1362.26 
  "/>
<polyline clip-path="url(#clip8100)" style="stroke:#000000; stroke-width:4; stroke-opacity:1; fill:none" points="
  241.556,1362.26 241.556,47.2441 
  "/>
<polyline clip-path="url(#clip8100)" style="stroke:#000000; stroke-width:4; stroke-opacity:1; fill:none" points="
  291.913,1362.26 291.913,1342.53 
  "/>
<polyline clip-path="url(#clip8100)" style="stroke:#000000; stroke-width:4; stroke-opacity:1; fill:none" points="
  768.865,1362.26 768.865,1342.53 
  "/>
<polyline clip-path="url(#clip8100)" style="stroke:#000000; stroke-width:4; stroke-opacity:1; fill:none" points="
  1245.82,1362.26 1245.82,1342.53 
  "/>
<polyline clip-path="url(#clip8100)" style="stroke:#000000; stroke-width:4; stroke-opacity:1; fill:none" points="
  1722.77,1362.26 1722.77,1342.53 
  "/>
<polyline clip-path="url(#clip8100)" style="stroke:#000000; stroke-width:4; stroke-opacity:1; fill:none" points="
  2199.72,1362.26 2199.72,1342.53 
  "/>
<polyline clip-path="url(#clip8100)" style="stroke:#000000; stroke-width:4; stroke-opacity:1; fill:none" points="
  241.556,1339.27 271.784,1339.27 
  "/>
<polyline clip-path="url(#clip8100)" style="stroke:#000000; stroke-width:4; stroke-opacity:1; fill:none" points="
  241.556,1025.55 271.784,1025.55 
  "/>
<polyline clip-path="url(#clip8100)" style="stroke:#000000; stroke-width:4; stroke-opacity:1; fill:none" points="
  241.556,711.829 271.784,711.829 
  "/>
<polyline clip-path="url(#clip8100)" style="stroke:#000000; stroke-width:4; stroke-opacity:1; fill:none" points="
  241.556,398.109 271.784,398.109 
  "/>
<polyline clip-path="url(#clip8100)" style="stroke:#000000; stroke-width:4; stroke-opacity:1; fill:none" points="
  241.556,84.3895 271.784,84.3895 
  "/>
<g clip-path="url(#clip8100)">
<text style="fill:#000000; fill-opacity:1; font-family:Arial,Helvetica Neue,Helvetica,sans-serif; font-size:48px; text-anchor:middle;" transform="rotate(0, 291.913, 1415.78)" x="291.913" y="1415.78">0</text>
</g>
<g clip-path="url(#clip8100)">
<text style="fill:#000000; fill-opacity:1; font-family:Arial,Helvetica Neue,Helvetica,sans-serif; font-size:48px; text-anchor:middle;" transform="rotate(0, 768.865, 1415.78)" x="768.865" y="1415.78">20</text>
</g>
<g clip-path="url(#clip8100)">
<text style="fill:#000000; fill-opacity:1; font-family:Arial,Helvetica Neue,Helvetica,sans-serif; font-size:48px; text-anchor:middle;" transform="rotate(0, 1245.82, 1415.78)" x="1245.82" y="1415.78">40</text>
</g>
<g clip-path="url(#clip8100)">
<text style="fill:#000000; fill-opacity:1; font-family:Arial,Helvetica Neue,Helvetica,sans-serif; font-size:48px; text-anchor:middle;" transform="rotate(0, 1722.77, 1415.78)" x="1722.77" y="1415.78">60</text>
</g>
<g clip-path="url(#clip8100)">
<text style="fill:#000000; fill-opacity:1; font-family:Arial,Helvetica Neue,Helvetica,sans-serif; font-size:48px; text-anchor:middle;" transform="rotate(0, 2199.72, 1415.78)" x="2199.72" y="1415.78">80</text>
</g>
<g clip-path="url(#clip8100)">
<text style="fill:#000000; fill-opacity:1; font-family:Arial,Helvetica Neue,Helvetica,sans-serif; font-size:48px; text-anchor:end;" transform="rotate(0, 218.516, 1356.77)" x="218.516" y="1356.77">0.00</text>
</g>
<g clip-path="url(#clip8100)">
<text style="fill:#000000; fill-opacity:1; font-family:Arial,Helvetica Neue,Helvetica,sans-serif; font-size:48px; text-anchor:end;" transform="rotate(0, 218.516, 1043.05)" x="218.516" y="1043.05">0.25</text>
</g>
<g clip-path="url(#clip8100)">
<text style="fill:#000000; fill-opacity:1; font-family:Arial,Helvetica Neue,Helvetica,sans-serif; font-size:48px; text-anchor:end;" transform="rotate(0, 218.516, 729.329)" x="218.516" y="729.329">0.50</text>
</g>
<g clip-path="url(#clip8100)">
<text style="fill:#000000; fill-opacity:1; font-family:Arial,Helvetica Neue,Helvetica,sans-serif; font-size:48px; text-anchor:end;" transform="rotate(0, 218.516, 415.609)" x="218.516" y="415.609">0.75</text>
</g>
<g clip-path="url(#clip8100)">
<text style="fill:#000000; fill-opacity:1; font-family:Arial,Helvetica Neue,Helvetica,sans-serif; font-size:48px; text-anchor:end;" transform="rotate(0, 218.516, 101.889)" x="218.516" y="101.889">1.00</text>
</g>
<g clip-path="url(#clip8100)">
<text style="fill:#000000; fill-opacity:1; font-family:Arial,Helvetica Neue,Helvetica,sans-serif; font-size:66px; text-anchor:middle;" transform="rotate(0, 1249.16, 1495.16)" x="1249.16" y="1495.16">Distance from hole (ft)</text>
</g>
<g clip-path="url(#clip8100)">
<text style="fill:#000000; fill-opacity:1; font-family:Arial,Helvetica Neue,Helvetica,sans-serif; font-size:66px; text-anchor:middle;" transform="rotate(-90, 90.2461, 704.751)" x="90.2461" y="704.751">Probability of Success</text>
</g>
<circle clip-path="url(#clip8102)" style="fill:#000000; stroke:none; fill-opacity:1" cx="339.608" cy="168.744" r="18"/>
<circle clip-path="url(#clip8102)" style="fill:#009af9; stroke:none; fill-opacity:1" cx="339.608" cy="168.744" r="14"/>
<circle clip-path="url(#clip8102)" style="fill:#000000; stroke:none; fill-opacity:1" cx="363.456" cy="295.947" r="18"/>
<circle clip-path="url(#clip8102)" style="fill:#009af9; stroke:none; fill-opacity:1" cx="363.456" cy="295.947" r="14"/>
<circle clip-path="url(#clip8102)" style="fill:#000000; stroke:none; fill-opacity:1" cx="387.303" cy="409.831" r="18"/>
<circle clip-path="url(#clip8102)" style="fill:#009af9; stroke:none; fill-opacity:1" cx="387.303" cy="409.831" r="14"/>
<circle clip-path="url(#clip8102)" style="fill:#000000; stroke:none; fill-opacity:1" cx="411.151" cy="599.85" r="18"/>
<circle clip-path="url(#clip8102)" style="fill:#009af9; stroke:none; fill-opacity:1" cx="411.151" cy="599.85" r="14"/>
<circle clip-path="url(#clip8102)" style="fill:#000000; stroke:none; fill-opacity:1" cx="434.999" cy="651.853" r="18"/>
<circle clip-path="url(#clip8102)" style="fill:#009af9; stroke:none; fill-opacity:1" cx="434.999" cy="651.853" r="14"/>
<circle clip-path="url(#clip8102)" style="fill:#000000; stroke:none; fill-opacity:1" cx="458.846" cy="672.614" r="18"/>
<circle clip-path="url(#clip8102)" style="fill:#009af9; stroke:none; fill-opacity:1" cx="458.846" cy="672.614" r="14"/>
<circle clip-path="url(#clip8102)" style="fill:#000000; stroke:none; fill-opacity:1" cx="482.694" cy="758.887" r="18"/>
<circle clip-path="url(#clip8102)" style="fill:#009af9; stroke:none; fill-opacity:1" cx="482.694" cy="758.887" r="14"/>
<circle clip-path="url(#clip8102)" style="fill:#000000; stroke:none; fill-opacity:1" cx="506.542" cy="940.252" r="18"/>
<circle clip-path="url(#clip8102)" style="fill:#009af9; stroke:none; fill-opacity:1" cx="506.542" cy="940.252" r="14"/>
<circle clip-path="url(#clip8102)" style="fill:#000000; stroke:none; fill-opacity:1" cx="530.389" cy="918.884" r="18"/>
<circle clip-path="url(#clip8102)" style="fill:#009af9; stroke:none; fill-opacity:1" cx="530.389" cy="918.884" r="14"/>
<circle clip-path="url(#clip8102)" style="fill:#000000; stroke:none; fill-opacity:1" cx="554.237" cy="942.155" r="18"/>
<circle clip-path="url(#clip8102)" style="fill:#009af9; stroke:none; fill-opacity:1" cx="554.237" cy="942.155" r="14"/>
<circle clip-path="url(#clip8102)" style="fill:#000000; stroke:none; fill-opacity:1" cx="578.084" cy="1016.23" r="18"/>
<circle clip-path="url(#clip8102)" style="fill:#009af9; stroke:none; fill-opacity:1" cx="578.084" cy="1016.23" r="14"/>
<circle clip-path="url(#clip8102)" style="fill:#000000; stroke:none; fill-opacity:1" cx="601.932" cy="1038.62" r="18"/>
<circle clip-path="url(#clip8102)" style="fill:#009af9; stroke:none; fill-opacity:1" cx="601.932" cy="1038.62" r="14"/>
<circle clip-path="url(#clip8102)" style="fill:#000000; stroke:none; fill-opacity:1" cx="625.78" cy="949.824" r="18"/>
<circle clip-path="url(#clip8102)" style="fill:#009af9; stroke:none; fill-opacity:1" cx="625.78" cy="949.824" r="14"/>
<circle clip-path="url(#clip8102)" style="fill:#000000; stroke:none; fill-opacity:1" cx="649.627" cy="1128.87" r="18"/>
<circle clip-path="url(#clip8102)" style="fill:#009af9; stroke:none; fill-opacity:1" cx="649.627" cy="1128.87" r="14"/>
<circle clip-path="url(#clip8102)" style="fill:#000000; stroke:none; fill-opacity:1" cx="673.475" cy="1170.7" r="18"/>
<circle clip-path="url(#clip8102)" style="fill:#009af9; stroke:none; fill-opacity:1" cx="673.475" cy="1170.7" r="14"/>
<circle clip-path="url(#clip8102)" style="fill:#000000; stroke:none; fill-opacity:1" cx="697.322" cy="1139.78" r="18"/>
<circle clip-path="url(#clip8102)" style="fill:#009af9; stroke:none; fill-opacity:1" cx="697.322" cy="1139.78" r="14"/>
<circle clip-path="url(#clip8102)" style="fill:#000000; stroke:none; fill-opacity:1" cx="721.17" cy="1122.46" r="18"/>
<circle clip-path="url(#clip8102)" style="fill:#009af9; stroke:none; fill-opacity:1" cx="721.17" cy="1122.46" r="14"/>
<circle clip-path="url(#clip8102)" style="fill:#000000; stroke:none; fill-opacity:1" cx="745.018" cy="1168.54" r="18"/>
<circle clip-path="url(#clip8102)" style="fill:#009af9; stroke:none; fill-opacity:1" cx="745.018" cy="1168.54" r="14"/>
<circle clip-path="url(#clip8102)" style="fill:#000000; stroke:none; fill-opacity:1" cx="768.865" cy="1141.13" r="18"/>
<circle clip-path="url(#clip8102)" style="fill:#009af9; stroke:none; fill-opacity:1" cx="768.865" cy="1141.13" r="14"/>
<circle clip-path="url(#clip8102)" style="fill:#000000; stroke:none; fill-opacity:1" cx="298.59" cy="84.806" r="18"/>
<circle clip-path="url(#clip8102)" style="fill:#e26f46; stroke:none; fill-opacity:1" cx="298.59" cy="84.806" r="14"/>
<circle clip-path="url(#clip8102)" style="fill:#000000; stroke:none; fill-opacity:1" cx="315.045" cy="85.2191" r="18"/>
<circle clip-path="url(#clip8102)" style="fill:#e26f46; stroke:none; fill-opacity:1" cx="315.045" cy="85.2191" r="14"/>
<circle clip-path="url(#clip8102)" style="fill:#000000; stroke:none; fill-opacity:1" cx="337.939" cy="91.1191" r="18"/>
<circle clip-path="url(#clip8102)" style="fill:#e26f46; stroke:none; fill-opacity:1" cx="337.939" cy="91.1191" r="14"/>
<circle clip-path="url(#clip8102)" style="fill:#000000; stroke:none; fill-opacity:1" cx="361.548" cy="130.338" r="18"/>
<circle clip-path="url(#clip8102)" style="fill:#e26f46; stroke:none; fill-opacity:1" cx="361.548" cy="130.338" r="14"/>
<circle clip-path="url(#clip8102)" style="fill:#000000; stroke:none; fill-opacity:1" cx="385.634" cy="239.264" r="18"/>
<circle clip-path="url(#clip8102)" style="fill:#e26f46; stroke:none; fill-opacity:1" cx="385.634" cy="239.264" r="14"/>
<circle clip-path="url(#clip8102)" style="fill:#000000; stroke:none; fill-opacity:1" cx="409.72" cy="377.956" r="18"/>
<circle clip-path="url(#clip8102)" style="fill:#e26f46; stroke:none; fill-opacity:1" cx="409.72" cy="377.956" r="14"/>
<circle clip-path="url(#clip8102)" style="fill:#000000; stroke:none; fill-opacity:1" cx="433.568" cy="515.983" r="18"/>
<circle clip-path="url(#clip8102)" style="fill:#e26f46; stroke:none; fill-opacity:1" cx="433.568" cy="515.983" r="14"/>
<circle clip-path="url(#clip8102)" style="fill:#000000; stroke:none; fill-opacity:1" cx="457.654" cy="616.689" r="18"/>
<circle clip-path="url(#clip8102)" style="fill:#e26f46; stroke:none; fill-opacity:1" cx="457.654" cy="616.689" r="14"/>
<circle clip-path="url(#clip8102)" style="fill:#000000; stroke:none; fill-opacity:1" cx="481.502" cy="712.678" r="18"/>
<circle clip-path="url(#clip8102)" style="fill:#e26f46; stroke:none; fill-opacity:1" cx="481.502" cy="712.678" r="14"/>
<circle clip-path="url(#clip8102)" style="fill:#000000; stroke:none; fill-opacity:1" cx="505.349" cy="789.761" r="18"/>
<circle clip-path="url(#clip8102)" style="fill:#e26f46; stroke:none; fill-opacity:1" cx="505.349" cy="789.761" r="14"/>
<circle clip-path="url(#clip8102)" style="fill:#000000; stroke:none; fill-opacity:1" cx="529.197" cy="854.617" r="18"/>
<circle clip-path="url(#clip8102)" style="fill:#e26f46; stroke:none; fill-opacity:1" cx="529.197" cy="854.617" r="14"/>
<circle clip-path="url(#clip8102)" style="fill:#000000; stroke:none; fill-opacity:1" cx="553.044" cy="907.314" r="18"/>
<circle clip-path="url(#clip8102)" style="fill:#e26f46; stroke:none; fill-opacity:1" cx="553.044" cy="907.314" r="14"/>
<circle clip-path="url(#clip8102)" style="fill:#000000; stroke:none; fill-opacity:1" cx="576.892" cy="947.718" r="18"/>
<circle clip-path="url(#clip8102)" style="fill:#e26f46; stroke:none; fill-opacity:1" cx="576.892" cy="947.718" r="14"/>
<circle clip-path="url(#clip8102)" style="fill:#000000; stroke:none; fill-opacity:1" cx="600.74" cy="986.437" r="18"/>
<circle clip-path="url(#clip8102)" style="fill:#e26f46; stroke:none; fill-opacity:1" cx="600.74" cy="986.437" r="14"/>
<circle clip-path="url(#clip8102)" style="fill:#000000; stroke:none; fill-opacity:1" cx="636.034" cy="1040.87" r="18"/>
<circle clip-path="url(#clip8102)" style="fill:#e26f46; stroke:none; fill-opacity:1" cx="636.034" cy="1040.87" r="14"/>
<circle clip-path="url(#clip8102)" style="fill:#000000; stroke:none; fill-opacity:1" cx="683.729" cy="1086.41" r="18"/>
<circle clip-path="url(#clip8102)" style="fill:#e26f46; stroke:none; fill-opacity:1" cx="683.729" cy="1086.41" r="14"/>
<circle clip-path="url(#clip8102)" style="fill:#000000; stroke:none; fill-opacity:1" cx="731.663" cy="1129.02" r="18"/>
<circle clip-path="url(#clip8102)" style="fill:#e26f46; stroke:none; fill-opacity:1" cx="731.663" cy="1129.02" r="14"/>
<circle clip-path="url(#clip8102)" style="fill:#000000; stroke:none; fill-opacity:1" cx="779.358" cy="1157.96" r="18"/>
<circle clip-path="url(#clip8102)" style="fill:#e26f46; stroke:none; fill-opacity:1" cx="779.358" cy="1157.96" r="14"/>
<circle clip-path="url(#clip8102)" style="fill:#000000; stroke:none; fill-opacity:1" cx="815.368" cy="1183.62" r="18"/>
<circle clip-path="url(#clip8102)" style="fill:#e26f46; stroke:none; fill-opacity:1" cx="815.368" cy="1183.62" r="14"/>
<circle clip-path="url(#clip8102)" style="fill:#000000; stroke:none; fill-opacity:1" cx="873.556" cy="1210.82" r="18"/>
<circle clip-path="url(#clip8102)" style="fill:#e26f46; stroke:none; fill-opacity:1" cx="873.556" cy="1210.82" r="14"/>
<circle clip-path="url(#clip8102)" style="fill:#000000; stroke:none; fill-opacity:1" cx="969.185" cy="1241.94" r="18"/>
<circle clip-path="url(#clip8102)" style="fill:#e26f46; stroke:none; fill-opacity:1" cx="969.185" cy="1241.94" r="14"/>
<circle clip-path="url(#clip8102)" style="fill:#000000; stroke:none; fill-opacity:1" cx="1064.34" cy="1260.11" r="18"/>
<circle clip-path="url(#clip8102)" style="fill:#e26f46; stroke:none; fill-opacity:1" cx="1064.34" cy="1260.11" r="14"/>
<circle clip-path="url(#clip8102)" style="fill:#000000; stroke:none; fill-opacity:1" cx="1159.73" cy="1274.23" r="18"/>
<circle clip-path="url(#clip8102)" style="fill:#e26f46; stroke:none; fill-opacity:1" cx="1159.73" cy="1274.23" r="14"/>
<circle clip-path="url(#clip8102)" style="fill:#000000; stroke:none; fill-opacity:1" cx="1254.64" cy="1287.88" r="18"/>
<circle clip-path="url(#clip8102)" style="fill:#e26f46; stroke:none; fill-opacity:1" cx="1254.64" cy="1287.88" r="14"/>
<circle clip-path="url(#clip8102)" style="fill:#000000; stroke:none; fill-opacity:1" cx="1350.27" cy="1295.36" r="18"/>
<circle clip-path="url(#clip8102)" style="fill:#e26f46; stroke:none; fill-opacity:1" cx="1350.27" cy="1295.36" r="14"/>
<circle clip-path="url(#clip8102)" style="fill:#000000; stroke:none; fill-opacity:1" cx="1445.42" cy="1306.11" r="18"/>
<circle clip-path="url(#clip8102)" style="fill:#e26f46; stroke:none; fill-opacity:1" cx="1445.42" cy="1306.11" r="14"/>
<circle clip-path="url(#clip8102)" style="fill:#000000; stroke:none; fill-opacity:1" cx="1540.57" cy="1305.98" r="18"/>
<circle clip-path="url(#clip8102)" style="fill:#e26f46; stroke:none; fill-opacity:1" cx="1540.57" cy="1305.98" r="14"/>
<circle clip-path="url(#clip8102)" style="fill:#000000; stroke:none; fill-opacity:1" cx="1657.19" cy="1310.43" r="18"/>
<circle clip-path="url(#clip8102)" style="fill:#e26f46; stroke:none; fill-opacity:1" cx="1657.19" cy="1310.43" r="14"/>
<circle clip-path="url(#clip8102)" style="fill:#000000; stroke:none; fill-opacity:1" cx="1799.8" cy="1315.73" r="18"/>
<circle clip-path="url(#clip8102)" style="fill:#e26f46; stroke:none; fill-opacity:1" cx="1799.8" cy="1315.73" r="14"/>
<circle clip-path="url(#clip8102)" style="fill:#000000; stroke:none; fill-opacity:1" cx="1941.69" cy="1325.04" r="18"/>
<circle clip-path="url(#clip8102)" style="fill:#e26f46; stroke:none; fill-opacity:1" cx="1941.69" cy="1325.04" r="14"/>
<circle clip-path="url(#clip8102)" style="fill:#000000; stroke:none; fill-opacity:1" cx="2085.01" cy="1321.98" r="18"/>
<circle clip-path="url(#clip8102)" style="fill:#e26f46; stroke:none; fill-opacity:1" cx="2085.01" cy="1321.98" r="14"/>
<polyline clip-path="url(#clip8102)" style="stroke:#009af9; stroke-width:4; stroke-opacity:1; fill:none" points="
  315.761,84.4615 339.608,140.307 363.456,311.051 387.303,480.132 411.151,613.778 434.999,715.967 458.846,794.877 482.694,857.003 506.542,906.909 530.389,947.745 
  554.237,981.707 578.084,1010.36 601.932,1034.83 625.78,1055.97 649.627,1074.39 673.475,1090.59 697.322,1104.94 721.17,1117.74 745.018,1129.22 768.865,1139.58 
  792.713,1148.97 816.56,1157.52 840.408,1165.34 864.256,1172.52 888.103,1179.13 911.951,1185.24 935.799,1190.9 959.646,1196.16 983.494,1201.07 1007.34,1205.65 
  1031.19,1209.93 1055.04,1213.95 1078.88,1217.73 1102.73,1221.29 1126.58,1224.64 1150.43,1227.81 1174.27,1230.82 1198.12,1233.66 1221.97,1236.36 1245.82,1238.92 
  1269.67,1241.36 1293.51,1243.68 1317.36,1245.9 1341.21,1248.02 1365.06,1250.04 1388.9,1251.97 1412.75,1253.83 1436.6,1255.6 1460.45,1257.31 1484.29,1258.94 
  1508.14,1260.51 1531.99,1262.03 1555.84,1263.48 1579.68,1264.88 1603.53,1266.23 1627.38,1267.53 1651.23,1268.79 1675.07,1270 1698.92,1271.17 1722.77,1272.31 
  1746.62,1273.4 1770.46,1274.46 1794.31,1275.49 1818.16,1276.49 1842.01,1277.45 1865.86,1278.39 1889.7,1279.29 1913.55,1280.18 1937.4,1281.03 1961.25,1281.86 
  1985.09,1282.67 2008.94,1283.46 2032.79,1284.22 2056.64,1284.96 2080.48,1285.69 2104.33,1286.39 2128.18,1287.08 2152.03,1287.74 2175.87,1288.4 2199.72,1289.03 
  
  "/>
<path clip-path="url(#clip8100)" d="
M1753.92 306.444 L2187.64 306.444 L2187.64 125.004 L1753.92 125.004  Z
  " fill="#ffffff" fill-rule="evenodd" fill-opacity="1"/>
<polyline clip-path="url(#clip8100)" style="stroke:#000000; stroke-width:4; stroke-opacity:1; fill:none" points="
  1753.92,306.444 2187.64,306.444 2187.64,125.004 1753.92,125.004 1753.92,306.444 
  "/>
<circle clip-path="url(#clip8100)" style="fill:#000000; stroke:none; fill-opacity:1" cx="1857.6" cy="185.484" r="25"/>
<circle clip-path="url(#clip8100)" style="fill:#009af9; stroke:none; fill-opacity:1" cx="1857.6" cy="185.484" r="21"/>
<g clip-path="url(#clip8100)">
<text style="fill:#000000; fill-opacity:1; font-family:Arial,Helvetica Neue,Helvetica,sans-serif; font-size:48px; text-anchor:start;" transform="rotate(0, 1938.24, 202.984)" x="1938.24" y="202.984">Old data</text>
</g>
<circle clip-path="url(#clip8100)" style="fill:#000000; stroke:none; fill-opacity:1" cx="1857.6" cy="245.964" r="25"/>
<circle clip-path="url(#clip8100)" style="fill:#e26f46; stroke:none; fill-opacity:1" cx="1857.6" cy="245.964" r="21"/>
<g clip-path="url(#clip8100)">
<text style="fill:#000000; fill-opacity:1; font-family:Arial,Helvetica Neue,Helvetica,sans-serif; font-size:48px; text-anchor:start;" transform="rotate(0, 1938.24, 263.464)" x="1938.24" y="263.464">New data</text>
</g>
</svg>
