<?xml version="1.0" encoding="utf-8"?>
<svg xmlns="http://www.w3.org/2000/svg" xmlns:xlink="http://www.w3.org/1999/xlink" width="576" height="384" viewBox="0 0 2304 1536">
<defs>
  <clipPath id="clip6000">
    <rect x="0" y="0" width="2000" height="2000"/>
  </clipPath>
</defs>
<defs>
  <clipPath id="clip6001">
    <rect x="0" y="0" width="2304" height="1536"/>
  </clipPath>
</defs>
<polygon clip-path="url(#clip6001)" points="
0,1536 2304,1536 2304,0 0,0 
  " fill="#ffffff" fill-rule="evenodd" fill-opacity="1"/>
<defs>
  <clipPath id="clip6002">
    <rect x="460" y="0" width="1614" height="1536"/>
  </clipPath>
</defs>
<polygon clip-path="url(#clip6001)" points="
188.156,1439.47 2225.26,1439.47 2225.26,47.2441 188.156,47.2441 
  " fill="#ffffff" fill-rule="evenodd" fill-opacity="1"/>
<defs>
  <clipPath id="clip6003">
    <rect x="188" y="47" width="2038" height="1393"/>
  </clipPath>
</defs>
<polyline clip-path="url(#clip6003)" style="stroke:#000000; stroke-width:2; stroke-opacity:0.1; fill:none" points="
  539.286,1439.47 539.286,47.2441 
  "/>
<polyline clip-path="url(#clip6003)" style="stroke:#000000; stroke-width:2; stroke-opacity:0.1; fill:none" points="
  1012.64,1439.47 1012.64,47.2441 
  "/>
<polyline clip-path="url(#clip6003)" style="stroke:#000000; stroke-width:2; stroke-opacity:0.1; fill:none" points="
  1485.98,1439.47 1485.98,47.2441 
  "/>
<polyline clip-path="url(#clip6003)" style="stroke:#000000; stroke-width:2; stroke-opacity:0.1; fill:none" points="
  1959.33,1439.47 1959.33,47.2441 
  "/>
<polyline clip-path="url(#clip6003)" style="stroke:#000000; stroke-width:2; stroke-opacity:0.1; fill:none" points="
  188.156,1400.07 2225.26,1400.07 
  "/>
<polyline clip-path="url(#clip6003)" style="stroke:#000000; stroke-width:2; stroke-opacity:0.1; fill:none" points="
  188.156,1190.26 2225.26,1190.26 
  "/>
<polyline clip-path="url(#clip6003)" style="stroke:#000000; stroke-width:2; stroke-opacity:0.1; fill:none" points="
  188.156,980.44 2225.26,980.44 
  "/>
<polyline clip-path="url(#clip6003)" style="stroke:#000000; stroke-width:2; stroke-opacity:0.1; fill:none" points="
  188.156,770.624 2225.26,770.624 
  "/>
<polyline clip-path="url(#clip6003)" style="stroke:#000000; stroke-width:2; stroke-opacity:0.1; fill:none" points="
  188.156,560.808 2225.26,560.808 
  "/>
<polyline clip-path="url(#clip6003)" style="stroke:#000000; stroke-width:2; stroke-opacity:0.1; fill:none" points="
  188.156,350.992 2225.26,350.992 
  "/>
<polyline clip-path="url(#clip6003)" style="stroke:#000000; stroke-width:2; stroke-opacity:0.1; fill:none" points="
  188.156,141.176 2225.26,141.176 
  "/>
<polyline clip-path="url(#clip6001)" style="stroke:#000000; stroke-width:4; stroke-opacity:1; fill:none" points="
  188.156,1439.47 2225.26,1439.47 
  "/>
<polyline clip-path="url(#clip6001)" style="stroke:#000000; stroke-width:4; stroke-opacity:1; fill:none" points="
  188.156,1439.47 188.156,47.2441 
  "/>
<polyline clip-path="url(#clip6001)" style="stroke:#000000; stroke-width:4; stroke-opacity:1; fill:none" points="
  539.286,1439.47 539.286,1418.59 
  "/>
<polyline clip-path="url(#clip6001)" style="stroke:#000000; stroke-width:4; stroke-opacity:1; fill:none" points="
  1012.64,1439.47 1012.64,1418.59 
  "/>
<polyline clip-path="url(#clip6001)" style="stroke:#000000; stroke-width:4; stroke-opacity:1; fill:none" points="
  1485.98,1439.47 1485.98,1418.59 
  "/>
<polyline clip-path="url(#clip6001)" style="stroke:#000000; stroke-width:4; stroke-opacity:1; fill:none" points="
  1959.33,1439.47 1959.33,1418.59 
  "/>
<polyline clip-path="url(#clip6001)" style="stroke:#000000; stroke-width:4; stroke-opacity:1; fill:none" points="
  188.156,1400.07 218.713,1400.07 
  "/>
<polyline clip-path="url(#clip6001)" style="stroke:#000000; stroke-width:4; stroke-opacity:1; fill:none" points="
  188.156,1190.26 218.713,1190.26 
  "/>
<polyline clip-path="url(#clip6001)" style="stroke:#000000; stroke-width:4; stroke-opacity:1; fill:none" points="
  188.156,980.44 218.713,980.44 
  "/>
<polyline clip-path="url(#clip6001)" style="stroke:#000000; stroke-width:4; stroke-opacity:1; fill:none" points="
  188.156,770.624 218.713,770.624 
  "/>
<polyline clip-path="url(#clip6001)" style="stroke:#000000; stroke-width:4; stroke-opacity:1; fill:none" points="
  188.156,560.808 218.713,560.808 
  "/>
<polyline clip-path="url(#clip6001)" style="stroke:#000000; stroke-width:4; stroke-opacity:1; fill:none" points="
  188.156,350.992 218.713,350.992 
  "/>
<polyline clip-path="url(#clip6001)" style="stroke:#000000; stroke-width:4; stroke-opacity:1; fill:none" points="
  188.156,141.176 218.713,141.176 
  "/>
<g clip-path="url(#clip6001)">
<text style="fill:#000000; fill-opacity:1; font-family:Arial,Helvetica Neue,Helvetica,sans-serif; font-size:48px; text-anchor:middle;" transform="rotate(0, 539.286, 1492.99)" x="539.286" y="1492.99">-5</text>
</g>
<g clip-path="url(#clip6001)">
<text style="fill:#000000; fill-opacity:1; font-family:Arial,Helvetica Neue,Helvetica,sans-serif; font-size:48px; text-anchor:middle;" transform="rotate(0, 1012.64, 1492.99)" x="1012.64" y="1492.99">0</text>
</g>
<g clip-path="url(#clip6001)">
<text style="fill:#000000; fill-opacity:1; font-family:Arial,Helvetica Neue,Helvetica,sans-serif; font-size:48px; text-anchor:middle;" transform="rotate(0, 1485.98, 1492.99)" x="1485.98" y="1492.99">5</text>
</g>
<g clip-path="url(#clip6001)">
<text style="fill:#000000; fill-opacity:1; font-family:Arial,Helvetica Neue,Helvetica,sans-serif; font-size:48px; text-anchor:middle;" transform="rotate(0, 1959.33, 1492.99)" x="1959.33" y="1492.99">10</text>
</g>
<g clip-path="url(#clip6001)">
<text style="fill:#000000; fill-opacity:1; font-family:Arial,Helvetica Neue,Helvetica,sans-serif; font-size:48px; text-anchor:end;" transform="rotate(0, 165.116, 1417.57)" x="165.116" y="1417.57">0.00</text>
</g>
<g clip-path="url(#clip6001)">
<text style="fill:#000000; fill-opacity:1; font-family:Arial,Helvetica Neue,Helvetica,sans-serif; font-size:48px; text-anchor:end;" transform="rotate(0, 165.116, 1207.76)" x="165.116" y="1207.76">0.02</text>
</g>
<g clip-path="url(#clip6001)">
<text style="fill:#000000; fill-opacity:1; font-family:Arial,Helvetica Neue,Helvetica,sans-serif; font-size:48px; text-anchor:end;" transform="rotate(0, 165.116, 997.94)" x="165.116" y="997.94">0.04</text>
</g>
<g clip-path="url(#clip6001)">
<text style="fill:#000000; fill-opacity:1; font-family:Arial,Helvetica Neue,Helvetica,sans-serif; font-size:48px; text-anchor:end;" transform="rotate(0, 165.116, 788.124)" x="165.116" y="788.124">0.06</text>
</g>
<g clip-path="url(#clip6001)">
<text style="fill:#000000; fill-opacity:1; font-family:Arial,Helvetica Neue,Helvetica,sans-serif; font-size:48px; text-anchor:end;" transform="rotate(0, 165.116, 578.308)" x="165.116" y="578.308">0.08</text>
</g>
<g clip-path="url(#clip6001)">
<text style="fill:#000000; fill-opacity:1; font-family:Arial,Helvetica Neue,Helvetica,sans-serif; font-size:48px; text-anchor:end;" transform="rotate(0, 165.116, 368.492)" x="165.116" y="368.492">0.10</text>
</g>
<g clip-path="url(#clip6001)">
<text style="fill:#000000; fill-opacity:1; font-family:Arial,Helvetica Neue,Helvetica,sans-serif; font-size:48px; text-anchor:end;" transform="rotate(0, 165.116, 158.676)" x="165.116" y="158.676">0.12</text>
</g>
<circle clip-path="url(#clip6003)" style="fill:#000000; stroke:none; fill-opacity:1" cx="813.829" cy="1400.07" r="18"/>
<circle clip-path="url(#clip6003)" style="fill:#009af9; stroke:none; fill-opacity:1" cx="813.829" cy="1400.07" r="14"/>
<circle clip-path="url(#clip6003)" style="fill:#000000; stroke:none; fill-opacity:1" cx="889.564" cy="1400.07" r="18"/>
<circle clip-path="url(#clip6003)" style="fill:#009af9; stroke:none; fill-opacity:1" cx="889.564" cy="1400.07" r="14"/>
<circle clip-path="url(#clip6003)" style="fill:#000000; stroke:none; fill-opacity:1" cx="974.767" cy="1400.07" r="18"/>
<circle clip-path="url(#clip6003)" style="fill:#009af9; stroke:none; fill-opacity:1" cx="974.767" cy="1400.07" r="14"/>
<circle clip-path="url(#clip6003)" style="fill:#000000; stroke:none; fill-opacity:1" cx="1192.51" cy="1400.07" r="18"/>
<circle clip-path="url(#clip6003)" style="fill:#009af9; stroke:none; fill-opacity:1" cx="1192.51" cy="1400.07" r="14"/>
<circle clip-path="url(#clip6003)" style="fill:#000000; stroke:none; fill-opacity:1" cx="1495.45" cy="1400.07" r="18"/>
<circle clip-path="url(#clip6003)" style="fill:#009af9; stroke:none; fill-opacity:1" cx="1495.45" cy="1400.07" r="14"/>
<circle clip-path="url(#clip6003)" style="fill:#000000; stroke:none; fill-opacity:1" cx="1599.59" cy="1400.07" r="18"/>
<circle clip-path="url(#clip6003)" style="fill:#009af9; stroke:none; fill-opacity:1" cx="1599.59" cy="1400.07" r="14"/>
<polyline clip-path="url(#clip6003)" style="stroke:#e26f46; stroke-width:4; stroke-opacity:1; fill:none" points="
  245.81,1399.74 246.749,1399.74 247.688,1399.74 248.627,1399.74 249.566,1399.74 250.504,1399.74 251.443,1399.73 252.382,1399.73 253.321,1399.73 254.26,1399.73 
  255.199,1399.73 256.137,1399.72 257.076,1399.72 258.015,1399.72 258.954,1399.71 259.893,1399.71 260.832,1399.71 261.77,1399.7 262.709,1399.7 263.648,1399.69 
  264.587,1399.69 265.526,1399.68 266.465,1399.68 267.403,1399.67 268.342,1399.66 269.281,1399.66 270.22,1399.65 271.159,1399.65 272.098,1399.64 273.036,1399.63 
  273.975,1399.62 274.914,1399.62 275.853,1399.61 276.792,1399.6 277.731,1399.59 278.669,1399.58 279.608,1399.57 280.547,1399.56 281.486,1399.55 282.425,1399.54 
  283.364,1399.53 284.302,1399.52 285.241,1399.51 286.18,1399.5 287.119,1399.49 288.058,1399.47 288.997,1399.46 289.936,1399.45 290.874,1399.43 291.813,1399.42 
  292.752,1399.41 293.691,1399.39 294.63,1399.38 295.569,1399.36 296.507,1399.35 297.446,1399.33 298.385,1399.31 299.324,1399.3 300.263,1399.28 301.202,1399.26 
  302.14,1399.24 303.079,1399.22 304.018,1399.2 304.957,1399.18 305.896,1399.16 306.835,1399.14 307.773,1399.12 308.712,1399.1 309.651,1399.08 310.59,1399.06 
  311.529,1399.03 312.468,1399.01 313.406,1398.98 314.345,1398.96 315.284,1398.93 316.223,1398.91 317.162,1398.88 318.101,1398.85 319.039,1398.82 319.978,1398.8 
  320.917,1398.77 321.856,1398.74 322.795,1398.7 323.734,1398.67 324.672,1398.64 325.611,1398.61 326.55,1398.57 327.489,1398.54 328.428,1398.51 329.367,1398.47 
  330.305,1398.43 331.244,1398.4 332.183,1398.36 333.122,1398.32 334.061,1398.28 335,1398.24 335.938,1398.2 336.877,1398.15 337.816,1398.11 338.755,1398.06 
  339.694,1398.02 340.633,1397.97 341.571,1397.93 342.51,1397.88 343.449,1397.83 344.388,1397.78 345.327,1397.73 346.266,1397.67 347.204,1397.62 348.143,1397.56 
  349.082,1397.51 350.021,1397.45 350.96,1397.39 351.899,1397.33 352.837,1397.27 353.776,1397.21 354.715,1397.15 355.654,1397.08 356.593,1397.02 357.532,1396.95 
  358.47,1396.88 359.409,1396.81 360.348,1396.74 361.287,1396.67 362.226,1396.59 363.165,1396.52 364.103,1396.44 365.042,1396.36 365.981,1396.28 366.92,1396.2 
  367.859,1396.12 368.798,1396.03 369.737,1395.95 370.675,1395.86 371.614,1395.77 372.553,1395.68 373.492,1395.58 374.431,1395.49 375.37,1395.39 376.308,1395.29 
  377.247,1395.19 378.186,1395.09 379.125,1394.98 380.064,1394.87 381.003,1394.76 381.941,1394.65 382.88,1394.54 383.819,1394.42 384.758,1394.31 385.697,1394.19 
  386.636,1394.07 387.574,1393.94 388.513,1393.81 389.452,1393.69 390.391,1393.55 391.33,1393.42 392.269,1393.28 393.207,1393.15 394.146,1393 395.085,1392.86 
  396.024,1392.71 396.963,1392.56 397.902,1392.41 398.84,1392.26 399.779,1392.1 400.718,1391.94 401.657,1391.78 402.596,1391.61 403.535,1391.44 404.473,1391.27 
  405.412,1391.09 406.351,1390.92 407.29,1390.74 408.229,1390.55 409.168,1390.36 410.106,1390.17 411.045,1389.98 411.984,1389.78 412.923,1389.58 413.862,1389.37 
  414.801,1389.16 415.739,1388.95 416.678,1388.74 417.617,1388.52 418.556,1388.29 419.495,1388.07 420.434,1387.84 421.372,1387.6 422.311,1387.36 423.25,1387.12 
  424.189,1386.87 425.128,1386.62 426.067,1386.37 427.005,1386.11 427.944,1385.84 428.883,1385.58 429.822,1385.3 430.761,1385.03 431.7,1384.74 432.638,1384.46 
  433.577,1384.17 434.516,1383.87 435.455,1383.57 436.394,1383.26 437.333,1382.95 438.271,1382.64 439.21,1382.32 440.149,1381.99 441.088,1381.66 442.027,1381.32 
  442.966,1380.98 443.904,1380.64 444.843,1380.28 445.782,1379.92 446.721,1379.56 447.66,1379.19 448.599,1378.82 449.537,1378.43 450.476,1378.05 451.415,1377.65 
  452.354,1377.26 453.293,1376.85 454.232,1376.44 455.171,1376.02 456.109,1375.6 457.048,1375.16 457.987,1374.73 458.926,1374.28 459.865,1373.83 460.804,1373.38 
  461.742,1372.91 462.681,1372.44 463.62,1371.96 464.559,1371.48 465.498,1370.98 466.437,1370.48 467.375,1369.98 468.314,1369.46 469.253,1368.94 470.192,1368.41 
  471.131,1367.87 472.07,1367.32 473.008,1366.77 473.947,1366.21 474.886,1365.64 475.825,1365.06 476.764,1364.48 477.703,1363.88 478.641,1363.28 479.58,1362.67 
  480.519,1362.05 481.458,1361.42 482.397,1360.78 483.336,1360.14 484.274,1359.48 485.213,1358.82 486.152,1358.14 487.091,1357.46 488.03,1356.77 488.969,1356.07 
  489.907,1355.36 490.846,1354.64 491.785,1353.91 492.724,1353.17 493.663,1352.42 494.602,1351.66 495.54,1350.88 496.479,1350.1 497.418,1349.31 498.357,1348.51 
  499.296,1347.7 500.235,1346.88 501.173,1346.04 502.112,1345.2 503.051,1344.34 503.99,1343.48 504.929,1342.6 505.868,1341.71 506.806,1340.81 507.745,1339.9 
  508.684,1338.98 509.623,1338.04 510.562,1337.1 511.501,1336.14 512.439,1335.17 513.378,1334.18 514.317,1333.19 515.256,1332.18 516.195,1331.16 517.134,1330.13 
  518.072,1329.09 519.011,1328.03 519.95,1326.96 520.889,1325.88 521.828,1324.78 522.767,1323.67 523.705,1322.55 524.644,1321.41 525.583,1320.26 526.522,1319.1 
  527.461,1317.92 528.4,1316.73 529.338,1315.53 530.277,1314.31 531.216,1313.08 532.155,1311.83 533.094,1310.57 534.033,1309.3 534.972,1308.01 535.91,1306.71 
  536.849,1305.39 537.788,1304.05 538.727,1302.7 539.666,1301.34 540.605,1299.96 541.543,1298.57 542.482,1297.16 543.421,1295.73 544.36,1294.29 545.299,1292.84 
  546.238,1291.37 547.176,1289.88 548.115,1288.38 549.054,1286.86 549.993,1285.32 550.932,1283.77 551.871,1282.2 552.809,1280.62 553.748,1279.02 554.687,1277.4 
  555.626,1275.76 556.565,1274.11 557.504,1272.45 558.442,1270.76 559.381,1269.06 560.32,1267.34 561.259,1265.6 562.198,1263.85 563.137,1262.08 564.075,1260.29 
  565.014,1258.48 565.953,1256.66 566.892,1254.82 567.831,1252.96 568.77,1251.08 569.708,1249.18 570.647,1247.27 571.586,1245.34 572.525,1243.39 573.464,1241.42 
  574.403,1239.43 575.341,1237.43 576.28,1235.4 577.219,1233.36 578.158,1231.3 579.097,1229.22 580.036,1227.12 580.974,1225 581.913,1222.86 582.852,1220.7 
  583.791,1218.53 584.73,1216.33 585.669,1214.12 586.607,1211.89 587.546,1209.63 588.485,1207.36 589.424,1205.07 590.363,1202.76 591.302,1200.43 592.24,1198.07 
  593.179,1195.7 594.118,1193.31 595.057,1190.9 595.996,1188.47 596.935,1186.02 597.873,1183.55 598.812,1181.06 599.751,1178.55 600.69,1176.02 601.629,1173.47 
  602.568,1170.9 603.506,1168.31 604.445,1165.7 605.384,1163.07 606.323,1160.42 607.262,1157.75 608.201,1155.06 609.139,1152.34 610.078,1149.61 611.017,1146.86 
  611.956,1144.08 612.895,1141.29 613.834,1138.48 614.772,1135.64 615.711,1132.79 616.65,1129.91 617.589,1127.01 618.528,1124.1 619.467,1121.16 620.406,1118.2 
  621.344,1115.23 622.283,1112.23 623.222,1109.21 624.161,1106.17 625.1,1103.11 626.039,1100.03 626.977,1096.93 627.916,1093.81 628.855,1090.67 629.794,1087.51 
  630.733,1084.33 631.672,1081.12 632.61,1077.9 633.549,1074.66 634.488,1071.4 635.427,1068.12 636.366,1064.82 637.305,1061.49 638.243,1058.15 639.182,1054.79 
  640.121,1051.41 641.06,1048.01 641.999,1044.59 642.938,1041.15 643.876,1037.69 644.815,1034.21 645.754,1030.71 646.693,1027.19 647.632,1023.65 648.571,1020.09 
  649.509,1016.52 650.448,1012.92 651.387,1009.31 652.326,1005.68 653.265,1002.03 654.204,998.355 655.142,994.666 656.081,990.959 657.02,987.234 657.959,983.49 
  658.898,979.728 659.837,975.948 660.775,972.15 661.714,968.335 662.653,964.501 663.592,960.651 664.531,956.782 665.47,952.897 666.408,948.994 667.347,945.074 
  668.286,941.138 669.225,937.184 670.164,933.214 671.103,929.228 672.041,925.225 672.98,921.206 673.919,917.171 674.858,913.12 675.797,909.054 676.736,904.972 
  677.674,900.874 678.613,896.762 679.552,892.634 680.491,888.492 681.43,884.335 682.369,880.163 683.307,875.977 684.246,871.777 685.185,867.563 686.124,863.335 
  687.063,859.094 688.002,854.84 688.94,850.572 689.879,846.291 690.818,841.998 691.757,837.692 692.696,833.373 693.635,829.043 694.573,824.7 695.512,820.346 
  696.451,815.981 697.39,811.604 698.329,807.216 699.268,802.818 700.207,798.409 701.145,793.989 702.084,789.56 703.023,785.12 703.962,780.671 704.901,776.213 
  705.84,771.745 706.778,767.269 707.717,762.784 708.656,758.291 709.595,753.789 710.534,749.28 711.473,744.763 712.411,740.239 713.35,735.707 714.289,731.169 
  715.228,726.624 716.167,722.073 717.106,717.516 718.044,712.954 718.983,708.386 719.922,703.812 720.861,699.234 721.8,694.651 722.739,690.064 723.677,685.473 
  724.616,680.878 725.555,676.28 726.494,671.678 727.433,667.074 728.372,662.467 729.31,657.857 730.249,653.246 731.188,648.633 732.127,644.019 733.066,639.404 
  734.005,634.788 734.943,630.171 735.882,625.554 736.821,620.938 737.76,616.322 738.699,611.706 739.638,607.092 740.576,602.48 741.515,597.868 742.454,593.26 
  743.393,588.653 744.332,584.049 745.271,579.448 746.209,574.85 747.148,570.257 748.087,565.667 749.026,561.081 749.965,556.5 750.904,551.924 751.842,547.353 
  752.781,542.788 753.72,538.229 754.659,533.676 755.598,529.129 756.537,524.59 757.475,520.058 758.414,515.533 759.353,511.016 760.292,506.508 761.231,502.008 
  762.17,497.517 763.108,493.035 764.047,488.563 764.986,484.101 765.925,479.649 766.864,475.208 767.803,470.777 768.741,466.358 769.68,461.95 770.619,457.555 
  771.558,453.171 772.497,448.8 773.436,444.442 774.374,440.097 775.313,435.766 776.252,431.449 777.191,427.145 778.13,422.857 779.069,418.583 780.007,414.325 
  780.946,410.082 781.885,405.854 782.824,401.643 783.763,397.449 784.702,393.271 785.641,389.111 786.579,384.968 787.518,380.843 788.457,376.735 789.396,372.647 
  790.335,368.577 791.274,364.526 792.212,360.494 793.151,356.482 794.09,352.491 795.029,348.519 795.968,344.568 796.907,340.638 797.845,336.729 798.784,332.842 
  799.723,328.976 800.662,325.133 801.601,321.312 802.54,317.514 803.478,313.738 804.417,309.986 805.356,306.258 806.295,302.553 807.234,298.873 808.173,295.217 
  809.111,291.586 810.05,287.979 810.989,284.398 811.928,280.843 812.867,277.313 813.806,273.81 814.744,270.332 815.683,266.882 816.622,263.458 817.561,260.061 
  818.5,256.692 819.439,253.35 820.377,250.037 821.316,246.751 822.255,243.494 823.194,240.265 824.133,237.065 825.072,233.894 826.01,230.753 826.949,227.641 
  827.888,224.559 828.827,221.507 829.766,218.485 830.705,215.493 831.643,212.532 832.582,209.602 833.521,206.703 834.46,203.836 835.399,200.999 836.338,198.195 
  837.276,195.422 838.215,192.681 839.154,189.973 840.093,187.297 841.032,184.653 841.971,182.042 842.909,179.464 843.848,176.92 844.787,174.408 845.726,171.93 
  846.665,169.485 847.604,167.075 848.542,164.698 849.481,162.355 850.42,160.046 851.359,157.771 852.298,155.531 853.237,153.326 854.175,151.155 855.114,149.019 
  856.053,146.918 856.992,144.852 857.931,142.821 858.87,140.825 859.808,138.864 860.747,136.94 861.686,135.05 862.625,133.196 863.564,131.378 864.503,129.596 
  865.442,127.85 866.38,126.139 867.319,124.465 868.258,122.826 869.197,121.224 870.136,119.658 871.075,118.128 872.013,116.634 872.952,115.177 873.891,113.756 
  874.83,112.372 875.769,111.024 876.708,109.712 877.646,108.437 878.585,107.198 879.524,105.996 880.463,104.83 881.402,103.701 882.341,102.609 883.279,101.553 
  884.218,100.533 885.157,99.5501 886.096,98.6035 887.035,97.6934 887.974,96.8197 888.912,95.9824 889.851,95.1815 890.79,94.417 891.729,93.6887 892.668,92.9967 
  893.607,92.3409 894.545,91.7213 895.484,91.1377 896.423,90.5902 897.362,90.0786 898.301,89.6029 899.24,89.1631 900.178,88.759 901.117,88.3906 902.056,88.0577 
  902.995,87.7603 903.934,87.4983 904.873,87.2717 905.811,87.0802 906.75,86.9238 907.689,86.8024 908.628,86.7158 909.567,86.664 910.506,86.6468 911.444,86.6642 
  912.383,86.7159 913.322,86.8019 914.261,86.922 915.2,87.0761 916.139,87.264 917.077,87.4856 918.016,87.7407 918.955,88.0292 919.894,88.3509 920.833,88.7058 
  921.772,89.0935 922.71,89.514 923.649,89.967 924.588,90.4525 925.527,90.9701 926.466,91.5198 927.405,92.1014 928.343,92.7147 929.282,93.3594 930.221,94.0355 
  931.16,94.7426 932.099,95.4807 933.038,96.2494 933.976,97.0487 934.915,97.8783 935.854,98.7379 936.793,99.6275 937.732,100.547 938.671,101.495 939.609,102.473 
  940.548,103.48 941.487,104.516 942.426,105.58 943.365,106.673 944.304,107.793 945.242,108.942 946.181,110.118 947.12,111.321 948.059,112.552 948.998,113.81 
  949.937,115.094 950.876,116.404 951.814,117.741 952.753,119.104 953.692,120.492 954.631,121.906 955.57,123.345 956.509,124.809 957.447,126.297 958.386,127.81 
  959.325,129.347 960.264,130.908 961.203,132.492 962.142,134.1 963.08,135.731 964.019,137.384 964.958,139.06 965.897,140.759 966.836,142.479 967.775,144.221 
  968.713,145.984 969.652,147.769 970.591,149.574 971.53,151.4 972.469,153.246 973.408,155.113 974.346,156.999 975.285,158.904 976.224,160.829 977.163,162.773 
  978.102,164.735 979.041,166.716 979.979,168.714 980.918,170.731 981.857,172.765 982.796,174.816 983.735,176.884 984.674,178.969 985.612,181.07 986.551,183.187 
  987.49,185.32 988.429,187.468 989.368,189.632 990.307,191.811 991.245,194.004 992.184,196.212 993.123,198.433 994.062,200.669 995.001,202.918 995.94,205.181 
  996.878,207.456 997.817,209.744 998.756,212.045 999.695,214.357 1000.63,216.682 1001.57,219.018 1002.51,221.365 1003.45,223.723 1004.39,226.093 1005.33,228.472 
  1006.27,230.862 1007.21,233.262 1008.14,235.671 1009.08,238.09 1010.02,240.518 1010.96,242.955 1011.9,245.401 1012.84,247.855 1013.78,250.317 1014.72,252.786 
  1015.66,255.264 1016.59,257.748 1017.53,260.24 1018.47,262.738 1019.41,265.243 1020.35,267.755 1021.29,270.272 1022.23,272.795 1023.17,275.324 1024.1,277.858 
  1025.04,280.397 1025.98,282.94 1026.92,285.489 1027.86,288.042 1028.8,290.598 1029.74,293.159 1030.68,295.723 1031.62,298.291 1032.55,300.862 1033.49,303.436 
  1034.43,306.013 1035.37,308.592 1036.31,311.173 1037.25,313.757 1038.19,316.342 1039.13,318.929 1040.06,321.518 1041,324.107 1041.94,326.698 1042.88,329.29 
  1043.82,331.882 1044.76,334.475 1045.7,337.067 1046.64,339.66 1047.58,342.253 1048.51,344.845 1049.45,347.437 1050.39,350.028 1051.33,352.619 1052.27,355.208 
  1053.21,357.796 1054.15,360.382 1055.09,362.967 1056.03,365.55 1056.96,368.131 1057.9,370.71 1058.84,373.287 1059.78,375.862 1060.72,378.433 1061.66,381.002 
  1062.6,383.569 1063.54,386.132 1064.47,388.692 1065.41,391.248 1066.35,393.801 1067.29,396.351 1068.23,398.897 1069.17,401.439 1070.11,403.976 1071.05,406.51 
  1071.99,409.04 1072.92,411.565 1073.86,414.085 1074.8,416.601 1075.74,419.112 1076.68,421.618 1077.62,424.12 1078.56,426.616 1079.5,429.107 1080.43,431.593 
  1081.37,434.073 1082.31,436.547 1083.25,439.017 1084.19,441.48 1085.13,443.938 1086.07,446.389 1087.01,448.835 1087.95,451.274 1088.88,453.708 1089.82,456.135 
  1090.76,458.556 1091.7,460.971 1092.64,463.379 1093.58,465.78 1094.52,468.175 1095.46,470.563 1096.39,472.944 1097.33,475.319 1098.27,477.686 1099.21,480.047 
  1100.15,482.401 1101.09,484.747 1102.03,487.087 1102.97,489.419 1103.91,491.744 1104.84,494.062 1105.78,496.372 1106.72,498.675 1107.66,500.971 1108.6,503.259 
  1109.54,505.539 1110.48,507.813 1111.42,510.078 1112.36,512.336 1113.29,514.586 1114.23,516.828 1115.17,519.063 1116.11,521.29 1117.05,523.509 1117.99,525.72 
  1118.93,527.923 1119.87,530.119 1120.8,532.306 1121.74,534.486 1122.68,536.658 1123.62,538.821 1124.56,540.977 1125.5,543.125 1126.44,545.264 1127.38,547.396 
  1128.32,549.519 1129.25,551.635 1130.19,553.742 1131.13,555.841 1132.07,557.932 1133.01,560.015 1133.95,562.09 1134.89,564.156 1135.83,566.214 1136.76,568.264 
  1137.7,570.306 1138.64,572.34 1139.58,574.366 1140.52,576.383 1141.46,578.392 1142.4,580.393 1143.34,582.385 1144.28,584.37 1145.21,586.346 1146.15,588.313 
  1147.09,590.273 1148.03,592.224 1148.97,594.167 1149.91,596.102 1150.85,598.028 1151.79,599.946 1152.73,601.856 1153.66,603.758 1154.6,605.651 1155.54,607.536 
  1156.48,609.412 1157.42,611.28 1158.36,613.14 1159.3,614.992 1160.24,616.835 1161.17,618.67 1162.11,620.496 1163.05,622.314 1163.99,624.124 1164.93,625.925 
  1165.87,627.718 1166.81,629.503 1167.75,631.279 1168.69,633.047 1169.62,634.806 1170.56,636.557 1171.5,638.3 1172.44,640.034 1173.38,641.759 1174.32,643.476 
  1175.26,645.185 1176.2,646.885 1177.13,648.576 1178.07,650.259 1179.01,651.934 1179.95,653.599 1180.89,655.257 1181.83,656.905 1182.77,658.545 1183.71,660.176 
  1184.65,661.799 1185.58,663.413 1186.52,665.018 1187.46,666.615 1188.4,668.202 1189.34,669.781 1190.28,671.351 1191.22,672.912 1192.16,674.464 1193.09,676.008 
  1194.03,677.542 1194.97,679.067 1195.91,680.584 1196.85,682.091 1197.79,683.589 1198.73,685.078 1199.67,686.558 1200.61,688.029 1201.54,689.49 1202.48,690.942 
  1203.42,692.385 1204.36,693.818 1205.3,695.242 1206.24,696.656 1207.18,698.061 1208.12,699.456 1209.06,700.842 1209.99,702.218 1210.93,703.584 1211.87,704.941 
  1212.81,706.287 1213.75,707.624 1214.69,708.951 1215.63,710.268 1216.57,711.574 1217.5,712.871 1218.44,714.157 1219.38,715.434 1220.32,716.699 1221.26,717.955 
  1222.2,719.2 1223.14,720.434 1224.08,721.658 1225.02,722.871 1225.95,724.074 1226.89,725.265 1227.83,726.446 1228.77,727.616 1229.71,728.775 1230.65,729.923 
  1231.59,731.059 1232.53,732.185 1233.46,733.299 1234.4,734.401 1235.34,735.492 1236.28,736.572 1237.22,737.64 1238.16,738.696 1239.1,739.741 1240.04,740.773 
  1240.98,741.794 1241.91,742.802 1242.85,743.799 1243.79,744.783 1244.73,745.755 1245.67,746.714 1246.61,747.661 1247.55,748.596 1248.49,749.517 1249.43,750.426 
  1250.36,751.323 1251.3,752.206 1252.24,753.076 1253.18,753.933 1254.12,754.777 1255.06,755.608 1256,756.425 1256.94,757.229 1257.87,758.019 1258.81,758.795 
  1259.75,759.558 1260.69,760.307 1261.63,761.042 1262.57,761.763 1263.51,762.47 1264.45,763.163 1265.39,763.841 1266.32,764.505 1267.26,765.155 1268.2,765.79 
  1269.14,766.41 1270.08,767.015 1271.02,767.606 1271.96,768.182 1272.9,768.743 1273.83,769.288 1274.77,769.819 1275.71,770.334 1276.65,770.834 1277.59,771.318 
  1278.53,771.787 1279.47,772.24 1280.41,772.677 1281.35,773.099 1282.28,773.505 1283.22,773.894 1284.16,774.268 1285.1,774.626 1286.04,774.967 1286.98,775.292 
  1287.92,775.601 1288.86,775.893 1289.8,776.169 1290.73,776.428 1291.67,776.671 1292.61,776.897 1293.55,777.106 1294.49,777.298 1295.43,777.474 1296.37,777.632 
  1297.31,777.773 1298.24,777.897 1299.18,778.004 1300.12,778.094 1301.06,778.166 1302,778.221 1302.94,778.259 1303.88,778.279 1304.82,778.282 1305.76,778.267 
  1306.69,778.234 1307.63,778.184 1308.57,778.117 1309.51,778.031 1310.45,777.928 1311.39,777.806 1312.33,777.667 1313.27,777.511 1314.2,777.336 1315.14,777.143 
  1316.08,776.932 1317.02,776.704 1317.96,776.457 1318.9,776.192 1319.84,775.909 1320.78,775.609 1321.72,775.29 1322.65,774.953 1323.59,774.598 1324.53,774.224 
  1325.47,773.833 1326.41,773.424 1327.35,772.996 1328.29,772.551 1329.23,772.087 1330.16,771.605 1331.1,771.105 1332.04,770.588 1332.98,770.052 1333.92,769.498 
  1334.86,768.926 1335.8,768.336 1336.74,767.729 1337.68,767.103 1338.61,766.46 1339.55,765.798 1340.49,765.119 1341.43,764.422 1342.37,763.708 1343.31,762.976 
  1344.25,762.226 1345.19,761.459 1346.13,760.674 1347.06,759.872 1348,759.053 1348.94,758.216 1349.88,757.363 1350.82,756.492 1351.76,755.604 1352.7,754.699 
  1353.64,753.777 1354.57,752.838 1355.51,751.883 1356.45,750.911 1357.39,749.923 1358.33,748.918 1359.27,747.897 1360.21,746.859 1361.15,745.806 1362.09,744.736 
  1363.02,743.651 1363.96,742.55 1364.9,741.433 1365.84,740.301 1366.78,739.154 1367.72,737.991 1368.66,736.813 1369.6,735.62 1370.53,734.412 1371.47,733.19 
  1372.41,731.953 1373.35,730.702 1374.29,729.436 1375.23,728.156 1376.17,726.863 1377.11,725.556 1378.05,724.235 1378.98,722.9 1379.92,721.553 1380.86,720.192 
  1381.8,718.818 1382.74,717.432 1383.68,716.033 1384.62,714.622 1385.56,713.198 1386.5,711.763 1387.43,710.315 1388.37,708.857 1389.31,707.386 1390.25,705.905 
  1391.19,704.413 1392.13,702.909 1393.07,701.396 1394.01,699.871 1394.94,698.337 1395.88,696.793 1396.82,695.239 1397.76,693.676 1398.7,692.103 1399.64,690.522 
  1400.58,688.931 1401.52,687.332 1402.46,685.725 1403.39,684.109 1404.33,682.486 1405.27,680.855 1406.21,679.217 1407.15,677.572 1408.09,675.92 1409.03,674.261 
  1409.97,672.596 1410.9,670.925 1411.84,669.248 1412.78,667.565 1413.72,665.877 1414.66,664.185 1415.6,662.487 1416.54,660.785 1417.48,659.078 1418.42,657.368 
  1419.35,655.654 1420.29,653.936 1421.23,652.215 1422.17,650.492 1423.11,648.766 1424.05,647.037 1424.99,645.307 1425.93,643.574 1426.86,641.841 1427.8,640.106 
  1428.74,638.37 1429.68,636.634 1430.62,634.897 1431.56,633.16 1432.5,631.424 1433.44,629.688 1434.38,627.953 1435.31,626.22 1436.25,624.487 1437.19,622.757 
  1438.13,621.028 1439.07,619.302 1440.01,617.579 1440.95,615.858 1441.89,614.141 1442.83,612.427 1443.76,610.717 1444.7,609.012 1445.64,607.31 1446.58,605.614 
  1447.52,603.922 1448.46,602.236 1449.4,600.556 1450.34,598.881 1451.27,597.213 1452.21,595.552 1453.15,593.897 1454.09,592.249 1455.03,590.609 1455.97,588.977 
  1456.91,587.353 1457.85,585.737 1458.79,584.13 1459.72,582.531 1460.66,580.943 1461.6,579.363 1462.54,577.794 1463.48,576.235 1464.42,574.686 1465.36,573.148 
  1466.3,571.621 1467.23,570.105 1468.17,568.601 1469.11,567.109 1470.05,565.63 1470.99,564.162 1471.93,562.708 1472.87,561.267 1473.81,559.839 1474.75,558.424 
  1475.68,557.024 1476.62,555.638 1477.56,554.266 1478.5,552.91 1479.44,551.568 1480.38,550.242 1481.32,548.931 1482.26,547.636 1483.2,546.357 1484.13,545.095 
  1485.07,543.849 1486.01,542.621 1486.95,541.41 1487.89,540.216 1488.83,539.04 1489.77,537.881 1490.71,536.742 1491.64,535.62 1492.58,534.518 1493.52,533.434 
  1494.46,532.37 1495.4,531.325 1496.34,530.3 1497.28,529.294 1498.22,528.309 1499.16,527.345 1500.09,526.401 1501.03,525.478 1501.97,524.576 1502.91,523.696 
  1503.85,522.837 1504.79,521.999 1505.73,521.184 1506.67,520.391 1507.6,519.621 1508.54,518.872 1509.48,518.147 1510.42,517.445 1511.36,516.766 1512.3,516.11 
  1513.24,515.478 1514.18,514.87 1515.12,514.286 1516.05,513.725 1516.99,513.189 1517.93,512.678 1518.87,512.191 1519.81,511.729 1520.75,511.292 1521.69,510.88 
  1522.63,510.493 1523.57,510.132 1524.5,509.796 1525.44,509.486 1526.38,509.202 1527.32,508.944 1528.26,508.712 1529.2,508.507 1530.14,508.327 1531.08,508.175 
  1532.01,508.049 1532.95,507.949 1533.89,507.877 1534.83,507.831 1535.77,507.813 1536.71,507.821 1537.65,507.857 1538.59,507.921 1539.53,508.012 1540.46,508.13 
  1541.4,508.276 1542.34,508.45 1543.28,508.651 1544.22,508.88 1545.16,509.137 1546.1,509.423 1547.04,509.736 1547.97,510.077 1548.91,510.446 1549.85,510.844 
  1550.79,511.27 1551.73,511.724 1552.67,512.206 1553.61,512.717 1554.55,513.256 1555.49,513.823 1556.42,514.419 1557.36,515.043 1558.3,515.696 1559.24,516.377 
  1560.18,517.087 1561.12,517.825 1562.06,518.591 1563,519.386 1563.93,520.209 1564.87,521.061 1565.81,521.94 1566.75,522.849 1567.69,523.785 1568.63,524.75 
  1569.57,525.743 1570.51,526.765 1571.45,527.814 1572.38,528.892 1573.32,529.998 1574.26,531.132 1575.2,532.293 1576.14,533.483 1577.08,534.7 1578.02,535.946 
  1578.96,537.219 1579.9,538.519 1580.83,539.847 1581.77,541.203 1582.71,542.586 1583.65,543.996 1584.59,545.433 1585.53,546.898 1586.47,548.389 1587.41,549.908 
  1588.34,551.453 1589.28,553.025 1590.22,554.623 1591.16,556.248 1592.1,557.899 1593.04,559.576 1593.98,561.279 1594.92,563.009 1595.86,564.764 1596.79,566.544 
  1597.73,568.35 1598.67,570.182 1599.61,572.039 1600.55,573.92 1601.49,575.827 1602.43,577.759 1603.37,579.715 1604.3,581.695 1605.24,583.7 1606.18,585.729 
  1607.12,587.782 1608.06,589.858 1609,591.958 1609.94,594.082 1610.88,596.229 1611.82,598.399 1612.75,600.591 1613.69,602.807 1614.63,605.044 1615.57,607.304 
  1616.51,609.587 1617.45,611.891 1618.39,614.216 1619.33,616.563 1620.27,618.932 1621.2,621.321 1622.14,623.732 1623.08,626.163 1624.02,628.614 1624.96,631.086 
  1625.9,633.577 1626.84,636.088 1627.78,638.619 1628.71,641.17 1629.65,643.739 1630.59,646.327 1631.53,648.934 1632.47,651.559 1633.41,654.202 1634.35,656.863 
  1635.29,659.542 1636.23,662.238 1637.16,664.952 1638.1,667.682 1639.04,670.43 1639.98,673.193 1640.92,675.973 1641.86,678.769 1642.8,681.581 1643.74,684.408 
  1644.67,687.25 1645.61,690.108 1646.55,692.98 1647.49,695.866 1648.43,698.767 1649.37,701.682 1650.31,704.611 1651.25,707.552 1652.19,710.508 1653.12,713.476 
  1654.06,716.456 1655,719.449 1655.94,722.455 1656.88,725.472 1657.82,728.501 1658.76,731.541 1659.7,734.592 1660.63,737.654 1661.57,740.727 1662.51,743.81 
  1663.45,746.903 1664.39,750.006 1665.33,753.118 1666.27,756.24 1667.21,759.371 1668.15,762.51 1669.08,765.658 1670.02,768.814 1670.96,771.978 1671.9,775.15 
  1672.84,778.329 1673.78,781.515 1674.72,784.708 1675.66,787.907 1676.6,791.113 1677.53,794.325 1678.47,797.543 1679.41,800.767 1680.35,803.996 1681.29,807.229 
  1682.23,810.468 1683.17,813.711 1684.11,816.959 1685.04,820.21 1685.98,823.465 1686.92,826.724 1687.86,829.985 1688.8,833.25 1689.74,836.518 1690.68,839.788 
  1691.62,843.06 1692.56,846.334 1693.49,849.61 1694.43,852.888 1695.37,856.166 1696.31,859.446 1697.25,862.726 1698.19,866.007 1699.13,869.288 1700.07,872.569 
  1701,875.849 1701.94,879.13 1702.88,882.409 1703.82,885.688 1704.76,888.965 1705.7,892.241 1706.64,895.515 1707.58,898.788 1708.52,902.058 1709.45,905.326 
  1710.39,908.591 1711.33,911.854 1712.27,915.113 1713.21,918.369 1714.15,921.622 1715.09,924.871 1716.03,928.116 1716.97,931.357 1717.9,934.594 1718.84,937.826 
  1719.78,941.053 1720.72,944.276 1721.66,947.493 1722.6,950.705 1723.54,953.911 1724.48,957.112 1725.41,960.306 1726.35,963.495 1727.29,966.677 1728.23,969.852 
  1729.17,973.021 1730.11,976.183 1731.05,979.337 1731.99,982.485 1732.93,985.624 1733.86,988.757 1734.8,991.881 1735.74,994.997 1736.68,998.105 1737.62,1001.21 
  1738.56,1004.3 1739.5,1007.38 1740.44,1010.45 1741.37,1013.52 1742.31,1016.57 1743.25,1019.62 1744.19,1022.66 1745.13,1025.68 1746.07,1028.7 1747.01,1031.71 
  1747.95,1034.7 1748.89,1037.69 1749.82,1040.67 1750.76,1043.63 1751.7,1046.59 1752.64,1049.53 1753.58,1052.46 1754.52,1055.39 1755.46,1058.3 1756.4,1061.2 
  1757.33,1064.09 1758.27,1066.96 1759.21,1069.83 1760.15,1072.68 1761.09,1075.52 1762.03,1078.35 1762.97,1081.17 1763.91,1083.97 1764.85,1086.76 1765.78,1089.54 
  1766.72,1092.31 1767.66,1095.07 1768.6,1097.81 1769.54,1100.54 1770.48,1103.25 1771.42,1105.96 1772.36,1108.64 1773.3,1111.32 1774.23,1113.98 1775.17,1116.63 
  1776.11,1119.27 1777.05,1121.89 1777.99,1124.5 1778.93,1127.1 1779.87,1129.68 1780.81,1132.25 1781.74,1134.8 1782.68,1137.34 1783.62,1139.87 1784.56,1142.38 
  1785.5,1144.87 1786.44,1147.36 1787.38,1149.83 1788.32,1152.28 1789.26,1154.72 1790.19,1157.15 1791.13,1159.56 1792.07,1161.96 1793.01,1164.34 1793.95,1166.7 
  1794.89,1169.06 1795.83,1171.4 1796.77,1173.72 1797.7,1176.03 1798.64,1178.32 1799.58,1180.6 1800.52,1182.87 1801.46,1185.12 1802.4,1187.35 1803.34,1189.57 
  1804.28,1191.78 1805.22,1193.97 1806.15,1196.14 1807.09,1198.3 1808.03,1200.45 1808.97,1202.58 1809.91,1204.69 1810.85,1206.79 1811.79,1208.88 1812.73,1210.95 
  1813.67,1213.01 1814.6,1215.05 1815.54,1217.07 1816.48,1219.08 1817.42,1221.08 1818.36,1223.06 1819.3,1225.03 1820.24,1226.98 1821.18,1228.91 1822.11,1230.83 
  1823.05,1232.74 1823.99,1234.63 1824.93,1236.51 1825.87,1238.37 1826.81,1240.22 1827.75,1242.05 1828.69,1243.87 1829.63,1245.67 1830.56,1247.46 1831.5,1249.23 
  1832.44,1250.99 1833.38,1252.73 1834.32,1254.46 1835.26,1256.18 1836.2,1257.88 1837.14,1259.57 1838.07,1261.24 1839.01,1262.9 1839.95,1264.54 1840.89,1266.17 
  1841.83,1267.78 1842.77,1269.38 1843.71,1270.97 1844.65,1272.54 1845.59,1274.1 1846.52,1275.64 1847.46,1277.17 1848.4,1278.69 1849.34,1280.19 1850.28,1281.68 
  1851.22,1283.15 1852.16,1284.61 1853.1,1286.06 1854.04,1287.49 1854.97,1288.91 1855.91,1290.32 1856.85,1291.71 1857.79,1293.09 1858.73,1294.46 1859.67,1295.81 
  1860.61,1297.15 1861.55,1298.48 1862.48,1299.79 1863.42,1301.09 1864.36,1302.38 1865.3,1303.66 1866.24,1304.92 1867.18,1306.17 1868.12,1307.41 1869.06,1308.63 
  1870,1309.84 1870.93,1311.04 1871.87,1312.23 1872.81,1313.4 1873.75,1314.57 1874.69,1315.72 1875.63,1316.85 1876.57,1317.98 1877.51,1319.1 1878.44,1320.2 
  1879.38,1321.29 1880.32,1322.37 1881.26,1323.43 1882.2,1324.49 1883.14,1325.53 1884.08,1326.57 1885.02,1327.59 1885.96,1328.6 1886.89,1329.6 1887.83,1330.58 
  1888.77,1331.56 1889.71,1332.53 1890.65,1333.48 1891.59,1334.42 1892.53,1335.36 1893.47,1336.28 1894.4,1337.19 1895.34,1338.09 1896.28,1338.99 1897.22,1339.87 
  1898.16,1340.74 1899.1,1341.6 1900.04,1342.45 1900.98,1343.29 1901.92,1344.12 1902.85,1344.94 1903.79,1345.75 1904.73,1346.55 1905.67,1347.34 1906.61,1348.12 
  1907.55,1348.89 1908.49,1349.65 1909.43,1350.41 1910.37,1351.15 1911.3,1351.89 1912.24,1352.61 1913.18,1353.33 1914.12,1354.04 1915.06,1354.74 1916,1355.43 
  1916.94,1356.11 1917.88,1356.78 1918.81,1357.44 1919.75,1358.1 1920.69,1358.75 1921.63,1359.39 1922.57,1360.02 1923.51,1360.64 1924.45,1361.26 1925.39,1361.86 
  1926.33,1362.46 1927.26,1363.05 1928.2,1363.63 1929.14,1364.21 1930.08,1364.78 1931.02,1365.34 1931.96,1365.89 1932.9,1366.44 1933.84,1366.97 1934.77,1367.5 
  1935.71,1368.03 1936.65,1368.54 1937.59,1369.05 1938.53,1369.56 1939.47,1370.05 1940.41,1370.54 1941.35,1371.02 1942.29,1371.5 1943.22,1371.97 1944.16,1372.43 
  1945.1,1372.88 1946.04,1373.33 1946.98,1373.78 1947.92,1374.21 1948.86,1374.64 1949.8,1375.07 1950.74,1375.48 1951.67,1375.9 1952.61,1376.3 1953.55,1376.7 
  1954.49,1377.1 1955.43,1377.49 1956.37,1377.87 1957.31,1378.25 1958.25,1378.62 1959.18,1378.99 1960.12,1379.35 1961.06,1379.7 1962,1380.05 1962.94,1380.4 
  1963.88,1380.74 1964.82,1381.07 1965.76,1381.4 1966.7,1381.73 1967.63,1382.05 1968.57,1382.37 1969.51,1382.68 1970.45,1382.98 1971.39,1383.28 1972.33,1383.58 
  1973.27,1383.87 1974.21,1384.16 1975.14,1384.44 1976.08,1384.72 1977.02,1384.99 1977.96,1385.26 1978.9,1385.53 1979.84,1385.79 1980.78,1386.05 1981.72,1386.3 
  1982.66,1386.55 1983.59,1386.8 1984.53,1387.04 1985.47,1387.28 1986.41,1387.51 1987.35,1387.74 1988.29,1387.97 1989.23,1388.19 1990.17,1388.41 1991.1,1388.62 
  1992.04,1388.84 1992.98,1389.04 1993.92,1389.25 1994.86,1389.45 1995.8,1389.65 1996.74,1389.84 1997.68,1390.04 1998.62,1390.23 1999.55,1390.41 2000.49,1390.59 
  2001.43,1390.77 2002.37,1390.95 2003.31,1391.12 2004.25,1391.29 2005.19,1391.46 2006.13,1391.63 2007.07,1391.79 2008,1391.95 2008.94,1392.1 2009.88,1392.26 
  2010.82,1392.41 2011.76,1392.56 2012.7,1392.7 2013.64,1392.85 2014.58,1392.99 2015.51,1393.13 2016.45,1393.26 2017.39,1393.39 2018.33,1393.53 2019.27,1393.65 
  2020.21,1393.78 2021.15,1393.91 2022.09,1394.03 2023.03,1394.15 2023.96,1394.27 2024.9,1394.38 2025.84,1394.5 2026.78,1394.61 2027.72,1394.72 2028.66,1394.82 
  2029.6,1394.93 2030.54,1395.03 2031.47,1395.14 2032.41,1395.24 2033.35,1395.33 2034.29,1395.43 2035.23,1395.53 2036.17,1395.62 2037.11,1395.71 2038.05,1395.8 
  2038.99,1395.89 2039.92,1395.97 2040.86,1396.06 2041.8,1396.14 2042.74,1396.22 2043.68,1396.3 2044.62,1396.38 2045.56,1396.46 2046.5,1396.53 2047.44,1396.61 
  2048.37,1396.68 2049.31,1396.75 2050.25,1396.82 2051.19,1396.89 2052.13,1396.95 2053.07,1397.02 2054.01,1397.09 2054.95,1397.15 2055.88,1397.21 2056.82,1397.27 
  2057.76,1397.33 2058.7,1397.39 2059.64,1397.45 2060.58,1397.5 2061.52,1397.56 2062.46,1397.61 2063.4,1397.67 2064.33,1397.72 2065.27,1397.77 2066.21,1397.82 
  2067.15,1397.87 2068.09,1397.91 2069.03,1397.96 2069.97,1398.01 2070.91,1398.05 2071.84,1398.1 2072.78,1398.14 2073.72,1398.18 2074.66,1398.22 2075.6,1398.26 
  2076.54,1398.3 2077.48,1398.34 2078.42,1398.38 2079.36,1398.42 2080.29,1398.45 2081.23,1398.49 2082.17,1398.52 2083.11,1398.56 2084.05,1398.59 2084.99,1398.62 
  2085.93,1398.66 2086.87,1398.69 2087.8,1398.72 2088.74,1398.75 2089.68,1398.78 2090.62,1398.81 2091.56,1398.83 2092.5,1398.86 2093.44,1398.89 2094.38,1398.92 
  2095.32,1398.94 2096.25,1398.97 2097.19,1398.99 2098.13,1399.01 2099.07,1399.04 2100.01,1399.06 2100.95,1399.08 2101.89,1399.11 2102.83,1399.13 2103.77,1399.15 
  2104.7,1399.17 2105.64,1399.19 2106.58,1399.21 2107.52,1399.23 2108.46,1399.24 2109.4,1399.26 2110.34,1399.28 2111.28,1399.3 2112.21,1399.31 2113.15,1399.33 
  2114.09,1399.35 2115.03,1399.36 2115.97,1399.38 2116.91,1399.39 2117.85,1399.41 2118.79,1399.42 2119.73,1399.43 2120.66,1399.45 2121.6,1399.46 2122.54,1399.47 
  2123.48,1399.49 2124.42,1399.5 2125.36,1399.51 2126.3,1399.52 2127.24,1399.53 2128.17,1399.54 2129.11,1399.55 2130.05,1399.56 2130.99,1399.57 2131.93,1399.58 
  2132.87,1399.59 2133.81,1399.6 2134.75,1399.61 2135.69,1399.61 2136.62,1399.62 2137.56,1399.63 2138.5,1399.64 2139.44,1399.64 2140.38,1399.65 2141.32,1399.66 
  2142.26,1399.66 2143.2,1399.67 2144.14,1399.68 2145.07,1399.68 2146.01,1399.69 2146.95,1399.69 2147.89,1399.7 2148.83,1399.7 2149.77,1399.7 2150.71,1399.71 
  2151.65,1399.71 2152.58,1399.72 2153.52,1399.72 2154.46,1399.72 2155.4,1399.72 2156.34,1399.73 2157.28,1399.73 2158.22,1399.73 2159.16,1399.73 2160.1,1399.74 
  2161.03,1399.74 2161.97,1399.74 2162.91,1399.74 2163.85,1399.74 2164.79,1399.74 2165.73,1399.74 2166.67,1399.74 2167.61,1399.74 
  "/>
</svg>
