<?xml version="1.0" encoding="utf-8"?>
<svg xmlns="http://www.w3.org/2000/svg" xmlns:xlink="http://www.w3.org/1999/xlink" width="576" height="384" viewBox="0 0 2304 1536">
<defs>
  <clipPath id="clip330">
    <rect x="0" y="0" width="2304" height="1536"/>
  </clipPath>
</defs>
<path clip-path="url(#clip330)" d="
M0 1536 L2304 1536 L2304 0 L0 0  Z
  " fill="#ffffff" fill-rule="evenodd" fill-opacity="1"/>
<defs>
  <clipPath id="clip331">
    <rect x="460" y="0" width="1614" height="1536"/>
  </clipPath>
</defs>
<path clip-path="url(#clip330)" d="
M237.17 1359.82 L2256.76 1359.82 L2256.76 47.2441 L237.17 47.2441  Z
  " fill="#ffffff" fill-rule="evenodd" fill-opacity="1"/>
<defs>
  <clipPath id="clip332">
    <rect x="237" y="47" width="2021" height="1314"/>
  </clipPath>
</defs>
<polyline clip-path="url(#clip332)" style="stroke:#000000; stroke-width:2; stroke-opacity:0.1; fill:none" points="
  287.636,1359.82 287.636,47.2441 
  "/>
<polyline clip-path="url(#clip332)" style="stroke:#000000; stroke-width:2; stroke-opacity:0.1; fill:none" points="
  765.627,1359.82 765.627,47.2441 
  "/>
<polyline clip-path="url(#clip332)" style="stroke:#000000; stroke-width:2; stroke-opacity:0.1; fill:none" points="
  1243.62,1359.82 1243.62,47.2441 
  "/>
<polyline clip-path="url(#clip332)" style="stroke:#000000; stroke-width:2; stroke-opacity:0.1; fill:none" points="
  1721.61,1359.82 1721.61,47.2441 
  "/>
<polyline clip-path="url(#clip332)" style="stroke:#000000; stroke-width:2; stroke-opacity:0.1; fill:none" points="
  2199.6,1359.82 2199.6,47.2441 
  "/>
<polyline clip-path="url(#clip332)" style="stroke:#000000; stroke-width:2; stroke-opacity:0.1; fill:none" points="
  237.17,1333.42 2256.76,1333.42 
  "/>
<polyline clip-path="url(#clip332)" style="stroke:#000000; stroke-width:2; stroke-opacity:0.1; fill:none" points="
  237.17,1021.12 2256.76,1021.12 
  "/>
<polyline clip-path="url(#clip332)" style="stroke:#000000; stroke-width:2; stroke-opacity:0.1; fill:none" points="
  237.17,708.822 2256.76,708.822 
  "/>
<polyline clip-path="url(#clip332)" style="stroke:#000000; stroke-width:2; stroke-opacity:0.1; fill:none" points="
  237.17,396.524 2256.76,396.524 
  "/>
<polyline clip-path="url(#clip332)" style="stroke:#000000; stroke-width:2; stroke-opacity:0.1; fill:none" points="
  237.17,84.2269 2256.76,84.2269 
  "/>
<polyline clip-path="url(#clip330)" style="stroke:#000000; stroke-width:4; stroke-opacity:1; fill:none" points="
  237.17,1359.82 2256.76,1359.82 
  "/>
<polyline clip-path="url(#clip330)" style="stroke:#000000; stroke-width:4; stroke-opacity:1; fill:none" points="
  237.17,1359.82 237.17,47.2441 
  "/>
<polyline clip-path="url(#clip330)" style="stroke:#000000; stroke-width:4; stroke-opacity:1; fill:none" points="
  287.636,1359.82 287.636,1344.07 
  "/>
<polyline clip-path="url(#clip330)" style="stroke:#000000; stroke-width:4; stroke-opacity:1; fill:none" points="
  765.627,1359.82 765.627,1344.07 
  "/>
<polyline clip-path="url(#clip330)" style="stroke:#000000; stroke-width:4; stroke-opacity:1; fill:none" points="
  1243.62,1359.82 1243.62,1344.07 
  "/>
<polyline clip-path="url(#clip330)" style="stroke:#000000; stroke-width:4; stroke-opacity:1; fill:none" points="
  1721.61,1359.82 1721.61,1344.07 
  "/>
<polyline clip-path="url(#clip330)" style="stroke:#000000; stroke-width:4; stroke-opacity:1; fill:none" points="
  2199.6,1359.82 2199.6,1344.07 
  "/>
<polyline clip-path="url(#clip330)" style="stroke:#000000; stroke-width:4; stroke-opacity:1; fill:none" points="
  237.17,1333.42 261.405,1333.42 
  "/>
<polyline clip-path="url(#clip330)" style="stroke:#000000; stroke-width:4; stroke-opacity:1; fill:none" points="
  237.17,1021.12 261.405,1021.12 
  "/>
<polyline clip-path="url(#clip330)" style="stroke:#000000; stroke-width:4; stroke-opacity:1; fill:none" points="
  237.17,708.822 261.405,708.822 
  "/>
<polyline clip-path="url(#clip330)" style="stroke:#000000; stroke-width:4; stroke-opacity:1; fill:none" points="
  237.17,396.524 261.405,396.524 
  "/>
<polyline clip-path="url(#clip330)" style="stroke:#000000; stroke-width:4; stroke-opacity:1; fill:none" points="
  237.17,84.2269 261.405,84.2269 
  "/>
<path clip-path="url(#clip330)" d="M 0 0 M287.636 1381.33 Q284.025 1381.33 282.196 1384.9 Q280.391 1388.44 280.391 1395.57 Q280.391 1402.67 282.196 1406.24 Q284.025 1409.78 287.636 1409.78 Q291.271 1409.78 293.076 1406.24 Q294.905 1402.67 294.905 1395.57 Q294.905 1388.44 293.076 1384.9 Q291.271 1381.33 287.636 1381.33 M287.636 1377.63 Q293.446 1377.63 296.502 1382.23 Q299.581 1386.82 299.581 1395.57 Q299.581 1404.29 296.502 1408.9 Q293.446 1413.48 287.636 1413.48 Q281.826 1413.48 278.747 1408.9 Q275.692 1404.29 275.692 1395.57 Q275.692 1386.82 278.747 1382.23 Q281.826 1377.63 287.636 1377.63 Z" fill="#000000" fill-rule="evenodd" fill-opacity="1" /><path clip-path="url(#clip330)" d="M 0 0 M746.773 1408.88 L763.092 1408.88 L763.092 1412.81 L741.148 1412.81 L741.148 1408.88 Q743.81 1406.12 748.393 1401.49 Q752.999 1396.84 754.18 1395.5 Q756.425 1392.97 757.305 1391.24 Q758.208 1389.48 758.208 1387.79 Q758.208 1385.03 756.263 1383.3 Q754.342 1381.56 751.24 1381.56 Q749.041 1381.56 746.587 1382.33 Q744.157 1383.09 741.379 1384.64 L741.379 1379.92 Q744.203 1378.78 746.657 1378.21 Q749.111 1377.63 751.148 1377.63 Q756.518 1377.63 759.712 1380.31 Q762.907 1383 762.907 1387.49 Q762.907 1389.62 762.097 1391.54 Q761.31 1393.44 759.203 1396.03 Q758.624 1396.7 755.523 1399.92 Q752.421 1403.11 746.773 1408.88 Z" fill="#000000" fill-rule="evenodd" fill-opacity="1" /><path clip-path="url(#clip330)" d="M 0 0 M778.161 1381.33 Q774.55 1381.33 772.722 1384.9 Q770.916 1388.44 770.916 1395.57 Q770.916 1402.67 772.722 1406.24 Q774.55 1409.78 778.161 1409.78 Q781.796 1409.78 783.601 1406.24 Q785.43 1402.67 785.43 1395.57 Q785.43 1388.44 783.601 1384.9 Q781.796 1381.33 778.161 1381.33 M778.161 1377.63 Q783.971 1377.63 787.027 1382.23 Q790.106 1386.82 790.106 1395.57 Q790.106 1404.29 787.027 1408.9 Q783.971 1413.48 778.161 1413.48 Q772.351 1413.48 769.272 1408.9 Q766.217 1404.29 766.217 1395.57 Q766.217 1386.82 769.272 1382.23 Q772.351 1377.63 778.161 1377.63 Z" fill="#000000" fill-rule="evenodd" fill-opacity="1" /><path clip-path="url(#clip330)" d="M 0 0 M1233.12 1382.33 L1221.31 1400.77 L1233.12 1400.77 L1233.12 1382.33 M1231.89 1378.25 L1237.77 1378.25 L1237.77 1400.77 L1242.7 1400.77 L1242.7 1404.66 L1237.77 1404.66 L1237.77 1412.81 L1233.12 1412.81 L1233.12 1404.66 L1217.52 1404.66 L1217.52 1400.15 L1231.89 1378.25 Z" fill="#000000" fill-rule="evenodd" fill-opacity="1" /><path clip-path="url(#clip330)" d="M 0 0 M1257.77 1381.33 Q1254.16 1381.33 1252.33 1384.9 Q1250.53 1388.44 1250.53 1395.57 Q1250.53 1402.67 1252.33 1406.24 Q1254.16 1409.78 1257.77 1409.78 Q1261.41 1409.78 1263.21 1406.24 Q1265.04 1402.67 1265.04 1395.57 Q1265.04 1388.44 1263.21 1384.9 Q1261.41 1381.33 1257.77 1381.33 M1257.77 1377.63 Q1263.58 1377.63 1266.64 1382.23 Q1269.72 1386.82 1269.72 1395.57 Q1269.72 1404.29 1266.64 1408.9 Q1263.58 1413.48 1257.77 1413.48 Q1251.96 1413.48 1248.88 1408.9 Q1245.83 1404.29 1245.83 1395.57 Q1245.83 1386.82 1248.88 1382.23 Q1251.96 1377.63 1257.77 1377.63 Z" fill="#000000" fill-rule="evenodd" fill-opacity="1" /><path clip-path="url(#clip330)" d="M 0 0 M1708.51 1393.67 Q1705.36 1393.67 1703.51 1395.82 Q1701.68 1397.97 1701.68 1401.72 Q1701.68 1405.45 1703.51 1407.63 Q1705.36 1409.78 1708.51 1409.78 Q1711.65 1409.78 1713.48 1407.63 Q1715.33 1405.45 1715.33 1401.72 Q1715.33 1397.97 1713.48 1395.82 Q1711.65 1393.67 1708.51 1393.67 M1717.79 1379.02 L1717.79 1383.27 Q1716.03 1382.44 1714.22 1382 Q1712.44 1381.56 1710.68 1381.56 Q1706.05 1381.56 1703.6 1384.69 Q1701.17 1387.81 1700.82 1394.13 Q1702.19 1392.12 1704.25 1391.05 Q1706.31 1389.96 1708.78 1389.96 Q1713.99 1389.96 1717 1393.14 Q1720.03 1396.28 1720.03 1401.72 Q1720.03 1407.05 1716.89 1410.27 Q1713.74 1413.48 1708.51 1413.48 Q1702.51 1413.48 1699.34 1408.9 Q1696.17 1404.29 1696.17 1395.57 Q1696.17 1387.37 1700.06 1382.51 Q1703.95 1377.63 1710.5 1377.63 Q1712.26 1377.63 1714.04 1377.97 Q1715.84 1378.32 1717.79 1379.02 Z" fill="#000000" fill-rule="evenodd" fill-opacity="1" /><path clip-path="url(#clip330)" d="M 0 0 M1735.1 1381.33 Q1731.49 1381.33 1729.66 1384.9 Q1727.86 1388.44 1727.86 1395.57 Q1727.86 1402.67 1729.66 1406.24 Q1731.49 1409.78 1735.1 1409.78 Q1738.74 1409.78 1740.54 1406.24 Q1742.37 1402.67 1742.37 1395.57 Q1742.37 1388.44 1740.54 1384.9 Q1738.74 1381.33 1735.1 1381.33 M1735.1 1377.63 Q1740.91 1377.63 1743.97 1382.23 Q1747.05 1386.82 1747.05 1395.57 Q1747.05 1404.29 1743.97 1408.9 Q1740.91 1413.48 1735.1 1413.48 Q1729.29 1413.48 1726.21 1408.9 Q1723.16 1404.29 1723.16 1395.57 Q1723.16 1386.82 1726.21 1382.23 Q1729.29 1377.63 1735.1 1377.63 Z" fill="#000000" fill-rule="evenodd" fill-opacity="1" /><path clip-path="url(#clip330)" d="M 0 0 M2186.09 1396.4 Q2182.76 1396.4 2180.84 1398.18 Q2178.94 1399.96 2178.94 1403.09 Q2178.94 1406.21 2180.84 1408 Q2182.76 1409.78 2186.09 1409.78 Q2189.42 1409.78 2191.35 1408 Q2193.27 1406.19 2193.27 1403.09 Q2193.27 1399.96 2191.35 1398.18 Q2189.45 1396.4 2186.09 1396.4 M2181.42 1394.41 Q2178.41 1393.67 2176.72 1391.61 Q2175.05 1389.55 2175.05 1386.59 Q2175.05 1382.44 2177.99 1380.03 Q2180.95 1377.63 2186.09 1377.63 Q2191.25 1377.63 2194.19 1380.03 Q2197.13 1382.44 2197.13 1386.59 Q2197.13 1389.55 2195.44 1391.61 Q2193.78 1393.67 2190.79 1394.41 Q2194.17 1395.2 2196.04 1397.49 Q2197.94 1399.78 2197.94 1403.09 Q2197.94 1408.11 2194.86 1410.8 Q2191.81 1413.48 2186.09 1413.48 Q2180.37 1413.48 2177.29 1410.8 Q2174.24 1408.11 2174.24 1403.09 Q2174.24 1399.78 2176.14 1397.49 Q2178.04 1395.2 2181.42 1394.41 M2179.7 1387.02 Q2179.7 1389.71 2181.37 1391.21 Q2183.06 1392.72 2186.09 1392.72 Q2189.1 1392.72 2190.79 1391.21 Q2192.5 1389.71 2192.5 1387.02 Q2192.5 1384.34 2190.79 1382.84 Q2189.1 1381.33 2186.09 1381.33 Q2183.06 1381.33 2181.37 1382.84 Q2179.7 1384.34 2179.7 1387.02 Z" fill="#000000" fill-rule="evenodd" fill-opacity="1" /><path clip-path="url(#clip330)" d="M 0 0 M2213.01 1381.33 Q2209.4 1381.33 2207.57 1384.9 Q2205.77 1388.44 2205.77 1395.57 Q2205.77 1402.67 2207.57 1406.24 Q2209.4 1409.78 2213.01 1409.78 Q2216.65 1409.78 2218.45 1406.24 Q2220.28 1402.67 2220.28 1395.57 Q2220.28 1388.44 2218.45 1384.9 Q2216.65 1381.33 2213.01 1381.33 M2213.01 1377.63 Q2218.82 1377.63 2221.88 1382.23 Q2224.96 1386.82 2224.96 1395.57 Q2224.96 1404.29 2221.88 1408.9 Q2218.82 1413.48 2213.01 1413.48 Q2207.2 1413.48 2204.12 1408.9 Q2201.07 1404.29 2201.07 1395.57 Q2201.07 1386.82 2204.12 1382.23 Q2207.2 1377.63 2213.01 1377.63 Z" fill="#000000" fill-rule="evenodd" fill-opacity="1" /><path clip-path="url(#clip330)" d="M 0 0 M138.205 1319.22 Q134.593 1319.22 132.765 1322.78 Q130.959 1326.32 130.959 1333.45 Q130.959 1340.56 132.765 1344.12 Q134.593 1347.66 138.205 1347.66 Q141.839 1347.66 143.644 1344.12 Q145.473 1340.56 145.473 1333.45 Q145.473 1326.32 143.644 1322.78 Q141.839 1319.22 138.205 1319.22 M138.205 1315.51 Q144.015 1315.51 147.07 1320.12 Q150.149 1324.7 150.149 1333.45 Q150.149 1342.18 147.07 1346.78 Q144.015 1351.37 138.205 1351.37 Q132.394 1351.37 129.316 1346.78 Q126.26 1342.18 126.26 1333.45 Q126.26 1324.7 129.316 1320.12 Q132.394 1315.51 138.205 1315.51 Z" fill="#000000" fill-rule="evenodd" fill-opacity="1" /><path clip-path="url(#clip330)" d="M 0 0 M155.218 1344.82 L160.103 1344.82 L160.103 1350.7 L155.218 1350.7 L155.218 1344.82 Z" fill="#000000" fill-rule="evenodd" fill-opacity="1" /><path clip-path="url(#clip330)" d="M 0 0 M175.172 1319.22 Q171.561 1319.22 169.732 1322.78 Q167.927 1326.32 167.927 1333.45 Q167.927 1340.56 169.732 1344.12 Q171.561 1347.66 175.172 1347.66 Q178.806 1347.66 180.612 1344.12 Q182.44 1340.56 182.44 1333.45 Q182.44 1326.32 180.612 1322.78 Q178.806 1319.22 175.172 1319.22 M175.172 1315.51 Q180.982 1315.51 184.038 1320.12 Q187.116 1324.7 187.116 1333.45 Q187.116 1342.18 184.038 1346.78 Q180.982 1351.37 175.172 1351.37 Q169.362 1351.37 166.283 1346.78 Q163.228 1342.18 163.228 1333.45 Q163.228 1324.7 166.283 1320.12 Q169.362 1315.51 175.172 1315.51 Z" fill="#000000" fill-rule="evenodd" fill-opacity="1" /><path clip-path="url(#clip330)" d="M 0 0 M202.186 1319.22 Q198.575 1319.22 196.746 1322.78 Q194.94 1326.32 194.94 1333.45 Q194.94 1340.56 196.746 1344.12 Q198.575 1347.66 202.186 1347.66 Q205.82 1347.66 207.625 1344.12 Q209.454 1340.56 209.454 1333.45 Q209.454 1326.32 207.625 1322.78 Q205.82 1319.22 202.186 1319.22 M202.186 1315.51 Q207.996 1315.51 211.051 1320.12 Q214.13 1324.7 214.13 1333.45 Q214.13 1342.18 211.051 1346.78 Q207.996 1351.37 202.186 1351.37 Q196.376 1351.37 193.297 1346.78 Q190.241 1342.18 190.241 1333.45 Q190.241 1324.7 193.297 1320.12 Q196.376 1315.51 202.186 1315.51 Z" fill="#000000" fill-rule="evenodd" fill-opacity="1" /><path clip-path="url(#clip330)" d="M 0 0 M140.797 1006.92 Q137.186 1006.92 135.357 1010.48 Q133.552 1014.02 133.552 1021.15 Q133.552 1028.26 135.357 1031.83 Q137.186 1035.37 140.797 1035.37 Q144.431 1035.37 146.237 1031.83 Q148.066 1028.26 148.066 1021.15 Q148.066 1014.02 146.237 1010.48 Q144.431 1006.92 140.797 1006.92 M140.797 1003.21 Q146.607 1003.21 149.663 1007.82 Q152.741 1012.4 152.741 1021.15 Q152.741 1029.88 149.663 1034.49 Q146.607 1039.07 140.797 1039.07 Q134.987 1039.07 131.908 1034.49 Q128.853 1029.88 128.853 1021.15 Q128.853 1012.4 131.908 1007.82 Q134.987 1003.21 140.797 1003.21 Z" fill="#000000" fill-rule="evenodd" fill-opacity="1" /><path clip-path="url(#clip330)" d="M 0 0 M157.811 1032.52 L162.695 1032.52 L162.695 1038.4 L157.811 1038.4 L157.811 1032.52 Z" fill="#000000" fill-rule="evenodd" fill-opacity="1" /><path clip-path="url(#clip330)" d="M 0 0 M171.792 1034.46 L188.112 1034.46 L188.112 1038.4 L166.167 1038.4 L166.167 1034.46 Q168.829 1031.71 173.413 1027.08 Q178.019 1022.43 179.2 1021.08 Q181.445 1018.56 182.325 1016.83 Q183.227 1015.07 183.227 1013.38 Q183.227 1010.62 181.283 1008.89 Q179.362 1007.15 176.26 1007.15 Q174.061 1007.15 171.607 1007.91 Q169.177 1008.68 166.399 1010.23 L166.399 1005.51 Q169.223 1004.37 171.677 1003.79 Q174.13 1003.21 176.167 1003.21 Q181.538 1003.21 184.732 1005.9 Q187.926 1008.58 187.926 1013.08 Q187.926 1015.2 187.116 1017.13 Q186.329 1019.02 184.223 1021.62 Q183.644 1022.29 180.542 1025.51 Q177.44 1028.7 171.792 1034.46 Z" fill="#000000" fill-rule="evenodd" fill-opacity="1" /><path clip-path="url(#clip330)" d="M 0 0 M193.227 1003.84 L211.584 1003.84 L211.584 1007.77 L197.51 1007.77 L197.51 1016.25 Q198.528 1015.9 199.547 1015.74 Q200.565 1015.55 201.584 1015.55 Q207.371 1015.55 210.75 1018.72 Q214.13 1021.89 214.13 1027.31 Q214.13 1032.89 210.658 1035.99 Q207.186 1039.07 200.866 1039.07 Q198.69 1039.07 196.422 1038.7 Q194.176 1038.33 191.769 1037.59 L191.769 1032.89 Q193.852 1034.02 196.075 1034.58 Q198.297 1035.14 200.774 1035.14 Q204.778 1035.14 207.116 1033.03 Q209.454 1030.92 209.454 1027.31 Q209.454 1023.7 207.116 1021.59 Q204.778 1019.49 200.774 1019.49 Q198.899 1019.49 197.024 1019.9 Q195.172 1020.32 193.227 1021.2 L193.227 1003.84 Z" fill="#000000" fill-rule="evenodd" fill-opacity="1" /><path clip-path="url(#clip330)" d="M 0 0 M139.2 694.621 Q135.589 694.621 133.76 698.185 Q131.955 701.727 131.955 708.857 Q131.955 715.963 133.76 719.528 Q135.589 723.069 139.2 723.069 Q142.834 723.069 144.64 719.528 Q146.468 715.963 146.468 708.857 Q146.468 701.727 144.64 698.185 Q142.834 694.621 139.2 694.621 M139.2 690.917 Q145.01 690.917 148.066 695.523 Q151.144 700.107 151.144 708.857 Q151.144 717.583 148.066 722.19 Q145.01 726.773 139.2 726.773 Q133.39 726.773 130.311 722.19 Q127.256 717.583 127.256 708.857 Q127.256 700.107 130.311 695.523 Q133.39 690.917 139.2 690.917 Z" fill="#000000" fill-rule="evenodd" fill-opacity="1" /><path clip-path="url(#clip330)" d="M 0 0 M156.214 720.222 L161.098 720.222 L161.098 726.102 L156.214 726.102 L156.214 720.222 Z" fill="#000000" fill-rule="evenodd" fill-opacity="1" /><path clip-path="url(#clip330)" d="M 0 0 M166.214 691.542 L184.57 691.542 L184.57 695.477 L170.496 695.477 L170.496 703.949 Q171.515 703.602 172.533 703.44 Q173.552 703.255 174.57 703.255 Q180.357 703.255 183.737 706.426 Q187.116 709.597 187.116 715.014 Q187.116 720.593 183.644 723.694 Q180.172 726.773 173.852 726.773 Q171.677 726.773 169.408 726.403 Q167.163 726.032 164.755 725.292 L164.755 720.593 Q166.839 721.727 169.061 722.282 Q171.283 722.838 173.76 722.838 Q177.765 722.838 180.102 720.731 Q182.44 718.625 182.44 715.014 Q182.44 711.403 180.102 709.296 Q177.765 707.19 173.76 707.19 Q171.885 707.19 170.01 707.607 Q168.158 708.023 166.214 708.903 L166.214 691.542 Z" fill="#000000" fill-rule="evenodd" fill-opacity="1" /><path clip-path="url(#clip330)" d="M 0 0 M202.186 694.621 Q198.575 694.621 196.746 698.185 Q194.94 701.727 194.94 708.857 Q194.94 715.963 196.746 719.528 Q198.575 723.069 202.186 723.069 Q205.82 723.069 207.625 719.528 Q209.454 715.963 209.454 708.857 Q209.454 701.727 207.625 698.185 Q205.82 694.621 202.186 694.621 M202.186 690.917 Q207.996 690.917 211.051 695.523 Q214.13 700.107 214.13 708.857 Q214.13 717.583 211.051 722.19 Q207.996 726.773 202.186 726.773 Q196.376 726.773 193.297 722.19 Q190.241 717.583 190.241 708.857 Q190.241 700.107 193.297 695.523 Q196.376 690.917 202.186 690.917 Z" fill="#000000" fill-rule="evenodd" fill-opacity="1" /><path clip-path="url(#clip330)" d="M 0 0 M140.103 382.323 Q136.492 382.323 134.663 385.888 Q132.857 389.429 132.857 396.559 Q132.857 403.666 134.663 407.23 Q136.492 410.772 140.103 410.772 Q143.737 410.772 145.542 407.23 Q147.371 403.666 147.371 396.559 Q147.371 389.429 145.542 385.888 Q143.737 382.323 140.103 382.323 M140.103 378.619 Q145.913 378.619 148.968 383.226 Q152.047 387.809 152.047 396.559 Q152.047 405.286 148.968 409.892 Q145.913 414.476 140.103 414.476 Q134.293 414.476 131.214 409.892 Q128.158 405.286 128.158 396.559 Q128.158 387.809 131.214 383.226 Q134.293 378.619 140.103 378.619 Z" fill="#000000" fill-rule="evenodd" fill-opacity="1" /><path clip-path="url(#clip330)" d="M 0 0 M157.116 407.925 L162.001 407.925 L162.001 413.804 L157.116 413.804 L157.116 407.925 Z" fill="#000000" fill-rule="evenodd" fill-opacity="1" /><path clip-path="url(#clip330)" d="M 0 0 M165.89 379.244 L188.112 379.244 L188.112 381.235 L175.565 413.804 L170.681 413.804 L182.487 383.18 L165.89 383.18 L165.89 379.244 Z" fill="#000000" fill-rule="evenodd" fill-opacity="1" /><path clip-path="url(#clip330)" d="M 0 0 M193.227 379.244 L211.584 379.244 L211.584 383.18 L197.51 383.18 L197.51 391.652 Q198.528 391.304 199.547 391.142 Q200.565 390.957 201.584 390.957 Q207.371 390.957 210.75 394.129 Q214.13 397.3 214.13 402.716 Q214.13 408.295 210.658 411.397 Q207.186 414.476 200.866 414.476 Q198.69 414.476 196.422 414.105 Q194.176 413.735 191.769 412.994 L191.769 408.295 Q193.852 409.429 196.075 409.985 Q198.297 410.54 200.774 410.54 Q204.778 410.54 207.116 408.434 Q209.454 406.328 209.454 402.716 Q209.454 399.105 207.116 396.999 Q204.778 394.892 200.774 394.892 Q198.899 394.892 197.024 395.309 Q195.172 395.726 193.227 396.605 L193.227 379.244 Z" fill="#000000" fill-rule="evenodd" fill-opacity="1" /><path clip-path="url(#clip330)" d="M 0 0 M130.242 97.5717 L137.88 97.5717 L137.88 71.2061 L129.57 72.8728 L129.57 68.6135 L137.834 66.9469 L142.51 66.9469 L142.51 97.5717 L150.149 97.5717 L150.149 101.507 L130.242 101.507 L130.242 97.5717 Z" fill="#000000" fill-rule="evenodd" fill-opacity="1" /><path clip-path="url(#clip330)" d="M 0 0 M155.218 95.6273 L160.103 95.6273 L160.103 101.507 L155.218 101.507 L155.218 95.6273 Z" fill="#000000" fill-rule="evenodd" fill-opacity="1" /><path clip-path="url(#clip330)" d="M 0 0 M175.172 70.0256 Q171.561 70.0256 169.732 73.5904 Q167.927 77.132 167.927 84.2616 Q167.927 91.368 169.732 94.9328 Q171.561 98.4745 175.172 98.4745 Q178.806 98.4745 180.612 94.9328 Q182.44 91.368 182.44 84.2616 Q182.44 77.132 180.612 73.5904 Q178.806 70.0256 175.172 70.0256 M175.172 66.3219 Q180.982 66.3219 184.038 70.9283 Q187.116 75.5117 187.116 84.2616 Q187.116 92.9884 184.038 97.5949 Q180.982 102.178 175.172 102.178 Q169.362 102.178 166.283 97.5949 Q163.228 92.9884 163.228 84.2616 Q163.228 75.5117 166.283 70.9283 Q169.362 66.3219 175.172 66.3219 Z" fill="#000000" fill-rule="evenodd" fill-opacity="1" /><path clip-path="url(#clip330)" d="M 0 0 M202.186 70.0256 Q198.575 70.0256 196.746 73.5904 Q194.94 77.132 194.94 84.2616 Q194.94 91.368 196.746 94.9328 Q198.575 98.4745 202.186 98.4745 Q205.82 98.4745 207.625 94.9328 Q209.454 91.368 209.454 84.2616 Q209.454 77.132 207.625 73.5904 Q205.82 70.0256 202.186 70.0256 M202.186 66.3219 Q207.996 66.3219 211.051 70.9283 Q214.13 75.5117 214.13 84.2616 Q214.13 92.9884 211.051 97.5949 Q207.996 102.178 202.186 102.178 Q196.376 102.178 193.297 97.5949 Q190.241 92.9884 190.241 84.2616 Q190.241 75.5117 193.297 70.9283 Q196.376 66.3219 202.186 66.3219 Z" fill="#000000" fill-rule="evenodd" fill-opacity="1" /><path clip-path="url(#clip330)" d="M 0 0 M924.015 1449.49 L924.015 1486.44 L931.781 1486.44 Q941.616 1486.44 946.167 1481.98 Q950.751 1477.53 950.751 1467.92 Q950.751 1458.37 946.167 1453.94 Q941.616 1449.49 931.781 1449.49 L924.015 1449.49 M917.585 1444.2 L930.794 1444.2 Q944.608 1444.2 951.069 1449.96 Q957.53 1455.69 957.53 1467.92 Q957.53 1480.2 951.037 1485.96 Q944.544 1491.72 930.794 1491.72 L917.585 1491.72 L917.585 1444.2 Z" fill="#000000" fill-rule="evenodd" fill-opacity="1" /><path clip-path="url(#clip330)" d="M 0 0 M963.673 1456.08 L969.53 1456.08 L969.53 1491.72 L963.673 1491.72 L963.673 1456.08 M963.673 1442.2 L969.53 1442.2 L969.53 1449.61 L963.673 1449.61 L963.673 1442.2 Z" fill="#000000" fill-rule="evenodd" fill-opacity="1" /><path clip-path="url(#clip330)" d="M 0 0 M998.398 1457.13 L998.398 1462.66 Q995.915 1461.39 993.242 1460.75 Q990.568 1460.12 987.704 1460.12 Q983.343 1460.12 981.147 1461.45 Q978.983 1462.79 978.983 1465.47 Q978.983 1467.5 980.542 1468.68 Q982.102 1469.83 986.812 1470.88 L988.818 1471.32 Q995.056 1472.66 997.666 1475.11 Q1000.31 1477.53 1000.31 1481.89 Q1000.31 1486.85 996.361 1489.75 Q992.446 1492.65 985.571 1492.65 Q982.707 1492.65 979.587 1492.07 Q976.5 1491.53 973.063 1490.42 L973.063 1484.37 Q976.309 1486.06 979.46 1486.92 Q982.611 1487.75 985.698 1487.75 Q989.836 1487.75 992.064 1486.34 Q994.292 1484.91 994.292 1482.33 Q994.292 1479.95 992.669 1478.67 Q991.077 1477.4 985.635 1476.22 L983.598 1475.75 Q978.155 1474.6 975.736 1472.24 Q973.317 1469.86 973.317 1465.72 Q973.317 1460.69 976.882 1457.95 Q980.447 1455.22 987.003 1455.22 Q990.25 1455.22 993.115 1455.69 Q995.979 1456.17 998.398 1457.13 Z" fill="#000000" fill-rule="evenodd" fill-opacity="1" /><path clip-path="url(#clip330)" d="M 0 0 M1012.24 1445.95 L1012.24 1456.08 L1024.31 1456.08 L1024.31 1460.63 L1012.24 1460.63 L1012.24 1479.98 Q1012.24 1484.34 1013.42 1485.58 Q1014.63 1486.82 1018.29 1486.82 L1024.31 1486.82 L1024.31 1491.72 L1018.29 1491.72 Q1011.51 1491.72 1008.93 1489.21 Q1006.36 1486.66 1006.36 1479.98 L1006.36 1460.63 L1002.06 1460.63 L1002.06 1456.08 L1006.36 1456.08 L1006.36 1445.95 L1012.24 1445.95 Z" fill="#000000" fill-rule="evenodd" fill-opacity="1" /><path clip-path="url(#clip330)" d="M 0 0 M1046.65 1473.8 Q1039.55 1473.8 1036.82 1475.43 Q1034.08 1477.05 1034.08 1480.97 Q1034.08 1484.08 1036.11 1485.93 Q1038.18 1487.75 1041.72 1487.75 Q1046.59 1487.75 1049.51 1484.31 Q1052.47 1480.84 1052.47 1475.11 L1052.47 1473.8 L1046.65 1473.8 M1058.33 1471.39 L1058.33 1491.72 L1052.47 1491.72 L1052.47 1486.31 Q1050.47 1489.56 1047.48 1491.12 Q1044.49 1492.65 1040.16 1492.65 Q1034.68 1492.65 1031.44 1489.59 Q1028.22 1486.5 1028.22 1481.35 Q1028.22 1475.33 1032.23 1472.28 Q1036.27 1469.22 1044.26 1469.22 L1052.47 1469.22 L1052.47 1468.65 Q1052.47 1464.61 1049.8 1462.41 Q1047.16 1460.18 1042.35 1460.18 Q1039.3 1460.18 1036.4 1460.91 Q1033.5 1461.65 1030.83 1463.11 L1030.83 1457.7 Q1034.05 1456.46 1037.07 1455.85 Q1040.09 1455.22 1042.96 1455.22 Q1050.69 1455.22 1054.51 1459.23 Q1058.33 1463.24 1058.33 1471.39 Z" fill="#000000" fill-rule="evenodd" fill-opacity="1" /><path clip-path="url(#clip330)" d="M 0 0 M1094.11 1470.21 L1094.11 1491.72 L1088.25 1491.72 L1088.25 1470.4 Q1088.25 1465.34 1086.28 1462.82 Q1084.3 1460.31 1080.36 1460.31 Q1075.61 1460.31 1072.88 1463.33 Q1070.14 1466.36 1070.14 1471.58 L1070.14 1491.72 L1064.25 1491.72 L1064.25 1456.08 L1070.14 1456.08 L1070.14 1461.61 Q1072.24 1458.4 1075.07 1456.81 Q1077.94 1455.22 1081.66 1455.22 Q1087.8 1455.22 1090.96 1459.04 Q1094.11 1462.82 1094.11 1470.21 Z" fill="#000000" fill-rule="evenodd" fill-opacity="1" /><path clip-path="url(#clip330)" d="M 0 0 M1125.9 1457.44 L1125.9 1462.92 Q1123.42 1461.55 1120.91 1460.88 Q1118.42 1460.18 1115.88 1460.18 Q1110.18 1460.18 1107.03 1463.81 Q1103.88 1467.41 1103.88 1473.93 Q1103.88 1480.46 1107.03 1484.08 Q1110.18 1487.68 1115.88 1487.68 Q1118.42 1487.68 1120.91 1487.01 Q1123.42 1486.31 1125.9 1484.94 L1125.9 1490.36 Q1123.45 1491.5 1120.81 1492.07 Q1118.2 1492.65 1115.24 1492.65 Q1107.19 1492.65 1102.45 1487.59 Q1097.7 1482.53 1097.7 1473.93 Q1097.7 1465.21 1102.48 1460.21 Q1107.28 1455.22 1115.62 1455.22 Q1118.33 1455.22 1120.91 1455.79 Q1123.48 1456.33 1125.9 1457.44 Z" fill="#000000" fill-rule="evenodd" fill-opacity="1" /><path clip-path="url(#clip330)" d="M 0 0 M1162.54 1472.44 L1162.54 1475.3 L1135.61 1475.3 Q1135.99 1481.35 1139.24 1484.53 Q1142.52 1487.68 1148.34 1487.68 Q1151.72 1487.68 1154.87 1486.85 Q1158.05 1486.03 1161.17 1484.37 L1161.17 1489.91 Q1158.02 1491.25 1154.71 1491.95 Q1151.4 1492.65 1147.99 1492.65 Q1139.46 1492.65 1134.47 1487.68 Q1129.5 1482.72 1129.5 1474.25 Q1129.5 1465.5 1134.21 1460.37 Q1138.95 1455.22 1146.97 1455.22 Q1154.17 1455.22 1158.34 1459.86 Q1162.54 1464.48 1162.54 1472.44 M1156.68 1470.72 Q1156.62 1465.91 1153.98 1463.05 Q1151.37 1460.18 1147.04 1460.18 Q1142.14 1460.18 1139.18 1462.95 Q1136.25 1465.72 1135.8 1470.75 L1156.68 1470.72 Z" fill="#000000" fill-rule="evenodd" fill-opacity="1" /><path clip-path="url(#clip330)" d="M 0 0 M1207.45 1442.2 L1207.45 1447.07 L1201.85 1447.07 Q1198.7 1447.07 1197.45 1448.34 Q1196.24 1449.61 1196.24 1452.92 L1196.24 1456.08 L1205.89 1456.08 L1205.89 1460.63 L1196.24 1460.63 L1196.24 1491.72 L1190.36 1491.72 L1190.36 1460.63 L1184.75 1460.63 L1184.75 1456.08 L1190.36 1456.08 L1190.36 1453.59 Q1190.36 1447.64 1193.13 1444.94 Q1195.89 1442.2 1201.91 1442.2 L1207.45 1442.2 Z" fill="#000000" fill-rule="evenodd" fill-opacity="1" /><path clip-path="url(#clip330)" d="M 0 0 M1234.25 1461.55 Q1233.26 1460.98 1232.08 1460.72 Q1230.94 1460.44 1229.54 1460.44 Q1224.57 1460.44 1221.9 1463.68 Q1219.26 1466.9 1219.26 1472.95 L1219.26 1491.72 L1213.37 1491.72 L1213.37 1456.08 L1219.26 1456.08 L1219.26 1461.61 Q1221.1 1458.37 1224.06 1456.81 Q1227.02 1455.22 1231.26 1455.22 Q1231.86 1455.22 1232.59 1455.31 Q1233.32 1455.38 1234.22 1455.53 L1234.25 1461.55 Z" fill="#000000" fill-rule="evenodd" fill-opacity="1" /><path clip-path="url(#clip330)" d="M 0 0 M1252.77 1460.18 Q1248.06 1460.18 1245.32 1463.87 Q1242.59 1467.53 1242.59 1473.93 Q1242.59 1480.33 1245.29 1484.02 Q1248.03 1487.68 1252.77 1487.68 Q1257.45 1487.68 1260.19 1483.99 Q1262.92 1480.3 1262.92 1473.93 Q1262.92 1467.6 1260.19 1463.91 Q1257.45 1460.18 1252.77 1460.18 M1252.77 1455.22 Q1260.41 1455.22 1264.77 1460.18 Q1269.13 1465.15 1269.13 1473.93 Q1269.13 1482.68 1264.77 1487.68 Q1260.41 1492.65 1252.77 1492.65 Q1245.1 1492.65 1240.74 1487.68 Q1236.41 1482.68 1236.41 1473.93 Q1236.41 1465.15 1240.74 1460.18 Q1245.1 1455.22 1252.77 1455.22 Z" fill="#000000" fill-rule="evenodd" fill-opacity="1" /><path clip-path="url(#clip330)" d="M 0 0 M1303.03 1462.92 Q1305.23 1458.97 1308.28 1457.09 Q1311.34 1455.22 1315.47 1455.22 Q1321.04 1455.22 1324.07 1459.13 Q1327.09 1463.01 1327.09 1470.21 L1327.09 1491.72 L1321.2 1491.72 L1321.2 1470.4 Q1321.2 1465.27 1319.39 1462.79 Q1317.57 1460.31 1313.85 1460.31 Q1309.3 1460.31 1306.66 1463.33 Q1304.02 1466.36 1304.02 1471.58 L1304.02 1491.72 L1298.13 1491.72 L1298.13 1470.4 Q1298.13 1465.24 1296.31 1462.79 Q1294.5 1460.31 1290.71 1460.31 Q1286.22 1460.31 1283.58 1463.36 Q1280.94 1466.39 1280.94 1471.58 L1280.94 1491.72 L1275.05 1491.72 L1275.05 1456.08 L1280.94 1456.08 L1280.94 1461.61 Q1282.95 1458.34 1285.75 1456.78 Q1288.55 1455.22 1292.4 1455.22 Q1296.28 1455.22 1298.99 1457.19 Q1301.72 1459.16 1303.03 1462.92 Z" fill="#000000" fill-rule="evenodd" fill-opacity="1" /><path clip-path="url(#clip330)" d="M 0 0 M1383.59 1470.21 L1383.59 1491.72 L1377.73 1491.72 L1377.73 1470.4 Q1377.73 1465.34 1375.76 1462.82 Q1373.78 1460.31 1369.84 1460.31 Q1365.09 1460.31 1362.36 1463.33 Q1359.62 1466.36 1359.62 1471.58 L1359.62 1491.72 L1353.73 1491.72 L1353.73 1442.2 L1359.62 1442.2 L1359.62 1461.61 Q1361.72 1458.4 1364.55 1456.81 Q1367.42 1455.22 1371.14 1455.22 Q1377.28 1455.22 1380.44 1459.04 Q1383.59 1462.82 1383.59 1470.21 Z" fill="#000000" fill-rule="evenodd" fill-opacity="1" /><path clip-path="url(#clip330)" d="M 0 0 M1403.54 1460.18 Q1398.83 1460.18 1396.1 1463.87 Q1393.36 1467.53 1393.36 1473.93 Q1393.36 1480.33 1396.06 1484.02 Q1398.8 1487.68 1403.54 1487.68 Q1408.22 1487.68 1410.96 1483.99 Q1413.7 1480.3 1413.7 1473.93 Q1413.7 1467.6 1410.96 1463.91 Q1408.22 1460.18 1403.54 1460.18 M1403.54 1455.22 Q1411.18 1455.22 1415.54 1460.18 Q1419.9 1465.15 1419.9 1473.93 Q1419.9 1482.68 1415.54 1487.68 Q1411.18 1492.65 1403.54 1492.65 Q1395.87 1492.65 1391.51 1487.68 Q1387.18 1482.68 1387.18 1473.93 Q1387.18 1465.15 1391.51 1460.18 Q1395.87 1455.22 1403.54 1455.22 Z" fill="#000000" fill-rule="evenodd" fill-opacity="1" /><path clip-path="url(#clip330)" d="M 0 0 M1426.05 1442.2 L1431.9 1442.2 L1431.9 1491.72 L1426.05 1491.72 L1426.05 1442.2 Z" fill="#000000" fill-rule="evenodd" fill-opacity="1" /><path clip-path="url(#clip330)" d="M 0 0 M1468.54 1472.44 L1468.54 1475.3 L1441.61 1475.3 Q1441.99 1481.35 1445.24 1484.53 Q1448.52 1487.68 1454.34 1487.68 Q1457.72 1487.68 1460.87 1486.85 Q1464.05 1486.03 1467.17 1484.37 L1467.17 1489.91 Q1464.02 1491.25 1460.71 1491.95 Q1457.4 1492.65 1453.99 1492.65 Q1445.46 1492.65 1440.46 1487.68 Q1435.5 1482.72 1435.5 1474.25 Q1435.5 1465.5 1440.21 1460.37 Q1444.95 1455.22 1452.97 1455.22 Q1460.17 1455.22 1464.34 1459.86 Q1468.54 1464.48 1468.54 1472.44 M1462.68 1470.72 Q1462.62 1465.91 1459.98 1463.05 Q1457.37 1460.18 1453.04 1460.18 Q1448.14 1460.18 1445.18 1462.95 Q1442.25 1465.72 1441.8 1470.75 L1462.68 1470.72 Z" fill="#000000" fill-rule="evenodd" fill-opacity="1" /><path clip-path="url(#clip330)" d="M 0 0 M1509.47 1442.26 Q1505.2 1449.58 1503.13 1456.74 Q1501.07 1463.91 1501.07 1471.26 Q1501.07 1478.61 1503.13 1485.84 Q1505.24 1493.03 1509.47 1500.32 L1504.38 1500.32 Q1499.6 1492.84 1497.21 1485.61 Q1494.86 1478.39 1494.86 1471.26 Q1494.86 1464.16 1497.21 1456.97 Q1499.57 1449.77 1504.38 1442.26 L1509.47 1442.26 Z" fill="#000000" fill-rule="evenodd" fill-opacity="1" /><path clip-path="url(#clip330)" d="M 0 0 M1533.66 1442.2 L1533.66 1447.07 L1528.06 1447.07 Q1524.91 1447.07 1523.66 1448.34 Q1522.45 1449.61 1522.45 1452.92 L1522.45 1456.08 L1532.1 1456.08 L1532.1 1460.63 L1522.45 1460.63 L1522.45 1491.72 L1516.57 1491.72 L1516.57 1460.63 L1510.96 1460.63 L1510.96 1456.08 L1516.57 1456.08 L1516.57 1453.59 Q1516.57 1447.64 1519.34 1444.94 Q1522.1 1442.2 1528.12 1442.2 L1533.66 1442.2 Z" fill="#000000" fill-rule="evenodd" fill-opacity="1" /><path clip-path="url(#clip330)" d="M 0 0 M1544.45 1445.95 L1544.45 1456.08 L1556.51 1456.08 L1556.51 1460.63 L1544.45 1460.63 L1544.45 1479.98 Q1544.45 1484.34 1545.63 1485.58 Q1546.84 1486.82 1550.5 1486.82 L1556.51 1486.82 L1556.51 1491.72 L1550.5 1491.72 Q1543.72 1491.72 1541.14 1489.21 Q1538.56 1486.66 1538.56 1479.98 L1538.56 1460.63 L1534.26 1460.63 L1534.26 1456.08 L1538.56 1456.08 L1538.56 1445.95 L1544.45 1445.95 Z" fill="#000000" fill-rule="evenodd" fill-opacity="1" /><path clip-path="url(#clip330)" d="M 0 0 M1561.73 1442.26 L1566.82 1442.26 Q1571.6 1449.77 1573.95 1456.97 Q1576.34 1464.16 1576.34 1471.26 Q1576.34 1478.39 1573.95 1485.61 Q1571.6 1492.84 1566.82 1500.32 L1561.73 1500.32 Q1565.96 1493.03 1568.03 1485.84 Q1570.13 1478.61 1570.13 1471.26 Q1570.13 1463.91 1568.03 1456.74 Q1565.96 1449.58 1561.73 1442.26 Z" fill="#000000" fill-rule="evenodd" fill-opacity="1" /><path clip-path="url(#clip330)" d="M 0 0 M46.7277 1014.29 L64.5835 1014.29 L64.5835 1006.21 Q64.5835 1001.72 62.26 999.267 Q59.9365 996.816 55.6397 996.816 Q51.3747 996.816 49.0512 999.267 Q46.7277 1001.72 46.7277 1006.21 L46.7277 1014.29 M41.4442 1020.72 L41.4442 1006.21 Q41.4442 998.216 45.0726 994.142 Q48.6692 990.037 55.6397 990.037 Q62.6738 990.037 66.2704 994.142 Q69.867 998.216 69.867 1006.21 L69.867 1014.29 L88.9642 1014.29 L88.9642 1020.72 L41.4442 1020.72 Z" fill="#000000" fill-rule="evenodd" fill-opacity="1" /><path clip-path="url(#clip330)" d="M 0 0 M58.7907 964.383 Q58.2178 965.369 57.9632 966.547 Q57.6767 967.693 57.6767 969.093 Q57.6767 974.059 60.9232 976.732 Q64.1379 979.374 70.1853 979.374 L88.9642 979.374 L88.9642 985.262 L53.3162 985.262 L53.3162 979.374 L58.8544 979.374 Q55.6079 977.528 54.0483 974.568 Q52.4568 971.608 52.4568 967.375 Q52.4568 966.77 52.5523 966.038 Q52.616 965.306 52.7751 964.415 L58.7907 964.383 Z" fill="#000000" fill-rule="evenodd" fill-opacity="1" /><path clip-path="url(#clip330)" d="M 0 0 M57.4221 945.859 Q57.4221 950.569 61.1142 953.306 Q64.7745 956.044 71.172 956.044 Q77.5695 956.044 81.2617 953.338 Q84.9219 950.601 84.9219 945.859 Q84.9219 941.18 81.2298 938.442 Q77.5377 935.705 71.172 935.705 Q64.8381 935.705 61.146 938.442 Q57.4221 941.18 57.4221 945.859 M52.4568 945.859 Q52.4568 938.22 57.4221 933.859 Q62.3873 929.499 71.172 929.499 Q79.9249 929.499 84.9219 933.859 Q89.8872 938.22 89.8872 945.859 Q89.8872 953.529 84.9219 957.89 Q79.9249 962.218 71.172 962.218 Q62.3873 962.218 57.4221 957.89 Q52.4568 953.529 52.4568 945.859 Z" fill="#000000" fill-rule="evenodd" fill-opacity="1" /><path clip-path="url(#clip330)" d="M 0 0 M71.172 897.766 Q64.7108 897.766 61.0505 900.439 Q57.3584 903.081 57.3584 907.728 Q57.3584 912.375 61.0505 915.048 Q64.7108 917.69 71.172 917.69 Q77.6332 917.69 81.3253 915.048 Q84.9856 912.375 84.9856 907.728 Q84.9856 903.081 81.3253 900.439 Q77.6332 897.766 71.172 897.766 M58.7271 917.69 Q55.5442 915.844 54.0164 913.043 Q52.4568 910.211 52.4568 906.296 Q52.4568 899.803 57.6131 895.76 Q62.7693 891.686 71.172 891.686 Q79.5747 891.686 84.731 895.76 Q89.8872 899.803 89.8872 906.296 Q89.8872 910.211 88.3594 913.043 Q86.7998 915.844 83.617 917.69 L88.9642 917.69 L88.9642 923.579 L39.439 923.579 L39.439 917.69 L58.7271 917.69 Z" fill="#000000" fill-rule="evenodd" fill-opacity="1" /><path clip-path="url(#clip330)" d="M 0 0 M71.0447 869.343 Q71.0447 876.44 72.6679 879.178 Q74.2912 881.915 78.2061 881.915 Q81.3253 881.915 83.1714 879.878 Q84.9856 877.809 84.9856 874.276 Q84.9856 869.406 81.5481 866.478 Q78.0788 863.518 72.3497 863.518 L71.0447 863.518 L71.0447 869.343 M68.6257 857.662 L88.9642 857.662 L88.9642 863.518 L83.5533 863.518 Q86.7998 865.523 88.3594 868.515 Q89.8872 871.507 89.8872 875.836 Q89.8872 881.31 86.8316 884.557 Q83.7443 887.771 78.5881 887.771 Q72.5725 887.771 69.5169 883.761 Q66.4614 879.719 66.4614 871.73 L66.4614 863.518 L65.8885 863.518 Q61.8462 863.518 59.6501 866.192 Q57.4221 868.833 57.4221 873.64 Q57.4221 876.695 58.1541 879.591 Q58.8862 882.488 60.3503 885.161 L54.9395 885.161 Q53.6981 881.947 53.0934 878.923 Q52.4568 875.899 52.4568 873.035 Q52.4568 865.3 56.4672 861.481 Q60.4776 857.662 68.6257 857.662 Z" fill="#000000" fill-rule="evenodd" fill-opacity="1" /><path clip-path="url(#clip330)" d="M 0 0 M71.172 825.929 Q64.7108 825.929 61.0505 828.602 Q57.3584 831.244 57.3584 835.891 Q57.3584 840.538 61.0505 843.211 Q64.7108 845.853 71.172 845.853 Q77.6332 845.853 81.3253 843.211 Q84.9856 840.538 84.9856 835.891 Q84.9856 831.244 81.3253 828.602 Q77.6332 825.929 71.172 825.929 M58.7271 845.853 Q55.5442 844.007 54.0164 841.206 Q52.4568 838.374 52.4568 834.459 Q52.4568 827.966 57.6131 823.923 Q62.7693 819.849 71.172 819.849 Q79.5747 819.849 84.731 823.923 Q89.8872 827.966 89.8872 834.459 Q89.8872 838.374 88.3594 841.206 Q86.7998 844.007 83.617 845.853 L88.9642 845.853 L88.9642 851.742 L39.439 851.742 L39.439 845.853 L58.7271 845.853 Z" fill="#000000" fill-rule="evenodd" fill-opacity="1" /><path clip-path="url(#clip330)" d="M 0 0 M53.3162 813.706 L53.3162 807.85 L88.9642 807.85 L88.9642 813.706 L53.3162 813.706 M39.439 813.706 L39.439 807.85 L46.855 807.85 L46.855 813.706 L39.439 813.706 Z" fill="#000000" fill-rule="evenodd" fill-opacity="1" /><path clip-path="url(#clip330)" d="M 0 0 M39.439 801.707 L39.439 795.851 L88.9642 795.851 L88.9642 801.707 L39.439 801.707 Z" fill="#000000" fill-rule="evenodd" fill-opacity="1" /><path clip-path="url(#clip330)" d="M 0 0 M53.3162 789.708 L53.3162 783.851 L88.9642 783.851 L88.9642 789.708 L53.3162 789.708 M39.439 789.708 L39.439 783.851 L46.855 783.851 L46.855 789.708 L39.439 789.708 Z" fill="#000000" fill-rule="evenodd" fill-opacity="1" /><path clip-path="url(#clip330)" d="M 0 0 M43.1947 771.916 L53.3162 771.916 L53.3162 759.853 L57.8677 759.853 L57.8677 771.916 L77.2194 771.916 Q81.5799 771.916 82.8213 770.738 Q84.0626 769.528 84.0626 765.868 L84.0626 759.853 L88.9642 759.853 L88.9642 765.868 Q88.9642 772.648 86.4497 775.226 Q83.9034 777.804 77.2194 777.804 L57.8677 777.804 L57.8677 782.101 L53.3162 782.101 L53.3162 777.804 L43.1947 777.804 L43.1947 771.916 Z" fill="#000000" fill-rule="evenodd" fill-opacity="1" /><path clip-path="url(#clip330)" d="M 0 0 M92.2743 738.878 Q98.64 741.36 100.582 743.715 Q102.523 746.071 102.523 750.018 L102.523 754.696 L97.6215 754.696 L97.6215 751.259 Q97.6215 748.84 96.4757 747.503 Q95.3299 746.166 91.0648 744.543 L88.3912 743.493 L53.3162 757.911 L53.3162 751.704 L81.198 740.564 L53.3162 729.424 L53.3162 723.218 L92.2743 738.878 Z" fill="#000000" fill-rule="evenodd" fill-opacity="1" /><path clip-path="url(#clip330)" d="M 0 0 M57.4221 682.541 Q57.4221 687.252 61.1142 689.989 Q64.7745 692.726 71.172 692.726 Q77.5695 692.726 81.2617 690.021 Q84.9219 687.284 84.9219 682.541 Q84.9219 677.862 81.2298 675.125 Q77.5377 672.388 71.172 672.388 Q64.8381 672.388 61.146 675.125 Q57.4221 677.862 57.4221 682.541 M52.4568 682.541 Q52.4568 674.902 57.4221 670.542 Q62.3873 666.181 71.172 666.181 Q79.9249 666.181 84.9219 670.542 Q89.8872 674.902 89.8872 682.541 Q89.8872 690.212 84.9219 694.572 Q79.9249 698.901 71.172 698.901 Q62.3873 698.901 57.4221 694.572 Q52.4568 690.212 52.4568 682.541 Z" fill="#000000" fill-rule="evenodd" fill-opacity="1" /><path clip-path="url(#clip330)" d="M 0 0 M39.439 641.991 L44.3087 641.991 L44.3087 647.593 Q44.3087 650.744 45.5819 651.986 Q46.855 653.195 50.1652 653.195 L53.3162 653.195 L53.3162 643.551 L57.8677 643.551 L57.8677 653.195 L88.9642 653.195 L88.9642 659.083 L57.8677 659.083 L57.8677 664.685 L53.3162 664.685 L53.3162 659.083 L50.8336 659.083 Q44.8816 659.083 42.1762 656.314 Q39.439 653.545 39.439 647.53 L39.439 641.991 Z" fill="#000000" fill-rule="evenodd" fill-opacity="1" /><path clip-path="url(#clip330)" d="M 0 0 M43.0038 586.387 L49.274 586.387 Q47.5234 590.047 46.664 593.294 Q45.8047 596.54 45.8047 599.564 Q45.8047 604.816 47.8417 607.68 Q49.8787 610.513 53.6345 610.513 Q56.7855 610.513 58.4088 608.635 Q60.0002 606.725 60.9869 601.442 L61.7826 597.559 Q63.1512 590.366 66.6205 586.96 Q70.058 583.522 75.8508 583.522 Q82.7576 583.522 86.3224 588.169 Q89.8872 592.785 89.8872 601.728 Q89.8872 605.102 89.1233 608.922 Q88.3594 612.709 86.8635 616.783 L80.2431 616.783 Q82.4393 612.868 83.5533 609.113 Q84.6673 605.357 84.6673 601.728 Q84.6673 596.222 82.503 593.23 Q80.3386 590.238 76.3282 590.238 Q72.8271 590.238 70.8537 592.403 Q68.8804 594.535 67.8937 599.437 L67.1298 603.352 Q65.6975 610.545 62.642 613.76 Q59.5864 616.974 54.1437 616.974 Q47.8417 616.974 44.2132 612.55 Q40.5848 608.094 40.5848 600.296 Q40.5848 596.954 41.1895 593.485 Q41.7943 590.016 43.0038 586.387 Z" fill="#000000" fill-rule="evenodd" fill-opacity="1" /><path clip-path="url(#clip330)" d="M 0 0 M74.8959 577.984 L53.3162 577.984 L53.3162 572.128 L74.6731 572.128 Q79.7339 572.128 82.2802 570.155 Q84.7946 568.181 84.7946 564.234 Q84.7946 559.492 81.7709 556.755 Q78.7472 553.986 73.5273 553.986 L53.3162 553.986 L53.3162 548.129 L88.9642 548.129 L88.9642 553.986 L83.4896 553.986 Q86.7362 556.118 88.3276 558.951 Q89.8872 561.752 89.8872 565.476 Q89.8872 571.619 86.0678 574.801 Q82.2483 577.984 74.8959 577.984 M52.4568 563.248 L52.4568 563.248 Z" fill="#000000" fill-rule="evenodd" fill-opacity="1" /><path clip-path="url(#clip330)" d="M 0 0 M54.6848 516.332 L60.1593 516.332 Q58.7907 518.815 58.1223 521.33 Q57.4221 523.812 57.4221 526.358 Q57.4221 532.056 61.0505 535.207 Q64.6472 538.358 71.172 538.358 Q77.6969 538.358 81.3253 535.207 Q84.9219 532.056 84.9219 526.358 Q84.9219 523.812 84.2535 521.33 Q83.5533 518.815 82.1847 516.332 L87.5955 516.332 Q88.7414 518.783 89.3143 521.425 Q89.8872 524.035 89.8872 526.995 Q89.8872 535.048 84.8264 539.79 Q79.7657 544.533 71.172 544.533 Q62.451 544.533 57.4539 539.758 Q52.4568 534.952 52.4568 526.613 Q52.4568 523.908 53.0297 521.33 Q53.5708 518.751 54.6848 516.332 Z" fill="#000000" fill-rule="evenodd" fill-opacity="1" /><path clip-path="url(#clip330)" d="M 0 0 M54.6848 484.536 L60.1593 484.536 Q58.7907 487.018 58.1223 489.533 Q57.4221 492.015 57.4221 494.562 Q57.4221 500.259 61.0505 503.41 Q64.6472 506.561 71.172 506.561 Q77.6969 506.561 81.3253 503.41 Q84.9219 500.259 84.9219 494.562 Q84.9219 492.015 84.2535 489.533 Q83.5533 487.018 82.1847 484.536 L87.5955 484.536 Q88.7414 486.987 89.3143 489.628 Q89.8872 492.238 89.8872 495.198 Q89.8872 503.251 84.8264 507.993 Q79.7657 512.736 71.172 512.736 Q62.451 512.736 57.4539 507.962 Q52.4568 503.155 52.4568 494.816 Q52.4568 492.111 53.0297 489.533 Q53.5708 486.955 54.6848 484.536 Z" fill="#000000" fill-rule="evenodd" fill-opacity="1" /><path clip-path="url(#clip330)" d="M 0 0 M69.6761 447.901 L72.5406 447.901 L72.5406 474.828 Q78.5881 474.446 81.7709 471.2 Q84.9219 467.921 84.9219 462.097 Q84.9219 458.723 84.0944 455.572 Q83.2669 452.389 81.6118 449.27 L87.1499 449.27 Q88.4867 452.421 89.187 455.731 Q89.8872 459.041 89.8872 462.447 Q89.8872 470.977 84.9219 475.974 Q79.9567 480.939 71.4903 480.939 Q62.7374 480.939 57.6131 476.228 Q52.4568 471.486 52.4568 463.465 Q52.4568 456.272 57.1038 452.102 Q61.7189 447.901 69.6761 447.901 M67.9573 453.758 Q63.1512 453.821 60.2866 456.463 Q57.4221 459.073 57.4221 463.402 Q57.4221 468.303 60.1912 471.263 Q62.9602 474.191 67.9892 474.637 L67.9573 453.758 Z" fill="#000000" fill-rule="evenodd" fill-opacity="1" /><path clip-path="url(#clip330)" d="M 0 0 M54.3665 419.033 L59.9047 419.033 Q58.6316 421.515 57.995 424.189 Q57.3584 426.862 57.3584 429.727 Q57.3584 434.088 58.6952 436.284 Q60.032 438.448 62.7056 438.448 Q64.7426 438.448 65.9203 436.888 Q67.0661 435.329 68.1165 430.618 L68.5621 428.613 Q69.8989 422.375 72.3497 419.765 Q74.7686 417.123 79.1291 417.123 Q84.0944 417.123 86.9908 421.07 Q89.8872 424.985 89.8872 431.86 Q89.8872 434.724 89.3143 437.843 Q88.7732 440.931 87.6592 444.368 L81.6118 444.368 Q83.2987 441.122 84.158 437.971 Q84.9856 434.82 84.9856 431.732 Q84.9856 427.595 83.5851 425.367 Q82.1529 423.139 79.5747 423.139 Q77.1876 423.139 75.9145 424.762 Q74.6413 426.353 73.4637 431.796 L72.9862 433.833 Q71.8404 439.276 69.4851 441.695 Q67.098 444.114 62.9602 444.114 Q57.9313 444.114 55.1941 440.549 Q52.4568 436.984 52.4568 430.427 Q52.4568 427.181 52.9343 424.316 Q53.4117 421.452 54.3665 419.033 Z" fill="#000000" fill-rule="evenodd" fill-opacity="1" /><path clip-path="url(#clip330)" d="M 0 0 M54.3665 388.254 L59.9047 388.254 Q58.6316 390.737 57.995 393.411 Q57.3584 396.084 57.3584 398.949 Q57.3584 403.309 58.6952 405.505 Q60.032 407.67 62.7056 407.67 Q64.7426 407.67 65.9203 406.11 Q67.0661 404.551 68.1165 399.84 L68.5621 397.835 Q69.8989 391.596 72.3497 388.986 Q74.7686 386.345 79.1291 386.345 Q84.0944 386.345 86.9908 390.291 Q89.8872 394.206 89.8872 401.081 Q89.8872 403.946 89.3143 407.065 Q88.7732 410.152 87.6592 413.59 L81.6118 413.59 Q83.2987 410.343 84.158 407.192 Q84.9856 404.041 84.9856 400.954 Q84.9856 396.816 83.5851 394.588 Q82.1529 392.36 79.5747 392.36 Q77.1876 392.36 75.9145 393.984 Q74.6413 395.575 73.4637 401.018 L72.9862 403.055 Q71.8404 408.497 69.4851 410.916 Q67.098 413.335 62.9602 413.335 Q57.9313 413.335 55.1941 409.771 Q52.4568 406.206 52.4568 399.649 Q52.4568 396.403 52.9343 393.538 Q53.4117 390.673 54.3665 388.254 Z" fill="#000000" fill-rule="evenodd" fill-opacity="1" /><circle clip-path="url(#clip332)" cx="294.328" cy="84.6415" r="14" fill="#e26f46" fill-rule="evenodd" fill-opacity="1" stroke="#000000" stroke-opacity="1" stroke-width="3.072"/>
<circle clip-path="url(#clip332)" cx="310.819" cy="85.0528" r="14" fill="#e26f46" fill-rule="evenodd" fill-opacity="1" stroke="#000000" stroke-opacity="1" stroke-width="3.072"/>
<circle clip-path="url(#clip332)" cx="333.762" cy="90.926" r="14" fill="#e26f46" fill-rule="evenodd" fill-opacity="1" stroke="#000000" stroke-opacity="1" stroke-width="3.072"/>
<circle clip-path="url(#clip332)" cx="357.423" cy="129.967" r="14" fill="#e26f46" fill-rule="evenodd" fill-opacity="1" stroke="#000000" stroke-opacity="1" stroke-width="3.072"/>
<circle clip-path="url(#clip332)" cx="381.561" cy="238.399" r="14" fill="#e26f46" fill-rule="evenodd" fill-opacity="1" stroke="#000000" stroke-opacity="1" stroke-width="3.072"/>
<circle clip-path="url(#clip332)" cx="405.7" cy="376.463" r="14" fill="#e26f46" fill-rule="evenodd" fill-opacity="1" stroke="#000000" stroke-opacity="1" stroke-width="3.072"/>
<circle clip-path="url(#clip332)" cx="429.599" cy="513.864" r="14" fill="#e26f46" fill-rule="evenodd" fill-opacity="1" stroke="#000000" stroke-opacity="1" stroke-width="3.072"/>
<circle clip-path="url(#clip332)" cx="453.738" cy="614.113" r="14" fill="#e26f46" fill-rule="evenodd" fill-opacity="1" stroke="#000000" stroke-opacity="1" stroke-width="3.072"/>
<circle clip-path="url(#clip332)" cx="477.637" cy="709.667" r="14" fill="#e26f46" fill-rule="evenodd" fill-opacity="1" stroke="#000000" stroke-opacity="1" stroke-width="3.072"/>
<circle clip-path="url(#clip332)" cx="501.537" cy="786.4" r="14" fill="#e26f46" fill-rule="evenodd" fill-opacity="1" stroke="#000000" stroke-opacity="1" stroke-width="3.072"/>
<circle clip-path="url(#clip332)" cx="525.436" cy="850.963" r="14" fill="#e26f46" fill-rule="evenodd" fill-opacity="1" stroke="#000000" stroke-opacity="1" stroke-width="3.072"/>
<circle clip-path="url(#clip332)" cx="549.336" cy="903.42" r="14" fill="#e26f46" fill-rule="evenodd" fill-opacity="1" stroke="#000000" stroke-opacity="1" stroke-width="3.072"/>
<circle clip-path="url(#clip332)" cx="573.236" cy="943.641" r="14" fill="#e26f46" fill-rule="evenodd" fill-opacity="1" stroke="#000000" stroke-opacity="1" stroke-width="3.072"/>
<circle clip-path="url(#clip332)" cx="597.135" cy="982.185" r="14" fill="#e26f46" fill-rule="evenodd" fill-opacity="1" stroke="#000000" stroke-opacity="1" stroke-width="3.072"/>
<circle clip-path="url(#clip332)" cx="632.506" cy="1036.37" r="14" fill="#e26f46" fill-rule="evenodd" fill-opacity="1" stroke="#000000" stroke-opacity="1" stroke-width="3.072"/>
<circle clip-path="url(#clip332)" cx="680.305" cy="1081.7" r="14" fill="#e26f46" fill-rule="evenodd" fill-opacity="1" stroke="#000000" stroke-opacity="1" stroke-width="3.072"/>
<circle clip-path="url(#clip332)" cx="728.343" cy="1124.12" r="14" fill="#e26f46" fill-rule="evenodd" fill-opacity="1" stroke="#000000" stroke-opacity="1" stroke-width="3.072"/>
<circle clip-path="url(#clip332)" cx="776.142" cy="1152.93" r="14" fill="#e26f46" fill-rule="evenodd" fill-opacity="1" stroke="#000000" stroke-opacity="1" stroke-width="3.072"/>
<circle clip-path="url(#clip332)" cx="812.231" cy="1178.47" r="14" fill="#e26f46" fill-rule="evenodd" fill-opacity="1" stroke="#000000" stroke-opacity="1" stroke-width="3.072"/>
<circle clip-path="url(#clip332)" cx="870.546" cy="1205.55" r="14" fill="#e26f46" fill-rule="evenodd" fill-opacity="1" stroke="#000000" stroke-opacity="1" stroke-width="3.072"/>
<circle clip-path="url(#clip332)" cx="966.383" cy="1236.53" r="14" fill="#e26f46" fill-rule="evenodd" fill-opacity="1" stroke="#000000" stroke-opacity="1" stroke-width="3.072"/>
<circle clip-path="url(#clip332)" cx="1061.74" cy="1254.61" r="14" fill="#e26f46" fill-rule="evenodd" fill-opacity="1" stroke="#000000" stroke-opacity="1" stroke-width="3.072"/>
<circle clip-path="url(#clip332)" cx="1157.34" cy="1268.67" r="14" fill="#e26f46" fill-rule="evenodd" fill-opacity="1" stroke="#000000" stroke-opacity="1" stroke-width="3.072"/>
<circle clip-path="url(#clip332)" cx="1252.46" cy="1282.26" r="14" fill="#e26f46" fill-rule="evenodd" fill-opacity="1" stroke="#000000" stroke-opacity="1" stroke-width="3.072"/>
<circle clip-path="url(#clip332)" cx="1348.3" cy="1289.71" r="14" fill="#e26f46" fill-rule="evenodd" fill-opacity="1" stroke="#000000" stroke-opacity="1" stroke-width="3.072"/>
<circle clip-path="url(#clip332)" cx="1443.66" cy="1300.41" r="14" fill="#e26f46" fill-rule="evenodd" fill-opacity="1" stroke="#000000" stroke-opacity="1" stroke-width="3.072"/>
<circle clip-path="url(#clip332)" cx="1539.02" cy="1300.28" r="14" fill="#e26f46" fill-rule="evenodd" fill-opacity="1" stroke="#000000" stroke-opacity="1" stroke-width="3.072"/>
<circle clip-path="url(#clip332)" cx="1655.88" cy="1304.71" r="14" fill="#e26f46" fill-rule="evenodd" fill-opacity="1" stroke="#000000" stroke-opacity="1" stroke-width="3.072"/>
<circle clip-path="url(#clip332)" cx="1798.8" cy="1309.99" r="14" fill="#e26f46" fill-rule="evenodd" fill-opacity="1" stroke="#000000" stroke-opacity="1" stroke-width="3.072"/>
<circle clip-path="url(#clip332)" cx="1941.01" cy="1319.25" r="14" fill="#e26f46" fill-rule="evenodd" fill-opacity="1" stroke="#000000" stroke-opacity="1" stroke-width="3.072"/>
<circle clip-path="url(#clip332)" cx="2084.64" cy="1316.21" r="14" fill="#e26f46" fill-rule="evenodd" fill-opacity="1" stroke="#000000" stroke-opacity="1" stroke-width="3.072"/>
<polyline clip-path="url(#clip332)" style="stroke:#e26f46; stroke-width:4; stroke-opacity:1; fill:none" points="
  311.536,84.3925 335.435,93.6903 359.335,135.793 383.234,227.86 407.134,351.765 431.033,480.195 454.933,598.23 478.832,700.792 502.732,787.619 526.631,860.328 
  550.531,921.042 574.431,971.818 598.33,1014.45 622.23,1050.42 646.129,1080.96 670.029,1107.03 693.928,1129.42 717.828,1148.77 741.727,1165.57 765.627,1180.25 
  789.526,1193.13 813.426,1204.49 837.325,1214.56 861.225,1223.51 885.124,1231.5 909.024,1238.67 932.923,1245.12 956.823,1250.95 980.722,1256.22 1004.62,1261.01 
  1028.52,1265.37 1052.42,1269.35 1076.32,1273 1100.22,1276.35 1124.12,1279.43 1148.02,1282.27 1171.92,1284.89 1195.82,1287.32 1219.72,1289.57 1243.62,1291.66 
  1267.52,1293.61 1291.42,1295.42 1315.32,1297.12 1339.22,1298.7 1363.11,1300.18 1387.01,1301.57 1410.91,1302.88 1434.81,1304.11 1458.71,1305.26 1482.61,1306.35 
  1506.51,1307.38 1530.41,1308.35 1554.31,1309.26 1578.21,1310.13 1602.11,1310.95 1626.01,1311.73 1649.91,1312.47 1673.81,1313.17 1697.71,1313.84 1721.61,1314.48 
  1745.51,1315.08 1769.41,1315.66 1793.31,1316.21 1817.21,1316.73 1841.11,1317.23 1865,1317.71 1888.9,1318.17 1912.8,1318.61 1936.7,1319.03 1960.6,1319.43 
  1984.5,1319.82 2008.4,1320.19 2032.3,1320.54 2056.2,1320.88 2080.1,1321.21 2104,1321.53 2127.9,1321.83 2151.8,1322.12 2175.7,1322.4 2199.6,1322.67 
  
  "/>
</svg>
