<?xml version="1.0" encoding="utf-8"?>
<svg xmlns="http://www.w3.org/2000/svg" xmlns:xlink="http://www.w3.org/1999/xlink" width="576" height="384" viewBox="0 0 2304 1536">
<defs>
  <clipPath id="clip130">
    <rect x="0" y="0" width="2304" height="1536"/>
  </clipPath>
</defs>
<path clip-path="url(#clip130)" d="
M0 1536 L2304 1536 L2304 0 L0 0  Z
  " fill="#ffffff" fill-rule="evenodd" fill-opacity="1"/>
<defs>
  <clipPath id="clip131">
    <rect x="460" y="0" width="1614" height="1536"/>
  </clipPath>
</defs>
<path clip-path="url(#clip130)" d="
M210.642 1359.82 L2256.76 1359.82 L2256.76 47.2441 L210.642 47.2441  Z
  " fill="#ffffff" fill-rule="evenodd" fill-opacity="1"/>
<defs>
  <clipPath id="clip132">
    <rect x="210" y="47" width="2047" height="1314"/>
  </clipPath>
</defs>
<polyline clip-path="url(#clip132)" style="stroke:#000000; stroke-width:2; stroke-opacity:0.1; fill:none" points="
  654.61,1359.82 654.61,47.2441 
  "/>
<polyline clip-path="url(#clip132)" style="stroke:#000000; stroke-width:2; stroke-opacity:0.1; fill:none" points="
  1137.18,1359.82 1137.18,47.2441 
  "/>
<polyline clip-path="url(#clip132)" style="stroke:#000000; stroke-width:2; stroke-opacity:0.1; fill:none" points="
  1619.76,1359.82 1619.76,47.2441 
  "/>
<polyline clip-path="url(#clip132)" style="stroke:#000000; stroke-width:2; stroke-opacity:0.1; fill:none" points="
  2102.33,1359.82 2102.33,47.2441 
  "/>
<polyline clip-path="url(#clip132)" style="stroke:#000000; stroke-width:2; stroke-opacity:0.1; fill:none" points="
  210.642,1359.82 2256.76,1359.82 
  "/>
<polyline clip-path="url(#clip132)" style="stroke:#000000; stroke-width:2; stroke-opacity:0.1; fill:none" points="
  210.642,1097.3 2256.76,1097.3 
  "/>
<polyline clip-path="url(#clip132)" style="stroke:#000000; stroke-width:2; stroke-opacity:0.1; fill:none" points="
  210.642,834.79 2256.76,834.79 
  "/>
<polyline clip-path="url(#clip132)" style="stroke:#000000; stroke-width:2; stroke-opacity:0.1; fill:none" points="
  210.642,572.274 2256.76,572.274 
  "/>
<polyline clip-path="url(#clip132)" style="stroke:#000000; stroke-width:2; stroke-opacity:0.1; fill:none" points="
  210.642,309.759 2256.76,309.759 
  "/>
<polyline clip-path="url(#clip132)" style="stroke:#000000; stroke-width:2; stroke-opacity:0.1; fill:none" points="
  210.642,47.2441 2256.76,47.2441 
  "/>
<polyline clip-path="url(#clip130)" style="stroke:#000000; stroke-width:4; stroke-opacity:1; fill:none" points="
  210.642,1359.82 2256.76,1359.82 
  "/>
<polyline clip-path="url(#clip130)" style="stroke:#000000; stroke-width:4; stroke-opacity:1; fill:none" points="
  210.642,1359.82 210.642,47.2441 
  "/>
<polyline clip-path="url(#clip130)" style="stroke:#000000; stroke-width:4; stroke-opacity:1; fill:none" points="
  654.61,1359.82 654.61,1344.07 
  "/>
<polyline clip-path="url(#clip130)" style="stroke:#000000; stroke-width:4; stroke-opacity:1; fill:none" points="
  1137.18,1359.82 1137.18,1344.07 
  "/>
<polyline clip-path="url(#clip130)" style="stroke:#000000; stroke-width:4; stroke-opacity:1; fill:none" points="
  1619.76,1359.82 1619.76,1344.07 
  "/>
<polyline clip-path="url(#clip130)" style="stroke:#000000; stroke-width:4; stroke-opacity:1; fill:none" points="
  2102.33,1359.82 2102.33,1344.07 
  "/>
<polyline clip-path="url(#clip130)" style="stroke:#000000; stroke-width:4; stroke-opacity:1; fill:none" points="
  210.642,1359.82 235.196,1359.82 
  "/>
<polyline clip-path="url(#clip130)" style="stroke:#000000; stroke-width:4; stroke-opacity:1; fill:none" points="
  210.642,1097.3 235.196,1097.3 
  "/>
<polyline clip-path="url(#clip130)" style="stroke:#000000; stroke-width:4; stroke-opacity:1; fill:none" points="
  210.642,834.79 235.196,834.79 
  "/>
<polyline clip-path="url(#clip130)" style="stroke:#000000; stroke-width:4; stroke-opacity:1; fill:none" points="
  210.642,572.274 235.196,572.274 
  "/>
<polyline clip-path="url(#clip130)" style="stroke:#000000; stroke-width:4; stroke-opacity:1; fill:none" points="
  210.642,309.759 235.196,309.759 
  "/>
<polyline clip-path="url(#clip130)" style="stroke:#000000; stroke-width:4; stroke-opacity:1; fill:none" points="
  210.642,47.2441 235.196,47.2441 
  "/>
<path clip-path="url(#clip130)" d="M 0 0 M644.888 1378.25 L663.245 1378.25 L663.245 1382.19 L649.171 1382.19 L649.171 1390.66 Q650.189 1390.31 651.208 1390.15 Q652.226 1389.96 653.245 1389.96 Q659.032 1389.96 662.411 1393.14 Q665.791 1396.31 665.791 1401.72 Q665.791 1407.3 662.319 1410.4 Q658.847 1413.48 652.527 1413.48 Q650.351 1413.48 648.083 1413.11 Q645.837 1412.74 643.43 1412 L643.43 1407.3 Q645.513 1408.44 647.735 1408.99 Q649.958 1409.55 652.435 1409.55 Q656.439 1409.55 658.777 1407.44 Q661.115 1405.34 661.115 1401.72 Q661.115 1398.11 658.777 1396.01 Q656.439 1393.9 652.435 1393.9 Q650.56 1393.9 648.685 1394.32 Q646.833 1394.73 644.888 1395.61 L644.888 1378.25 Z" fill="#000000" fill-rule="evenodd" fill-opacity="1" /><path clip-path="url(#clip130)" d="M 0 0 M1114.06 1408.88 L1121.7 1408.88 L1121.7 1382.51 L1113.39 1384.18 L1113.39 1379.92 L1121.65 1378.25 L1126.33 1378.25 L1126.33 1408.88 L1133.97 1408.88 L1133.97 1412.81 L1114.06 1412.81 L1114.06 1408.88 Z" fill="#000000" fill-rule="evenodd" fill-opacity="1" /><path clip-path="url(#clip130)" d="M 0 0 M1149.04 1381.33 Q1145.43 1381.33 1143.6 1384.9 Q1141.79 1388.44 1141.79 1395.57 Q1141.79 1402.67 1143.6 1406.24 Q1145.43 1409.78 1149.04 1409.78 Q1152.67 1409.78 1154.48 1406.24 Q1156.3 1402.67 1156.3 1395.57 Q1156.3 1388.44 1154.48 1384.9 Q1152.67 1381.33 1149.04 1381.33 M1149.04 1377.63 Q1154.85 1377.63 1157.9 1382.23 Q1160.98 1386.82 1160.98 1395.57 Q1160.98 1404.29 1157.9 1408.9 Q1154.85 1413.48 1149.04 1413.48 Q1143.23 1413.48 1140.15 1408.9 Q1137.09 1404.29 1137.09 1395.57 Q1137.09 1386.82 1140.15 1382.23 Q1143.23 1377.63 1149.04 1377.63 Z" fill="#000000" fill-rule="evenodd" fill-opacity="1" /><path clip-path="url(#clip130)" d="M 0 0 M1597.13 1408.88 L1604.77 1408.88 L1604.77 1382.51 L1596.46 1384.18 L1596.46 1379.92 L1604.72 1378.25 L1609.4 1378.25 L1609.4 1408.88 L1617.04 1408.88 L1617.04 1412.81 L1597.13 1412.81 L1597.13 1408.88 Z" fill="#000000" fill-rule="evenodd" fill-opacity="1" /><path clip-path="url(#clip130)" d="M 0 0 M1622.15 1378.25 L1640.51 1378.25 L1640.51 1382.19 L1626.44 1382.19 L1626.44 1390.66 Q1627.46 1390.31 1628.47 1390.15 Q1629.49 1389.96 1630.51 1389.96 Q1636.3 1389.96 1639.68 1393.14 Q1643.06 1396.31 1643.06 1401.72 Q1643.06 1407.3 1639.58 1410.4 Q1636.11 1413.48 1629.79 1413.48 Q1627.62 1413.48 1625.35 1413.11 Q1623.1 1412.74 1620.7 1412 L1620.7 1407.3 Q1622.78 1408.44 1625 1408.99 Q1627.22 1409.55 1629.7 1409.55 Q1633.7 1409.55 1636.04 1407.44 Q1638.38 1405.34 1638.38 1401.72 Q1638.38 1398.11 1636.04 1396.01 Q1633.7 1393.9 1629.7 1393.9 Q1627.83 1393.9 1625.95 1394.32 Q1624.1 1394.73 1622.15 1395.61 L1622.15 1378.25 Z" fill="#000000" fill-rule="evenodd" fill-opacity="1" /><path clip-path="url(#clip130)" d="M 0 0 M2083.48 1408.88 L2099.8 1408.88 L2099.8 1412.81 L2077.85 1412.81 L2077.85 1408.88 Q2080.52 1406.12 2085.1 1401.49 Q2089.7 1396.84 2090.89 1395.5 Q2093.13 1392.97 2094.01 1391.24 Q2094.91 1389.48 2094.91 1387.79 Q2094.91 1385.03 2092.97 1383.3 Q2091.05 1381.56 2087.95 1381.56 Q2085.75 1381.56 2083.29 1382.33 Q2080.86 1383.09 2078.08 1384.64 L2078.08 1379.92 Q2080.91 1378.78 2083.36 1378.21 Q2085.82 1377.63 2087.85 1377.63 Q2093.22 1377.63 2096.42 1380.31 Q2099.61 1383 2099.61 1387.49 Q2099.61 1389.62 2098.8 1391.54 Q2098.02 1393.44 2095.91 1396.03 Q2095.33 1396.7 2092.23 1399.92 Q2089.13 1403.11 2083.48 1408.88 Z" fill="#000000" fill-rule="evenodd" fill-opacity="1" /><path clip-path="url(#clip130)" d="M 0 0 M2114.87 1381.33 Q2111.26 1381.33 2109.43 1384.9 Q2107.62 1388.44 2107.62 1395.57 Q2107.62 1402.67 2109.43 1406.24 Q2111.26 1409.78 2114.87 1409.78 Q2118.5 1409.78 2120.31 1406.24 Q2122.14 1402.67 2122.14 1395.57 Q2122.14 1388.44 2120.31 1384.9 Q2118.5 1381.33 2114.87 1381.33 M2114.87 1377.63 Q2120.68 1377.63 2123.73 1382.23 Q2126.81 1386.82 2126.81 1395.57 Q2126.81 1404.29 2123.73 1408.9 Q2120.68 1413.48 2114.87 1413.48 Q2109.06 1413.48 2105.98 1408.9 Q2102.92 1404.29 2102.92 1395.57 Q2102.92 1386.82 2105.98 1382.23 Q2109.06 1377.63 2114.87 1377.63 Z" fill="#000000" fill-rule="evenodd" fill-opacity="1" /><path clip-path="url(#clip130)" d="M 0 0 M138.691 1345.62 Q135.08 1345.62 133.251 1349.18 Q131.445 1352.72 131.445 1359.85 Q131.445 1366.96 133.251 1370.53 Q135.08 1374.07 138.691 1374.07 Q142.325 1374.07 144.13 1370.53 Q145.959 1366.96 145.959 1359.85 Q145.959 1352.72 144.13 1349.18 Q142.325 1345.62 138.691 1345.62 M138.691 1341.91 Q144.501 1341.91 147.556 1346.52 Q150.635 1351.1 150.635 1359.85 Q150.635 1368.58 147.556 1373.19 Q144.501 1377.77 138.691 1377.77 Q132.88 1377.77 129.802 1373.19 Q126.746 1368.58 126.746 1359.85 Q126.746 1351.1 129.802 1346.52 Q132.88 1341.91 138.691 1341.91 Z" fill="#000000" fill-rule="evenodd" fill-opacity="1" /><path clip-path="url(#clip130)" d="M 0 0 M155.704 1371.22 L160.589 1371.22 L160.589 1377.1 L155.704 1377.1 L155.704 1371.22 Z" fill="#000000" fill-rule="evenodd" fill-opacity="1" /><path clip-path="url(#clip130)" d="M 0 0 M175.658 1345.62 Q172.047 1345.62 170.218 1349.18 Q168.413 1352.72 168.413 1359.85 Q168.413 1366.96 170.218 1370.53 Q172.047 1374.07 175.658 1374.07 Q179.292 1374.07 181.098 1370.53 Q182.927 1366.96 182.927 1359.85 Q182.927 1352.72 181.098 1349.18 Q179.292 1345.62 175.658 1345.62 M175.658 1341.91 Q181.468 1341.91 184.524 1346.52 Q187.602 1351.1 187.602 1359.85 Q187.602 1368.58 184.524 1373.19 Q181.468 1377.77 175.658 1377.77 Q169.848 1377.77 166.769 1373.19 Q163.714 1368.58 163.714 1359.85 Q163.714 1351.1 166.769 1346.52 Q169.848 1341.91 175.658 1341.91 Z" fill="#000000" fill-rule="evenodd" fill-opacity="1" /><path clip-path="url(#clip130)" d="M 0 0 M140.288 1083.1 Q136.677 1083.1 134.848 1086.67 Q133.043 1090.21 133.043 1097.34 Q133.043 1104.45 134.848 1108.01 Q136.677 1111.55 140.288 1111.55 Q143.922 1111.55 145.728 1108.01 Q147.556 1104.45 147.556 1097.34 Q147.556 1090.21 145.728 1086.67 Q143.922 1083.1 140.288 1083.1 M140.288 1079.4 Q146.098 1079.4 149.154 1084.01 Q152.232 1088.59 152.232 1097.34 Q152.232 1106.07 149.154 1110.67 Q146.098 1115.26 140.288 1115.26 Q134.478 1115.26 131.399 1110.67 Q128.343 1106.07 128.343 1097.34 Q128.343 1088.59 131.399 1084.01 Q134.478 1079.4 140.288 1079.4 Z" fill="#000000" fill-rule="evenodd" fill-opacity="1" /><path clip-path="url(#clip130)" d="M 0 0 M157.302 1108.71 L162.186 1108.71 L162.186 1114.58 L157.302 1114.58 L157.302 1108.71 Z" fill="#000000" fill-rule="evenodd" fill-opacity="1" /><path clip-path="url(#clip130)" d="M 0 0 M171.283 1110.65 L187.602 1110.65 L187.602 1114.58 L165.658 1114.58 L165.658 1110.65 Q168.32 1107.89 172.903 1103.27 Q177.51 1098.61 178.69 1097.27 Q180.936 1094.75 181.815 1093.01 Q182.718 1091.25 182.718 1089.56 Q182.718 1086.81 180.774 1085.07 Q178.852 1083.33 175.751 1083.33 Q173.552 1083.33 171.098 1084.1 Q168.667 1084.86 165.89 1086.41 L165.89 1081.69 Q168.714 1080.56 171.167 1079.98 Q173.621 1079.4 175.658 1079.4 Q181.028 1079.4 184.223 1082.08 Q187.417 1084.77 187.417 1089.26 Q187.417 1091.39 186.607 1093.31 Q185.82 1095.21 183.714 1097.8 Q183.135 1098.47 180.033 1101.69 Q176.931 1104.89 171.283 1110.65 Z" fill="#000000" fill-rule="evenodd" fill-opacity="1" /><path clip-path="url(#clip130)" d="M 0 0 M138.205 820.588 Q134.593 820.588 132.765 824.153 Q130.959 827.695 130.959 834.824 Q130.959 841.931 132.765 845.496 Q134.593 849.037 138.205 849.037 Q141.839 849.037 143.644 845.496 Q145.473 841.931 145.473 834.824 Q145.473 827.695 143.644 824.153 Q141.839 820.588 138.205 820.588 M138.205 816.885 Q144.015 816.885 147.07 821.491 Q150.149 826.074 150.149 834.824 Q150.149 843.551 147.07 848.158 Q144.015 852.741 138.205 852.741 Q132.394 852.741 129.316 848.158 Q126.26 843.551 126.26 834.824 Q126.26 826.074 129.316 821.491 Q132.394 816.885 138.205 816.885 Z" fill="#000000" fill-rule="evenodd" fill-opacity="1" /><path clip-path="url(#clip130)" d="M 0 0 M155.218 846.19 L160.103 846.19 L160.103 852.07 L155.218 852.07 L155.218 846.19 Z" fill="#000000" fill-rule="evenodd" fill-opacity="1" /><path clip-path="url(#clip130)" d="M 0 0 M178.019 821.584 L166.214 840.033 L178.019 840.033 L178.019 821.584 M176.792 817.51 L182.672 817.51 L182.672 840.033 L187.602 840.033 L187.602 843.921 L182.672 843.921 L182.672 852.07 L178.019 852.07 L178.019 843.921 L162.417 843.921 L162.417 839.408 L176.792 817.51 Z" fill="#000000" fill-rule="evenodd" fill-opacity="1" /><path clip-path="url(#clip130)" d="M 0 0 M138.529 558.073 Q134.918 558.073 133.089 561.638 Q131.283 565.18 131.283 572.309 Q131.283 579.416 133.089 582.98 Q134.918 586.522 138.529 586.522 Q142.163 586.522 143.968 582.98 Q145.797 579.416 145.797 572.309 Q145.797 565.18 143.968 561.638 Q142.163 558.073 138.529 558.073 M138.529 554.369 Q144.339 554.369 147.394 558.976 Q150.473 563.559 150.473 572.309 Q150.473 581.036 147.394 585.642 Q144.339 590.226 138.529 590.226 Q132.718 590.226 129.64 585.642 Q126.584 581.036 126.584 572.309 Q126.584 563.559 129.64 558.976 Q132.718 554.369 138.529 554.369 Z" fill="#000000" fill-rule="evenodd" fill-opacity="1" /><path clip-path="url(#clip130)" d="M 0 0 M155.542 583.675 L160.427 583.675 L160.427 589.554 L155.542 589.554 L155.542 583.675 Z" fill="#000000" fill-rule="evenodd" fill-opacity="1" /><path clip-path="url(#clip130)" d="M 0 0 M176.075 570.411 Q172.927 570.411 171.075 572.564 Q169.246 574.717 169.246 578.466 Q169.246 582.193 171.075 584.369 Q172.927 586.522 176.075 586.522 Q179.223 586.522 181.052 584.369 Q182.903 582.193 182.903 578.466 Q182.903 574.717 181.052 572.564 Q179.223 570.411 176.075 570.411 M185.357 555.758 L185.357 560.018 Q183.598 559.184 181.792 558.744 Q180.01 558.305 178.251 558.305 Q173.621 558.305 171.167 561.43 Q168.737 564.555 168.39 570.874 Q169.755 568.86 171.815 567.795 Q173.876 566.707 176.352 566.707 Q181.561 566.707 184.57 569.879 Q187.602 573.027 187.602 578.466 Q187.602 583.791 184.454 587.008 Q181.306 590.226 176.075 590.226 Q170.079 590.226 166.908 585.642 Q163.737 581.036 163.737 572.309 Q163.737 564.115 167.626 559.254 Q171.515 554.369 178.065 554.369 Q179.825 554.369 181.607 554.717 Q183.413 555.064 185.357 555.758 Z" fill="#000000" fill-rule="evenodd" fill-opacity="1" /><path clip-path="url(#clip130)" d="M 0 0 M138.783 295.558 Q135.172 295.558 133.343 299.123 Q131.538 302.664 131.538 309.794 Q131.538 316.9 133.343 320.465 Q135.172 324.007 138.783 324.007 Q142.417 324.007 144.223 320.465 Q146.052 316.9 146.052 309.794 Q146.052 302.664 144.223 299.123 Q142.417 295.558 138.783 295.558 M138.783 291.854 Q144.593 291.854 147.649 296.461 Q150.728 301.044 150.728 309.794 Q150.728 318.521 147.649 323.127 Q144.593 327.711 138.783 327.711 Q132.973 327.711 129.894 323.127 Q126.839 318.521 126.839 309.794 Q126.839 301.044 129.894 296.461 Q132.973 291.854 138.783 291.854 Z" fill="#000000" fill-rule="evenodd" fill-opacity="1" /><path clip-path="url(#clip130)" d="M 0 0 M155.797 321.16 L160.681 321.16 L160.681 327.039 L155.797 327.039 L155.797 321.16 Z" fill="#000000" fill-rule="evenodd" fill-opacity="1" /><path clip-path="url(#clip130)" d="M 0 0 M175.751 310.627 Q172.417 310.627 170.496 312.41 Q168.598 314.192 168.598 317.317 Q168.598 320.442 170.496 322.224 Q172.417 324.007 175.751 324.007 Q179.084 324.007 181.005 322.224 Q182.927 320.419 182.927 317.317 Q182.927 314.192 181.005 312.41 Q179.107 310.627 175.751 310.627 M171.075 308.637 Q168.065 307.896 166.376 305.836 Q164.709 303.775 164.709 300.813 Q164.709 296.669 167.649 294.262 Q170.612 291.854 175.751 291.854 Q180.913 291.854 183.852 294.262 Q186.792 296.669 186.792 300.813 Q186.792 303.775 185.102 305.836 Q183.436 307.896 180.45 308.637 Q183.829 309.424 185.704 311.715 Q187.602 314.007 187.602 317.317 Q187.602 322.34 184.524 325.025 Q181.468 327.711 175.751 327.711 Q170.033 327.711 166.954 325.025 Q163.899 322.34 163.899 317.317 Q163.899 314.007 165.797 311.715 Q167.695 309.424 171.075 308.637 M169.362 301.252 Q169.362 303.938 171.028 305.442 Q172.718 306.947 175.751 306.947 Q178.76 306.947 180.45 305.442 Q182.163 303.938 182.163 301.252 Q182.163 298.567 180.45 297.063 Q178.76 295.558 175.751 295.558 Q172.718 295.558 171.028 297.063 Q169.362 298.567 169.362 301.252 Z" fill="#000000" fill-rule="evenodd" fill-opacity="1" /><path clip-path="url(#clip130)" d="M 0 0 M130.728 60.5889 L138.367 60.5889 L138.367 34.2233 L130.056 35.89 L130.056 31.6308 L138.32 29.9641 L142.996 29.9641 L142.996 60.5889 L150.635 60.5889 L150.635 64.5241 L130.728 64.5241 L130.728 60.5889 Z" fill="#000000" fill-rule="evenodd" fill-opacity="1" /><path clip-path="url(#clip130)" d="M 0 0 M155.704 58.6445 L160.589 58.6445 L160.589 64.5241 L155.704 64.5241 L155.704 58.6445 Z" fill="#000000" fill-rule="evenodd" fill-opacity="1" /><path clip-path="url(#clip130)" d="M 0 0 M175.658 33.0428 Q172.047 33.0428 170.218 36.6076 Q168.413 40.1492 168.413 47.2788 Q168.413 54.3853 170.218 57.9501 Q172.047 61.4917 175.658 61.4917 Q179.292 61.4917 181.098 57.9501 Q182.927 54.3853 182.927 47.2788 Q182.927 40.1492 181.098 36.6076 Q179.292 33.0428 175.658 33.0428 M175.658 29.3391 Q181.468 29.3391 184.524 33.9456 Q187.602 38.5289 187.602 47.2788 Q187.602 56.0056 184.524 60.6121 Q181.468 65.1954 175.658 65.1954 Q169.848 65.1954 166.769 60.6121 Q163.714 56.0056 163.714 47.2788 Q163.714 38.5289 166.769 33.9456 Q169.848 29.3391 175.658 29.3391 Z" fill="#000000" fill-rule="evenodd" fill-opacity="1" /><path clip-path="url(#clip130)" d="M 0 0 M910.751 1449.49 L910.751 1486.44 L918.517 1486.44 Q928.352 1486.44 932.904 1481.98 Q937.487 1477.53 937.487 1467.92 Q937.487 1458.37 932.904 1453.94 Q928.352 1449.49 918.517 1449.49 L910.751 1449.49 M904.322 1444.2 L917.53 1444.2 Q931.344 1444.2 937.805 1449.96 Q944.266 1455.69 944.266 1467.92 Q944.266 1480.2 937.773 1485.96 Q931.28 1491.72 917.53 1491.72 L904.322 1491.72 L904.322 1444.2 Z" fill="#000000" fill-rule="evenodd" fill-opacity="1" /><path clip-path="url(#clip130)" d="M 0 0 M950.409 1456.08 L956.266 1456.08 L956.266 1491.72 L950.409 1491.72 L950.409 1456.08 M950.409 1442.2 L956.266 1442.2 L956.266 1449.61 L950.409 1449.61 L950.409 1442.2 Z" fill="#000000" fill-rule="evenodd" fill-opacity="1" /><path clip-path="url(#clip130)" d="M 0 0 M985.134 1457.13 L985.134 1462.66 Q982.652 1461.39 979.978 1460.75 Q977.304 1460.12 974.44 1460.12 Q970.079 1460.12 967.883 1461.45 Q965.719 1462.79 965.719 1465.47 Q965.719 1467.5 967.278 1468.68 Q968.838 1469.83 973.549 1470.88 L975.554 1471.32 Q981.792 1472.66 984.402 1475.11 Q987.044 1477.53 987.044 1481.89 Q987.044 1486.85 983.097 1489.75 Q979.182 1492.65 972.307 1492.65 Q969.443 1492.65 966.324 1492.07 Q963.236 1491.53 959.799 1490.42 L959.799 1484.37 Q963.045 1486.06 966.196 1486.92 Q969.347 1487.75 972.435 1487.75 Q976.572 1487.75 978.8 1486.34 Q981.028 1484.91 981.028 1482.33 Q981.028 1479.95 979.405 1478.67 Q977.814 1477.4 972.371 1476.22 L970.334 1475.75 Q964.891 1474.6 962.472 1472.24 Q960.053 1469.86 960.053 1465.72 Q960.053 1460.69 963.618 1457.95 Q967.183 1455.22 973.74 1455.22 Q976.986 1455.22 979.851 1455.69 Q982.715 1456.17 985.134 1457.13 Z" fill="#000000" fill-rule="evenodd" fill-opacity="1" /><path clip-path="url(#clip130)" d="M 0 0 M998.98 1445.95 L998.98 1456.08 L1011.04 1456.08 L1011.04 1460.63 L998.98 1460.63 L998.98 1479.98 Q998.98 1484.34 1000.16 1485.58 Q1001.37 1486.82 1005.03 1486.82 L1011.04 1486.82 L1011.04 1491.72 L1005.03 1491.72 Q998.248 1491.72 995.669 1489.21 Q993.091 1486.66 993.091 1479.98 L993.091 1460.63 L988.795 1460.63 L988.795 1456.08 L993.091 1456.08 L993.091 1445.95 L998.98 1445.95 Z" fill="#000000" fill-rule="evenodd" fill-opacity="1" /><path clip-path="url(#clip130)" d="M 0 0 M1033.39 1473.8 Q1026.29 1473.8 1023.55 1475.43 Q1020.81 1477.05 1020.81 1480.97 Q1020.81 1484.08 1022.85 1485.93 Q1024.92 1487.75 1028.45 1487.75 Q1033.32 1487.75 1036.25 1484.31 Q1039.21 1480.84 1039.21 1475.11 L1039.21 1473.8 L1033.39 1473.8 M1045.07 1471.39 L1045.07 1491.72 L1039.21 1491.72 L1039.21 1486.31 Q1037.21 1489.56 1034.21 1491.12 Q1031.22 1492.65 1026.89 1492.65 Q1021.42 1492.65 1018.17 1489.59 Q1014.96 1486.5 1014.96 1481.35 Q1014.96 1475.33 1018.97 1472.28 Q1023.01 1469.22 1031 1469.22 L1039.21 1469.22 L1039.21 1468.65 Q1039.21 1464.61 1036.54 1462.41 Q1033.9 1460.18 1029.09 1460.18 Q1026.03 1460.18 1023.14 1460.91 Q1020.24 1461.65 1017.57 1463.11 L1017.57 1457.7 Q1020.78 1456.46 1023.81 1455.85 Q1026.83 1455.22 1029.69 1455.22 Q1037.43 1455.22 1041.25 1459.23 Q1045.07 1463.24 1045.07 1471.39 Z" fill="#000000" fill-rule="evenodd" fill-opacity="1" /><path clip-path="url(#clip130)" d="M 0 0 M1080.84 1470.21 L1080.84 1491.72 L1074.99 1491.72 L1074.99 1470.4 Q1074.99 1465.34 1073.01 1462.82 Q1071.04 1460.31 1067.09 1460.31 Q1062.35 1460.31 1059.61 1463.33 Q1056.88 1466.36 1056.88 1471.58 L1056.88 1491.72 L1050.99 1491.72 L1050.99 1456.08 L1056.88 1456.08 L1056.88 1461.61 Q1058.98 1458.4 1061.81 1456.81 Q1064.67 1455.22 1068.4 1455.22 Q1074.54 1455.22 1077.69 1459.04 Q1080.84 1462.82 1080.84 1470.21 Z" fill="#000000" fill-rule="evenodd" fill-opacity="1" /><path clip-path="url(#clip130)" d="M 0 0 M1112.64 1457.44 L1112.64 1462.92 Q1110.16 1461.55 1107.64 1460.88 Q1105.16 1460.18 1102.61 1460.18 Q1096.92 1460.18 1093.77 1463.81 Q1090.61 1467.41 1090.61 1473.93 Q1090.61 1480.46 1093.77 1484.08 Q1096.92 1487.68 1102.61 1487.68 Q1105.16 1487.68 1107.64 1487.01 Q1110.16 1486.31 1112.64 1484.94 L1112.64 1490.36 Q1110.19 1491.5 1107.55 1492.07 Q1104.94 1492.65 1101.98 1492.65 Q1093.92 1492.65 1089.18 1487.59 Q1084.44 1482.53 1084.44 1473.93 Q1084.44 1465.21 1089.21 1460.21 Q1094.02 1455.22 1102.36 1455.22 Q1105.06 1455.22 1107.64 1455.79 Q1110.22 1456.33 1112.64 1457.44 Z" fill="#000000" fill-rule="evenodd" fill-opacity="1" /><path clip-path="url(#clip130)" d="M 0 0 M1149.27 1472.44 L1149.27 1475.3 L1122.35 1475.3 Q1122.73 1481.35 1125.98 1484.53 Q1129.25 1487.68 1135.08 1487.68 Q1138.45 1487.68 1141.6 1486.85 Q1144.79 1486.03 1147.91 1484.37 L1147.91 1489.91 Q1144.75 1491.25 1141.44 1491.95 Q1138.13 1492.65 1134.73 1492.65 Q1126.2 1492.65 1121.2 1487.68 Q1116.24 1482.72 1116.24 1474.25 Q1116.24 1465.5 1120.95 1460.37 Q1125.69 1455.22 1133.71 1455.22 Q1140.9 1455.22 1145.07 1459.86 Q1149.27 1464.48 1149.27 1472.44 M1143.42 1470.72 Q1143.35 1465.91 1140.71 1463.05 Q1138.1 1460.18 1133.77 1460.18 Q1128.87 1460.18 1125.91 1462.95 Q1122.98 1465.72 1122.54 1470.75 L1143.42 1470.72 Z" fill="#000000" fill-rule="evenodd" fill-opacity="1" /><path clip-path="url(#clip130)" d="M 0 0 M1194.18 1442.2 L1194.18 1447.07 L1188.58 1447.07 Q1185.43 1447.07 1184.19 1448.34 Q1182.98 1449.61 1182.98 1452.92 L1182.98 1456.08 L1192.62 1456.08 L1192.62 1460.63 L1182.98 1460.63 L1182.98 1491.72 L1177.09 1491.72 L1177.09 1460.63 L1171.49 1460.63 L1171.49 1456.08 L1177.09 1456.08 L1177.09 1453.59 Q1177.09 1447.64 1179.86 1444.94 Q1182.63 1442.2 1188.65 1442.2 L1194.18 1442.2 Z" fill="#000000" fill-rule="evenodd" fill-opacity="1" /><path clip-path="url(#clip130)" d="M 0 0 M1220.98 1461.55 Q1220 1460.98 1218.82 1460.72 Q1217.67 1460.44 1216.27 1460.44 Q1211.31 1460.44 1208.63 1463.68 Q1205.99 1466.9 1205.99 1472.95 L1205.99 1491.72 L1200.1 1491.72 L1200.1 1456.08 L1205.99 1456.08 L1205.99 1461.61 Q1207.84 1458.37 1210.8 1456.81 Q1213.76 1455.22 1217.99 1455.22 Q1218.6 1455.22 1219.33 1455.31 Q1220.06 1455.38 1220.95 1455.53 L1220.98 1461.55 Z" fill="#000000" fill-rule="evenodd" fill-opacity="1" /><path clip-path="url(#clip130)" d="M 0 0 M1239.51 1460.18 Q1234.8 1460.18 1232.06 1463.87 Q1229.32 1467.53 1229.32 1473.93 Q1229.32 1480.33 1232.03 1484.02 Q1234.77 1487.68 1239.51 1487.68 Q1244.19 1487.68 1246.92 1483.99 Q1249.66 1480.3 1249.66 1473.93 Q1249.66 1467.6 1246.92 1463.91 Q1244.19 1460.18 1239.51 1460.18 M1239.51 1455.22 Q1247.15 1455.22 1251.51 1460.18 Q1255.87 1465.15 1255.87 1473.93 Q1255.87 1482.68 1251.51 1487.68 Q1247.15 1492.65 1239.51 1492.65 Q1231.84 1492.65 1227.48 1487.68 Q1223.15 1482.68 1223.15 1473.93 Q1223.15 1465.15 1227.48 1460.18 Q1231.84 1455.22 1239.51 1455.22 Z" fill="#000000" fill-rule="evenodd" fill-opacity="1" /><path clip-path="url(#clip130)" d="M 0 0 M1289.77 1462.92 Q1291.96 1458.97 1295.02 1457.09 Q1298.07 1455.22 1302.21 1455.22 Q1307.78 1455.22 1310.8 1459.13 Q1313.83 1463.01 1313.83 1470.21 L1313.83 1491.72 L1307.94 1491.72 L1307.94 1470.4 Q1307.94 1465.27 1306.12 1462.79 Q1304.31 1460.31 1300.59 1460.31 Q1296.04 1460.31 1293.39 1463.33 Q1290.75 1466.36 1290.75 1471.58 L1290.75 1491.72 L1284.86 1491.72 L1284.86 1470.4 Q1284.86 1465.24 1283.05 1462.79 Q1281.24 1460.31 1277.45 1460.31 Q1272.96 1460.31 1270.32 1463.36 Q1267.68 1466.39 1267.68 1471.58 L1267.68 1491.72 L1261.79 1491.72 L1261.79 1456.08 L1267.68 1456.08 L1267.68 1461.61 Q1269.68 1458.34 1272.48 1456.78 Q1275.28 1455.22 1279.13 1455.22 Q1283.02 1455.22 1285.72 1457.19 Q1288.46 1459.16 1289.77 1462.92 Z" fill="#000000" fill-rule="evenodd" fill-opacity="1" /><path clip-path="url(#clip130)" d="M 0 0 M1370.32 1470.21 L1370.32 1491.72 L1364.47 1491.72 L1364.47 1470.4 Q1364.47 1465.34 1362.49 1462.82 Q1360.52 1460.31 1356.57 1460.31 Q1351.83 1460.31 1349.09 1463.33 Q1346.36 1466.36 1346.36 1471.58 L1346.36 1491.72 L1340.47 1491.72 L1340.47 1442.2 L1346.36 1442.2 L1346.36 1461.61 Q1348.46 1458.4 1351.29 1456.81 Q1354.15 1455.22 1357.88 1455.22 Q1364.02 1455.22 1367.17 1459.04 Q1370.32 1462.82 1370.32 1470.21 Z" fill="#000000" fill-rule="evenodd" fill-opacity="1" /><path clip-path="url(#clip130)" d="M 0 0 M1390.28 1460.18 Q1385.57 1460.18 1382.83 1463.87 Q1380.09 1467.53 1380.09 1473.93 Q1380.09 1480.33 1382.8 1484.02 Q1385.54 1487.68 1390.28 1487.68 Q1394.96 1487.68 1397.7 1483.99 Q1400.43 1480.3 1400.43 1473.93 Q1400.43 1467.6 1397.7 1463.91 Q1394.96 1460.18 1390.28 1460.18 M1390.28 1455.22 Q1397.92 1455.22 1402.28 1460.18 Q1406.64 1465.15 1406.64 1473.93 Q1406.64 1482.68 1402.28 1487.68 Q1397.92 1492.65 1390.28 1492.65 Q1382.61 1492.65 1378.25 1487.68 Q1373.92 1482.68 1373.92 1473.93 Q1373.92 1465.15 1378.25 1460.18 Q1382.61 1455.22 1390.28 1455.22 Z" fill="#000000" fill-rule="evenodd" fill-opacity="1" /><path clip-path="url(#clip130)" d="M 0 0 M1412.78 1442.2 L1418.64 1442.2 L1418.64 1491.72 L1412.78 1491.72 L1412.78 1442.2 Z" fill="#000000" fill-rule="evenodd" fill-opacity="1" /><path clip-path="url(#clip130)" d="M 0 0 M1455.27 1472.44 L1455.27 1475.3 L1428.35 1475.3 Q1428.73 1481.35 1431.98 1484.53 Q1435.25 1487.68 1441.08 1487.68 Q1444.45 1487.68 1447.6 1486.85 Q1450.79 1486.03 1453.9 1484.37 L1453.9 1489.91 Q1450.75 1491.25 1447.44 1491.95 Q1444.13 1492.65 1440.73 1492.65 Q1432.2 1492.65 1427.2 1487.68 Q1422.24 1482.72 1422.24 1474.25 Q1422.24 1465.5 1426.95 1460.37 Q1431.69 1455.22 1439.71 1455.22 Q1446.9 1455.22 1451.07 1459.86 Q1455.27 1464.48 1455.27 1472.44 M1449.42 1470.72 Q1449.35 1465.91 1446.71 1463.05 Q1444.1 1460.18 1439.77 1460.18 Q1434.87 1460.18 1431.91 1462.95 Q1428.98 1465.72 1428.54 1470.75 L1449.42 1470.72 Z" fill="#000000" fill-rule="evenodd" fill-opacity="1" /><path clip-path="url(#clip130)" d="M 0 0 M1496.2 1442.26 Q1491.94 1449.58 1489.87 1456.74 Q1487.8 1463.91 1487.8 1471.26 Q1487.8 1478.61 1489.87 1485.84 Q1491.97 1493.03 1496.2 1500.32 L1491.11 1500.32 Q1486.34 1492.84 1483.95 1485.61 Q1481.6 1478.39 1481.6 1471.26 Q1481.6 1464.16 1483.95 1456.97 Q1486.31 1449.77 1491.11 1442.26 L1496.2 1442.26 Z" fill="#000000" fill-rule="evenodd" fill-opacity="1" /><path clip-path="url(#clip130)" d="M 0 0 M1520.39 1442.2 L1520.39 1447.07 L1514.79 1447.07 Q1511.64 1447.07 1510.4 1448.34 Q1509.19 1449.61 1509.19 1452.92 L1509.19 1456.08 L1518.84 1456.08 L1518.84 1460.63 L1509.19 1460.63 L1509.19 1491.72 L1503.3 1491.72 L1503.3 1460.63 L1497.7 1460.63 L1497.7 1456.08 L1503.3 1456.08 L1503.3 1453.59 Q1503.3 1447.64 1506.07 1444.94 Q1508.84 1442.2 1514.86 1442.2 L1520.39 1442.2 Z" fill="#000000" fill-rule="evenodd" fill-opacity="1" /><path clip-path="url(#clip130)" d="M 0 0 M1531.18 1445.95 L1531.18 1456.08 L1543.25 1456.08 L1543.25 1460.63 L1531.18 1460.63 L1531.18 1479.98 Q1531.18 1484.34 1532.36 1485.58 Q1533.57 1486.82 1537.23 1486.82 L1543.25 1486.82 L1543.25 1491.72 L1537.23 1491.72 Q1530.45 1491.72 1527.87 1489.21 Q1525.3 1486.66 1525.3 1479.98 L1525.3 1460.63 L1521 1460.63 L1521 1456.08 L1525.3 1456.08 L1525.3 1445.95 L1531.18 1445.95 Z" fill="#000000" fill-rule="evenodd" fill-opacity="1" /><path clip-path="url(#clip130)" d="M 0 0 M1548.47 1442.26 L1553.56 1442.26 Q1558.33 1449.77 1560.69 1456.97 Q1563.08 1464.16 1563.08 1471.26 Q1563.08 1478.39 1560.69 1485.61 Q1558.33 1492.84 1553.56 1500.32 L1548.47 1500.32 Q1552.7 1493.03 1554.77 1485.84 Q1556.87 1478.61 1556.87 1471.26 Q1556.87 1463.91 1554.77 1456.74 Q1552.7 1449.58 1548.47 1442.26 Z" fill="#000000" fill-rule="evenodd" fill-opacity="1" /><path clip-path="url(#clip130)" d="M 0 0 M46.7277 1014.29 L64.5835 1014.29 L64.5835 1006.21 Q64.5835 1001.72 62.26 999.267 Q59.9365 996.816 55.6397 996.816 Q51.3747 996.816 49.0512 999.267 Q46.7277 1001.72 46.7277 1006.21 L46.7277 1014.29 M41.4442 1020.72 L41.4442 1006.21 Q41.4442 998.216 45.0726 994.142 Q48.6692 990.037 55.6397 990.037 Q62.6738 990.037 66.2704 994.142 Q69.867 998.216 69.867 1006.21 L69.867 1014.29 L88.9642 1014.29 L88.9642 1020.72 L41.4442 1020.72 Z" fill="#000000" fill-rule="evenodd" fill-opacity="1" /><path clip-path="url(#clip130)" d="M 0 0 M58.7907 964.383 Q58.2178 965.369 57.9632 966.547 Q57.6767 967.693 57.6767 969.093 Q57.6767 974.059 60.9232 976.732 Q64.1379 979.374 70.1853 979.374 L88.9642 979.374 L88.9642 985.262 L53.3162 985.262 L53.3162 979.374 L58.8544 979.374 Q55.6079 977.528 54.0483 974.568 Q52.4568 971.608 52.4568 967.375 Q52.4568 966.77 52.5523 966.038 Q52.616 965.306 52.7751 964.415 L58.7907 964.383 Z" fill="#000000" fill-rule="evenodd" fill-opacity="1" /><path clip-path="url(#clip130)" d="M 0 0 M57.4221 945.859 Q57.4221 950.569 61.1142 953.306 Q64.7745 956.044 71.172 956.044 Q77.5695 956.044 81.2617 953.338 Q84.9219 950.601 84.9219 945.859 Q84.9219 941.18 81.2298 938.442 Q77.5377 935.705 71.172 935.705 Q64.8381 935.705 61.146 938.442 Q57.4221 941.18 57.4221 945.859 M52.4568 945.859 Q52.4568 938.22 57.4221 933.859 Q62.3873 929.499 71.172 929.499 Q79.9249 929.499 84.9219 933.859 Q89.8872 938.22 89.8872 945.859 Q89.8872 953.529 84.9219 957.89 Q79.9249 962.218 71.172 962.218 Q62.3873 962.218 57.4221 957.89 Q52.4568 953.529 52.4568 945.859 Z" fill="#000000" fill-rule="evenodd" fill-opacity="1" /><path clip-path="url(#clip130)" d="M 0 0 M71.172 897.766 Q64.7108 897.766 61.0505 900.439 Q57.3584 903.081 57.3584 907.728 Q57.3584 912.375 61.0505 915.048 Q64.7108 917.69 71.172 917.69 Q77.6332 917.69 81.3253 915.048 Q84.9856 912.375 84.9856 907.728 Q84.9856 903.081 81.3253 900.439 Q77.6332 897.766 71.172 897.766 M58.7271 917.69 Q55.5442 915.844 54.0164 913.043 Q52.4568 910.211 52.4568 906.296 Q52.4568 899.803 57.6131 895.76 Q62.7693 891.686 71.172 891.686 Q79.5747 891.686 84.731 895.76 Q89.8872 899.803 89.8872 906.296 Q89.8872 910.211 88.3594 913.043 Q86.7998 915.844 83.617 917.69 L88.9642 917.69 L88.9642 923.579 L39.439 923.579 L39.439 917.69 L58.7271 917.69 Z" fill="#000000" fill-rule="evenodd" fill-opacity="1" /><path clip-path="url(#clip130)" d="M 0 0 M71.0447 869.343 Q71.0447 876.44 72.6679 879.178 Q74.2912 881.915 78.2061 881.915 Q81.3253 881.915 83.1714 879.878 Q84.9856 877.809 84.9856 874.276 Q84.9856 869.406 81.5481 866.478 Q78.0788 863.518 72.3497 863.518 L71.0447 863.518 L71.0447 869.343 M68.6257 857.662 L88.9642 857.662 L88.9642 863.518 L83.5533 863.518 Q86.7998 865.523 88.3594 868.515 Q89.8872 871.507 89.8872 875.836 Q89.8872 881.31 86.8316 884.557 Q83.7443 887.771 78.5881 887.771 Q72.5725 887.771 69.5169 883.761 Q66.4614 879.719 66.4614 871.73 L66.4614 863.518 L65.8885 863.518 Q61.8462 863.518 59.6501 866.192 Q57.4221 868.833 57.4221 873.64 Q57.4221 876.695 58.1541 879.591 Q58.8862 882.488 60.3503 885.161 L54.9395 885.161 Q53.6981 881.947 53.0934 878.923 Q52.4568 875.899 52.4568 873.035 Q52.4568 865.3 56.4672 861.481 Q60.4776 857.662 68.6257 857.662 Z" fill="#000000" fill-rule="evenodd" fill-opacity="1" /><path clip-path="url(#clip130)" d="M 0 0 M71.172 825.929 Q64.7108 825.929 61.0505 828.602 Q57.3584 831.244 57.3584 835.891 Q57.3584 840.538 61.0505 843.211 Q64.7108 845.853 71.172 845.853 Q77.6332 845.853 81.3253 843.211 Q84.9856 840.538 84.9856 835.891 Q84.9856 831.244 81.3253 828.602 Q77.6332 825.929 71.172 825.929 M58.7271 845.853 Q55.5442 844.007 54.0164 841.206 Q52.4568 838.374 52.4568 834.459 Q52.4568 827.966 57.6131 823.923 Q62.7693 819.849 71.172 819.849 Q79.5747 819.849 84.731 823.923 Q89.8872 827.966 89.8872 834.459 Q89.8872 838.374 88.3594 841.206 Q86.7998 844.007 83.617 845.853 L88.9642 845.853 L88.9642 851.742 L39.439 851.742 L39.439 845.853 L58.7271 845.853 Z" fill="#000000" fill-rule="evenodd" fill-opacity="1" /><path clip-path="url(#clip130)" d="M 0 0 M53.3162 813.706 L53.3162 807.85 L88.9642 807.85 L88.9642 813.706 L53.3162 813.706 M39.439 813.706 L39.439 807.85 L46.855 807.85 L46.855 813.706 L39.439 813.706 Z" fill="#000000" fill-rule="evenodd" fill-opacity="1" /><path clip-path="url(#clip130)" d="M 0 0 M39.439 801.707 L39.439 795.851 L88.9642 795.851 L88.9642 801.707 L39.439 801.707 Z" fill="#000000" fill-rule="evenodd" fill-opacity="1" /><path clip-path="url(#clip130)" d="M 0 0 M53.3162 789.708 L53.3162 783.851 L88.9642 783.851 L88.9642 789.708 L53.3162 789.708 M39.439 789.708 L39.439 783.851 L46.855 783.851 L46.855 789.708 L39.439 789.708 Z" fill="#000000" fill-rule="evenodd" fill-opacity="1" /><path clip-path="url(#clip130)" d="M 0 0 M43.1947 771.916 L53.3162 771.916 L53.3162 759.853 L57.8677 759.853 L57.8677 771.916 L77.2194 771.916 Q81.5799 771.916 82.8213 770.738 Q84.0626 769.528 84.0626 765.868 L84.0626 759.853 L88.9642 759.853 L88.9642 765.868 Q88.9642 772.648 86.4497 775.226 Q83.9034 777.804 77.2194 777.804 L57.8677 777.804 L57.8677 782.101 L53.3162 782.101 L53.3162 777.804 L43.1947 777.804 L43.1947 771.916 Z" fill="#000000" fill-rule="evenodd" fill-opacity="1" /><path clip-path="url(#clip130)" d="M 0 0 M92.2743 738.878 Q98.64 741.36 100.582 743.715 Q102.523 746.071 102.523 750.018 L102.523 754.696 L97.6215 754.696 L97.6215 751.259 Q97.6215 748.84 96.4757 747.503 Q95.3299 746.166 91.0648 744.543 L88.3912 743.493 L53.3162 757.911 L53.3162 751.704 L81.198 740.564 L53.3162 729.424 L53.3162 723.218 L92.2743 738.878 Z" fill="#000000" fill-rule="evenodd" fill-opacity="1" /><path clip-path="url(#clip130)" d="M 0 0 M57.4221 682.541 Q57.4221 687.252 61.1142 689.989 Q64.7745 692.726 71.172 692.726 Q77.5695 692.726 81.2617 690.021 Q84.9219 687.284 84.9219 682.541 Q84.9219 677.862 81.2298 675.125 Q77.5377 672.388 71.172 672.388 Q64.8381 672.388 61.146 675.125 Q57.4221 677.862 57.4221 682.541 M52.4568 682.541 Q52.4568 674.902 57.4221 670.542 Q62.3873 666.181 71.172 666.181 Q79.9249 666.181 84.9219 670.542 Q89.8872 674.902 89.8872 682.541 Q89.8872 690.212 84.9219 694.572 Q79.9249 698.901 71.172 698.901 Q62.3873 698.901 57.4221 694.572 Q52.4568 690.212 52.4568 682.541 Z" fill="#000000" fill-rule="evenodd" fill-opacity="1" /><path clip-path="url(#clip130)" d="M 0 0 M39.439 641.991 L44.3087 641.991 L44.3087 647.593 Q44.3087 650.744 45.5819 651.986 Q46.855 653.195 50.1652 653.195 L53.3162 653.195 L53.3162 643.551 L57.8677 643.551 L57.8677 653.195 L88.9642 653.195 L88.9642 659.083 L57.8677 659.083 L57.8677 664.685 L53.3162 664.685 L53.3162 659.083 L50.8336 659.083 Q44.8816 659.083 42.1762 656.314 Q39.439 653.545 39.439 647.53 L39.439 641.991 Z" fill="#000000" fill-rule="evenodd" fill-opacity="1" /><path clip-path="url(#clip130)" d="M 0 0 M43.0038 586.387 L49.274 586.387 Q47.5234 590.047 46.664 593.294 Q45.8047 596.54 45.8047 599.564 Q45.8047 604.816 47.8417 607.68 Q49.8787 610.513 53.6345 610.513 Q56.7855 610.513 58.4088 608.635 Q60.0002 606.725 60.9869 601.442 L61.7826 597.559 Q63.1512 590.366 66.6205 586.96 Q70.058 583.522 75.8508 583.522 Q82.7576 583.522 86.3224 588.169 Q89.8872 592.785 89.8872 601.728 Q89.8872 605.102 89.1233 608.922 Q88.3594 612.709 86.8635 616.783 L80.2431 616.783 Q82.4393 612.868 83.5533 609.113 Q84.6673 605.357 84.6673 601.728 Q84.6673 596.222 82.503 593.23 Q80.3386 590.238 76.3282 590.238 Q72.8271 590.238 70.8537 592.403 Q68.8804 594.535 67.8937 599.437 L67.1298 603.352 Q65.6975 610.545 62.642 613.76 Q59.5864 616.974 54.1437 616.974 Q47.8417 616.974 44.2132 612.55 Q40.5848 608.094 40.5848 600.296 Q40.5848 596.954 41.1895 593.485 Q41.7943 590.016 43.0038 586.387 Z" fill="#000000" fill-rule="evenodd" fill-opacity="1" /><path clip-path="url(#clip130)" d="M 0 0 M74.8959 577.984 L53.3162 577.984 L53.3162 572.128 L74.6731 572.128 Q79.7339 572.128 82.2802 570.155 Q84.7946 568.181 84.7946 564.234 Q84.7946 559.492 81.7709 556.755 Q78.7472 553.986 73.5273 553.986 L53.3162 553.986 L53.3162 548.129 L88.9642 548.129 L88.9642 553.986 L83.4896 553.986 Q86.7362 556.118 88.3276 558.951 Q89.8872 561.752 89.8872 565.476 Q89.8872 571.619 86.0678 574.801 Q82.2483 577.984 74.8959 577.984 M52.4568 563.248 L52.4568 563.248 Z" fill="#000000" fill-rule="evenodd" fill-opacity="1" /><path clip-path="url(#clip130)" d="M 0 0 M54.6848 516.332 L60.1593 516.332 Q58.7907 518.815 58.1223 521.33 Q57.4221 523.812 57.4221 526.358 Q57.4221 532.056 61.0505 535.207 Q64.6472 538.358 71.172 538.358 Q77.6969 538.358 81.3253 535.207 Q84.9219 532.056 84.9219 526.358 Q84.9219 523.812 84.2535 521.33 Q83.5533 518.815 82.1847 516.332 L87.5955 516.332 Q88.7414 518.783 89.3143 521.425 Q89.8872 524.035 89.8872 526.995 Q89.8872 535.048 84.8264 539.79 Q79.7657 544.533 71.172 544.533 Q62.451 544.533 57.4539 539.758 Q52.4568 534.952 52.4568 526.613 Q52.4568 523.908 53.0297 521.33 Q53.5708 518.751 54.6848 516.332 Z" fill="#000000" fill-rule="evenodd" fill-opacity="1" /><path clip-path="url(#clip130)" d="M 0 0 M54.6848 484.536 L60.1593 484.536 Q58.7907 487.018 58.1223 489.533 Q57.4221 492.015 57.4221 494.562 Q57.4221 500.259 61.0505 503.41 Q64.6472 506.561 71.172 506.561 Q77.6969 506.561 81.3253 503.41 Q84.9219 500.259 84.9219 494.562 Q84.9219 492.015 84.2535 489.533 Q83.5533 487.018 82.1847 484.536 L87.5955 484.536 Q88.7414 486.987 89.3143 489.628 Q89.8872 492.238 89.8872 495.198 Q89.8872 503.251 84.8264 507.993 Q79.7657 512.736 71.172 512.736 Q62.451 512.736 57.4539 507.962 Q52.4568 503.155 52.4568 494.816 Q52.4568 492.111 53.0297 489.533 Q53.5708 486.955 54.6848 484.536 Z" fill="#000000" fill-rule="evenodd" fill-opacity="1" /><path clip-path="url(#clip130)" d="M 0 0 M69.6761 447.901 L72.5406 447.901 L72.5406 474.828 Q78.5881 474.446 81.7709 471.2 Q84.9219 467.921 84.9219 462.097 Q84.9219 458.723 84.0944 455.572 Q83.2669 452.389 81.6118 449.27 L87.1499 449.27 Q88.4867 452.421 89.187 455.731 Q89.8872 459.041 89.8872 462.447 Q89.8872 470.977 84.9219 475.974 Q79.9567 480.939 71.4903 480.939 Q62.7374 480.939 57.6131 476.228 Q52.4568 471.486 52.4568 463.465 Q52.4568 456.272 57.1038 452.102 Q61.7189 447.901 69.6761 447.901 M67.9573 453.758 Q63.1512 453.821 60.2866 456.463 Q57.4221 459.073 57.4221 463.402 Q57.4221 468.303 60.1912 471.263 Q62.9602 474.191 67.9892 474.637 L67.9573 453.758 Z" fill="#000000" fill-rule="evenodd" fill-opacity="1" /><path clip-path="url(#clip130)" d="M 0 0 M54.3665 419.033 L59.9047 419.033 Q58.6316 421.515 57.995 424.189 Q57.3584 426.862 57.3584 429.727 Q57.3584 434.088 58.6952 436.284 Q60.032 438.448 62.7056 438.448 Q64.7426 438.448 65.9203 436.888 Q67.0661 435.329 68.1165 430.618 L68.5621 428.613 Q69.8989 422.375 72.3497 419.765 Q74.7686 417.123 79.1291 417.123 Q84.0944 417.123 86.9908 421.07 Q89.8872 424.985 89.8872 431.86 Q89.8872 434.724 89.3143 437.843 Q88.7732 440.931 87.6592 444.368 L81.6118 444.368 Q83.2987 441.122 84.158 437.971 Q84.9856 434.82 84.9856 431.732 Q84.9856 427.595 83.5851 425.367 Q82.1529 423.139 79.5747 423.139 Q77.1876 423.139 75.9145 424.762 Q74.6413 426.353 73.4637 431.796 L72.9862 433.833 Q71.8404 439.276 69.4851 441.695 Q67.098 444.114 62.9602 444.114 Q57.9313 444.114 55.1941 440.549 Q52.4568 436.984 52.4568 430.427 Q52.4568 427.181 52.9343 424.316 Q53.4117 421.452 54.3665 419.033 Z" fill="#000000" fill-rule="evenodd" fill-opacity="1" /><path clip-path="url(#clip130)" d="M 0 0 M54.3665 388.254 L59.9047 388.254 Q58.6316 390.737 57.995 393.411 Q57.3584 396.084 57.3584 398.949 Q57.3584 403.309 58.6952 405.505 Q60.032 407.67 62.7056 407.67 Q64.7426 407.67 65.9203 406.11 Q67.0661 404.551 68.1165 399.84 L68.5621 397.835 Q69.8989 391.596 72.3497 388.986 Q74.7686 386.345 79.1291 386.345 Q84.0944 386.345 86.9908 390.291 Q89.8872 394.206 89.8872 401.081 Q89.8872 403.946 89.3143 407.065 Q88.7732 410.152 87.6592 413.59 L81.6118 413.59 Q83.2987 410.343 84.158 407.192 Q84.9856 404.041 84.9856 400.954 Q84.9856 396.816 83.5851 394.588 Q82.1529 392.36 79.5747 392.36 Q77.1876 392.36 75.9145 393.984 Q74.6413 395.575 73.4637 401.018 L72.9862 403.055 Q71.8404 408.497 69.4851 410.916 Q67.098 413.335 62.9602 413.335 Q57.9313 413.335 55.1941 409.771 Q52.4568 406.206 52.4568 399.649 Q52.4568 396.403 52.9343 393.538 Q53.4117 390.673 54.3665 388.254 Z" fill="#000000" fill-rule="evenodd" fill-opacity="1" /><polyline clip-path="url(#clip132)" style="stroke:#6b9e32; stroke-width:4; stroke-opacity:1; fill:none" points="
  365.066,144.129 365.066,126.825 
  "/>
<polyline clip-path="url(#clip132)" style="stroke:#6b9e32; stroke-width:4; stroke-opacity:1; fill:none" points="
  461.581,287.182 461.581,249.875 
  "/>
<polyline clip-path="url(#clip132)" style="stroke:#6b9e32; stroke-width:4; stroke-opacity:1; fill:none" points="
  558.096,414.617 558.096,360.679 
  "/>
<polyline clip-path="url(#clip132)" style="stroke:#6b9e32; stroke-width:4; stroke-opacity:1; fill:none" points="
  654.61,620.774 654.61,552.034 
  "/>
<polyline clip-path="url(#clip132)" style="stroke:#6b9e32; stroke-width:4; stroke-opacity:1; fill:none" points="
  751.125,680.41 751.125,601.187 
  "/>
<polyline clip-path="url(#clip132)" style="stroke:#6b9e32; stroke-width:4; stroke-opacity:1; fill:none" points="
  847.64,703.452 847.64,621.576 
  "/>
<polyline clip-path="url(#clip132)" style="stroke:#6b9e32; stroke-width:4; stroke-opacity:1; fill:none" points="
  944.155,794.997 944.155,710.51 
  "/>
<polyline clip-path="url(#clip132)" style="stroke:#6b9e32; stroke-width:4; stroke-opacity:1; fill:none" points="
  1040.67,983.952 1040.67,900.963 
  "/>
<polyline clip-path="url(#clip132)" style="stroke:#6b9e32; stroke-width:4; stroke-opacity:1; fill:none" points="
  1137.18,963.914 1137.18,876.3 
  "/>
<polyline clip-path="url(#clip132)" style="stroke:#6b9e32; stroke-width:4; stroke-opacity:1; fill:none" points="
  1233.7,984.102 1233.7,904.793 
  "/>
<polyline clip-path="url(#clip132)" style="stroke:#6b9e32; stroke-width:4; stroke-opacity:1; fill:none" points="
  1330.21,1062.31 1330.21,981.551 
  "/>
<polyline clip-path="url(#clip132)" style="stroke:#6b9e32; stroke-width:4; stroke-opacity:1; fill:none" points="
  1426.73,1085.78 1426.73,1004.92 
  "/>
<polyline clip-path="url(#clip132)" style="stroke:#6b9e32; stroke-width:4; stroke-opacity:1; fill:none" points="
  1523.24,998.504 1523.24,906.434 
  "/>
<polyline clip-path="url(#clip132)" style="stroke:#6b9e32; stroke-width:4; stroke-opacity:1; fill:none" points="
  1619.76,1177.69 1619.76,1101.8 
  "/>
<polyline clip-path="url(#clip132)" style="stroke:#6b9e32; stroke-width:4; stroke-opacity:1; fill:none" points="
  1716.27,1215.07 1716.27,1151.93 
  "/>
<polyline clip-path="url(#clip132)" style="stroke:#6b9e32; stroke-width:4; stroke-opacity:1; fill:none" points="
  1812.79,1185.52 1812.79,1116.78 
  "/>
<polyline clip-path="url(#clip132)" style="stroke:#6b9e32; stroke-width:4; stroke-opacity:1; fill:none" points="
  1909.3,1168.95 1909.3,1097.13 
  "/>
<polyline clip-path="url(#clip132)" style="stroke:#6b9e32; stroke-width:4; stroke-opacity:1; fill:none" points="
  2005.82,1218.35 2005.82,1144.12 
  "/>
<polyline clip-path="url(#clip132)" style="stroke:#6b9e32; stroke-width:4; stroke-opacity:1; fill:none" points="
  2102.33,1191.39 2102.33,1113.75 
  "/>
<line clip-path="url(#clip132)" x1="381.066" y1="144.129" x2="349.066" y2="144.129" style="stroke:#6b9e32; stroke-width:3.072; stroke-opacity:1"/>
<line clip-path="url(#clip132)" x1="381.066" y1="126.825" x2="349.066" y2="126.825" style="stroke:#6b9e32; stroke-width:3.072; stroke-opacity:1"/>
<line clip-path="url(#clip132)" x1="477.581" y1="287.182" x2="445.581" y2="287.182" style="stroke:#6b9e32; stroke-width:3.072; stroke-opacity:1"/>
<line clip-path="url(#clip132)" x1="477.581" y1="249.875" x2="445.581" y2="249.875" style="stroke:#6b9e32; stroke-width:3.072; stroke-opacity:1"/>
<line clip-path="url(#clip132)" x1="574.096" y1="414.617" x2="542.096" y2="414.617" style="stroke:#6b9e32; stroke-width:3.072; stroke-opacity:1"/>
<line clip-path="url(#clip132)" x1="574.096" y1="360.679" x2="542.096" y2="360.679" style="stroke:#6b9e32; stroke-width:3.072; stroke-opacity:1"/>
<line clip-path="url(#clip132)" x1="670.61" y1="620.774" x2="638.61" y2="620.774" style="stroke:#6b9e32; stroke-width:3.072; stroke-opacity:1"/>
<line clip-path="url(#clip132)" x1="670.61" y1="552.034" x2="638.61" y2="552.034" style="stroke:#6b9e32; stroke-width:3.072; stroke-opacity:1"/>
<line clip-path="url(#clip132)" x1="767.125" y1="680.41" x2="735.125" y2="680.41" style="stroke:#6b9e32; stroke-width:3.072; stroke-opacity:1"/>
<line clip-path="url(#clip132)" x1="767.125" y1="601.187" x2="735.125" y2="601.187" style="stroke:#6b9e32; stroke-width:3.072; stroke-opacity:1"/>
<line clip-path="url(#clip132)" x1="863.64" y1="703.452" x2="831.64" y2="703.452" style="stroke:#6b9e32; stroke-width:3.072; stroke-opacity:1"/>
<line clip-path="url(#clip132)" x1="863.64" y1="621.576" x2="831.64" y2="621.576" style="stroke:#6b9e32; stroke-width:3.072; stroke-opacity:1"/>
<line clip-path="url(#clip132)" x1="960.155" y1="794.997" x2="928.155" y2="794.997" style="stroke:#6b9e32; stroke-width:3.072; stroke-opacity:1"/>
<line clip-path="url(#clip132)" x1="960.155" y1="710.51" x2="928.155" y2="710.51" style="stroke:#6b9e32; stroke-width:3.072; stroke-opacity:1"/>
<line clip-path="url(#clip132)" x1="1056.67" y1="983.952" x2="1024.67" y2="983.952" style="stroke:#6b9e32; stroke-width:3.072; stroke-opacity:1"/>
<line clip-path="url(#clip132)" x1="1056.67" y1="900.963" x2="1024.67" y2="900.963" style="stroke:#6b9e32; stroke-width:3.072; stroke-opacity:1"/>
<line clip-path="url(#clip132)" x1="1153.18" y1="963.914" x2="1121.18" y2="963.914" style="stroke:#6b9e32; stroke-width:3.072; stroke-opacity:1"/>
<line clip-path="url(#clip132)" x1="1153.18" y1="876.3" x2="1121.18" y2="876.3" style="stroke:#6b9e32; stroke-width:3.072; stroke-opacity:1"/>
<line clip-path="url(#clip132)" x1="1249.7" y1="984.102" x2="1217.7" y2="984.102" style="stroke:#6b9e32; stroke-width:3.072; stroke-opacity:1"/>
<line clip-path="url(#clip132)" x1="1249.7" y1="904.793" x2="1217.7" y2="904.793" style="stroke:#6b9e32; stroke-width:3.072; stroke-opacity:1"/>
<line clip-path="url(#clip132)" x1="1346.21" y1="1062.31" x2="1314.21" y2="1062.31" style="stroke:#6b9e32; stroke-width:3.072; stroke-opacity:1"/>
<line clip-path="url(#clip132)" x1="1346.21" y1="981.551" x2="1314.21" y2="981.551" style="stroke:#6b9e32; stroke-width:3.072; stroke-opacity:1"/>
<line clip-path="url(#clip132)" x1="1442.73" y1="1085.78" x2="1410.73" y2="1085.78" style="stroke:#6b9e32; stroke-width:3.072; stroke-opacity:1"/>
<line clip-path="url(#clip132)" x1="1442.73" y1="1004.92" x2="1410.73" y2="1004.92" style="stroke:#6b9e32; stroke-width:3.072; stroke-opacity:1"/>
<line clip-path="url(#clip132)" x1="1539.24" y1="998.504" x2="1507.24" y2="998.504" style="stroke:#6b9e32; stroke-width:3.072; stroke-opacity:1"/>
<line clip-path="url(#clip132)" x1="1539.24" y1="906.434" x2="1507.24" y2="906.434" style="stroke:#6b9e32; stroke-width:3.072; stroke-opacity:1"/>
<line clip-path="url(#clip132)" x1="1635.76" y1="1177.69" x2="1603.76" y2="1177.69" style="stroke:#6b9e32; stroke-width:3.072; stroke-opacity:1"/>
<line clip-path="url(#clip132)" x1="1635.76" y1="1101.8" x2="1603.76" y2="1101.8" style="stroke:#6b9e32; stroke-width:3.072; stroke-opacity:1"/>
<line clip-path="url(#clip132)" x1="1732.27" y1="1215.07" x2="1700.27" y2="1215.07" style="stroke:#6b9e32; stroke-width:3.072; stroke-opacity:1"/>
<line clip-path="url(#clip132)" x1="1732.27" y1="1151.93" x2="1700.27" y2="1151.93" style="stroke:#6b9e32; stroke-width:3.072; stroke-opacity:1"/>
<line clip-path="url(#clip132)" x1="1828.79" y1="1185.52" x2="1796.79" y2="1185.52" style="stroke:#6b9e32; stroke-width:3.072; stroke-opacity:1"/>
<line clip-path="url(#clip132)" x1="1828.79" y1="1116.78" x2="1796.79" y2="1116.78" style="stroke:#6b9e32; stroke-width:3.072; stroke-opacity:1"/>
<line clip-path="url(#clip132)" x1="1925.3" y1="1168.95" x2="1893.3" y2="1168.95" style="stroke:#6b9e32; stroke-width:3.072; stroke-opacity:1"/>
<line clip-path="url(#clip132)" x1="1925.3" y1="1097.13" x2="1893.3" y2="1097.13" style="stroke:#6b9e32; stroke-width:3.072; stroke-opacity:1"/>
<line clip-path="url(#clip132)" x1="2021.82" y1="1218.35" x2="1989.82" y2="1218.35" style="stroke:#6b9e32; stroke-width:3.072; stroke-opacity:1"/>
<line clip-path="url(#clip132)" x1="2021.82" y1="1144.12" x2="1989.82" y2="1144.12" style="stroke:#6b9e32; stroke-width:3.072; stroke-opacity:1"/>
<line clip-path="url(#clip132)" x1="2118.33" y1="1191.39" x2="2086.33" y2="1191.39" style="stroke:#6b9e32; stroke-width:3.072; stroke-opacity:1"/>
<line clip-path="url(#clip132)" x1="2118.33" y1="1113.75" x2="2086.33" y2="1113.75" style="stroke:#6b9e32; stroke-width:3.072; stroke-opacity:1"/>
<circle clip-path="url(#clip132)" cx="365.066" cy="135.477" r="14" fill="#009af9" fill-rule="evenodd" fill-opacity="1" stroke="#000000" stroke-opacity="1" stroke-width="3.072"/>
<circle clip-path="url(#clip132)" cx="461.581" cy="268.528" r="14" fill="#009af9" fill-rule="evenodd" fill-opacity="1" stroke="#000000" stroke-opacity="1" stroke-width="3.072"/>
<circle clip-path="url(#clip132)" cx="558.096" cy="387.648" r="14" fill="#009af9" fill-rule="evenodd" fill-opacity="1" stroke="#000000" stroke-opacity="1" stroke-width="3.072"/>
<circle clip-path="url(#clip132)" cx="654.61" cy="586.404" r="14" fill="#009af9" fill-rule="evenodd" fill-opacity="1" stroke="#000000" stroke-opacity="1" stroke-width="3.072"/>
<circle clip-path="url(#clip132)" cx="751.125" cy="640.799" r="14" fill="#009af9" fill-rule="evenodd" fill-opacity="1" stroke="#000000" stroke-opacity="1" stroke-width="3.072"/>
<circle clip-path="url(#clip132)" cx="847.64" cy="662.514" r="14" fill="#009af9" fill-rule="evenodd" fill-opacity="1" stroke="#000000" stroke-opacity="1" stroke-width="3.072"/>
<circle clip-path="url(#clip132)" cx="944.155" cy="752.754" r="14" fill="#009af9" fill-rule="evenodd" fill-opacity="1" stroke="#000000" stroke-opacity="1" stroke-width="3.072"/>
<circle clip-path="url(#clip132)" cx="1040.67" cy="942.457" r="14" fill="#009af9" fill-rule="evenodd" fill-opacity="1" stroke="#000000" stroke-opacity="1" stroke-width="3.072"/>
<circle clip-path="url(#clip132)" cx="1137.18" cy="920.107" r="14" fill="#009af9" fill-rule="evenodd" fill-opacity="1" stroke="#000000" stroke-opacity="1" stroke-width="3.072"/>
<circle clip-path="url(#clip132)" cx="1233.7" cy="944.448" r="14" fill="#009af9" fill-rule="evenodd" fill-opacity="1" stroke="#000000" stroke-opacity="1" stroke-width="3.072"/>
<circle clip-path="url(#clip132)" cx="1330.21" cy="1021.93" r="14" fill="#009af9" fill-rule="evenodd" fill-opacity="1" stroke="#000000" stroke-opacity="1" stroke-width="3.072"/>
<circle clip-path="url(#clip132)" cx="1426.73" cy="1045.35" r="14" fill="#009af9" fill-rule="evenodd" fill-opacity="1" stroke="#000000" stroke-opacity="1" stroke-width="3.072"/>
<circle clip-path="url(#clip132)" cx="1523.24" cy="952.469" r="14" fill="#009af9" fill-rule="evenodd" fill-opacity="1" stroke="#000000" stroke-opacity="1" stroke-width="3.072"/>
<circle clip-path="url(#clip132)" cx="1619.76" cy="1139.75" r="14" fill="#009af9" fill-rule="evenodd" fill-opacity="1" stroke="#000000" stroke-opacity="1" stroke-width="3.072"/>
<circle clip-path="url(#clip132)" cx="1716.27" cy="1183.5" r="14" fill="#009af9" fill-rule="evenodd" fill-opacity="1" stroke="#000000" stroke-opacity="1" stroke-width="3.072"/>
<circle clip-path="url(#clip132)" cx="1812.79" cy="1151.15" r="14" fill="#009af9" fill-rule="evenodd" fill-opacity="1" stroke="#000000" stroke-opacity="1" stroke-width="3.072"/>
<circle clip-path="url(#clip132)" cx="1909.3" cy="1133.04" r="14" fill="#009af9" fill-rule="evenodd" fill-opacity="1" stroke="#000000" stroke-opacity="1" stroke-width="3.072"/>
<circle clip-path="url(#clip132)" cx="2005.82" cy="1181.24" r="14" fill="#009af9" fill-rule="evenodd" fill-opacity="1" stroke="#000000" stroke-opacity="1" stroke-width="3.072"/>
<circle clip-path="url(#clip132)" cx="2102.33" cy="1152.57" r="14" fill="#009af9" fill-rule="evenodd" fill-opacity="1" stroke="#000000" stroke-opacity="1" stroke-width="3.072"/>
<polyline clip-path="url(#clip132)" style="stroke:#808080; stroke-width:4; stroke-opacity:0.5; fill:none" points="
  268.551,206.678 365.066,245.009 461.581,290.611 558.096,343.929 654.61,405.019 751.125,473.412 847.64,548.021 944.155,627.148 1040.67,708.591 1137.18,789.879 
  1233.7,868.557 1330.21,942.478 1426.73,1010.01 1523.24,1070.16 1619.76,1122.51 1716.27,1167.18 1812.79,1204.65 1909.3,1235.65 2005.82,1260.98 2102.33,1281.48 
  2198.85,1297.95 
  "/>
<polyline clip-path="url(#clip132)" style="stroke:#808080; stroke-width:4; stroke-opacity:0.5; fill:none" points="
  268.551,205.612 365.066,246.706 461.581,296.164 558.096,354.501 654.61,421.696 751.125,497.012 847.64,578.891 944.155,665.004 1040.67,752.47 1137.18,838.221 
  1233.7,919.426 1330.21,993.838 1426.73,1060 1523.24,1117.26 1619.76,1165.69 1716.27,1205.84 1812.79,1238.58 1909.3,1264.93 2005.82,1285.91 2102.33,1302.47 
  2198.85,1315.45 
  "/>
<polyline clip-path="url(#clip132)" style="stroke:#808080; stroke-width:4; stroke-opacity:0.5; fill:none" points="
  268.551,208.063 365.066,248.731 461.581,297.448 558.096,354.685 654.61,420.417 751.125,493.956 847.64,573.863 944.155,657.982 1040.67,743.633 1137.18,827.933 
  1233.7,908.181 1330.21,982.177 1426.73,1048.44 1523.24,1106.22 1619.76,1155.47 1716.27,1196.63 1812.79,1230.47 1909.3,1257.91 2005.82,1279.93 2102.33,1297.43 
  2198.85,1311.25 
  "/>
<polyline clip-path="url(#clip132)" style="stroke:#808080; stroke-width:4; stroke-opacity:0.5; fill:none" points="
  268.551,219.811 365.066,260.899 461.581,309.52 558.096,365.996 654.61,430.198 751.125,501.422 847.64,578.326 944.155,658.971 1040.67,740.991 1137.18,821.854 
  1233.7,899.166 1330.21,970.946 1426.73,1035.8 1523.24,1092.95 1619.76,1142.25 1716.27,1183.97 1812.79,1218.72 1909.3,1247.28 2005.82,1270.51 2102.33,1289.22 
  2198.85,1304.19 
  "/>
<polyline clip-path="url(#clip132)" style="stroke:#808080; stroke-width:4; stroke-opacity:0.5; fill:none" points="
  268.551,189.791 365.066,225.2 461.581,267.747 558.096,318.038 654.61,376.344 751.125,442.441 847.64,515.492 944.155,593.999 1040.67,675.869 1137.18,758.61 
  1233.7,839.625 1330.21,916.526 1426.73,987.401 1523.24,1050.97 1619.76,1106.61 1716.27,1154.28 1812.79,1194.38 1909.3,1227.59 2005.82,1254.74 2102.33,1276.71 
  2198.85,1294.34 
  "/>
<polyline clip-path="url(#clip132)" style="stroke:#808080; stroke-width:4; stroke-opacity:0.5; fill:none" points="
  268.551,195.763 365.066,233.72 461.581,279.442 558.096,333.526 654.61,396.138 751.125,466.845 847.64,544.489 944.155,627.169 1040.67,712.381 1137.18,797.296 
  1233.7,879.123 1330.21,955.464 1426.73,1024.57 1523.24,1085.43 1619.76,1137.75 1716.27,1181.81 1812.79,1218.26 1909.3,1247.98 2005.82,1271.93 2102.33,1291.05 
  2198.85,1306.19 
  "/>
<polyline clip-path="url(#clip132)" style="stroke:#808080; stroke-width:4; stroke-opacity:0.5; fill:none" points="
  268.551,206.111 365.066,245.933 461.581,293.605 558.096,349.61 654.61,413.968 751.125,486.073 847.64,564.602 944.155,647.528 1040.67,732.296 1137.18,816.113 
  1233.7,896.31 1330.21,970.665 1426.73,1037.62 1523.24,1096.34 1619.76,1146.66 1716.27,1188.94 1812.79,1223.87 1909.3,1252.33 2005.82,1275.26 2102.33,1293.57 
  2198.85,1308.08 
  "/>
<polyline clip-path="url(#clip132)" style="stroke:#808080; stroke-width:4; stroke-opacity:0.5; fill:none" points="
  268.551,209.614 365.066,248.159 461.581,293.892 558.096,347.225 654.61,408.187 751.125,476.287 847.64,550.443 944.155,628.976 1040.67,709.734 1137.18,790.304 
  1233.7,868.297 1330.21,941.621 1426.73,1008.68 1523.24,1068.5 1619.76,1120.65 1716.27,1165.25 1812.79,1202.75 1909.3,1233.84 2005.82,1259.31 2102.33,1279.97 
  2198.85,1296.61 
  "/>
<polyline clip-path="url(#clip132)" style="stroke:#808080; stroke-width:4; stroke-opacity:0.5; fill:none" points="
  268.551,200.622 365.066,239.206 461.581,285.501 558.096,340.044 654.61,402.939 751.125,473.694 847.64,551.113 944.155,633.291 1040.67,717.76 1137.18,801.76 
  1233.7,882.592 1330.21,957.951 1426.73,1026.16 1523.24,1086.28 1619.76,1138.01 1716.27,1181.64 1812.79,1217.81 1909.3,1247.36 2005.82,1271.23 2102.33,1290.32 
  2198.85,1305.48 
  "/>
<polyline clip-path="url(#clip132)" style="stroke:#808080; stroke-width:4; stroke-opacity:0.5; fill:none" points="
  268.551,210.037 365.066,248.152 461.581,293.28 558.096,345.823 654.61,405.814 751.125,472.8 847.64,545.761 944.155,623.11 1040.67,702.796 1137.18,782.503 
  1233.7,859.915 1330.21,932.973 1426.73,1000.08 1523.24,1060.21 1619.76,1112.89 1716.27,1158.15 1812.79,1196.39 1909.3,1228.23 2005.82,1254.44 2102.33,1275.8 
  2198.85,1293.07 
  "/>
<polyline clip-path="url(#clip132)" style="stroke:#808080; stroke-width:4; stroke-opacity:0.5; fill:none" points="
  268.551,205.778 365.066,243.824 461.581,289.086 558.096,342.018 654.61,402.689 751.125,470.653 847.64,544.855 944.155,623.632 1040.67,704.818 1137.18,785.964 
  1233.7,864.628 1330.21,938.656 1426.73,1006.4 1523.24,1066.83 1619.76,1119.52 1716.27,1164.55 1812.79,1202.38 1909.3,1233.7 2005.82,1259.34 2102.33,1280.11 
  2198.85,1296.82 
  "/>
<polyline clip-path="url(#clip132)" style="stroke:#808080; stroke-width:4; stroke-opacity:0.5; fill:none" points="
  268.551,190.17 365.066,224.603 461.581,265.78 558.096,314.269 654.61,370.34 751.125,433.831 847.64,504.038 944.155,579.665 1040.67,658.864 1137.18,739.392 
  1233.7,818.852 1330.21,894.969 1426.73,965.845 1523.24,1030.12 1619.76,1087.02 1716.27,1136.33 1812.79,1178.29 1909.3,1213.43 2005.82,1242.47 2102.33,1266.21 
  2198.85,1285.45 
  "/>
<polyline clip-path="url(#clip132)" style="stroke:#808080; stroke-width:4; stroke-opacity:0.5; fill:none" points="
  268.551,205.058 365.066,244.21 461.581,291.025 558.096,345.986 654.61,409.144 751.125,479.954 847.64,557.188 944.155,638.936 1040.67,722.761 1137.18,805.961 
  1233.7,885.919 1330.21,960.411 1426.73,1027.83 1523.24,1087.26 1619.76,1138.46 1716.27,1181.68 1812.79,1217.57 1909.3,1246.95 2005.82,1270.72 2102.33,1289.78 
  2198.85,1304.94 
  "/>
<polyline clip-path="url(#clip132)" style="stroke:#808080; stroke-width:4; stroke-opacity:0.5; fill:none" points="
  268.551,202.454 365.066,240.505 461.581,285.959 558.096,339.315 654.61,400.671 751.125,469.583 847.64,544.958 944.155,625.055 1040.67,707.596 1137.18,790.008 
  1233.7,869.736 1330.21,944.545 1426.73,1012.75 1523.24,1073.33 1619.76,1125.9 1716.27,1170.61 1812.79,1207.97 1909.3,1238.75 2005.82,1263.8 2102.33,1284 
  2198.85,1300.16 
  "/>
<polyline clip-path="url(#clip132)" style="stroke:#808080; stroke-width:4; stroke-opacity:0.5; fill:none" points="
  268.551,216.923 365.066,258.65 461.581,308.295 558.096,366.221 654.61,432.294 751.125,505.738 847.64,585.068 944.155,668.144 1040.67,752.375 1137.18,835.017 
  1233.7,913.532 1330.21,985.877 1426.73,1050.68 1523.24,1107.27 1619.76,1155.61 1716.27,1196.13 1812.79,1229.55 1909.3,1256.77 2005.82,1278.68 2102.33,1296.18 
  2198.85,1310.06 
  "/>
<polyline clip-path="url(#clip132)" style="stroke:#808080; stroke-width:4; stroke-opacity:0.5; fill:none" points="
  268.551,203.522 365.066,243.602 461.581,291.786 558.096,348.603 654.61,414.087 751.125,487.603 847.64,567.743 944.155,652.35 1040.67,738.704 1137.18,823.854 
  1233.7,905.008 1330.21,979.886 1426.73,1046.93 1523.24,1105.38 1619.76,1155.14 1716.27,1196.67 1812.79,1230.75 1909.3,1258.35 2005.82,1280.44 2102.33,1297.96 
  2198.85,1311.77 
  "/>
<polyline clip-path="url(#clip132)" style="stroke:#808080; stroke-width:4; stroke-opacity:0.5; fill:none" points="
  268.551,205.767 365.066,244.431 461.581,290.537 558.096,344.55 654.61,406.525 751.125,475.964 847.64,551.721 944.155,632.008 1040.67,714.522 1137.18,796.69 
  1233.7,875.982 1330.21,950.211 1426.73,1017.75 1523.24,1077.64 1619.76,1129.53 1716.27,1173.6 1812.79,1210.4 1909.3,1240.7 2005.82,1265.35 2102.33,1285.22 
  2198.85,1301.11 
  "/>
<polyline clip-path="url(#clip132)" style="stroke:#808080; stroke-width:4; stroke-opacity:0.5; fill:none" points="
  268.551,201.25 365.066,239.885 461.581,286.213 558.096,340.762 654.61,403.63 751.125,474.32 847.64,551.636 944.155,633.678 1040.67,717.99 1137.18,801.827 
  1233.7,882.506 1330.21,957.736 1426.73,1025.85 1523.24,1085.9 1619.76,1137.6 1716.27,1181.22 1812.79,1217.4 1909.3,1246.98 2005.82,1270.88 2102.33,1290.01 
  2198.85,1305.21 
  "/>
<polyline clip-path="url(#clip132)" style="stroke:#808080; stroke-width:4; stroke-opacity:0.5; fill:none" points="
  268.551,220.865 365.066,262.773 461.581,312.441 558.096,370.185 654.61,435.837 751.125,508.615 847.64,587.059 944.155,669.096 1040.67,752.228 1137.18,833.817 
  1233.7,911.418 1330.21,983.055 1426.73,1047.39 1523.24,1103.74 1619.76,1152.04 1716.27,1192.67 1812.79,1226.31 1909.3,1253.81 2005.82,1276.05 2102.33,1293.88 
  2198.85,1308.07 
  "/>
<polyline clip-path="url(#clip132)" style="stroke:#808080; stroke-width:4; stroke-opacity:0.5; fill:none" points="
  268.551,218.448 365.066,259.798 461.581,308.846 558.096,365.933 654.61,430.929 751.125,503.102 847.64,581.049 944.155,662.748 1040.67,745.737 1137.18,827.392 
  1233.7,905.255 1330.21,977.314 1426.73,1042.18 1523.24,1099.13 1619.76,1148.04 1716.27,1189.26 1812.79,1223.46 1909.3,1251.44 2005.82,1274.11 2102.33,1292.3 
  2198.85,1306.79 
  "/>
<polyline clip-path="url(#clip132)" style="stroke:#808080; stroke-width:4; stroke-opacity:0.5; fill:none" points="
  268.551,213.58 365.066,254.306 461.581,302.78 558.096,359.399 654.61,424.09 751.125,496.171 847.64,574.275 944.155,656.382 1040.67,740.001 1137.18,822.449 
  1233.7,901.19 1330.21,974.134 1426.73,1039.82 1523.24,1097.49 1619.76,1146.99 1716.27,1188.68 1812.79,1223.21 1909.3,1251.44 2005.82,1274.26 2102.33,1292.54 
  2198.85,1307.09 
  "/>
<polyline clip-path="url(#clip132)" style="stroke:#808080; stroke-width:4; stroke-opacity:0.5; fill:none" points="
  268.551,209.406 365.066,248.377 461.581,294.698 558.096,348.793 654.61,410.678 751.125,479.83 847.64,555.1 944.155,634.722 1040.67,716.447 1137.18,797.773 
  1233.7,876.248 1330.21,949.752 1426.73,1016.71 1523.24,1076.17 1619.76,1127.79 1716.27,1171.73 1812.79,1208.52 1909.3,1238.89 2005.82,1263.66 2102.33,1283.69 
  2198.85,1299.75 
  "/>
<polyline clip-path="url(#clip132)" style="stroke:#808080; stroke-width:4; stroke-opacity:0.5; fill:none" points="
  268.551,219.032 365.066,260.989 461.581,310.826 558.096,368.882 654.61,434.998 751.125,508.38 847.64,587.537 944.155,670.338 1040.67,754.212 1137.18,836.453 
  1233.7,914.56 1330.21,986.523 1426.73,1051 1523.24,1107.33 1619.76,1155.48 1716.27,1195.86 1812.79,1229.21 1909.3,1256.38 2005.82,1278.29 2102.33,1295.81 
  2198.85,1309.71 
  "/>
<polyline clip-path="url(#clip132)" style="stroke:#808080; stroke-width:4; stroke-opacity:0.5; fill:none" points="
  268.551,211.332 365.066,252.465 461.581,301.627 558.096,359.246 654.61,425.255 751.125,498.925 847.64,578.787 944.155,662.674 1040.67,747.924 1137.18,831.695 
  1233.7,911.338 1330.21,984.713 1426.73,1050.38 1523.24,1107.65 1619.76,1156.46 1716.27,1197.28 1812.79,1230.85 1909.3,1258.11 2005.82,1279.99 2102.33,1297.41 
  2198.85,1311.17 
  "/>
<polyline clip-path="url(#clip132)" style="stroke:#808080; stroke-width:4; stroke-opacity:0.5; fill:none" points="
  268.551,214.718 365.066,256.276 461.581,305.817 558.096,363.733 654.61,429.911 751.125,503.587 847.64,583.272 944.155,666.803 1040.67,751.545 1137.18,834.707 
  1233.7,913.701 1330.21,986.447 1426.73,1051.55 1523.24,1108.34 1619.76,1156.79 1716.27,1197.33 1812.79,1230.71 1909.3,1257.85 2005.82,1279.67 2102.33,1297.06 
  2198.85,1310.83 
  "/>
<polyline clip-path="url(#clip132)" style="stroke:#808080; stroke-width:4; stroke-opacity:0.5; fill:none" points="
  268.551,210.52 365.066,250.979 461.581,299.263 558.096,355.807 654.61,420.572 751.125,492.896 847.64,571.412 944.155,654.078 1040.67,738.353 1137.18,821.492 
  1233.7,900.895 1330.21,974.416 1426.73,1040.56 1523.24,1098.56 1619.76,1148.26 1716.27,1190.03 1812.79,1224.57 1909.3,1252.74 2005.82,1275.47 2102.33,1293.63 
  2198.85,1308.05 
  "/>
<polyline clip-path="url(#clip132)" style="stroke:#808080; stroke-width:4; stroke-opacity:0.5; fill:none" points="
  268.551,212.585 365.066,252.867 461.581,300.793 558.096,356.766 654.61,420.738 751.125,492.068 847.64,569.446 944.155,650.92 1040.67,734.059 1137.18,816.228 
  1233.7,894.911 1330.21,968.008 1426.73,1034.03 1523.24,1092.16 1619.76,1142.2 1716.27,1184.46 1812.79,1219.57 1909.3,1248.33 2005.82,1271.64 2102.33,1290.36 
  2198.85,1305.28 
  "/>
<polyline clip-path="url(#clip132)" style="stroke:#808080; stroke-width:4; stroke-opacity:0.5; fill:none" points="
  268.551,212.93 365.066,254.785 461.581,304.837 558.096,363.506 654.61,430.68 751.125,505.559 847.64,586.573 944.155,671.443 1040.67,757.403 1137.18,841.542 
  1233.7,921.187 1330.21,994.227 1426.73,1059.29 1523.24,1115.75 1619.76,1163.67 1716.27,1203.55 1812.79,1236.22 1909.3,1262.63 2005.82,1283.77 2102.33,1300.53 
  2198.85,1313.73 
  "/>
<polyline clip-path="url(#clip132)" style="stroke:#808080; stroke-width:4; stroke-opacity:0.5; fill:none" points="
  268.551,209.883 365.066,250.372 461.581,298.736 558.096,355.416 654.61,420.378 751.125,492.958 847.64,571.773 944.155,654.757 1040.67,739.34 1137.18,822.747 
  1233.7,902.352 1330.21,975.998 1426.73,1042.19 1523.24,1100.16 1619.76,1149.79 1716.27,1191.44 1812.79,1225.84 1909.3,1253.86 2005.82,1276.44 2102.33,1294.46 
  2198.85,1308.76 
  "/>
<polyline clip-path="url(#clip132)" style="stroke:#808080; stroke-width:4; stroke-opacity:0.5; fill:none" points="
  268.551,188.165 365.066,223.396 461.581,265.793 558.096,315.98 654.61,374.247 751.125,440.39 847.64,513.581 944.155,592.319 1040.67,674.498 1137.18,757.6 
  1233.7,838.992 1330.21,916.252 1426.73,987.442 1523.24,1051.26 1619.76,1107.09 1716.27,1154.87 1812.79,1195.03 1909.3,1228.25 2005.82,1255.38 2102.33,1277.31 
  2198.85,1294.88 
  "/>
<polyline clip-path="url(#clip132)" style="stroke:#808080; stroke-width:4; stroke-opacity:0.5; fill:none" points="
  268.551,207.121 365.066,244.278 461.581,288.266 558.096,339.501 654.61,398.062 751.125,463.569 847.64,535.103 944.155,611.194 1040.67,689.905 1137.18,769.011 
  1233.7,846.24 1330.21,919.532 1426.73,987.242 1523.24,1048.26 1619.76,1102.02 1716.27,1148.47 1812.79,1187.91 1909.3,1220.92 2005.82,1248.21 2102.33,1270.55 
  2198.85,1288.68 
  "/>
<polyline clip-path="url(#clip132)" style="stroke:#808080; stroke-width:4; stroke-opacity:0.5; fill:none" points="
  268.551,208.743 365.066,248.505 461.581,295.941 558.096,351.497 654.61,415.171 751.125,486.368 847.64,563.808 944.155,645.55 1040.67,729.147 1137.18,811.919 
  1233.7,891.292 1330.21,965.101 1426.73,1031.8 1523.24,1090.54 1619.76,1141.09 1716.27,1183.76 1812.79,1219.17 1909.3,1248.16 2005.82,1271.63 2102.33,1290.45 
  2198.85,1305.43 
  "/>
<polyline clip-path="url(#clip132)" style="stroke:#808080; stroke-width:4; stroke-opacity:0.5; fill:none" points="
  268.551,205.493 365.066,243.679 461.581,289.149 558.096,342.362 654.61,403.386 751.125,471.763 847.64,546.417 944.155,625.649 1040.67,707.252 1137.18,788.741 
  1233.7,867.641 1330.21,941.787 1426.73,1009.53 1523.24,1069.86 1619.76,1122.36 1716.27,1167.14 1812.79,1204.7 1909.3,1235.75 2005.82,1261.11 2102.33,1281.63 
  2198.85,1298.1 
  "/>
<polyline clip-path="url(#clip132)" style="stroke:#808080; stroke-width:4; stroke-opacity:0.5; fill:none" points="
  268.551,217.151 365.066,261.817 461.581,315.468 558.096,378.488 654.61,450.596 751.125,530.667 847.64,616.68 944.155,705.84 1040.67,794.915 1137.18,880.684 
  1233.7,960.388 1330.21,1032.05 1426.73,1094.59 1523.24,1147.76 1619.76,1191.98 1716.27,1228.09 1812.79,1257.12 1909.3,1280.19 2005.82,1298.34 2102.33,1312.51 
  2198.85,1323.51 
  "/>
<polyline clip-path="url(#clip132)" style="stroke:#808080; stroke-width:4; stroke-opacity:0.5; fill:none" points="
  268.551,209.646 365.066,249.384 461.581,296.737 558.096,352.136 654.61,415.575 751.125,486.46 847.64,563.528 944.155,644.866 1040.67,728.061 1137.18,810.475 
  1233.7,889.564 1330.21,963.183 1426.73,1029.79 1523.24,1088.53 1619.76,1139.16 1716.27,1181.96 1812.79,1217.53 1909.3,1246.7 2005.82,1270.35 2102.33,1289.35 
  2198.85,1304.49 
  "/>
<polyline clip-path="url(#clip132)" style="stroke:#808080; stroke-width:4; stroke-opacity:0.5; fill:none" points="
  268.551,199.743 365.066,234.925 461.581,276.618 558.096,325.285 654.61,381.094 751.125,443.812 847.64,512.709 944.155,586.528 1040.67,663.538 1137.18,741.669 
  1233.7,818.73 1330.21,892.647 1426.73,961.678 1523.24,1024.55 1619.76,1080.53 1716.27,1129.37 1812.79,1171.22 1909.3,1206.55 2005.82,1235.99 2102.33,1260.27 
  2198.85,1280.1 
  "/>
<polyline clip-path="url(#clip132)" style="stroke:#808080; stroke-width:4; stroke-opacity:0.5; fill:none" points="
  268.551,208.81 365.066,247.277 461.581,292.948 558.096,346.244 654.61,407.201 751.125,475.335 847.64,549.566 944.155,628.214 1040.67,709.117 1137.18,789.85 
  1233.7,868.01 1330.21,941.489 1426.73,1008.69 1523.24,1068.61 1619.76,1120.84 1716.27,1165.49 1812.79,1203.02 1909.3,1234.11 2005.82,1259.57 2102.33,1280.22 
  2198.85,1296.84 
  "/>
<polyline clip-path="url(#clip132)" style="stroke:#808080; stroke-width:4; stroke-opacity:0.5; fill:none" points="
  268.551,212.496 365.066,252.44 461.581,299.913 558.096,355.313 654.61,418.605 751.125,489.179 847.64,565.776 944.155,646.511 1040.67,729.023 1137.18,810.736 
  1233.7,889.171 1330.21,962.237 1426.73,1028.42 1523.24,1086.88 1619.76,1137.36 1716.27,1180.12 1812.79,1215.75 1909.3,1245.03 2005.82,1268.82 2102.33,1287.98 
  2198.85,1303.29 
  "/>
<polyline clip-path="url(#clip132)" style="stroke:#808080; stroke-width:4; stroke-opacity:0.5; fill:none" points="
  268.551,201.801 365.066,240.196 461.581,286.162 558.096,340.212 654.61,402.444 751.125,472.384 847.64,548.879 944.155,630.099 1040.67,713.662 1137.18,796.897 
  1233.7,877.176 1330.21,952.231 1426.73,1020.39 1523.24,1080.66 1619.76,1132.73 1716.27,1176.81 1812.79,1213.49 1909.3,1243.57 2005.82,1267.95 2102.33,1287.53 
  2198.85,1303.13 
  "/>
<polyline clip-path="url(#clip132)" style="stroke:#808080; stroke-width:4; stroke-opacity:0.5; fill:none" points="
  268.551,219.786 365.066,261.604 461.581,311.212 558.096,368.937 654.61,434.623 751.125,507.49 847.64,586.082 944.155,668.315 1040.67,751.672 1137.18,833.496 
  1233.7,911.32 1330.21,983.15 1426.73,1047.63 1523.24,1104.09 1619.76,1152.46 1716.27,1193.12 1812.79,1226.77 1909.3,1254.25 2005.82,1276.45 2102.33,1294.24 
  2198.85,1308.4 
  "/>
<polyline clip-path="url(#clip132)" style="stroke:#808080; stroke-width:4; stroke-opacity:0.5; fill:none" points="
  268.551,227.182 365.066,271.181 461.581,323.315 558.096,383.835 654.61,452.435 751.125,528.127 847.64,609.203 944.155,693.329 1040.67,777.791 1137.18,859.833 
  1233.7,937.004 1330.21,1007.43 1426.73,1069.95 1523.24,1124.09 1619.76,1170.01 1716.27,1208.23 1812.79,1239.59 1909.3,1264.98 2005.82,1285.35 2102.33,1301.56 
  2198.85,1314.36 
  "/>
<polyline clip-path="url(#clip132)" style="stroke:#808080; stroke-width:4; stroke-opacity:0.5; fill:none" points="
  268.551,213.698 365.066,256.403 461.581,307.576 558.096,367.634 654.61,436.422 751.125,513.046 847.64,595.794 944.155,682.218 1040.67,769.39 1137.18,854.275 
  1233.7,934.15 1330.21,1006.92 1426.73,1071.3 1523.24,1126.79 1619.76,1173.55 1716.27,1212.2 1812.79,1243.67 1909.3,1268.95 2005.82,1289.05 2102.33,1304.9 
  2198.85,1317.33 
  "/>
<polyline clip-path="url(#clip132)" style="stroke:#808080; stroke-width:4; stroke-opacity:0.5; fill:none" points="
  268.551,200.966 365.066,239.392 461.581,285.449 558.096,339.664 654.61,402.142 751.125,472.406 847.64,549.288 944.155,630.929 1040.67,714.91 1137.18,798.52 
  1233.7,879.095 1330.21,954.346 1426.73,1022.59 1523.24,1082.86 1619.76,1134.84 1716.27,1178.77 1812.79,1215.26 1909.3,1245.15 2005.82,1269.33 2102.33,1288.72 
  2198.85,1304.14 
  "/>
<polyline clip-path="url(#clip132)" style="stroke:#808080; stroke-width:4; stroke-opacity:0.5; fill:none" points="
  268.551,192.433 365.066,228.097 461.581,270.843 558.096,321.247 654.61,379.545 751.125,445.492 847.64,518.237 944.155,596.291 1040.67,677.592 1137.18,759.698 
  1233.7,840.071 1330.21,916.379 1426.73,986.755 1523.24,1049.94 1619.76,1105.33 1716.27,1152.86 1812.79,1192.91 1909.3,1226.15 2005.82,1253.39 2102.33,1275.47 
  2198.85,1293.22 
  "/>
<polyline clip-path="url(#clip132)" style="stroke:#808080; stroke-width:4; stroke-opacity:0.5; fill:none" points="
  268.551,200.034 365.066,237.699 461.581,282.763 558.096,335.749 654.61,396.787 751.125,465.464 847.64,540.721 944.155,620.835 1040.67,703.533 1137.18,786.232 
  1233.7,866.346 1330.21,941.602 1426.73,1010.28 1523.24,1071.32 1619.76,1124.3 1716.27,1169.37 1812.79,1207.03 1909.3,1238.06 2005.82,1263.3 2102.33,1283.65 
  2198.85,1299.92 
  "/>
<polyline clip-path="url(#clip132)" style="stroke:#808080; stroke-width:4; stroke-opacity:0.5; fill:none" points="
  268.551,215.43 365.066,256.889 461.581,306.255 558.096,363.908 654.61,429.735 751.125,502.984 847.64,582.192 944.155,665.238 1040.67,749.532 1137.18,832.329 
  1233.7,911.07 1330.21,983.688 1426.73,1048.79 1523.24,1105.68 1619.76,1154.3 1716.27,1195.06 1812.79,1228.7 1909.3,1256.09 2005.82,1278.15 2102.33,1295.77 
  2198.85,1309.75 
  "/>
<polyline clip-path="url(#clip132)" style="stroke:#808080; stroke-width:4; stroke-opacity:0.5; fill:none" points="
  268.551,214.909 365.066,256.592 461.581,306.292 558.096,364.399 654.61,430.796 751.125,504.704 847.64,584.616 944.155,668.348 1040.67,753.245 1137.18,836.502 
  1233.7,915.522 1330.21,988.227 1426.73,1053.24 1523.24,1109.89 1619.76,1158.18 1716.27,1198.55 1812.79,1231.77 1909.3,1258.75 2005.82,1280.42 2102.33,1297.69 
  2198.85,1311.35 
  "/>
<polyline clip-path="url(#clip132)" style="stroke:#808080; stroke-width:4; stroke-opacity:0.5; fill:none" points="
  268.551,205.297 365.066,246.722 461.581,296.658 558.096,355.632 654.61,423.614 751.125,499.827 847.64,582.648 944.155,669.656 1040.67,757.874 1137.18,844.159 
  1233.7,925.632 1330.21,1000.04 1426.73,1065.97 1523.24,1122.82 1619.76,1170.71 1716.27,1210.27 1812.79,1242.42 1909.3,1268.2 2005.82,1288.66 2102.33,1304.76 
  2198.85,1317.34 
  "/>
<polyline clip-path="url(#clip132)" style="stroke:#808080; stroke-width:4; stroke-opacity:0.5; fill:none" points="
  268.551,199.766 365.066,237.431 461.581,282.511 558.096,335.531 654.61,396.624 751.125,465.38 847.64,540.734 944.155,620.957 1040.67,703.768 1137.18,786.572 
  1233.7,866.774 1330.21,942.094 1426.73,1010.81 1523.24,1071.86 1619.76,1124.83 1716.27,1169.87 1812.79,1207.49 1909.3,1238.47 2005.82,1263.67 2102.33,1283.97 
  2198.85,1300.19 
  "/>
<polyline clip-path="url(#clip132)" style="stroke:#808080; stroke-width:4; stroke-opacity:0.5; fill:none" points="
  268.551,197.981 365.066,235.192 461.581,279.752 558.096,332.199 654.61,392.692 751.125,460.859 847.64,535.684 944.155,615.489 1040.67,698.036 1137.18,780.757 
  1233.7,861.063 1330.21,936.657 1426.73,1005.78 1523.24,1067.32 1619.76,1120.83 1716.27,1166.41 1812.79,1204.56 1909.3,1236.01 2005.82,1261.63 2102.33,1282.3 
  2198.85,1298.83 
  "/>
<polyline clip-path="url(#clip132)" style="stroke:#000000; stroke-width:4; stroke-opacity:1; fill:none" points="
  268.551,207.87 365.066,247.437 461.581,294.658 558.096,349.987 654.61,413.434 751.125,484.421 847.64,561.69 944.155,643.316 1040.67,726.865 1137.18,809.664 
  1233.7,889.133 1330.21,963.096 1426.73,1029.99 1523.24,1088.94 1619.76,1139.71 1716.27,1182.59 1812.79,1218.2 1909.3,1247.36 2005.82,1270.97 2102.33,1289.91 
  2198.85,1305 
  "/>
</svg>
