<?xml version="1.0" encoding="utf-8"?>
<svg xmlns="http://www.w3.org/2000/svg" xmlns:xlink="http://www.w3.org/1999/xlink" width="576" height="384" viewBox="0 0 2304 1536">
<defs>
  <clipPath id="clip210">
    <rect x="0" y="0" width="2304" height="1536"/>
  </clipPath>
</defs>
<path clip-path="url(#clip210)" d="
M0 1536 L2304 1536 L2304 0 L0 0  Z
  " fill="#ffffff" fill-rule="evenodd" fill-opacity="1"/>
<defs>
  <clipPath id="clip211">
    <rect x="460" y="0" width="1614" height="1536"/>
  </clipPath>
</defs>
<path clip-path="url(#clip210)" d="
M210.642 1359.82 L2256.76 1359.82 L2256.76 47.2441 L210.642 47.2441  Z
  " fill="#ffffff" fill-rule="evenodd" fill-opacity="1"/>
<defs>
  <clipPath id="clip212">
    <rect x="210" y="47" width="2047" height="1314"/>
  </clipPath>
</defs>
<polyline clip-path="url(#clip212)" style="stroke:#000000; stroke-width:2; stroke-opacity:0.1; fill:none" points="
  654.61,1359.82 654.61,47.2441 
  "/>
<polyline clip-path="url(#clip212)" style="stroke:#000000; stroke-width:2; stroke-opacity:0.1; fill:none" points="
  1137.18,1359.82 1137.18,47.2441 
  "/>
<polyline clip-path="url(#clip212)" style="stroke:#000000; stroke-width:2; stroke-opacity:0.1; fill:none" points="
  1619.76,1359.82 1619.76,47.2441 
  "/>
<polyline clip-path="url(#clip212)" style="stroke:#000000; stroke-width:2; stroke-opacity:0.1; fill:none" points="
  2102.33,1359.82 2102.33,47.2441 
  "/>
<polyline clip-path="url(#clip212)" style="stroke:#000000; stroke-width:2; stroke-opacity:0.1; fill:none" points="
  210.642,1359.82 2256.76,1359.82 
  "/>
<polyline clip-path="url(#clip212)" style="stroke:#000000; stroke-width:2; stroke-opacity:0.1; fill:none" points="
  210.642,1097.3 2256.76,1097.3 
  "/>
<polyline clip-path="url(#clip212)" style="stroke:#000000; stroke-width:2; stroke-opacity:0.1; fill:none" points="
  210.642,834.79 2256.76,834.79 
  "/>
<polyline clip-path="url(#clip212)" style="stroke:#000000; stroke-width:2; stroke-opacity:0.1; fill:none" points="
  210.642,572.274 2256.76,572.274 
  "/>
<polyline clip-path="url(#clip212)" style="stroke:#000000; stroke-width:2; stroke-opacity:0.1; fill:none" points="
  210.642,309.759 2256.76,309.759 
  "/>
<polyline clip-path="url(#clip212)" style="stroke:#000000; stroke-width:2; stroke-opacity:0.1; fill:none" points="
  210.642,47.2441 2256.76,47.2441 
  "/>
<polyline clip-path="url(#clip210)" style="stroke:#000000; stroke-width:4; stroke-opacity:1; fill:none" points="
  210.642,1359.82 2256.76,1359.82 
  "/>
<polyline clip-path="url(#clip210)" style="stroke:#000000; stroke-width:4; stroke-opacity:1; fill:none" points="
  210.642,1359.82 210.642,47.2441 
  "/>
<polyline clip-path="url(#clip210)" style="stroke:#000000; stroke-width:4; stroke-opacity:1; fill:none" points="
  654.61,1359.82 654.61,1344.07 
  "/>
<polyline clip-path="url(#clip210)" style="stroke:#000000; stroke-width:4; stroke-opacity:1; fill:none" points="
  1137.18,1359.82 1137.18,1344.07 
  "/>
<polyline clip-path="url(#clip210)" style="stroke:#000000; stroke-width:4; stroke-opacity:1; fill:none" points="
  1619.76,1359.82 1619.76,1344.07 
  "/>
<polyline clip-path="url(#clip210)" style="stroke:#000000; stroke-width:4; stroke-opacity:1; fill:none" points="
  2102.33,1359.82 2102.33,1344.07 
  "/>
<polyline clip-path="url(#clip210)" style="stroke:#000000; stroke-width:4; stroke-opacity:1; fill:none" points="
  210.642,1359.82 235.196,1359.82 
  "/>
<polyline clip-path="url(#clip210)" style="stroke:#000000; stroke-width:4; stroke-opacity:1; fill:none" points="
  210.642,1097.3 235.196,1097.3 
  "/>
<polyline clip-path="url(#clip210)" style="stroke:#000000; stroke-width:4; stroke-opacity:1; fill:none" points="
  210.642,834.79 235.196,834.79 
  "/>
<polyline clip-path="url(#clip210)" style="stroke:#000000; stroke-width:4; stroke-opacity:1; fill:none" points="
  210.642,572.274 235.196,572.274 
  "/>
<polyline clip-path="url(#clip210)" style="stroke:#000000; stroke-width:4; stroke-opacity:1; fill:none" points="
  210.642,309.759 235.196,309.759 
  "/>
<polyline clip-path="url(#clip210)" style="stroke:#000000; stroke-width:4; stroke-opacity:1; fill:none" points="
  210.642,47.2441 235.196,47.2441 
  "/>
<path clip-path="url(#clip210)" d="M 0 0 M644.888 1378.25 L663.245 1378.25 L663.245 1382.19 L649.171 1382.19 L649.171 1390.66 Q650.189 1390.31 651.208 1390.15 Q652.226 1389.96 653.245 1389.96 Q659.032 1389.96 662.411 1393.14 Q665.791 1396.31 665.791 1401.72 Q665.791 1407.3 662.319 1410.4 Q658.847 1413.48 652.527 1413.48 Q650.351 1413.48 648.083 1413.11 Q645.837 1412.74 643.43 1412 L643.43 1407.3 Q645.513 1408.44 647.735 1408.99 Q649.958 1409.55 652.435 1409.55 Q656.439 1409.55 658.777 1407.44 Q661.115 1405.34 661.115 1401.72 Q661.115 1398.11 658.777 1396.01 Q656.439 1393.9 652.435 1393.9 Q650.56 1393.9 648.685 1394.32 Q646.833 1394.73 644.888 1395.61 L644.888 1378.25 Z" fill="#000000" fill-rule="evenodd" fill-opacity="1" /><path clip-path="url(#clip210)" d="M 0 0 M1114.06 1408.88 L1121.7 1408.88 L1121.7 1382.51 L1113.39 1384.18 L1113.39 1379.92 L1121.65 1378.25 L1126.33 1378.25 L1126.33 1408.88 L1133.97 1408.88 L1133.97 1412.81 L1114.06 1412.81 L1114.06 1408.88 Z" fill="#000000" fill-rule="evenodd" fill-opacity="1" /><path clip-path="url(#clip210)" d="M 0 0 M1149.04 1381.33 Q1145.43 1381.33 1143.6 1384.9 Q1141.79 1388.44 1141.79 1395.57 Q1141.79 1402.67 1143.6 1406.24 Q1145.43 1409.78 1149.04 1409.78 Q1152.67 1409.78 1154.48 1406.24 Q1156.3 1402.67 1156.3 1395.57 Q1156.3 1388.44 1154.48 1384.9 Q1152.67 1381.33 1149.04 1381.33 M1149.04 1377.63 Q1154.85 1377.63 1157.9 1382.23 Q1160.98 1386.82 1160.98 1395.57 Q1160.98 1404.29 1157.9 1408.9 Q1154.85 1413.48 1149.04 1413.48 Q1143.23 1413.48 1140.15 1408.9 Q1137.09 1404.29 1137.09 1395.57 Q1137.09 1386.82 1140.15 1382.23 Q1143.23 1377.63 1149.04 1377.63 Z" fill="#000000" fill-rule="evenodd" fill-opacity="1" /><path clip-path="url(#clip210)" d="M 0 0 M1597.13 1408.88 L1604.77 1408.88 L1604.77 1382.51 L1596.46 1384.18 L1596.46 1379.92 L1604.72 1378.25 L1609.4 1378.25 L1609.4 1408.88 L1617.04 1408.88 L1617.04 1412.81 L1597.13 1412.81 L1597.13 1408.88 Z" fill="#000000" fill-rule="evenodd" fill-opacity="1" /><path clip-path="url(#clip210)" d="M 0 0 M1622.15 1378.25 L1640.51 1378.25 L1640.51 1382.19 L1626.44 1382.19 L1626.44 1390.66 Q1627.46 1390.31 1628.47 1390.15 Q1629.49 1389.96 1630.51 1389.96 Q1636.3 1389.96 1639.68 1393.14 Q1643.06 1396.31 1643.06 1401.72 Q1643.06 1407.3 1639.58 1410.4 Q1636.11 1413.48 1629.79 1413.48 Q1627.62 1413.48 1625.35 1413.11 Q1623.1 1412.74 1620.7 1412 L1620.7 1407.3 Q1622.78 1408.44 1625 1408.99 Q1627.22 1409.55 1629.7 1409.55 Q1633.7 1409.55 1636.04 1407.44 Q1638.38 1405.34 1638.38 1401.72 Q1638.38 1398.11 1636.04 1396.01 Q1633.7 1393.9 1629.7 1393.9 Q1627.83 1393.9 1625.95 1394.32 Q1624.1 1394.73 1622.15 1395.61 L1622.15 1378.25 Z" fill="#000000" fill-rule="evenodd" fill-opacity="1" /><path clip-path="url(#clip210)" d="M 0 0 M2083.48 1408.88 L2099.8 1408.88 L2099.8 1412.81 L2077.85 1412.81 L2077.85 1408.88 Q2080.52 1406.12 2085.1 1401.49 Q2089.7 1396.84 2090.89 1395.5 Q2093.13 1392.97 2094.01 1391.24 Q2094.91 1389.48 2094.91 1387.79 Q2094.91 1385.03 2092.97 1383.3 Q2091.05 1381.56 2087.95 1381.56 Q2085.75 1381.56 2083.29 1382.33 Q2080.86 1383.09 2078.08 1384.64 L2078.08 1379.92 Q2080.91 1378.78 2083.36 1378.21 Q2085.82 1377.63 2087.85 1377.63 Q2093.22 1377.63 2096.42 1380.31 Q2099.61 1383 2099.61 1387.49 Q2099.61 1389.62 2098.8 1391.54 Q2098.02 1393.44 2095.91 1396.03 Q2095.33 1396.7 2092.23 1399.92 Q2089.13 1403.11 2083.48 1408.88 Z" fill="#000000" fill-rule="evenodd" fill-opacity="1" /><path clip-path="url(#clip210)" d="M 0 0 M2114.87 1381.33 Q2111.26 1381.33 2109.43 1384.9 Q2107.62 1388.44 2107.62 1395.57 Q2107.62 1402.67 2109.43 1406.24 Q2111.26 1409.78 2114.87 1409.78 Q2118.5 1409.78 2120.31 1406.24 Q2122.14 1402.67 2122.14 1395.57 Q2122.14 1388.44 2120.31 1384.9 Q2118.5 1381.33 2114.87 1381.33 M2114.87 1377.63 Q2120.68 1377.63 2123.73 1382.23 Q2126.81 1386.82 2126.81 1395.57 Q2126.81 1404.29 2123.73 1408.9 Q2120.68 1413.48 2114.87 1413.48 Q2109.06 1413.48 2105.98 1408.9 Q2102.92 1404.29 2102.92 1395.57 Q2102.92 1386.82 2105.98 1382.23 Q2109.06 1377.63 2114.87 1377.63 Z" fill="#000000" fill-rule="evenodd" fill-opacity="1" /><path clip-path="url(#clip210)" d="M 0 0 M138.691 1345.62 Q135.08 1345.62 133.251 1349.18 Q131.445 1352.72 131.445 1359.85 Q131.445 1366.96 133.251 1370.53 Q135.08 1374.07 138.691 1374.07 Q142.325 1374.07 144.13 1370.53 Q145.959 1366.96 145.959 1359.85 Q145.959 1352.72 144.13 1349.18 Q142.325 1345.62 138.691 1345.62 M138.691 1341.91 Q144.501 1341.91 147.556 1346.52 Q150.635 1351.1 150.635 1359.85 Q150.635 1368.58 147.556 1373.19 Q144.501 1377.77 138.691 1377.77 Q132.88 1377.77 129.802 1373.19 Q126.746 1368.58 126.746 1359.85 Q126.746 1351.1 129.802 1346.52 Q132.88 1341.91 138.691 1341.91 Z" fill="#000000" fill-rule="evenodd" fill-opacity="1" /><path clip-path="url(#clip210)" d="M 0 0 M155.704 1371.22 L160.589 1371.22 L160.589 1377.1 L155.704 1377.1 L155.704 1371.22 Z" fill="#000000" fill-rule="evenodd" fill-opacity="1" /><path clip-path="url(#clip210)" d="M 0 0 M175.658 1345.62 Q172.047 1345.62 170.218 1349.18 Q168.413 1352.72 168.413 1359.85 Q168.413 1366.96 170.218 1370.53 Q172.047 1374.07 175.658 1374.07 Q179.292 1374.07 181.098 1370.53 Q182.927 1366.96 182.927 1359.85 Q182.927 1352.72 181.098 1349.18 Q179.292 1345.62 175.658 1345.62 M175.658 1341.91 Q181.468 1341.91 184.524 1346.52 Q187.602 1351.1 187.602 1359.85 Q187.602 1368.58 184.524 1373.19 Q181.468 1377.77 175.658 1377.77 Q169.848 1377.77 166.769 1373.19 Q163.714 1368.58 163.714 1359.85 Q163.714 1351.1 166.769 1346.52 Q169.848 1341.91 175.658 1341.91 Z" fill="#000000" fill-rule="evenodd" fill-opacity="1" /><path clip-path="url(#clip210)" d="M 0 0 M140.288 1083.1 Q136.677 1083.1 134.848 1086.67 Q133.043 1090.21 133.043 1097.34 Q133.043 1104.45 134.848 1108.01 Q136.677 1111.55 140.288 1111.55 Q143.922 1111.55 145.728 1108.01 Q147.556 1104.45 147.556 1097.34 Q147.556 1090.21 145.728 1086.67 Q143.922 1083.1 140.288 1083.1 M140.288 1079.4 Q146.098 1079.4 149.154 1084.01 Q152.232 1088.59 152.232 1097.34 Q152.232 1106.07 149.154 1110.67 Q146.098 1115.26 140.288 1115.26 Q134.478 1115.26 131.399 1110.67 Q128.343 1106.07 128.343 1097.34 Q128.343 1088.59 131.399 1084.01 Q134.478 1079.4 140.288 1079.4 Z" fill="#000000" fill-rule="evenodd" fill-opacity="1" /><path clip-path="url(#clip210)" d="M 0 0 M157.302 1108.71 L162.186 1108.71 L162.186 1114.58 L157.302 1114.58 L157.302 1108.71 Z" fill="#000000" fill-rule="evenodd" fill-opacity="1" /><path clip-path="url(#clip210)" d="M 0 0 M171.283 1110.65 L187.602 1110.65 L187.602 1114.58 L165.658 1114.58 L165.658 1110.65 Q168.32 1107.89 172.903 1103.27 Q177.51 1098.61 178.69 1097.27 Q180.936 1094.75 181.815 1093.01 Q182.718 1091.25 182.718 1089.56 Q182.718 1086.81 180.774 1085.07 Q178.852 1083.33 175.751 1083.33 Q173.552 1083.33 171.098 1084.1 Q168.667 1084.86 165.89 1086.41 L165.89 1081.69 Q168.714 1080.56 171.167 1079.98 Q173.621 1079.4 175.658 1079.4 Q181.028 1079.4 184.223 1082.08 Q187.417 1084.77 187.417 1089.26 Q187.417 1091.39 186.607 1093.31 Q185.82 1095.21 183.714 1097.8 Q183.135 1098.47 180.033 1101.69 Q176.931 1104.89 171.283 1110.65 Z" fill="#000000" fill-rule="evenodd" fill-opacity="1" /><path clip-path="url(#clip210)" d="M 0 0 M138.205 820.588 Q134.593 820.588 132.765 824.153 Q130.959 827.695 130.959 834.824 Q130.959 841.931 132.765 845.496 Q134.593 849.037 138.205 849.037 Q141.839 849.037 143.644 845.496 Q145.473 841.931 145.473 834.824 Q145.473 827.695 143.644 824.153 Q141.839 820.588 138.205 820.588 M138.205 816.885 Q144.015 816.885 147.07 821.491 Q150.149 826.074 150.149 834.824 Q150.149 843.551 147.07 848.158 Q144.015 852.741 138.205 852.741 Q132.394 852.741 129.316 848.158 Q126.26 843.551 126.26 834.824 Q126.26 826.074 129.316 821.491 Q132.394 816.885 138.205 816.885 Z" fill="#000000" fill-rule="evenodd" fill-opacity="1" /><path clip-path="url(#clip210)" d="M 0 0 M155.218 846.19 L160.103 846.19 L160.103 852.07 L155.218 852.07 L155.218 846.19 Z" fill="#000000" fill-rule="evenodd" fill-opacity="1" /><path clip-path="url(#clip210)" d="M 0 0 M178.019 821.584 L166.214 840.033 L178.019 840.033 L178.019 821.584 M176.792 817.51 L182.672 817.51 L182.672 840.033 L187.602 840.033 L187.602 843.921 L182.672 843.921 L182.672 852.07 L178.019 852.07 L178.019 843.921 L162.417 843.921 L162.417 839.408 L176.792 817.51 Z" fill="#000000" fill-rule="evenodd" fill-opacity="1" /><path clip-path="url(#clip210)" d="M 0 0 M138.529 558.073 Q134.918 558.073 133.089 561.638 Q131.283 565.18 131.283 572.309 Q131.283 579.416 133.089 582.98 Q134.918 586.522 138.529 586.522 Q142.163 586.522 143.968 582.98 Q145.797 579.416 145.797 572.309 Q145.797 565.18 143.968 561.638 Q142.163 558.073 138.529 558.073 M138.529 554.369 Q144.339 554.369 147.394 558.976 Q150.473 563.559 150.473 572.309 Q150.473 581.036 147.394 585.642 Q144.339 590.226 138.529 590.226 Q132.718 590.226 129.64 585.642 Q126.584 581.036 126.584 572.309 Q126.584 563.559 129.64 558.976 Q132.718 554.369 138.529 554.369 Z" fill="#000000" fill-rule="evenodd" fill-opacity="1" /><path clip-path="url(#clip210)" d="M 0 0 M155.542 583.675 L160.427 583.675 L160.427 589.554 L155.542 589.554 L155.542 583.675 Z" fill="#000000" fill-rule="evenodd" fill-opacity="1" /><path clip-path="url(#clip210)" d="M 0 0 M176.075 570.411 Q172.927 570.411 171.075 572.564 Q169.246 574.717 169.246 578.466 Q169.246 582.193 171.075 584.369 Q172.927 586.522 176.075 586.522 Q179.223 586.522 181.052 584.369 Q182.903 582.193 182.903 578.466 Q182.903 574.717 181.052 572.564 Q179.223 570.411 176.075 570.411 M185.357 555.758 L185.357 560.018 Q183.598 559.184 181.792 558.744 Q180.01 558.305 178.251 558.305 Q173.621 558.305 171.167 561.43 Q168.737 564.555 168.39 570.874 Q169.755 568.86 171.815 567.795 Q173.876 566.707 176.352 566.707 Q181.561 566.707 184.57 569.879 Q187.602 573.027 187.602 578.466 Q187.602 583.791 184.454 587.008 Q181.306 590.226 176.075 590.226 Q170.079 590.226 166.908 585.642 Q163.737 581.036 163.737 572.309 Q163.737 564.115 167.626 559.254 Q171.515 554.369 178.065 554.369 Q179.825 554.369 181.607 554.717 Q183.413 555.064 185.357 555.758 Z" fill="#000000" fill-rule="evenodd" fill-opacity="1" /><path clip-path="url(#clip210)" d="M 0 0 M138.783 295.558 Q135.172 295.558 133.343 299.123 Q131.538 302.664 131.538 309.794 Q131.538 316.9 133.343 320.465 Q135.172 324.007 138.783 324.007 Q142.417 324.007 144.223 320.465 Q146.052 316.9 146.052 309.794 Q146.052 302.664 144.223 299.123 Q142.417 295.558 138.783 295.558 M138.783 291.854 Q144.593 291.854 147.649 296.461 Q150.728 301.044 150.728 309.794 Q150.728 318.521 147.649 323.127 Q144.593 327.711 138.783 327.711 Q132.973 327.711 129.894 323.127 Q126.839 318.521 126.839 309.794 Q126.839 301.044 129.894 296.461 Q132.973 291.854 138.783 291.854 Z" fill="#000000" fill-rule="evenodd" fill-opacity="1" /><path clip-path="url(#clip210)" d="M 0 0 M155.797 321.16 L160.681 321.16 L160.681 327.039 L155.797 327.039 L155.797 321.16 Z" fill="#000000" fill-rule="evenodd" fill-opacity="1" /><path clip-path="url(#clip210)" d="M 0 0 M175.751 310.627 Q172.417 310.627 170.496 312.41 Q168.598 314.192 168.598 317.317 Q168.598 320.442 170.496 322.224 Q172.417 324.007 175.751 324.007 Q179.084 324.007 181.005 322.224 Q182.927 320.419 182.927 317.317 Q182.927 314.192 181.005 312.41 Q179.107 310.627 175.751 310.627 M171.075 308.637 Q168.065 307.896 166.376 305.836 Q164.709 303.775 164.709 300.813 Q164.709 296.669 167.649 294.262 Q170.612 291.854 175.751 291.854 Q180.913 291.854 183.852 294.262 Q186.792 296.669 186.792 300.813 Q186.792 303.775 185.102 305.836 Q183.436 307.896 180.45 308.637 Q183.829 309.424 185.704 311.715 Q187.602 314.007 187.602 317.317 Q187.602 322.34 184.524 325.025 Q181.468 327.711 175.751 327.711 Q170.033 327.711 166.954 325.025 Q163.899 322.34 163.899 317.317 Q163.899 314.007 165.797 311.715 Q167.695 309.424 171.075 308.637 M169.362 301.252 Q169.362 303.938 171.028 305.442 Q172.718 306.947 175.751 306.947 Q178.76 306.947 180.45 305.442 Q182.163 303.938 182.163 301.252 Q182.163 298.567 180.45 297.063 Q178.76 295.558 175.751 295.558 Q172.718 295.558 171.028 297.063 Q169.362 298.567 169.362 301.252 Z" fill="#000000" fill-rule="evenodd" fill-opacity="1" /><path clip-path="url(#clip210)" d="M 0 0 M130.728 60.5889 L138.367 60.5889 L138.367 34.2233 L130.056 35.89 L130.056 31.6308 L138.32 29.9641 L142.996 29.9641 L142.996 60.5889 L150.635 60.5889 L150.635 64.5241 L130.728 64.5241 L130.728 60.5889 Z" fill="#000000" fill-rule="evenodd" fill-opacity="1" /><path clip-path="url(#clip210)" d="M 0 0 M155.704 58.6445 L160.589 58.6445 L160.589 64.5241 L155.704 64.5241 L155.704 58.6445 Z" fill="#000000" fill-rule="evenodd" fill-opacity="1" /><path clip-path="url(#clip210)" d="M 0 0 M175.658 33.0428 Q172.047 33.0428 170.218 36.6076 Q168.413 40.1492 168.413 47.2788 Q168.413 54.3853 170.218 57.9501 Q172.047 61.4917 175.658 61.4917 Q179.292 61.4917 181.098 57.9501 Q182.927 54.3853 182.927 47.2788 Q182.927 40.1492 181.098 36.6076 Q179.292 33.0428 175.658 33.0428 M175.658 29.3391 Q181.468 29.3391 184.524 33.9456 Q187.602 38.5289 187.602 47.2788 Q187.602 56.0056 184.524 60.6121 Q181.468 65.1954 175.658 65.1954 Q169.848 65.1954 166.769 60.6121 Q163.714 56.0056 163.714 47.2788 Q163.714 38.5289 166.769 33.9456 Q169.848 29.3391 175.658 29.3391 Z" fill="#000000" fill-rule="evenodd" fill-opacity="1" /><path clip-path="url(#clip210)" d="M 0 0 M910.751 1449.49 L910.751 1486.44 L918.517 1486.44 Q928.352 1486.44 932.904 1481.98 Q937.487 1477.53 937.487 1467.92 Q937.487 1458.37 932.904 1453.94 Q928.352 1449.49 918.517 1449.49 L910.751 1449.49 M904.322 1444.2 L917.53 1444.2 Q931.344 1444.2 937.805 1449.96 Q944.266 1455.69 944.266 1467.92 Q944.266 1480.2 937.773 1485.96 Q931.28 1491.72 917.53 1491.72 L904.322 1491.72 L904.322 1444.2 Z" fill="#000000" fill-rule="evenodd" fill-opacity="1" /><path clip-path="url(#clip210)" d="M 0 0 M950.409 1456.08 L956.266 1456.08 L956.266 1491.72 L950.409 1491.72 L950.409 1456.08 M950.409 1442.2 L956.266 1442.2 L956.266 1449.61 L950.409 1449.61 L950.409 1442.2 Z" fill="#000000" fill-rule="evenodd" fill-opacity="1" /><path clip-path="url(#clip210)" d="M 0 0 M985.134 1457.13 L985.134 1462.66 Q982.652 1461.39 979.978 1460.75 Q977.304 1460.12 974.44 1460.12 Q970.079 1460.12 967.883 1461.45 Q965.719 1462.79 965.719 1465.47 Q965.719 1467.5 967.278 1468.68 Q968.838 1469.83 973.549 1470.88 L975.554 1471.32 Q981.792 1472.66 984.402 1475.11 Q987.044 1477.53 987.044 1481.89 Q987.044 1486.85 983.097 1489.75 Q979.182 1492.65 972.307 1492.65 Q969.443 1492.65 966.324 1492.07 Q963.236 1491.53 959.799 1490.42 L959.799 1484.37 Q963.045 1486.06 966.196 1486.92 Q969.347 1487.75 972.435 1487.75 Q976.572 1487.75 978.8 1486.34 Q981.028 1484.91 981.028 1482.33 Q981.028 1479.95 979.405 1478.67 Q977.814 1477.4 972.371 1476.22 L970.334 1475.75 Q964.891 1474.6 962.472 1472.24 Q960.053 1469.86 960.053 1465.72 Q960.053 1460.69 963.618 1457.95 Q967.183 1455.22 973.74 1455.22 Q976.986 1455.22 979.851 1455.69 Q982.715 1456.17 985.134 1457.13 Z" fill="#000000" fill-rule="evenodd" fill-opacity="1" /><path clip-path="url(#clip210)" d="M 0 0 M998.98 1445.95 L998.98 1456.08 L1011.04 1456.08 L1011.04 1460.63 L998.98 1460.63 L998.98 1479.98 Q998.98 1484.34 1000.16 1485.58 Q1001.37 1486.82 1005.03 1486.82 L1011.04 1486.82 L1011.04 1491.72 L1005.03 1491.72 Q998.248 1491.72 995.669 1489.21 Q993.091 1486.66 993.091 1479.98 L993.091 1460.63 L988.795 1460.63 L988.795 1456.08 L993.091 1456.08 L993.091 1445.95 L998.98 1445.95 Z" fill="#000000" fill-rule="evenodd" fill-opacity="1" /><path clip-path="url(#clip210)" d="M 0 0 M1033.39 1473.8 Q1026.29 1473.8 1023.55 1475.43 Q1020.81 1477.05 1020.81 1480.97 Q1020.81 1484.08 1022.85 1485.93 Q1024.92 1487.75 1028.45 1487.75 Q1033.32 1487.75 1036.25 1484.31 Q1039.21 1480.84 1039.21 1475.11 L1039.21 1473.8 L1033.39 1473.8 M1045.07 1471.39 L1045.07 1491.72 L1039.21 1491.72 L1039.21 1486.31 Q1037.21 1489.56 1034.21 1491.12 Q1031.22 1492.65 1026.89 1492.65 Q1021.42 1492.65 1018.17 1489.59 Q1014.96 1486.5 1014.96 1481.35 Q1014.96 1475.33 1018.97 1472.28 Q1023.01 1469.22 1031 1469.22 L1039.21 1469.22 L1039.21 1468.65 Q1039.21 1464.61 1036.54 1462.41 Q1033.9 1460.18 1029.09 1460.18 Q1026.03 1460.18 1023.14 1460.91 Q1020.24 1461.65 1017.57 1463.11 L1017.57 1457.7 Q1020.78 1456.46 1023.81 1455.85 Q1026.83 1455.22 1029.69 1455.22 Q1037.43 1455.22 1041.25 1459.23 Q1045.07 1463.24 1045.07 1471.39 Z" fill="#000000" fill-rule="evenodd" fill-opacity="1" /><path clip-path="url(#clip210)" d="M 0 0 M1080.84 1470.21 L1080.84 1491.72 L1074.99 1491.72 L1074.99 1470.4 Q1074.99 1465.34 1073.01 1462.82 Q1071.04 1460.31 1067.09 1460.31 Q1062.35 1460.31 1059.61 1463.33 Q1056.88 1466.36 1056.88 1471.58 L1056.88 1491.72 L1050.99 1491.72 L1050.99 1456.08 L1056.88 1456.08 L1056.88 1461.61 Q1058.98 1458.4 1061.81 1456.81 Q1064.67 1455.22 1068.4 1455.22 Q1074.54 1455.22 1077.69 1459.04 Q1080.84 1462.82 1080.84 1470.21 Z" fill="#000000" fill-rule="evenodd" fill-opacity="1" /><path clip-path="url(#clip210)" d="M 0 0 M1112.64 1457.44 L1112.64 1462.92 Q1110.16 1461.55 1107.64 1460.88 Q1105.16 1460.18 1102.61 1460.18 Q1096.92 1460.18 1093.77 1463.81 Q1090.61 1467.41 1090.61 1473.93 Q1090.61 1480.46 1093.77 1484.08 Q1096.92 1487.68 1102.61 1487.68 Q1105.16 1487.68 1107.64 1487.01 Q1110.16 1486.31 1112.64 1484.94 L1112.64 1490.36 Q1110.19 1491.5 1107.55 1492.07 Q1104.94 1492.65 1101.98 1492.65 Q1093.92 1492.65 1089.18 1487.59 Q1084.44 1482.53 1084.44 1473.93 Q1084.44 1465.21 1089.21 1460.21 Q1094.02 1455.22 1102.36 1455.22 Q1105.06 1455.22 1107.64 1455.79 Q1110.22 1456.33 1112.64 1457.44 Z" fill="#000000" fill-rule="evenodd" fill-opacity="1" /><path clip-path="url(#clip210)" d="M 0 0 M1149.27 1472.44 L1149.27 1475.3 L1122.35 1475.3 Q1122.73 1481.35 1125.98 1484.53 Q1129.25 1487.68 1135.08 1487.68 Q1138.45 1487.68 1141.6 1486.85 Q1144.79 1486.03 1147.91 1484.37 L1147.91 1489.91 Q1144.75 1491.25 1141.44 1491.95 Q1138.13 1492.65 1134.73 1492.65 Q1126.2 1492.65 1121.2 1487.68 Q1116.24 1482.72 1116.24 1474.25 Q1116.24 1465.5 1120.95 1460.37 Q1125.69 1455.22 1133.71 1455.22 Q1140.9 1455.22 1145.07 1459.86 Q1149.27 1464.48 1149.27 1472.44 M1143.42 1470.72 Q1143.35 1465.91 1140.71 1463.05 Q1138.1 1460.18 1133.77 1460.18 Q1128.87 1460.18 1125.91 1462.95 Q1122.98 1465.72 1122.54 1470.75 L1143.42 1470.72 Z" fill="#000000" fill-rule="evenodd" fill-opacity="1" /><path clip-path="url(#clip210)" d="M 0 0 M1194.18 1442.2 L1194.18 1447.07 L1188.58 1447.07 Q1185.43 1447.07 1184.19 1448.34 Q1182.98 1449.61 1182.98 1452.92 L1182.98 1456.08 L1192.62 1456.08 L1192.62 1460.63 L1182.98 1460.63 L1182.98 1491.72 L1177.09 1491.72 L1177.09 1460.63 L1171.49 1460.63 L1171.49 1456.08 L1177.09 1456.08 L1177.09 1453.59 Q1177.09 1447.64 1179.86 1444.94 Q1182.63 1442.2 1188.65 1442.2 L1194.18 1442.2 Z" fill="#000000" fill-rule="evenodd" fill-opacity="1" /><path clip-path="url(#clip210)" d="M 0 0 M1220.98 1461.55 Q1220 1460.98 1218.82 1460.72 Q1217.67 1460.44 1216.27 1460.44 Q1211.31 1460.44 1208.63 1463.68 Q1205.99 1466.9 1205.99 1472.95 L1205.99 1491.72 L1200.1 1491.72 L1200.1 1456.08 L1205.99 1456.08 L1205.99 1461.61 Q1207.84 1458.37 1210.8 1456.81 Q1213.76 1455.22 1217.99 1455.22 Q1218.6 1455.22 1219.33 1455.31 Q1220.06 1455.38 1220.95 1455.53 L1220.98 1461.55 Z" fill="#000000" fill-rule="evenodd" fill-opacity="1" /><path clip-path="url(#clip210)" d="M 0 0 M1239.51 1460.18 Q1234.8 1460.18 1232.06 1463.87 Q1229.32 1467.53 1229.32 1473.93 Q1229.32 1480.33 1232.03 1484.02 Q1234.77 1487.68 1239.51 1487.68 Q1244.19 1487.68 1246.92 1483.99 Q1249.66 1480.3 1249.66 1473.93 Q1249.66 1467.6 1246.92 1463.91 Q1244.19 1460.18 1239.51 1460.18 M1239.51 1455.22 Q1247.15 1455.22 1251.51 1460.18 Q1255.87 1465.15 1255.87 1473.93 Q1255.87 1482.68 1251.51 1487.68 Q1247.15 1492.65 1239.51 1492.65 Q1231.84 1492.65 1227.48 1487.68 Q1223.15 1482.68 1223.15 1473.93 Q1223.15 1465.15 1227.48 1460.18 Q1231.84 1455.22 1239.51 1455.22 Z" fill="#000000" fill-rule="evenodd" fill-opacity="1" /><path clip-path="url(#clip210)" d="M 0 0 M1289.77 1462.92 Q1291.96 1458.97 1295.02 1457.09 Q1298.07 1455.22 1302.21 1455.22 Q1307.78 1455.22 1310.8 1459.13 Q1313.83 1463.01 1313.83 1470.21 L1313.83 1491.72 L1307.94 1491.72 L1307.94 1470.4 Q1307.94 1465.27 1306.12 1462.79 Q1304.31 1460.31 1300.59 1460.31 Q1296.04 1460.31 1293.39 1463.33 Q1290.75 1466.36 1290.75 1471.58 L1290.75 1491.72 L1284.86 1491.72 L1284.86 1470.4 Q1284.86 1465.24 1283.05 1462.79 Q1281.24 1460.31 1277.45 1460.31 Q1272.96 1460.31 1270.32 1463.36 Q1267.68 1466.39 1267.68 1471.58 L1267.68 1491.72 L1261.79 1491.72 L1261.79 1456.08 L1267.68 1456.08 L1267.68 1461.61 Q1269.68 1458.34 1272.48 1456.78 Q1275.28 1455.22 1279.13 1455.22 Q1283.02 1455.22 1285.72 1457.19 Q1288.46 1459.16 1289.77 1462.92 Z" fill="#000000" fill-rule="evenodd" fill-opacity="1" /><path clip-path="url(#clip210)" d="M 0 0 M1370.32 1470.21 L1370.32 1491.72 L1364.47 1491.72 L1364.47 1470.4 Q1364.47 1465.34 1362.49 1462.82 Q1360.52 1460.31 1356.57 1460.31 Q1351.83 1460.31 1349.09 1463.33 Q1346.36 1466.36 1346.36 1471.58 L1346.36 1491.72 L1340.47 1491.72 L1340.47 1442.2 L1346.36 1442.2 L1346.36 1461.61 Q1348.46 1458.4 1351.29 1456.81 Q1354.15 1455.22 1357.88 1455.22 Q1364.02 1455.22 1367.17 1459.04 Q1370.32 1462.82 1370.32 1470.21 Z" fill="#000000" fill-rule="evenodd" fill-opacity="1" /><path clip-path="url(#clip210)" d="M 0 0 M1390.28 1460.18 Q1385.57 1460.18 1382.83 1463.87 Q1380.09 1467.53 1380.09 1473.93 Q1380.09 1480.33 1382.8 1484.02 Q1385.54 1487.68 1390.28 1487.68 Q1394.96 1487.68 1397.7 1483.99 Q1400.43 1480.3 1400.43 1473.93 Q1400.43 1467.6 1397.7 1463.91 Q1394.96 1460.18 1390.28 1460.18 M1390.28 1455.22 Q1397.92 1455.22 1402.28 1460.18 Q1406.64 1465.15 1406.64 1473.93 Q1406.64 1482.68 1402.28 1487.68 Q1397.92 1492.65 1390.28 1492.65 Q1382.61 1492.65 1378.25 1487.68 Q1373.92 1482.68 1373.92 1473.93 Q1373.92 1465.15 1378.25 1460.18 Q1382.61 1455.22 1390.28 1455.22 Z" fill="#000000" fill-rule="evenodd" fill-opacity="1" /><path clip-path="url(#clip210)" d="M 0 0 M1412.78 1442.2 L1418.64 1442.2 L1418.64 1491.72 L1412.78 1491.72 L1412.78 1442.2 Z" fill="#000000" fill-rule="evenodd" fill-opacity="1" /><path clip-path="url(#clip210)" d="M 0 0 M1455.27 1472.44 L1455.27 1475.3 L1428.35 1475.3 Q1428.73 1481.35 1431.98 1484.53 Q1435.25 1487.68 1441.08 1487.68 Q1444.45 1487.68 1447.6 1486.85 Q1450.79 1486.03 1453.9 1484.37 L1453.9 1489.91 Q1450.75 1491.25 1447.44 1491.95 Q1444.13 1492.65 1440.73 1492.65 Q1432.2 1492.65 1427.2 1487.68 Q1422.24 1482.72 1422.24 1474.25 Q1422.24 1465.5 1426.95 1460.37 Q1431.69 1455.22 1439.71 1455.22 Q1446.9 1455.22 1451.07 1459.86 Q1455.27 1464.48 1455.27 1472.44 M1449.42 1470.72 Q1449.35 1465.91 1446.71 1463.05 Q1444.1 1460.18 1439.77 1460.18 Q1434.87 1460.18 1431.91 1462.95 Q1428.98 1465.72 1428.54 1470.75 L1449.42 1470.72 Z" fill="#000000" fill-rule="evenodd" fill-opacity="1" /><path clip-path="url(#clip210)" d="M 0 0 M1496.2 1442.26 Q1491.94 1449.58 1489.87 1456.74 Q1487.8 1463.91 1487.8 1471.26 Q1487.8 1478.61 1489.87 1485.84 Q1491.97 1493.03 1496.2 1500.32 L1491.11 1500.32 Q1486.34 1492.84 1483.95 1485.61 Q1481.6 1478.39 1481.6 1471.26 Q1481.6 1464.16 1483.95 1456.97 Q1486.31 1449.77 1491.11 1442.26 L1496.2 1442.26 Z" fill="#000000" fill-rule="evenodd" fill-opacity="1" /><path clip-path="url(#clip210)" d="M 0 0 M1520.39 1442.2 L1520.39 1447.07 L1514.79 1447.07 Q1511.64 1447.07 1510.4 1448.34 Q1509.19 1449.61 1509.19 1452.92 L1509.19 1456.08 L1518.84 1456.08 L1518.84 1460.63 L1509.19 1460.63 L1509.19 1491.72 L1503.3 1491.72 L1503.3 1460.63 L1497.7 1460.63 L1497.7 1456.08 L1503.3 1456.08 L1503.3 1453.59 Q1503.3 1447.64 1506.07 1444.94 Q1508.84 1442.2 1514.86 1442.2 L1520.39 1442.2 Z" fill="#000000" fill-rule="evenodd" fill-opacity="1" /><path clip-path="url(#clip210)" d="M 0 0 M1531.18 1445.95 L1531.18 1456.08 L1543.25 1456.08 L1543.25 1460.63 L1531.18 1460.63 L1531.18 1479.98 Q1531.18 1484.34 1532.36 1485.58 Q1533.57 1486.82 1537.23 1486.82 L1543.25 1486.82 L1543.25 1491.72 L1537.23 1491.72 Q1530.45 1491.72 1527.87 1489.21 Q1525.3 1486.66 1525.3 1479.98 L1525.3 1460.63 L1521 1460.63 L1521 1456.08 L1525.3 1456.08 L1525.3 1445.95 L1531.18 1445.95 Z" fill="#000000" fill-rule="evenodd" fill-opacity="1" /><path clip-path="url(#clip210)" d="M 0 0 M1548.47 1442.26 L1553.56 1442.26 Q1558.33 1449.77 1560.69 1456.97 Q1563.08 1464.16 1563.08 1471.26 Q1563.08 1478.39 1560.69 1485.61 Q1558.33 1492.84 1553.56 1500.32 L1548.47 1500.32 Q1552.7 1493.03 1554.77 1485.84 Q1556.87 1478.61 1556.87 1471.26 Q1556.87 1463.91 1554.77 1456.74 Q1552.7 1449.58 1548.47 1442.26 Z" fill="#000000" fill-rule="evenodd" fill-opacity="1" /><path clip-path="url(#clip210)" d="M 0 0 M46.7277 1014.29 L64.5835 1014.29 L64.5835 1006.21 Q64.5835 1001.72 62.26 999.267 Q59.9365 996.816 55.6397 996.816 Q51.3747 996.816 49.0512 999.267 Q46.7277 1001.72 46.7277 1006.21 L46.7277 1014.29 M41.4442 1020.72 L41.4442 1006.21 Q41.4442 998.216 45.0726 994.142 Q48.6692 990.037 55.6397 990.037 Q62.6738 990.037 66.2704 994.142 Q69.867 998.216 69.867 1006.21 L69.867 1014.29 L88.9642 1014.29 L88.9642 1020.72 L41.4442 1020.72 Z" fill="#000000" fill-rule="evenodd" fill-opacity="1" /><path clip-path="url(#clip210)" d="M 0 0 M58.7907 964.383 Q58.2178 965.369 57.9632 966.547 Q57.6767 967.693 57.6767 969.093 Q57.6767 974.059 60.9232 976.732 Q64.1379 979.374 70.1853 979.374 L88.9642 979.374 L88.9642 985.262 L53.3162 985.262 L53.3162 979.374 L58.8544 979.374 Q55.6079 977.528 54.0483 974.568 Q52.4568 971.608 52.4568 967.375 Q52.4568 966.77 52.5523 966.038 Q52.616 965.306 52.7751 964.415 L58.7907 964.383 Z" fill="#000000" fill-rule="evenodd" fill-opacity="1" /><path clip-path="url(#clip210)" d="M 0 0 M57.4221 945.859 Q57.4221 950.569 61.1142 953.306 Q64.7745 956.044 71.172 956.044 Q77.5695 956.044 81.2617 953.338 Q84.9219 950.601 84.9219 945.859 Q84.9219 941.18 81.2298 938.442 Q77.5377 935.705 71.172 935.705 Q64.8381 935.705 61.146 938.442 Q57.4221 941.18 57.4221 945.859 M52.4568 945.859 Q52.4568 938.22 57.4221 933.859 Q62.3873 929.499 71.172 929.499 Q79.9249 929.499 84.9219 933.859 Q89.8872 938.22 89.8872 945.859 Q89.8872 953.529 84.9219 957.89 Q79.9249 962.218 71.172 962.218 Q62.3873 962.218 57.4221 957.89 Q52.4568 953.529 52.4568 945.859 Z" fill="#000000" fill-rule="evenodd" fill-opacity="1" /><path clip-path="url(#clip210)" d="M 0 0 M71.172 897.766 Q64.7108 897.766 61.0505 900.439 Q57.3584 903.081 57.3584 907.728 Q57.3584 912.375 61.0505 915.048 Q64.7108 917.69 71.172 917.69 Q77.6332 917.69 81.3253 915.048 Q84.9856 912.375 84.9856 907.728 Q84.9856 903.081 81.3253 900.439 Q77.6332 897.766 71.172 897.766 M58.7271 917.69 Q55.5442 915.844 54.0164 913.043 Q52.4568 910.211 52.4568 906.296 Q52.4568 899.803 57.6131 895.76 Q62.7693 891.686 71.172 891.686 Q79.5747 891.686 84.731 895.76 Q89.8872 899.803 89.8872 906.296 Q89.8872 910.211 88.3594 913.043 Q86.7998 915.844 83.617 917.69 L88.9642 917.69 L88.9642 923.579 L39.439 923.579 L39.439 917.69 L58.7271 917.69 Z" fill="#000000" fill-rule="evenodd" fill-opacity="1" /><path clip-path="url(#clip210)" d="M 0 0 M71.0447 869.343 Q71.0447 876.44 72.6679 879.178 Q74.2912 881.915 78.2061 881.915 Q81.3253 881.915 83.1714 879.878 Q84.9856 877.809 84.9856 874.276 Q84.9856 869.406 81.5481 866.478 Q78.0788 863.518 72.3497 863.518 L71.0447 863.518 L71.0447 869.343 M68.6257 857.662 L88.9642 857.662 L88.9642 863.518 L83.5533 863.518 Q86.7998 865.523 88.3594 868.515 Q89.8872 871.507 89.8872 875.836 Q89.8872 881.31 86.8316 884.557 Q83.7443 887.771 78.5881 887.771 Q72.5725 887.771 69.5169 883.761 Q66.4614 879.719 66.4614 871.73 L66.4614 863.518 L65.8885 863.518 Q61.8462 863.518 59.6501 866.192 Q57.4221 868.833 57.4221 873.64 Q57.4221 876.695 58.1541 879.591 Q58.8862 882.488 60.3503 885.161 L54.9395 885.161 Q53.6981 881.947 53.0934 878.923 Q52.4568 875.899 52.4568 873.035 Q52.4568 865.3 56.4672 861.481 Q60.4776 857.662 68.6257 857.662 Z" fill="#000000" fill-rule="evenodd" fill-opacity="1" /><path clip-path="url(#clip210)" d="M 0 0 M71.172 825.929 Q64.7108 825.929 61.0505 828.602 Q57.3584 831.244 57.3584 835.891 Q57.3584 840.538 61.0505 843.211 Q64.7108 845.853 71.172 845.853 Q77.6332 845.853 81.3253 843.211 Q84.9856 840.538 84.9856 835.891 Q84.9856 831.244 81.3253 828.602 Q77.6332 825.929 71.172 825.929 M58.7271 845.853 Q55.5442 844.007 54.0164 841.206 Q52.4568 838.374 52.4568 834.459 Q52.4568 827.966 57.6131 823.923 Q62.7693 819.849 71.172 819.849 Q79.5747 819.849 84.731 823.923 Q89.8872 827.966 89.8872 834.459 Q89.8872 838.374 88.3594 841.206 Q86.7998 844.007 83.617 845.853 L88.9642 845.853 L88.9642 851.742 L39.439 851.742 L39.439 845.853 L58.7271 845.853 Z" fill="#000000" fill-rule="evenodd" fill-opacity="1" /><path clip-path="url(#clip210)" d="M 0 0 M53.3162 813.706 L53.3162 807.85 L88.9642 807.85 L88.9642 813.706 L53.3162 813.706 M39.439 813.706 L39.439 807.85 L46.855 807.85 L46.855 813.706 L39.439 813.706 Z" fill="#000000" fill-rule="evenodd" fill-opacity="1" /><path clip-path="url(#clip210)" d="M 0 0 M39.439 801.707 L39.439 795.851 L88.9642 795.851 L88.9642 801.707 L39.439 801.707 Z" fill="#000000" fill-rule="evenodd" fill-opacity="1" /><path clip-path="url(#clip210)" d="M 0 0 M53.3162 789.708 L53.3162 783.851 L88.9642 783.851 L88.9642 789.708 L53.3162 789.708 M39.439 789.708 L39.439 783.851 L46.855 783.851 L46.855 789.708 L39.439 789.708 Z" fill="#000000" fill-rule="evenodd" fill-opacity="1" /><path clip-path="url(#clip210)" d="M 0 0 M43.1947 771.916 L53.3162 771.916 L53.3162 759.853 L57.8677 759.853 L57.8677 771.916 L77.2194 771.916 Q81.5799 771.916 82.8213 770.738 Q84.0626 769.528 84.0626 765.868 L84.0626 759.853 L88.9642 759.853 L88.9642 765.868 Q88.9642 772.648 86.4497 775.226 Q83.9034 777.804 77.2194 777.804 L57.8677 777.804 L57.8677 782.101 L53.3162 782.101 L53.3162 777.804 L43.1947 777.804 L43.1947 771.916 Z" fill="#000000" fill-rule="evenodd" fill-opacity="1" /><path clip-path="url(#clip210)" d="M 0 0 M92.2743 738.878 Q98.64 741.36 100.582 743.715 Q102.523 746.071 102.523 750.018 L102.523 754.696 L97.6215 754.696 L97.6215 751.259 Q97.6215 748.84 96.4757 747.503 Q95.3299 746.166 91.0648 744.543 L88.3912 743.493 L53.3162 757.911 L53.3162 751.704 L81.198 740.564 L53.3162 729.424 L53.3162 723.218 L92.2743 738.878 Z" fill="#000000" fill-rule="evenodd" fill-opacity="1" /><path clip-path="url(#clip210)" d="M 0 0 M57.4221 682.541 Q57.4221 687.252 61.1142 689.989 Q64.7745 692.726 71.172 692.726 Q77.5695 692.726 81.2617 690.021 Q84.9219 687.284 84.9219 682.541 Q84.9219 677.862 81.2298 675.125 Q77.5377 672.388 71.172 672.388 Q64.8381 672.388 61.146 675.125 Q57.4221 677.862 57.4221 682.541 M52.4568 682.541 Q52.4568 674.902 57.4221 670.542 Q62.3873 666.181 71.172 666.181 Q79.9249 666.181 84.9219 670.542 Q89.8872 674.902 89.8872 682.541 Q89.8872 690.212 84.9219 694.572 Q79.9249 698.901 71.172 698.901 Q62.3873 698.901 57.4221 694.572 Q52.4568 690.212 52.4568 682.541 Z" fill="#000000" fill-rule="evenodd" fill-opacity="1" /><path clip-path="url(#clip210)" d="M 0 0 M39.439 641.991 L44.3087 641.991 L44.3087 647.593 Q44.3087 650.744 45.5819 651.986 Q46.855 653.195 50.1652 653.195 L53.3162 653.195 L53.3162 643.551 L57.8677 643.551 L57.8677 653.195 L88.9642 653.195 L88.9642 659.083 L57.8677 659.083 L57.8677 664.685 L53.3162 664.685 L53.3162 659.083 L50.8336 659.083 Q44.8816 659.083 42.1762 656.314 Q39.439 653.545 39.439 647.53 L39.439 641.991 Z" fill="#000000" fill-rule="evenodd" fill-opacity="1" /><path clip-path="url(#clip210)" d="M 0 0 M43.0038 586.387 L49.274 586.387 Q47.5234 590.047 46.664 593.294 Q45.8047 596.54 45.8047 599.564 Q45.8047 604.816 47.8417 607.68 Q49.8787 610.513 53.6345 610.513 Q56.7855 610.513 58.4088 608.635 Q60.0002 606.725 60.9869 601.442 L61.7826 597.559 Q63.1512 590.366 66.6205 586.96 Q70.058 583.522 75.8508 583.522 Q82.7576 583.522 86.3224 588.169 Q89.8872 592.785 89.8872 601.728 Q89.8872 605.102 89.1233 608.922 Q88.3594 612.709 86.8635 616.783 L80.2431 616.783 Q82.4393 612.868 83.5533 609.113 Q84.6673 605.357 84.6673 601.728 Q84.6673 596.222 82.503 593.23 Q80.3386 590.238 76.3282 590.238 Q72.8271 590.238 70.8537 592.403 Q68.8804 594.535 67.8937 599.437 L67.1298 603.352 Q65.6975 610.545 62.642 613.76 Q59.5864 616.974 54.1437 616.974 Q47.8417 616.974 44.2132 612.55 Q40.5848 608.094 40.5848 600.296 Q40.5848 596.954 41.1895 593.485 Q41.7943 590.016 43.0038 586.387 Z" fill="#000000" fill-rule="evenodd" fill-opacity="1" /><path clip-path="url(#clip210)" d="M 0 0 M74.8959 577.984 L53.3162 577.984 L53.3162 572.128 L74.6731 572.128 Q79.7339 572.128 82.2802 570.155 Q84.7946 568.181 84.7946 564.234 Q84.7946 559.492 81.7709 556.755 Q78.7472 553.986 73.5273 553.986 L53.3162 553.986 L53.3162 548.129 L88.9642 548.129 L88.9642 553.986 L83.4896 553.986 Q86.7362 556.118 88.3276 558.951 Q89.8872 561.752 89.8872 565.476 Q89.8872 571.619 86.0678 574.801 Q82.2483 577.984 74.8959 577.984 M52.4568 563.248 L52.4568 563.248 Z" fill="#000000" fill-rule="evenodd" fill-opacity="1" /><path clip-path="url(#clip210)" d="M 0 0 M54.6848 516.332 L60.1593 516.332 Q58.7907 518.815 58.1223 521.33 Q57.4221 523.812 57.4221 526.358 Q57.4221 532.056 61.0505 535.207 Q64.6472 538.358 71.172 538.358 Q77.6969 538.358 81.3253 535.207 Q84.9219 532.056 84.9219 526.358 Q84.9219 523.812 84.2535 521.33 Q83.5533 518.815 82.1847 516.332 L87.5955 516.332 Q88.7414 518.783 89.3143 521.425 Q89.8872 524.035 89.8872 526.995 Q89.8872 535.048 84.8264 539.79 Q79.7657 544.533 71.172 544.533 Q62.451 544.533 57.4539 539.758 Q52.4568 534.952 52.4568 526.613 Q52.4568 523.908 53.0297 521.33 Q53.5708 518.751 54.6848 516.332 Z" fill="#000000" fill-rule="evenodd" fill-opacity="1" /><path clip-path="url(#clip210)" d="M 0 0 M54.6848 484.536 L60.1593 484.536 Q58.7907 487.018 58.1223 489.533 Q57.4221 492.015 57.4221 494.562 Q57.4221 500.259 61.0505 503.41 Q64.6472 506.561 71.172 506.561 Q77.6969 506.561 81.3253 503.41 Q84.9219 500.259 84.9219 494.562 Q84.9219 492.015 84.2535 489.533 Q83.5533 487.018 82.1847 484.536 L87.5955 484.536 Q88.7414 486.987 89.3143 489.628 Q89.8872 492.238 89.8872 495.198 Q89.8872 503.251 84.8264 507.993 Q79.7657 512.736 71.172 512.736 Q62.451 512.736 57.4539 507.962 Q52.4568 503.155 52.4568 494.816 Q52.4568 492.111 53.0297 489.533 Q53.5708 486.955 54.6848 484.536 Z" fill="#000000" fill-rule="evenodd" fill-opacity="1" /><path clip-path="url(#clip210)" d="M 0 0 M69.6761 447.901 L72.5406 447.901 L72.5406 474.828 Q78.5881 474.446 81.7709 471.2 Q84.9219 467.921 84.9219 462.097 Q84.9219 458.723 84.0944 455.572 Q83.2669 452.389 81.6118 449.27 L87.1499 449.27 Q88.4867 452.421 89.187 455.731 Q89.8872 459.041 89.8872 462.447 Q89.8872 470.977 84.9219 475.974 Q79.9567 480.939 71.4903 480.939 Q62.7374 480.939 57.6131 476.228 Q52.4568 471.486 52.4568 463.465 Q52.4568 456.272 57.1038 452.102 Q61.7189 447.901 69.6761 447.901 M67.9573 453.758 Q63.1512 453.821 60.2866 456.463 Q57.4221 459.073 57.4221 463.402 Q57.4221 468.303 60.1912 471.263 Q62.9602 474.191 67.9892 474.637 L67.9573 453.758 Z" fill="#000000" fill-rule="evenodd" fill-opacity="1" /><path clip-path="url(#clip210)" d="M 0 0 M54.3665 419.033 L59.9047 419.033 Q58.6316 421.515 57.995 424.189 Q57.3584 426.862 57.3584 429.727 Q57.3584 434.088 58.6952 436.284 Q60.032 438.448 62.7056 438.448 Q64.7426 438.448 65.9203 436.888 Q67.0661 435.329 68.1165 430.618 L68.5621 428.613 Q69.8989 422.375 72.3497 419.765 Q74.7686 417.123 79.1291 417.123 Q84.0944 417.123 86.9908 421.07 Q89.8872 424.985 89.8872 431.86 Q89.8872 434.724 89.3143 437.843 Q88.7732 440.931 87.6592 444.368 L81.6118 444.368 Q83.2987 441.122 84.158 437.971 Q84.9856 434.82 84.9856 431.732 Q84.9856 427.595 83.5851 425.367 Q82.1529 423.139 79.5747 423.139 Q77.1876 423.139 75.9145 424.762 Q74.6413 426.353 73.4637 431.796 L72.9862 433.833 Q71.8404 439.276 69.4851 441.695 Q67.098 444.114 62.9602 444.114 Q57.9313 444.114 55.1941 440.549 Q52.4568 436.984 52.4568 430.427 Q52.4568 427.181 52.9343 424.316 Q53.4117 421.452 54.3665 419.033 Z" fill="#000000" fill-rule="evenodd" fill-opacity="1" /><path clip-path="url(#clip210)" d="M 0 0 M54.3665 388.254 L59.9047 388.254 Q58.6316 390.737 57.995 393.411 Q57.3584 396.084 57.3584 398.949 Q57.3584 403.309 58.6952 405.505 Q60.032 407.67 62.7056 407.67 Q64.7426 407.67 65.9203 406.11 Q67.0661 404.551 68.1165 399.84 L68.5621 397.835 Q69.8989 391.596 72.3497 388.986 Q74.7686 386.345 79.1291 386.345 Q84.0944 386.345 86.9908 390.291 Q89.8872 394.206 89.8872 401.081 Q89.8872 403.946 89.3143 407.065 Q88.7732 410.152 87.6592 413.59 L81.6118 413.59 Q83.2987 410.343 84.158 407.192 Q84.9856 404.041 84.9856 400.954 Q84.9856 396.816 83.5851 394.588 Q82.1529 392.36 79.5747 392.36 Q77.1876 392.36 75.9145 393.984 Q74.6413 395.575 73.4637 401.018 L72.9862 403.055 Q71.8404 408.497 69.4851 410.916 Q67.098 413.335 62.9602 413.335 Q57.9313 413.335 55.1941 409.771 Q52.4568 406.206 52.4568 399.649 Q52.4568 396.403 52.9343 393.538 Q53.4117 390.673 54.3665 388.254 Z" fill="#000000" fill-rule="evenodd" fill-opacity="1" /><polyline clip-path="url(#clip212)" style="stroke:#6b9e32; stroke-width:4; stroke-opacity:1; fill:none" points="
  365.066,144.129 365.066,126.825 
  "/>
<polyline clip-path="url(#clip212)" style="stroke:#6b9e32; stroke-width:4; stroke-opacity:1; fill:none" points="
  461.581,287.182 461.581,249.875 
  "/>
<polyline clip-path="url(#clip212)" style="stroke:#6b9e32; stroke-width:4; stroke-opacity:1; fill:none" points="
  558.096,414.617 558.096,360.679 
  "/>
<polyline clip-path="url(#clip212)" style="stroke:#6b9e32; stroke-width:4; stroke-opacity:1; fill:none" points="
  654.61,620.774 654.61,552.034 
  "/>
<polyline clip-path="url(#clip212)" style="stroke:#6b9e32; stroke-width:4; stroke-opacity:1; fill:none" points="
  751.125,680.41 751.125,601.187 
  "/>
<polyline clip-path="url(#clip212)" style="stroke:#6b9e32; stroke-width:4; stroke-opacity:1; fill:none" points="
  847.64,703.452 847.64,621.576 
  "/>
<polyline clip-path="url(#clip212)" style="stroke:#6b9e32; stroke-width:4; stroke-opacity:1; fill:none" points="
  944.155,794.997 944.155,710.51 
  "/>
<polyline clip-path="url(#clip212)" style="stroke:#6b9e32; stroke-width:4; stroke-opacity:1; fill:none" points="
  1040.67,983.952 1040.67,900.963 
  "/>
<polyline clip-path="url(#clip212)" style="stroke:#6b9e32; stroke-width:4; stroke-opacity:1; fill:none" points="
  1137.18,963.914 1137.18,876.3 
  "/>
<polyline clip-path="url(#clip212)" style="stroke:#6b9e32; stroke-width:4; stroke-opacity:1; fill:none" points="
  1233.7,984.102 1233.7,904.793 
  "/>
<polyline clip-path="url(#clip212)" style="stroke:#6b9e32; stroke-width:4; stroke-opacity:1; fill:none" points="
  1330.21,1062.31 1330.21,981.551 
  "/>
<polyline clip-path="url(#clip212)" style="stroke:#6b9e32; stroke-width:4; stroke-opacity:1; fill:none" points="
  1426.73,1085.78 1426.73,1004.92 
  "/>
<polyline clip-path="url(#clip212)" style="stroke:#6b9e32; stroke-width:4; stroke-opacity:1; fill:none" points="
  1523.24,998.504 1523.24,906.434 
  "/>
<polyline clip-path="url(#clip212)" style="stroke:#6b9e32; stroke-width:4; stroke-opacity:1; fill:none" points="
  1619.76,1177.69 1619.76,1101.8 
  "/>
<polyline clip-path="url(#clip212)" style="stroke:#6b9e32; stroke-width:4; stroke-opacity:1; fill:none" points="
  1716.27,1215.07 1716.27,1151.93 
  "/>
<polyline clip-path="url(#clip212)" style="stroke:#6b9e32; stroke-width:4; stroke-opacity:1; fill:none" points="
  1812.79,1185.52 1812.79,1116.78 
  "/>
<polyline clip-path="url(#clip212)" style="stroke:#6b9e32; stroke-width:4; stroke-opacity:1; fill:none" points="
  1909.3,1168.95 1909.3,1097.13 
  "/>
<polyline clip-path="url(#clip212)" style="stroke:#6b9e32; stroke-width:4; stroke-opacity:1; fill:none" points="
  2005.82,1218.35 2005.82,1144.12 
  "/>
<polyline clip-path="url(#clip212)" style="stroke:#6b9e32; stroke-width:4; stroke-opacity:1; fill:none" points="
  2102.33,1191.39 2102.33,1113.75 
  "/>
<line clip-path="url(#clip212)" x1="381.066" y1="144.129" x2="349.066" y2="144.129" style="stroke:#6b9e32; stroke-width:3.072; stroke-opacity:1"/>
<line clip-path="url(#clip212)" x1="381.066" y1="126.825" x2="349.066" y2="126.825" style="stroke:#6b9e32; stroke-width:3.072; stroke-opacity:1"/>
<line clip-path="url(#clip212)" x1="477.581" y1="287.182" x2="445.581" y2="287.182" style="stroke:#6b9e32; stroke-width:3.072; stroke-opacity:1"/>
<line clip-path="url(#clip212)" x1="477.581" y1="249.875" x2="445.581" y2="249.875" style="stroke:#6b9e32; stroke-width:3.072; stroke-opacity:1"/>
<line clip-path="url(#clip212)" x1="574.096" y1="414.617" x2="542.096" y2="414.617" style="stroke:#6b9e32; stroke-width:3.072; stroke-opacity:1"/>
<line clip-path="url(#clip212)" x1="574.096" y1="360.679" x2="542.096" y2="360.679" style="stroke:#6b9e32; stroke-width:3.072; stroke-opacity:1"/>
<line clip-path="url(#clip212)" x1="670.61" y1="620.774" x2="638.61" y2="620.774" style="stroke:#6b9e32; stroke-width:3.072; stroke-opacity:1"/>
<line clip-path="url(#clip212)" x1="670.61" y1="552.034" x2="638.61" y2="552.034" style="stroke:#6b9e32; stroke-width:3.072; stroke-opacity:1"/>
<line clip-path="url(#clip212)" x1="767.125" y1="680.41" x2="735.125" y2="680.41" style="stroke:#6b9e32; stroke-width:3.072; stroke-opacity:1"/>
<line clip-path="url(#clip212)" x1="767.125" y1="601.187" x2="735.125" y2="601.187" style="stroke:#6b9e32; stroke-width:3.072; stroke-opacity:1"/>
<line clip-path="url(#clip212)" x1="863.64" y1="703.452" x2="831.64" y2="703.452" style="stroke:#6b9e32; stroke-width:3.072; stroke-opacity:1"/>
<line clip-path="url(#clip212)" x1="863.64" y1="621.576" x2="831.64" y2="621.576" style="stroke:#6b9e32; stroke-width:3.072; stroke-opacity:1"/>
<line clip-path="url(#clip212)" x1="960.155" y1="794.997" x2="928.155" y2="794.997" style="stroke:#6b9e32; stroke-width:3.072; stroke-opacity:1"/>
<line clip-path="url(#clip212)" x1="960.155" y1="710.51" x2="928.155" y2="710.51" style="stroke:#6b9e32; stroke-width:3.072; stroke-opacity:1"/>
<line clip-path="url(#clip212)" x1="1056.67" y1="983.952" x2="1024.67" y2="983.952" style="stroke:#6b9e32; stroke-width:3.072; stroke-opacity:1"/>
<line clip-path="url(#clip212)" x1="1056.67" y1="900.963" x2="1024.67" y2="900.963" style="stroke:#6b9e32; stroke-width:3.072; stroke-opacity:1"/>
<line clip-path="url(#clip212)" x1="1153.18" y1="963.914" x2="1121.18" y2="963.914" style="stroke:#6b9e32; stroke-width:3.072; stroke-opacity:1"/>
<line clip-path="url(#clip212)" x1="1153.18" y1="876.3" x2="1121.18" y2="876.3" style="stroke:#6b9e32; stroke-width:3.072; stroke-opacity:1"/>
<line clip-path="url(#clip212)" x1="1249.7" y1="984.102" x2="1217.7" y2="984.102" style="stroke:#6b9e32; stroke-width:3.072; stroke-opacity:1"/>
<line clip-path="url(#clip212)" x1="1249.7" y1="904.793" x2="1217.7" y2="904.793" style="stroke:#6b9e32; stroke-width:3.072; stroke-opacity:1"/>
<line clip-path="url(#clip212)" x1="1346.21" y1="1062.31" x2="1314.21" y2="1062.31" style="stroke:#6b9e32; stroke-width:3.072; stroke-opacity:1"/>
<line clip-path="url(#clip212)" x1="1346.21" y1="981.551" x2="1314.21" y2="981.551" style="stroke:#6b9e32; stroke-width:3.072; stroke-opacity:1"/>
<line clip-path="url(#clip212)" x1="1442.73" y1="1085.78" x2="1410.73" y2="1085.78" style="stroke:#6b9e32; stroke-width:3.072; stroke-opacity:1"/>
<line clip-path="url(#clip212)" x1="1442.73" y1="1004.92" x2="1410.73" y2="1004.92" style="stroke:#6b9e32; stroke-width:3.072; stroke-opacity:1"/>
<line clip-path="url(#clip212)" x1="1539.24" y1="998.504" x2="1507.24" y2="998.504" style="stroke:#6b9e32; stroke-width:3.072; stroke-opacity:1"/>
<line clip-path="url(#clip212)" x1="1539.24" y1="906.434" x2="1507.24" y2="906.434" style="stroke:#6b9e32; stroke-width:3.072; stroke-opacity:1"/>
<line clip-path="url(#clip212)" x1="1635.76" y1="1177.69" x2="1603.76" y2="1177.69" style="stroke:#6b9e32; stroke-width:3.072; stroke-opacity:1"/>
<line clip-path="url(#clip212)" x1="1635.76" y1="1101.8" x2="1603.76" y2="1101.8" style="stroke:#6b9e32; stroke-width:3.072; stroke-opacity:1"/>
<line clip-path="url(#clip212)" x1="1732.27" y1="1215.07" x2="1700.27" y2="1215.07" style="stroke:#6b9e32; stroke-width:3.072; stroke-opacity:1"/>
<line clip-path="url(#clip212)" x1="1732.27" y1="1151.93" x2="1700.27" y2="1151.93" style="stroke:#6b9e32; stroke-width:3.072; stroke-opacity:1"/>
<line clip-path="url(#clip212)" x1="1828.79" y1="1185.52" x2="1796.79" y2="1185.52" style="stroke:#6b9e32; stroke-width:3.072; stroke-opacity:1"/>
<line clip-path="url(#clip212)" x1="1828.79" y1="1116.78" x2="1796.79" y2="1116.78" style="stroke:#6b9e32; stroke-width:3.072; stroke-opacity:1"/>
<line clip-path="url(#clip212)" x1="1925.3" y1="1168.95" x2="1893.3" y2="1168.95" style="stroke:#6b9e32; stroke-width:3.072; stroke-opacity:1"/>
<line clip-path="url(#clip212)" x1="1925.3" y1="1097.13" x2="1893.3" y2="1097.13" style="stroke:#6b9e32; stroke-width:3.072; stroke-opacity:1"/>
<line clip-path="url(#clip212)" x1="2021.82" y1="1218.35" x2="1989.82" y2="1218.35" style="stroke:#6b9e32; stroke-width:3.072; stroke-opacity:1"/>
<line clip-path="url(#clip212)" x1="2021.82" y1="1144.12" x2="1989.82" y2="1144.12" style="stroke:#6b9e32; stroke-width:3.072; stroke-opacity:1"/>
<line clip-path="url(#clip212)" x1="2118.33" y1="1191.39" x2="2086.33" y2="1191.39" style="stroke:#6b9e32; stroke-width:3.072; stroke-opacity:1"/>
<line clip-path="url(#clip212)" x1="2118.33" y1="1113.75" x2="2086.33" y2="1113.75" style="stroke:#6b9e32; stroke-width:3.072; stroke-opacity:1"/>
<circle clip-path="url(#clip212)" cx="365.066" cy="135.477" r="14" fill="#009af9" fill-rule="evenodd" fill-opacity="1" stroke="#000000" stroke-opacity="1" stroke-width="3.072"/>
<circle clip-path="url(#clip212)" cx="461.581" cy="268.528" r="14" fill="#009af9" fill-rule="evenodd" fill-opacity="1" stroke="#000000" stroke-opacity="1" stroke-width="3.072"/>
<circle clip-path="url(#clip212)" cx="558.096" cy="387.648" r="14" fill="#009af9" fill-rule="evenodd" fill-opacity="1" stroke="#000000" stroke-opacity="1" stroke-width="3.072"/>
<circle clip-path="url(#clip212)" cx="654.61" cy="586.404" r="14" fill="#009af9" fill-rule="evenodd" fill-opacity="1" stroke="#000000" stroke-opacity="1" stroke-width="3.072"/>
<circle clip-path="url(#clip212)" cx="751.125" cy="640.799" r="14" fill="#009af9" fill-rule="evenodd" fill-opacity="1" stroke="#000000" stroke-opacity="1" stroke-width="3.072"/>
<circle clip-path="url(#clip212)" cx="847.64" cy="662.514" r="14" fill="#009af9" fill-rule="evenodd" fill-opacity="1" stroke="#000000" stroke-opacity="1" stroke-width="3.072"/>
<circle clip-path="url(#clip212)" cx="944.155" cy="752.754" r="14" fill="#009af9" fill-rule="evenodd" fill-opacity="1" stroke="#000000" stroke-opacity="1" stroke-width="3.072"/>
<circle clip-path="url(#clip212)" cx="1040.67" cy="942.457" r="14" fill="#009af9" fill-rule="evenodd" fill-opacity="1" stroke="#000000" stroke-opacity="1" stroke-width="3.072"/>
<circle clip-path="url(#clip212)" cx="1137.18" cy="920.107" r="14" fill="#009af9" fill-rule="evenodd" fill-opacity="1" stroke="#000000" stroke-opacity="1" stroke-width="3.072"/>
<circle clip-path="url(#clip212)" cx="1233.7" cy="944.448" r="14" fill="#009af9" fill-rule="evenodd" fill-opacity="1" stroke="#000000" stroke-opacity="1" stroke-width="3.072"/>
<circle clip-path="url(#clip212)" cx="1330.21" cy="1021.93" r="14" fill="#009af9" fill-rule="evenodd" fill-opacity="1" stroke="#000000" stroke-opacity="1" stroke-width="3.072"/>
<circle clip-path="url(#clip212)" cx="1426.73" cy="1045.35" r="14" fill="#009af9" fill-rule="evenodd" fill-opacity="1" stroke="#000000" stroke-opacity="1" stroke-width="3.072"/>
<circle clip-path="url(#clip212)" cx="1523.24" cy="952.469" r="14" fill="#009af9" fill-rule="evenodd" fill-opacity="1" stroke="#000000" stroke-opacity="1" stroke-width="3.072"/>
<circle clip-path="url(#clip212)" cx="1619.76" cy="1139.75" r="14" fill="#009af9" fill-rule="evenodd" fill-opacity="1" stroke="#000000" stroke-opacity="1" stroke-width="3.072"/>
<circle clip-path="url(#clip212)" cx="1716.27" cy="1183.5" r="14" fill="#009af9" fill-rule="evenodd" fill-opacity="1" stroke="#000000" stroke-opacity="1" stroke-width="3.072"/>
<circle clip-path="url(#clip212)" cx="1812.79" cy="1151.15" r="14" fill="#009af9" fill-rule="evenodd" fill-opacity="1" stroke="#000000" stroke-opacity="1" stroke-width="3.072"/>
<circle clip-path="url(#clip212)" cx="1909.3" cy="1133.04" r="14" fill="#009af9" fill-rule="evenodd" fill-opacity="1" stroke="#000000" stroke-opacity="1" stroke-width="3.072"/>
<circle clip-path="url(#clip212)" cx="2005.82" cy="1181.24" r="14" fill="#009af9" fill-rule="evenodd" fill-opacity="1" stroke="#000000" stroke-opacity="1" stroke-width="3.072"/>
<circle clip-path="url(#clip212)" cx="2102.33" cy="1152.57" r="14" fill="#009af9" fill-rule="evenodd" fill-opacity="1" stroke="#000000" stroke-opacity="1" stroke-width="3.072"/>
<polyline clip-path="url(#clip212)" style="stroke:#000000; stroke-width:4; stroke-opacity:1; fill:none" points="
  268.551,207.87 365.066,247.437 461.581,294.658 558.096,349.987 654.61,413.434 751.125,484.421 847.64,561.69 944.155,643.316 1040.67,726.865 1137.18,809.664 
  1233.7,889.133 1330.21,963.096 1426.73,1029.99 1523.24,1088.94 1619.76,1139.71 1716.27,1182.59 1812.79,1218.2 1909.3,1247.36 2005.82,1270.97 2102.33,1289.91 
  2198.85,1305 
  "/>
<polyline clip-path="url(#clip212)" style="stroke:#009af9; stroke-width:4; stroke-opacity:1; fill:none" points="
  268.551,47.3188 365.066,105.593 461.581,284.043 558.096,460.866 654.61,600.67 751.125,707.581 847.64,790.145 944.155,855.15 1040.67,907.371 1137.18,950.101 
  1233.7,985.641 1330.21,1015.62 1426.73,1041.23 1523.24,1063.35 1619.76,1082.63 1716.27,1099.58 1812.79,1114.6 1909.3,1127.99 2005.82,1140 2102.33,1150.84 
  2198.85,1160.67 
  "/>
<path clip-path="url(#clip210)" d="
M1455.8 306.444 L2187.64 306.444 L2187.64 125.004 L1455.8 125.004  Z
  " fill="#ffffff" fill-rule="evenodd" fill-opacity="1"/>
<polyline clip-path="url(#clip210)" style="stroke:#000000; stroke-width:4; stroke-opacity:1; fill:none" points="
  1455.8,306.444 2187.64,306.444 2187.64,125.004 1455.8,125.004 1455.8,306.444 
  "/>
<polyline clip-path="url(#clip210)" style="stroke:#000000; stroke-width:4; stroke-opacity:1; fill:none" points="
  1478.84,185.484 1617.08,185.484 
  "/>
<path clip-path="url(#clip210)" d="M 0 0 M1640.12 168.204 L1644.8 168.204 L1644.8 198.829 L1661.63 198.829 L1661.63 202.764 L1640.12 202.764 L1640.12 168.204 Z" fill="#000000" fill-rule="evenodd" fill-opacity="1" /><path clip-path="url(#clip210)" d="M 0 0 M1675.31 179.824 Q1671.88 179.824 1669.89 182.51 Q1667.9 185.172 1667.9 189.824 Q1667.9 194.477 1669.87 197.162 Q1671.86 199.824 1675.31 199.824 Q1678.71 199.824 1680.7 197.139 Q1682.69 194.454 1682.69 189.824 Q1682.69 185.218 1680.7 182.533 Q1678.71 179.824 1675.31 179.824 M1675.31 176.213 Q1680.86 176.213 1684.04 179.824 Q1687.21 183.435 1687.21 189.824 Q1687.21 196.19 1684.04 199.824 Q1680.86 203.435 1675.31 203.435 Q1669.73 203.435 1666.56 199.824 Q1663.41 196.19 1663.41 189.824 Q1663.41 183.435 1666.56 179.824 Q1669.73 176.213 1675.31 176.213 Z" fill="#000000" fill-rule="evenodd" fill-opacity="1" /><path clip-path="url(#clip210)" d="M 0 0 M1708.73 189.5 Q1708.73 184.871 1706.81 182.324 Q1704.91 179.778 1701.47 179.778 Q1698.04 179.778 1696.12 182.324 Q1694.22 184.871 1694.22 189.5 Q1694.22 194.107 1696.12 196.653 Q1698.04 199.199 1701.47 199.199 Q1704.91 199.199 1706.81 196.653 Q1708.73 194.107 1708.73 189.5 M1712.99 199.547 Q1712.99 206.167 1710.05 209.384 Q1707.11 212.625 1701.05 212.625 Q1698.8 212.625 1696.81 212.278 Q1694.82 211.954 1692.95 211.259 L1692.95 207.116 Q1694.82 208.134 1696.65 208.621 Q1698.48 209.107 1700.38 209.107 Q1704.57 209.107 1706.65 206.908 Q1708.73 204.732 1708.73 200.31 L1708.73 198.204 Q1707.41 200.496 1705.35 201.63 Q1703.29 202.764 1700.42 202.764 Q1695.66 202.764 1692.74 199.13 Q1689.82 195.496 1689.82 189.5 Q1689.82 183.482 1692.74 179.848 Q1695.66 176.213 1700.42 176.213 Q1703.29 176.213 1705.35 177.348 Q1707.41 178.482 1708.73 180.773 L1708.73 176.838 L1712.99 176.838 L1712.99 199.547 Z" fill="#000000" fill-rule="evenodd" fill-opacity="1" /><path clip-path="url(#clip210)" d="M 0 0 M1717.46 176.838 L1721.72 176.838 L1721.72 202.764 L1717.46 202.764 L1717.46 176.838 M1717.46 166.746 L1721.72 166.746 L1721.72 172.139 L1717.46 172.139 L1717.46 166.746 Z" fill="#000000" fill-rule="evenodd" fill-opacity="1" /><path clip-path="url(#clip210)" d="M 0 0 M1742.72 177.602 L1742.72 181.63 Q1740.91 180.704 1738.97 180.241 Q1737.02 179.778 1734.94 179.778 Q1731.77 179.778 1730.17 180.75 Q1728.6 181.723 1728.6 183.667 Q1728.6 185.148 1729.73 186.005 Q1730.86 186.838 1734.29 187.602 L1735.75 187.926 Q1740.28 188.898 1742.18 190.681 Q1744.1 192.44 1744.1 195.611 Q1744.1 199.222 1741.23 201.329 Q1738.39 203.435 1733.39 203.435 Q1731.3 203.435 1729.03 203.019 Q1726.79 202.625 1724.29 201.815 L1724.29 197.417 Q1726.65 198.644 1728.94 199.269 Q1731.23 199.871 1733.48 199.871 Q1736.49 199.871 1738.11 198.852 Q1739.73 197.81 1739.73 195.935 Q1739.73 194.199 1738.55 193.273 Q1737.39 192.347 1733.43 191.491 L1731.95 191.144 Q1727.99 190.31 1726.23 188.598 Q1724.47 186.861 1724.47 183.852 Q1724.47 180.195 1727.07 178.204 Q1729.66 176.213 1734.43 176.213 Q1736.79 176.213 1738.87 176.561 Q1740.96 176.908 1742.72 177.602 Z" fill="#000000" fill-rule="evenodd" fill-opacity="1" /><path clip-path="url(#clip210)" d="M 0 0 M1752.78 169.477 L1752.78 176.838 L1761.56 176.838 L1761.56 180.148 L1752.78 180.148 L1752.78 194.222 Q1752.78 197.394 1753.64 198.297 Q1754.52 199.199 1757.18 199.199 L1761.56 199.199 L1761.56 202.764 L1757.18 202.764 Q1752.25 202.764 1750.38 200.935 Q1748.5 199.084 1748.5 194.222 L1748.5 180.148 L1745.38 180.148 L1745.38 176.838 L1748.5 176.838 L1748.5 169.477 L1752.78 169.477 Z" fill="#000000" fill-rule="evenodd" fill-opacity="1" /><path clip-path="url(#clip210)" d="M 0 0 M1766.03 176.838 L1770.28 176.838 L1770.28 202.764 L1766.03 202.764 L1766.03 176.838 M1766.03 166.746 L1770.28 166.746 L1770.28 172.139 L1766.03 172.139 L1766.03 166.746 Z" fill="#000000" fill-rule="evenodd" fill-opacity="1" /><path clip-path="url(#clip210)" d="M 0 0 M1793.41 177.834 L1793.41 181.815 Q1791.6 180.82 1789.78 180.334 Q1787.97 179.824 1786.12 179.824 Q1781.97 179.824 1779.68 182.463 Q1777.39 185.079 1777.39 189.824 Q1777.39 194.57 1779.68 197.209 Q1781.97 199.824 1786.12 199.824 Q1787.97 199.824 1789.78 199.338 Q1791.6 198.829 1793.41 197.834 L1793.41 201.769 Q1791.63 202.602 1789.71 203.019 Q1787.81 203.435 1785.66 203.435 Q1779.8 203.435 1776.35 199.755 Q1772.9 196.074 1772.9 189.824 Q1772.9 183.482 1776.37 179.848 Q1779.87 176.213 1785.93 176.213 Q1787.9 176.213 1789.78 176.63 Q1791.65 177.023 1793.41 177.834 Z" fill="#000000" fill-rule="evenodd" fill-opacity="1" /><path clip-path="url(#clip210)" d="M 0 0 M1827.97 180.82 Q1827.25 180.403 1826.4 180.218 Q1825.56 180.01 1824.54 180.01 Q1820.93 180.01 1818.99 182.371 Q1817.07 184.709 1817.07 189.107 L1817.07 202.764 L1812.78 202.764 L1812.78 176.838 L1817.07 176.838 L1817.07 180.866 Q1818.41 178.505 1820.56 177.371 Q1822.72 176.213 1825.79 176.213 Q1826.23 176.213 1826.77 176.283 Q1827.3 176.329 1827.95 176.445 L1827.97 180.82 Z" fill="#000000" fill-rule="evenodd" fill-opacity="1" /><path clip-path="url(#clip210)" d="M 0 0 M1853.57 188.736 L1853.57 190.82 L1833.99 190.82 Q1834.27 195.218 1836.63 197.533 Q1839.01 199.824 1843.25 199.824 Q1845.7 199.824 1847.99 199.222 Q1850.31 198.621 1852.58 197.417 L1852.58 201.445 Q1850.28 202.417 1847.88 202.926 Q1845.47 203.435 1842.99 203.435 Q1836.79 203.435 1833.15 199.824 Q1829.54 196.213 1829.54 190.056 Q1829.54 183.69 1832.97 179.963 Q1836.42 176.213 1842.25 176.213 Q1847.48 176.213 1850.52 179.593 Q1853.57 182.949 1853.57 188.736 M1849.31 187.486 Q1849.27 183.991 1847.34 181.908 Q1845.45 179.824 1842.3 179.824 Q1838.73 179.824 1836.58 181.838 Q1834.45 183.852 1834.13 187.51 L1849.31 187.486 Z" fill="#000000" fill-rule="evenodd" fill-opacity="1" /><path clip-path="url(#clip210)" d="M 0 0 M1875.1 189.5 Q1875.1 184.871 1873.18 182.324 Q1871.28 179.778 1867.83 179.778 Q1864.4 179.778 1862.48 182.324 Q1860.59 184.871 1860.59 189.5 Q1860.59 194.107 1862.48 196.653 Q1864.4 199.199 1867.83 199.199 Q1871.28 199.199 1873.18 196.653 Q1875.1 194.107 1875.1 189.5 M1879.36 199.547 Q1879.36 206.167 1876.42 209.384 Q1873.48 212.625 1867.41 212.625 Q1865.17 212.625 1863.18 212.278 Q1861.19 211.954 1859.31 211.259 L1859.31 207.116 Q1861.19 208.134 1863.02 208.621 Q1864.84 209.107 1866.74 209.107 Q1870.93 209.107 1873.02 206.908 Q1875.1 204.732 1875.1 200.31 L1875.1 198.204 Q1873.78 200.496 1871.72 201.63 Q1869.66 202.764 1866.79 202.764 Q1862.02 202.764 1859.1 199.13 Q1856.19 195.496 1856.19 189.5 Q1856.19 183.482 1859.1 179.848 Q1862.02 176.213 1866.79 176.213 Q1869.66 176.213 1871.72 177.348 Q1873.78 178.482 1875.1 180.773 L1875.1 176.838 L1879.36 176.838 L1879.36 199.547 Z" fill="#000000" fill-rule="evenodd" fill-opacity="1" /><path clip-path="url(#clip210)" d="M 0 0 M1898.85 180.82 Q1898.13 180.403 1897.27 180.218 Q1896.44 180.01 1895.42 180.01 Q1891.81 180.01 1889.87 182.371 Q1887.95 184.709 1887.95 189.107 L1887.95 202.764 L1883.66 202.764 L1883.66 176.838 L1887.95 176.838 L1887.95 180.866 Q1889.29 178.505 1891.44 177.371 Q1893.59 176.213 1896.67 176.213 Q1897.11 176.213 1897.65 176.283 Q1898.18 176.329 1898.83 176.445 L1898.85 180.82 Z" fill="#000000" fill-rule="evenodd" fill-opacity="1" /><path clip-path="url(#clip210)" d="M 0 0 M1924.45 188.736 L1924.45 190.82 L1904.87 190.82 Q1905.15 195.218 1907.51 197.533 Q1909.89 199.824 1914.13 199.824 Q1916.58 199.824 1918.87 199.222 Q1921.19 198.621 1923.46 197.417 L1923.46 201.445 Q1921.16 202.417 1918.76 202.926 Q1916.35 203.435 1913.87 203.435 Q1907.67 203.435 1904.03 199.824 Q1900.42 196.213 1900.42 190.056 Q1900.42 183.69 1903.85 179.963 Q1907.3 176.213 1913.13 176.213 Q1918.36 176.213 1921.4 179.593 Q1924.45 182.949 1924.45 188.736 M1920.19 187.486 Q1920.15 183.991 1918.22 181.908 Q1916.33 179.824 1913.18 179.824 Q1909.61 179.824 1907.46 181.838 Q1905.33 183.852 1905.01 187.51 L1920.19 187.486 Z" fill="#000000" fill-rule="evenodd" fill-opacity="1" /><path clip-path="url(#clip210)" d="M 0 0 M1945.45 177.602 L1945.45 181.63 Q1943.64 180.704 1941.7 180.241 Q1939.75 179.778 1937.67 179.778 Q1934.5 179.778 1932.9 180.75 Q1931.33 181.723 1931.33 183.667 Q1931.33 185.148 1932.46 186.005 Q1933.59 186.838 1937.02 187.602 L1938.48 187.926 Q1943.02 188.898 1944.91 190.681 Q1946.83 192.44 1946.83 195.611 Q1946.83 199.222 1943.96 201.329 Q1941.12 203.435 1936.12 203.435 Q1934.03 203.435 1931.77 203.019 Q1929.52 202.625 1927.02 201.815 L1927.02 197.417 Q1929.38 198.644 1931.67 199.269 Q1933.96 199.871 1936.21 199.871 Q1939.22 199.871 1940.84 198.852 Q1942.46 197.81 1942.46 195.935 Q1942.46 194.199 1941.28 193.273 Q1940.12 192.347 1936.16 191.491 L1934.68 191.144 Q1930.72 190.31 1928.96 188.598 Q1927.21 186.861 1927.21 183.852 Q1927.21 180.195 1929.8 178.204 Q1932.39 176.213 1937.16 176.213 Q1939.52 176.213 1941.6 176.561 Q1943.69 176.908 1945.45 177.602 Z" fill="#000000" fill-rule="evenodd" fill-opacity="1" /><path clip-path="url(#clip210)" d="M 0 0 M1967.83 177.602 L1967.83 181.63 Q1966.02 180.704 1964.08 180.241 Q1962.14 179.778 1960.05 179.778 Q1956.88 179.778 1955.28 180.75 Q1953.71 181.723 1953.71 183.667 Q1953.71 185.148 1954.84 186.005 Q1955.98 186.838 1959.4 187.602 L1960.86 187.926 Q1965.4 188.898 1967.3 190.681 Q1969.22 192.44 1969.22 195.611 Q1969.22 199.222 1966.35 201.329 Q1963.5 203.435 1958.5 203.435 Q1956.42 203.435 1954.15 203.019 Q1951.9 202.625 1949.4 201.815 L1949.4 197.417 Q1951.77 198.644 1954.06 199.269 Q1956.35 199.871 1958.59 199.871 Q1961.6 199.871 1963.22 198.852 Q1964.84 197.81 1964.84 195.935 Q1964.84 194.199 1963.66 193.273 Q1962.51 192.347 1958.55 191.491 L1957.07 191.144 Q1953.11 190.31 1951.35 188.598 Q1949.59 186.861 1949.59 183.852 Q1949.59 180.195 1952.18 178.204 Q1954.77 176.213 1959.54 176.213 Q1961.9 176.213 1963.99 176.561 Q1966.07 176.908 1967.83 177.602 Z" fill="#000000" fill-rule="evenodd" fill-opacity="1" /><path clip-path="url(#clip210)" d="M 0 0 M1973.69 176.838 L1977.95 176.838 L1977.95 202.764 L1973.69 202.764 L1973.69 176.838 M1973.69 166.746 L1977.95 166.746 L1977.95 172.139 L1973.69 172.139 L1973.69 166.746 Z" fill="#000000" fill-rule="evenodd" fill-opacity="1" /><path clip-path="url(#clip210)" d="M 0 0 M1992.46 179.824 Q1989.03 179.824 1987.04 182.51 Q1985.05 185.172 1985.05 189.824 Q1985.05 194.477 1987.02 197.162 Q1989.01 199.824 1992.46 199.824 Q1995.86 199.824 1997.85 197.139 Q1999.84 194.454 1999.84 189.824 Q1999.84 185.218 1997.85 182.533 Q1995.86 179.824 1992.46 179.824 M1992.46 176.213 Q1998.02 176.213 2001.19 179.824 Q2004.36 183.435 2004.36 189.824 Q2004.36 196.19 2001.19 199.824 Q1998.02 203.435 1992.46 203.435 Q1986.88 203.435 1983.71 199.824 Q1980.56 196.19 1980.56 189.824 Q1980.56 183.435 1983.71 179.824 Q1986.88 176.213 1992.46 176.213 Z" fill="#000000" fill-rule="evenodd" fill-opacity="1" /><path clip-path="url(#clip210)" d="M 0 0 M2030.38 187.116 L2030.38 202.764 L2026.12 202.764 L2026.12 187.255 Q2026.12 183.574 2024.68 181.746 Q2023.25 179.917 2020.38 179.917 Q2016.93 179.917 2014.94 182.116 Q2012.95 184.315 2012.95 188.111 L2012.95 202.764 L2008.66 202.764 L2008.66 176.838 L2012.95 176.838 L2012.95 180.866 Q2014.47 178.528 2016.53 177.371 Q2018.62 176.213 2021.33 176.213 Q2025.79 176.213 2028.08 178.991 Q2030.38 181.746 2030.38 187.116 Z" fill="#000000" fill-rule="evenodd" fill-opacity="1" /><polyline clip-path="url(#clip210)" style="stroke:#009af9; stroke-width:4; stroke-opacity:1; fill:none" points="
  1478.84,245.964 1617.08,245.964 
  "/>
<path clip-path="url(#clip210)" d="M 0 0 M1665.68 258.314 L1665.68 249.031 L1658.04 249.031 L1658.04 245.189 L1670.31 245.189 L1670.31 260.027 Q1667.6 261.948 1664.34 262.943 Q1661.07 263.915 1657.37 263.915 Q1649.27 263.915 1644.68 259.193 Q1640.12 254.448 1640.12 245.999 Q1640.12 237.527 1644.68 232.804 Q1649.27 228.059 1657.37 228.059 Q1660.75 228.059 1663.78 228.892 Q1666.84 229.726 1669.41 231.346 L1669.41 236.323 Q1666.81 234.124 1663.9 233.013 Q1660.98 231.902 1657.76 231.902 Q1651.42 231.902 1648.23 235.443 Q1645.05 238.985 1645.05 245.999 Q1645.05 252.99 1648.23 256.531 Q1651.42 260.073 1657.76 260.073 Q1660.24 260.073 1662.18 259.656 Q1664.13 259.216 1665.68 258.314 Z" fill="#000000" fill-rule="evenodd" fill-opacity="1" /><path clip-path="url(#clip210)" d="M 0 0 M1696.95 249.216 L1696.95 251.3 L1677.37 251.3 Q1677.65 255.698 1680.01 258.013 Q1682.39 260.304 1686.63 260.304 Q1689.08 260.304 1691.37 259.702 Q1693.69 259.101 1695.96 257.897 L1695.96 261.925 Q1693.66 262.897 1691.26 263.406 Q1688.85 263.915 1686.37 263.915 Q1680.17 263.915 1676.54 260.304 Q1672.92 256.693 1672.92 250.536 Q1672.92 244.17 1676.35 240.443 Q1679.8 236.693 1685.63 236.693 Q1690.86 236.693 1693.9 240.073 Q1696.95 243.429 1696.95 249.216 M1692.69 247.966 Q1692.65 244.471 1690.72 242.388 Q1688.83 240.304 1685.68 240.304 Q1682.11 240.304 1679.96 242.318 Q1677.83 244.332 1677.51 247.99 L1692.69 247.966 Z" fill="#000000" fill-rule="evenodd" fill-opacity="1" /><path clip-path="url(#clip210)" d="M 0 0 M1711.47 240.304 Q1708.04 240.304 1706.05 242.99 Q1704.06 245.652 1704.06 250.304 Q1704.06 254.957 1706.03 257.642 Q1708.02 260.304 1711.47 260.304 Q1714.87 260.304 1716.86 257.619 Q1718.85 254.934 1718.85 250.304 Q1718.85 245.698 1716.86 243.013 Q1714.87 240.304 1711.47 240.304 M1711.47 236.693 Q1717.02 236.693 1720.19 240.304 Q1723.36 243.915 1723.36 250.304 Q1723.36 256.67 1720.19 260.304 Q1717.02 263.915 1711.47 263.915 Q1705.89 263.915 1702.72 260.304 Q1699.57 256.67 1699.57 250.304 Q1699.57 243.915 1702.72 240.304 Q1705.89 236.693 1711.47 236.693 Z" fill="#000000" fill-rule="evenodd" fill-opacity="1" /><path clip-path="url(#clip210)" d="M 0 0 M1748.02 242.295 Q1749.61 239.425 1751.84 238.059 Q1754.06 236.693 1757.07 236.693 Q1761.12 236.693 1763.32 239.541 Q1765.52 242.365 1765.52 247.596 L1765.52 263.244 L1761.23 263.244 L1761.23 247.735 Q1761.23 244.008 1759.91 242.203 Q1758.59 240.397 1755.89 240.397 Q1752.58 240.397 1750.66 242.596 Q1748.73 244.795 1748.73 248.591 L1748.73 263.244 L1744.45 263.244 L1744.45 247.735 Q1744.45 243.985 1743.13 242.203 Q1741.81 240.397 1739.06 240.397 Q1735.79 240.397 1733.87 242.619 Q1731.95 244.818 1731.95 248.591 L1731.95 263.244 L1727.67 263.244 L1727.67 237.318 L1731.95 237.318 L1731.95 241.346 Q1733.41 238.962 1735.45 237.828 Q1737.48 236.693 1740.28 236.693 Q1743.11 236.693 1745.08 238.128 Q1747.07 239.564 1748.02 242.295 Z" fill="#000000" fill-rule="evenodd" fill-opacity="1" /><path clip-path="url(#clip210)" d="M 0 0 M1792.16 249.216 L1792.16 251.3 L1772.58 251.3 Q1772.85 255.698 1775.22 258.013 Q1777.6 260.304 1781.84 260.304 Q1784.29 260.304 1786.58 259.702 Q1788.9 259.101 1791.16 257.897 L1791.16 261.925 Q1788.87 262.897 1786.47 263.406 Q1784.06 263.915 1781.58 263.915 Q1775.38 263.915 1771.74 260.304 Q1768.13 256.693 1768.13 250.536 Q1768.13 244.17 1771.56 240.443 Q1775.01 236.693 1780.84 236.693 Q1786.07 236.693 1789.1 240.073 Q1792.16 243.429 1792.16 249.216 M1787.9 247.966 Q1787.85 244.471 1785.93 242.388 Q1784.03 240.304 1780.89 240.304 Q1777.32 240.304 1775.17 242.318 Q1773.04 244.332 1772.72 247.99 L1787.9 247.966 Z" fill="#000000" fill-rule="evenodd" fill-opacity="1" /><path clip-path="url(#clip210)" d="M 0 0 M1800.84 229.957 L1800.84 237.318 L1809.61 237.318 L1809.61 240.628 L1800.84 240.628 L1800.84 254.702 Q1800.84 257.874 1801.7 258.777 Q1802.58 259.679 1805.24 259.679 L1809.61 259.679 L1809.61 263.244 L1805.24 263.244 Q1800.31 263.244 1798.43 261.415 Q1796.56 259.564 1796.56 254.702 L1796.56 240.628 L1793.43 240.628 L1793.43 237.318 L1796.56 237.318 L1796.56 229.957 L1800.84 229.957 Z" fill="#000000" fill-rule="evenodd" fill-opacity="1" /><path clip-path="url(#clip210)" d="M 0 0 M1829.1 241.3 Q1828.39 240.883 1827.53 240.698 Q1826.7 240.49 1825.68 240.49 Q1822.07 240.49 1820.12 242.851 Q1818.2 245.189 1818.2 249.587 L1818.2 263.244 L1813.92 263.244 L1813.92 237.318 L1818.2 237.318 L1818.2 241.346 Q1819.54 238.985 1821.7 237.851 Q1823.85 236.693 1826.93 236.693 Q1827.37 236.693 1827.9 236.763 Q1828.43 236.809 1829.08 236.925 L1829.1 241.3 Z" fill="#000000" fill-rule="evenodd" fill-opacity="1" /><path clip-path="url(#clip210)" d="M 0 0 M1844.36 265.651 Q1842.55 270.281 1840.84 271.693 Q1839.13 273.105 1836.26 273.105 L1832.85 273.105 L1832.85 269.54 L1835.35 269.54 Q1837.11 269.54 1838.09 268.707 Q1839.06 267.874 1840.24 264.772 L1841 262.827 L1830.52 237.318 L1835.03 237.318 L1843.13 257.596 L1851.23 237.318 L1855.75 237.318 L1844.36 265.651 Z" fill="#000000" fill-rule="evenodd" fill-opacity="1" /><path clip-path="url(#clip210)" d="M 0 0 M1857.23 248.36 L1869.71 248.36 L1869.71 252.156 L1857.23 252.156 L1857.23 248.36 Z" fill="#000000" fill-rule="evenodd" fill-opacity="1" /><path clip-path="url(#clip210)" d="M 0 0 M1892.78 250.304 Q1892.78 245.605 1890.84 242.943 Q1888.92 240.258 1885.54 240.258 Q1882.16 240.258 1880.21 242.943 Q1878.29 245.605 1878.29 250.304 Q1878.29 255.003 1880.21 257.689 Q1882.16 260.351 1885.54 260.351 Q1888.92 260.351 1890.84 257.689 Q1892.78 255.003 1892.78 250.304 M1878.29 241.253 Q1879.64 238.939 1881.67 237.828 Q1883.73 236.693 1886.58 236.693 Q1891.3 236.693 1894.24 240.443 Q1897.21 244.193 1897.21 250.304 Q1897.21 256.415 1894.24 260.165 Q1891.3 263.915 1886.58 263.915 Q1883.73 263.915 1881.67 262.804 Q1879.64 261.67 1878.29 259.355 L1878.29 263.244 L1874.01 263.244 L1874.01 227.226 L1878.29 227.226 L1878.29 241.253 Z" fill="#000000" fill-rule="evenodd" fill-opacity="1" /><path clip-path="url(#clip210)" d="M 0 0 M1913.46 250.212 Q1908.29 250.212 1906.3 251.392 Q1904.31 252.573 1904.31 255.42 Q1904.31 257.689 1905.79 259.031 Q1907.3 260.351 1909.87 260.351 Q1913.41 260.351 1915.54 257.851 Q1917.69 255.327 1917.69 251.161 L1917.69 250.212 L1913.46 250.212 M1921.95 248.453 L1921.95 263.244 L1917.69 263.244 L1917.69 259.309 Q1916.23 261.67 1914.06 262.804 Q1911.88 263.915 1908.73 263.915 Q1904.75 263.915 1902.39 261.693 Q1900.05 259.448 1900.05 255.698 Q1900.05 251.323 1902.97 249.101 Q1905.91 246.878 1911.72 246.878 L1917.69 246.878 L1917.69 246.462 Q1917.69 243.522 1915.75 241.925 Q1913.83 240.304 1910.33 240.304 Q1908.11 240.304 1906 240.837 Q1903.9 241.369 1901.95 242.434 L1901.95 238.499 Q1904.29 237.596 1906.49 237.156 Q1908.69 236.693 1910.77 236.693 Q1916.4 236.693 1919.17 239.61 Q1921.95 242.527 1921.95 248.453 Z" fill="#000000" fill-rule="evenodd" fill-opacity="1" /><path clip-path="url(#clip210)" d="M 0 0 M1942.95 238.082 L1942.95 242.11 Q1941.14 241.184 1939.2 240.721 Q1937.25 240.258 1935.17 240.258 Q1932 240.258 1930.4 241.23 Q1928.83 242.203 1928.83 244.147 Q1928.83 245.628 1929.96 246.485 Q1931.09 247.318 1934.52 248.082 L1935.98 248.406 Q1940.52 249.378 1942.41 251.161 Q1944.33 252.92 1944.33 256.091 Q1944.33 259.702 1941.46 261.809 Q1938.62 263.915 1933.62 263.915 Q1931.53 263.915 1929.27 263.499 Q1927.02 263.105 1924.52 262.295 L1924.52 257.897 Q1926.88 259.124 1929.17 259.749 Q1931.46 260.351 1933.71 260.351 Q1936.72 260.351 1938.34 259.332 Q1939.96 258.29 1939.96 256.415 Q1939.96 254.679 1938.78 253.753 Q1937.62 252.827 1933.66 251.971 L1932.18 251.624 Q1928.22 250.79 1926.46 249.078 Q1924.71 247.341 1924.71 244.332 Q1924.71 240.675 1927.3 238.684 Q1929.89 236.693 1934.66 236.693 Q1937.02 236.693 1939.1 237.041 Q1941.19 237.388 1942.95 238.082 Z" fill="#000000" fill-rule="evenodd" fill-opacity="1" /><path clip-path="url(#clip210)" d="M 0 0 M1970.98 249.216 L1970.98 251.3 L1951.39 251.3 Q1951.67 255.698 1954.03 258.013 Q1956.42 260.304 1960.65 260.304 Q1963.11 260.304 1965.4 259.702 Q1967.71 259.101 1969.98 257.897 L1969.98 261.925 Q1967.69 262.897 1965.28 263.406 Q1962.88 263.915 1960.4 263.915 Q1954.2 263.915 1950.56 260.304 Q1946.95 256.693 1946.95 250.536 Q1946.95 244.17 1950.38 240.443 Q1953.83 236.693 1959.66 236.693 Q1964.89 236.693 1967.92 240.073 Q1970.98 243.429 1970.98 249.216 M1966.72 247.966 Q1966.67 244.471 1964.75 242.388 Q1962.85 240.304 1959.71 240.304 Q1956.14 240.304 1953.99 242.318 Q1951.86 244.332 1951.53 247.99 L1966.72 247.966 Z" fill="#000000" fill-rule="evenodd" fill-opacity="1" /><path clip-path="url(#clip210)" d="M 0 0 M1992.51 241.253 L1992.51 227.226 L1996.77 227.226 L1996.77 263.244 L1992.51 263.244 L1992.51 259.355 Q1991.16 261.67 1989.1 262.804 Q1987.07 263.915 1984.2 263.915 Q1979.5 263.915 1976.53 260.165 Q1973.59 256.415 1973.59 250.304 Q1973.59 244.193 1976.53 240.443 Q1979.5 236.693 1984.2 236.693 Q1987.07 236.693 1989.1 237.828 Q1991.16 238.939 1992.51 241.253 M1977.99 250.304 Q1977.99 255.003 1979.91 257.689 Q1981.86 260.351 1985.24 260.351 Q1988.62 260.351 1990.56 257.689 Q1992.51 255.003 1992.51 250.304 Q1992.51 245.605 1990.56 242.943 Q1988.62 240.258 1985.24 240.258 Q1981.86 240.258 1979.91 242.943 Q1977.99 245.605 1977.99 250.304 Z" fill="#000000" fill-rule="evenodd" fill-opacity="1" /><path clip-path="url(#clip210)" d="M 0 0 M2036.49 242.295 Q2038.08 239.425 2040.31 238.059 Q2042.53 236.693 2045.54 236.693 Q2049.59 236.693 2051.79 239.541 Q2053.99 242.365 2053.99 247.596 L2053.99 263.244 L2049.7 263.244 L2049.7 247.735 Q2049.7 244.008 2048.39 242.203 Q2047.07 240.397 2044.36 240.397 Q2041.05 240.397 2039.13 242.596 Q2037.2 244.795 2037.2 248.591 L2037.2 263.244 L2032.92 263.244 L2032.92 247.735 Q2032.92 243.985 2031.6 242.203 Q2030.28 240.397 2027.53 240.397 Q2024.26 240.397 2022.34 242.619 Q2020.42 244.818 2020.42 248.591 L2020.42 263.244 L2016.14 263.244 L2016.14 237.318 L2020.42 237.318 L2020.42 241.346 Q2021.88 238.962 2023.92 237.828 Q2025.95 236.693 2028.76 236.693 Q2031.58 236.693 2033.55 238.128 Q2035.54 239.564 2036.49 242.295 Z" fill="#000000" fill-rule="evenodd" fill-opacity="1" /><path clip-path="url(#clip210)" d="M 0 0 M2068.5 240.304 Q2065.07 240.304 2063.08 242.99 Q2061.09 245.652 2061.09 250.304 Q2061.09 254.957 2063.06 257.642 Q2065.05 260.304 2068.5 260.304 Q2071.9 260.304 2073.89 257.619 Q2075.88 254.934 2075.88 250.304 Q2075.88 245.698 2073.89 243.013 Q2071.9 240.304 2068.5 240.304 M2068.5 236.693 Q2074.06 236.693 2077.23 240.304 Q2080.4 243.915 2080.4 250.304 Q2080.4 256.67 2077.23 260.304 Q2074.06 263.915 2068.5 263.915 Q2062.92 263.915 2059.75 260.304 Q2056.6 256.67 2056.6 250.304 Q2056.6 243.915 2059.75 240.304 Q2062.92 236.693 2068.5 236.693 Z" fill="#000000" fill-rule="evenodd" fill-opacity="1" /><path clip-path="url(#clip210)" d="M 0 0 M2101.93 241.253 L2101.93 227.226 L2106.19 227.226 L2106.19 263.244 L2101.93 263.244 L2101.93 259.355 Q2100.58 261.67 2098.52 262.804 Q2096.49 263.915 2093.62 263.915 Q2088.92 263.915 2085.95 260.165 Q2083.01 256.415 2083.01 250.304 Q2083.01 244.193 2085.95 240.443 Q2088.92 236.693 2093.62 236.693 Q2096.49 236.693 2098.52 237.828 Q2100.58 238.939 2101.93 241.253 M2087.41 250.304 Q2087.41 255.003 2089.33 257.689 Q2091.28 260.351 2094.66 260.351 Q2098.04 260.351 2099.98 257.689 Q2101.93 255.003 2101.93 250.304 Q2101.93 245.605 2099.98 242.943 Q2098.04 240.258 2094.66 240.258 Q2091.28 240.258 2089.33 242.943 Q2087.41 245.605 2087.41 250.304 Z" fill="#000000" fill-rule="evenodd" fill-opacity="1" /><path clip-path="url(#clip210)" d="M 0 0 M2132.83 249.216 L2132.83 251.3 L2113.25 251.3 Q2113.52 255.698 2115.88 258.013 Q2118.27 260.304 2122.51 260.304 Q2124.96 260.304 2127.25 259.702 Q2129.57 259.101 2131.83 257.897 L2131.83 261.925 Q2129.54 262.897 2127.13 263.406 Q2124.73 263.915 2122.25 263.915 Q2116.05 263.915 2112.41 260.304 Q2108.8 256.693 2108.8 250.536 Q2108.8 244.17 2112.23 240.443 Q2115.68 236.693 2121.51 236.693 Q2126.74 236.693 2129.77 240.073 Q2132.83 243.429 2132.83 249.216 M2128.57 247.966 Q2128.52 244.471 2126.6 242.388 Q2124.7 240.304 2121.56 240.304 Q2117.99 240.304 2115.84 242.318 Q2113.71 244.332 2113.38 247.99 L2128.57 247.966 Z" fill="#000000" fill-rule="evenodd" fill-opacity="1" /><path clip-path="url(#clip210)" d="M 0 0 M2137.3 227.226 L2141.56 227.226 L2141.56 263.244 L2137.3 263.244 L2137.3 227.226 Z" fill="#000000" fill-rule="evenodd" fill-opacity="1" /></svg>
