<?xml version="1.0" encoding="utf-8"?>
<svg xmlns="http://www.w3.org/2000/svg" xmlns:xlink="http://www.w3.org/1999/xlink" width="576" height="384" viewBox="0 0 2304 1536">
<defs>
  <clipPath id="clip290">
    <rect x="0" y="0" width="2304" height="1536"/>
  </clipPath>
</defs>
<path clip-path="url(#clip290)" d="
M0 1536 L2304 1536 L2304 0 L0 0  Z
  " fill="#ffffff" fill-rule="evenodd" fill-opacity="1"/>
<defs>
  <clipPath id="clip291">
    <rect x="460" y="0" width="1614" height="1536"/>
  </clipPath>
</defs>
<path clip-path="url(#clip290)" d="
M237.17 1359.82 L2256.76 1359.82 L2256.76 47.2441 L237.17 47.2441  Z
  " fill="#ffffff" fill-rule="evenodd" fill-opacity="1"/>
<defs>
  <clipPath id="clip292">
    <rect x="237" y="47" width="2021" height="1314"/>
  </clipPath>
</defs>
<polyline clip-path="url(#clip292)" style="stroke:#000000; stroke-width:2; stroke-opacity:0.1; fill:none" points="
  287.636,1359.82 287.636,47.2441 
  "/>
<polyline clip-path="url(#clip292)" style="stroke:#000000; stroke-width:2; stroke-opacity:0.1; fill:none" points="
  765.627,1359.82 765.627,47.2441 
  "/>
<polyline clip-path="url(#clip292)" style="stroke:#000000; stroke-width:2; stroke-opacity:0.1; fill:none" points="
  1243.62,1359.82 1243.62,47.2441 
  "/>
<polyline clip-path="url(#clip292)" style="stroke:#000000; stroke-width:2; stroke-opacity:0.1; fill:none" points="
  1721.61,1359.82 1721.61,47.2441 
  "/>
<polyline clip-path="url(#clip292)" style="stroke:#000000; stroke-width:2; stroke-opacity:0.1; fill:none" points="
  2199.6,1359.82 2199.6,47.2441 
  "/>
<polyline clip-path="url(#clip292)" style="stroke:#000000; stroke-width:2; stroke-opacity:0.1; fill:none" points="
  237.17,1336.87 2256.76,1336.87 
  "/>
<polyline clip-path="url(#clip292)" style="stroke:#000000; stroke-width:2; stroke-opacity:0.1; fill:none" points="
  237.17,1023.73 2256.76,1023.73 
  "/>
<polyline clip-path="url(#clip292)" style="stroke:#000000; stroke-width:2; stroke-opacity:0.1; fill:none" points="
  237.17,710.597 2256.76,710.597 
  "/>
<polyline clip-path="url(#clip292)" style="stroke:#000000; stroke-width:2; stroke-opacity:0.1; fill:none" points="
  237.17,397.459 2256.76,397.459 
  "/>
<polyline clip-path="url(#clip292)" style="stroke:#000000; stroke-width:2; stroke-opacity:0.1; fill:none" points="
  237.17,84.3212 2256.76,84.3212 
  "/>
<polyline clip-path="url(#clip290)" style="stroke:#000000; stroke-width:4; stroke-opacity:1; fill:none" points="
  237.17,1359.82 2256.76,1359.82 
  "/>
<polyline clip-path="url(#clip290)" style="stroke:#000000; stroke-width:4; stroke-opacity:1; fill:none" points="
  237.17,1359.82 237.17,47.2441 
  "/>
<polyline clip-path="url(#clip290)" style="stroke:#000000; stroke-width:4; stroke-opacity:1; fill:none" points="
  287.636,1359.82 287.636,1344.07 
  "/>
<polyline clip-path="url(#clip290)" style="stroke:#000000; stroke-width:4; stroke-opacity:1; fill:none" points="
  765.627,1359.82 765.627,1344.07 
  "/>
<polyline clip-path="url(#clip290)" style="stroke:#000000; stroke-width:4; stroke-opacity:1; fill:none" points="
  1243.62,1359.82 1243.62,1344.07 
  "/>
<polyline clip-path="url(#clip290)" style="stroke:#000000; stroke-width:4; stroke-opacity:1; fill:none" points="
  1721.61,1359.82 1721.61,1344.07 
  "/>
<polyline clip-path="url(#clip290)" style="stroke:#000000; stroke-width:4; stroke-opacity:1; fill:none" points="
  2199.6,1359.82 2199.6,1344.07 
  "/>
<polyline clip-path="url(#clip290)" style="stroke:#000000; stroke-width:4; stroke-opacity:1; fill:none" points="
  237.17,1336.87 261.405,1336.87 
  "/>
<polyline clip-path="url(#clip290)" style="stroke:#000000; stroke-width:4; stroke-opacity:1; fill:none" points="
  237.17,1023.73 261.405,1023.73 
  "/>
<polyline clip-path="url(#clip290)" style="stroke:#000000; stroke-width:4; stroke-opacity:1; fill:none" points="
  237.17,710.597 261.405,710.597 
  "/>
<polyline clip-path="url(#clip290)" style="stroke:#000000; stroke-width:4; stroke-opacity:1; fill:none" points="
  237.17,397.459 261.405,397.459 
  "/>
<polyline clip-path="url(#clip290)" style="stroke:#000000; stroke-width:4; stroke-opacity:1; fill:none" points="
  237.17,84.3212 261.405,84.3212 
  "/>
<path clip-path="url(#clip290)" d="M 0 0 M287.636 1381.33 Q284.025 1381.33 282.196 1384.9 Q280.391 1388.44 280.391 1395.57 Q280.391 1402.67 282.196 1406.24 Q284.025 1409.78 287.636 1409.78 Q291.271 1409.78 293.076 1406.24 Q294.905 1402.67 294.905 1395.57 Q294.905 1388.44 293.076 1384.9 Q291.271 1381.33 287.636 1381.33 M287.636 1377.63 Q293.446 1377.63 296.502 1382.23 Q299.581 1386.82 299.581 1395.57 Q299.581 1404.29 296.502 1408.9 Q293.446 1413.48 287.636 1413.48 Q281.826 1413.48 278.747 1408.9 Q275.692 1404.29 275.692 1395.57 Q275.692 1386.82 278.747 1382.23 Q281.826 1377.63 287.636 1377.63 Z" fill="#000000" fill-rule="evenodd" fill-opacity="1" /><path clip-path="url(#clip290)" d="M 0 0 M746.773 1408.88 L763.092 1408.88 L763.092 1412.81 L741.148 1412.81 L741.148 1408.88 Q743.81 1406.12 748.393 1401.49 Q752.999 1396.84 754.18 1395.5 Q756.425 1392.97 757.305 1391.24 Q758.208 1389.48 758.208 1387.79 Q758.208 1385.03 756.263 1383.3 Q754.342 1381.56 751.24 1381.56 Q749.041 1381.56 746.587 1382.33 Q744.157 1383.09 741.379 1384.64 L741.379 1379.92 Q744.203 1378.78 746.657 1378.21 Q749.111 1377.63 751.148 1377.63 Q756.518 1377.63 759.712 1380.31 Q762.907 1383 762.907 1387.49 Q762.907 1389.62 762.097 1391.54 Q761.31 1393.44 759.203 1396.03 Q758.624 1396.7 755.523 1399.92 Q752.421 1403.11 746.773 1408.88 Z" fill="#000000" fill-rule="evenodd" fill-opacity="1" /><path clip-path="url(#clip290)" d="M 0 0 M778.161 1381.33 Q774.55 1381.33 772.722 1384.9 Q770.916 1388.44 770.916 1395.57 Q770.916 1402.67 772.722 1406.24 Q774.55 1409.78 778.161 1409.78 Q781.796 1409.78 783.601 1406.24 Q785.43 1402.67 785.43 1395.57 Q785.43 1388.44 783.601 1384.9 Q781.796 1381.33 778.161 1381.33 M778.161 1377.63 Q783.971 1377.63 787.027 1382.23 Q790.106 1386.82 790.106 1395.57 Q790.106 1404.29 787.027 1408.9 Q783.971 1413.48 778.161 1413.48 Q772.351 1413.48 769.272 1408.9 Q766.217 1404.29 766.217 1395.57 Q766.217 1386.82 769.272 1382.23 Q772.351 1377.63 778.161 1377.63 Z" fill="#000000" fill-rule="evenodd" fill-opacity="1" /><path clip-path="url(#clip290)" d="M 0 0 M1233.12 1382.33 L1221.31 1400.77 L1233.12 1400.77 L1233.12 1382.33 M1231.89 1378.25 L1237.77 1378.25 L1237.77 1400.77 L1242.7 1400.77 L1242.7 1404.66 L1237.77 1404.66 L1237.77 1412.81 L1233.12 1412.81 L1233.12 1404.66 L1217.52 1404.66 L1217.52 1400.15 L1231.89 1378.25 Z" fill="#000000" fill-rule="evenodd" fill-opacity="1" /><path clip-path="url(#clip290)" d="M 0 0 M1257.77 1381.33 Q1254.16 1381.33 1252.33 1384.9 Q1250.53 1388.44 1250.53 1395.57 Q1250.53 1402.67 1252.33 1406.24 Q1254.16 1409.78 1257.77 1409.78 Q1261.41 1409.78 1263.21 1406.24 Q1265.04 1402.67 1265.04 1395.57 Q1265.04 1388.44 1263.21 1384.9 Q1261.41 1381.33 1257.77 1381.33 M1257.77 1377.63 Q1263.58 1377.63 1266.64 1382.23 Q1269.72 1386.82 1269.72 1395.57 Q1269.72 1404.29 1266.64 1408.9 Q1263.58 1413.48 1257.77 1413.48 Q1251.96 1413.48 1248.88 1408.9 Q1245.83 1404.29 1245.83 1395.57 Q1245.83 1386.82 1248.88 1382.23 Q1251.96 1377.63 1257.77 1377.63 Z" fill="#000000" fill-rule="evenodd" fill-opacity="1" /><path clip-path="url(#clip290)" d="M 0 0 M1708.51 1393.67 Q1705.36 1393.67 1703.51 1395.82 Q1701.68 1397.97 1701.68 1401.72 Q1701.68 1405.45 1703.51 1407.63 Q1705.36 1409.78 1708.51 1409.78 Q1711.65 1409.78 1713.48 1407.63 Q1715.33 1405.45 1715.33 1401.72 Q1715.33 1397.97 1713.48 1395.82 Q1711.65 1393.67 1708.51 1393.67 M1717.79 1379.02 L1717.79 1383.27 Q1716.03 1382.44 1714.22 1382 Q1712.44 1381.56 1710.68 1381.56 Q1706.05 1381.56 1703.6 1384.69 Q1701.17 1387.81 1700.82 1394.13 Q1702.19 1392.12 1704.25 1391.05 Q1706.31 1389.96 1708.78 1389.96 Q1713.99 1389.96 1717 1393.14 Q1720.03 1396.28 1720.03 1401.72 Q1720.03 1407.05 1716.89 1410.27 Q1713.74 1413.48 1708.51 1413.48 Q1702.51 1413.48 1699.34 1408.9 Q1696.17 1404.29 1696.17 1395.57 Q1696.17 1387.37 1700.06 1382.51 Q1703.95 1377.63 1710.5 1377.63 Q1712.26 1377.63 1714.04 1377.97 Q1715.84 1378.32 1717.79 1379.02 Z" fill="#000000" fill-rule="evenodd" fill-opacity="1" /><path clip-path="url(#clip290)" d="M 0 0 M1735.1 1381.33 Q1731.49 1381.33 1729.66 1384.9 Q1727.86 1388.44 1727.86 1395.57 Q1727.86 1402.67 1729.66 1406.24 Q1731.49 1409.78 1735.1 1409.78 Q1738.74 1409.78 1740.54 1406.24 Q1742.37 1402.67 1742.37 1395.57 Q1742.37 1388.44 1740.54 1384.9 Q1738.74 1381.33 1735.1 1381.33 M1735.1 1377.63 Q1740.91 1377.63 1743.97 1382.23 Q1747.05 1386.82 1747.05 1395.57 Q1747.05 1404.29 1743.97 1408.9 Q1740.91 1413.48 1735.1 1413.48 Q1729.29 1413.48 1726.21 1408.9 Q1723.16 1404.29 1723.16 1395.57 Q1723.16 1386.82 1726.21 1382.23 Q1729.29 1377.63 1735.1 1377.63 Z" fill="#000000" fill-rule="evenodd" fill-opacity="1" /><path clip-path="url(#clip290)" d="M 0 0 M2186.09 1396.4 Q2182.76 1396.4 2180.84 1398.18 Q2178.94 1399.96 2178.94 1403.09 Q2178.94 1406.21 2180.84 1408 Q2182.76 1409.78 2186.09 1409.78 Q2189.42 1409.78 2191.35 1408 Q2193.27 1406.19 2193.27 1403.09 Q2193.27 1399.96 2191.35 1398.18 Q2189.45 1396.4 2186.09 1396.4 M2181.42 1394.41 Q2178.41 1393.67 2176.72 1391.61 Q2175.05 1389.55 2175.05 1386.59 Q2175.05 1382.44 2177.99 1380.03 Q2180.95 1377.63 2186.09 1377.63 Q2191.25 1377.63 2194.19 1380.03 Q2197.13 1382.44 2197.13 1386.59 Q2197.13 1389.55 2195.44 1391.61 Q2193.78 1393.67 2190.79 1394.41 Q2194.17 1395.2 2196.04 1397.49 Q2197.94 1399.78 2197.94 1403.09 Q2197.94 1408.11 2194.86 1410.8 Q2191.81 1413.48 2186.09 1413.48 Q2180.37 1413.48 2177.29 1410.8 Q2174.24 1408.11 2174.24 1403.09 Q2174.24 1399.78 2176.14 1397.49 Q2178.04 1395.2 2181.42 1394.41 M2179.7 1387.02 Q2179.7 1389.71 2181.37 1391.21 Q2183.06 1392.72 2186.09 1392.72 Q2189.1 1392.72 2190.79 1391.21 Q2192.5 1389.71 2192.5 1387.02 Q2192.5 1384.34 2190.79 1382.84 Q2189.1 1381.33 2186.09 1381.33 Q2183.06 1381.33 2181.37 1382.84 Q2179.7 1384.34 2179.7 1387.02 Z" fill="#000000" fill-rule="evenodd" fill-opacity="1" /><path clip-path="url(#clip290)" d="M 0 0 M2213.01 1381.33 Q2209.4 1381.33 2207.57 1384.9 Q2205.77 1388.44 2205.77 1395.57 Q2205.77 1402.67 2207.57 1406.24 Q2209.4 1409.78 2213.01 1409.78 Q2216.65 1409.78 2218.45 1406.24 Q2220.28 1402.67 2220.28 1395.57 Q2220.28 1388.44 2218.45 1384.9 Q2216.65 1381.33 2213.01 1381.33 M2213.01 1377.63 Q2218.82 1377.63 2221.88 1382.23 Q2224.96 1386.82 2224.96 1395.57 Q2224.96 1404.29 2221.88 1408.9 Q2218.82 1413.48 2213.01 1413.48 Q2207.2 1413.48 2204.12 1408.9 Q2201.07 1404.29 2201.07 1395.57 Q2201.07 1386.82 2204.12 1382.23 Q2207.2 1377.63 2213.01 1377.63 Z" fill="#000000" fill-rule="evenodd" fill-opacity="1" /><path clip-path="url(#clip290)" d="M 0 0 M138.205 1322.67 Q134.593 1322.67 132.765 1326.24 Q130.959 1329.78 130.959 1336.91 Q130.959 1344.01 132.765 1347.58 Q134.593 1351.12 138.205 1351.12 Q141.839 1351.12 143.644 1347.58 Q145.473 1344.01 145.473 1336.91 Q145.473 1329.78 143.644 1326.24 Q141.839 1322.67 138.205 1322.67 M138.205 1318.97 Q144.015 1318.97 147.07 1323.57 Q150.149 1328.16 150.149 1336.91 Q150.149 1345.63 147.07 1350.24 Q144.015 1354.82 138.205 1354.82 Q132.394 1354.82 129.316 1350.24 Q126.26 1345.63 126.26 1336.91 Q126.26 1328.16 129.316 1323.57 Q132.394 1318.97 138.205 1318.97 Z" fill="#000000" fill-rule="evenodd" fill-opacity="1" /><path clip-path="url(#clip290)" d="M 0 0 M155.218 1348.27 L160.103 1348.27 L160.103 1354.15 L155.218 1354.15 L155.218 1348.27 Z" fill="#000000" fill-rule="evenodd" fill-opacity="1" /><path clip-path="url(#clip290)" d="M 0 0 M175.172 1322.67 Q171.561 1322.67 169.732 1326.24 Q167.927 1329.78 167.927 1336.91 Q167.927 1344.01 169.732 1347.58 Q171.561 1351.12 175.172 1351.12 Q178.806 1351.12 180.612 1347.58 Q182.44 1344.01 182.44 1336.91 Q182.44 1329.78 180.612 1326.24 Q178.806 1322.67 175.172 1322.67 M175.172 1318.97 Q180.982 1318.97 184.038 1323.57 Q187.116 1328.16 187.116 1336.91 Q187.116 1345.63 184.038 1350.24 Q180.982 1354.82 175.172 1354.82 Q169.362 1354.82 166.283 1350.24 Q163.228 1345.63 163.228 1336.91 Q163.228 1328.16 166.283 1323.57 Q169.362 1318.97 175.172 1318.97 Z" fill="#000000" fill-rule="evenodd" fill-opacity="1" /><path clip-path="url(#clip290)" d="M 0 0 M202.186 1322.67 Q198.575 1322.67 196.746 1326.24 Q194.94 1329.78 194.94 1336.91 Q194.94 1344.01 196.746 1347.58 Q198.575 1351.12 202.186 1351.12 Q205.82 1351.12 207.625 1347.58 Q209.454 1344.01 209.454 1336.91 Q209.454 1329.78 207.625 1326.24 Q205.82 1322.67 202.186 1322.67 M202.186 1318.97 Q207.996 1318.97 211.051 1323.57 Q214.13 1328.16 214.13 1336.91 Q214.13 1345.63 211.051 1350.24 Q207.996 1354.82 202.186 1354.82 Q196.376 1354.82 193.297 1350.24 Q190.241 1345.63 190.241 1336.91 Q190.241 1328.16 193.297 1323.57 Q196.376 1318.97 202.186 1318.97 Z" fill="#000000" fill-rule="evenodd" fill-opacity="1" /><path clip-path="url(#clip290)" d="M 0 0 M140.797 1009.53 Q137.186 1009.53 135.357 1013.1 Q133.552 1016.64 133.552 1023.77 Q133.552 1030.88 135.357 1034.44 Q137.186 1037.98 140.797 1037.98 Q144.431 1037.98 146.237 1034.44 Q148.066 1030.88 148.066 1023.77 Q148.066 1016.64 146.237 1013.1 Q144.431 1009.53 140.797 1009.53 M140.797 1005.83 Q146.607 1005.83 149.663 1010.44 Q152.741 1015.02 152.741 1023.77 Q152.741 1032.5 149.663 1037.1 Q146.607 1041.69 140.797 1041.69 Q134.987 1041.69 131.908 1037.1 Q128.853 1032.5 128.853 1023.77 Q128.853 1015.02 131.908 1010.44 Q134.987 1005.83 140.797 1005.83 Z" fill="#000000" fill-rule="evenodd" fill-opacity="1" /><path clip-path="url(#clip290)" d="M 0 0 M157.811 1035.14 L162.695 1035.14 L162.695 1041.01 L157.811 1041.01 L157.811 1035.14 Z" fill="#000000" fill-rule="evenodd" fill-opacity="1" /><path clip-path="url(#clip290)" d="M 0 0 M171.792 1037.08 L188.112 1037.08 L188.112 1041.01 L166.167 1041.01 L166.167 1037.08 Q168.829 1034.33 173.413 1029.7 Q178.019 1025.04 179.2 1023.7 Q181.445 1021.18 182.325 1019.44 Q183.227 1017.68 183.227 1015.99 Q183.227 1013.24 181.283 1011.5 Q179.362 1009.77 176.26 1009.77 Q174.061 1009.77 171.607 1010.53 Q169.177 1011.29 166.399 1012.84 L166.399 1008.12 Q169.223 1006.99 171.677 1006.41 Q174.13 1005.83 176.167 1005.83 Q181.538 1005.83 184.732 1008.52 Q187.926 1011.2 187.926 1015.69 Q187.926 1017.82 187.116 1019.74 Q186.329 1021.64 184.223 1024.23 Q183.644 1024.9 180.542 1028.12 Q177.44 1031.32 171.792 1037.08 Z" fill="#000000" fill-rule="evenodd" fill-opacity="1" /><path clip-path="url(#clip290)" d="M 0 0 M193.227 1006.45 L211.584 1006.45 L211.584 1010.39 L197.51 1010.39 L197.51 1018.86 Q198.528 1018.51 199.547 1018.35 Q200.565 1018.17 201.584 1018.17 Q207.371 1018.17 210.75 1021.34 Q214.13 1024.51 214.13 1029.93 Q214.13 1035.51 210.658 1038.61 Q207.186 1041.69 200.866 1041.69 Q198.69 1041.69 196.422 1041.32 Q194.176 1040.95 191.769 1040.2 L191.769 1035.51 Q193.852 1036.64 196.075 1037.2 Q198.297 1037.75 200.774 1037.75 Q204.778 1037.75 207.116 1035.64 Q209.454 1033.54 209.454 1029.93 Q209.454 1026.32 207.116 1024.21 Q204.778 1022.1 200.774 1022.1 Q198.899 1022.1 197.024 1022.52 Q195.172 1022.94 193.227 1023.82 L193.227 1006.45 Z" fill="#000000" fill-rule="evenodd" fill-opacity="1" /><path clip-path="url(#clip290)" d="M 0 0 M139.2 696.396 Q135.589 696.396 133.76 699.96 Q131.955 703.502 131.955 710.632 Q131.955 717.738 133.76 721.303 Q135.589 724.845 139.2 724.845 Q142.834 724.845 144.64 721.303 Q146.468 717.738 146.468 710.632 Q146.468 703.502 144.64 699.96 Q142.834 696.396 139.2 696.396 M139.2 692.692 Q145.01 692.692 148.066 697.298 Q151.144 701.882 151.144 710.632 Q151.144 719.359 148.066 723.965 Q145.01 728.548 139.2 728.548 Q133.39 728.548 130.311 723.965 Q127.256 719.359 127.256 710.632 Q127.256 701.882 130.311 697.298 Q133.39 692.692 139.2 692.692 Z" fill="#000000" fill-rule="evenodd" fill-opacity="1" /><path clip-path="url(#clip290)" d="M 0 0 M156.214 721.997 L161.098 721.997 L161.098 727.877 L156.214 727.877 L156.214 721.997 Z" fill="#000000" fill-rule="evenodd" fill-opacity="1" /><path clip-path="url(#clip290)" d="M 0 0 M166.214 693.317 L184.57 693.317 L184.57 697.252 L170.496 697.252 L170.496 705.724 Q171.515 705.377 172.533 705.215 Q173.552 705.03 174.57 705.03 Q180.357 705.03 183.737 708.201 Q187.116 711.372 187.116 716.789 Q187.116 722.368 183.644 725.47 Q180.172 728.548 173.852 728.548 Q171.677 728.548 169.408 728.178 Q167.163 727.808 164.755 727.067 L164.755 722.368 Q166.839 723.502 169.061 724.058 Q171.283 724.613 173.76 724.613 Q177.765 724.613 180.102 722.507 Q182.44 720.4 182.44 716.789 Q182.44 713.178 180.102 711.072 Q177.765 708.965 173.76 708.965 Q171.885 708.965 170.01 709.382 Q168.158 709.798 166.214 710.678 L166.214 693.317 Z" fill="#000000" fill-rule="evenodd" fill-opacity="1" /><path clip-path="url(#clip290)" d="M 0 0 M202.186 696.396 Q198.575 696.396 196.746 699.96 Q194.94 703.502 194.94 710.632 Q194.94 717.738 196.746 721.303 Q198.575 724.845 202.186 724.845 Q205.82 724.845 207.625 721.303 Q209.454 717.738 209.454 710.632 Q209.454 703.502 207.625 699.96 Q205.82 696.396 202.186 696.396 M202.186 692.692 Q207.996 692.692 211.051 697.298 Q214.13 701.882 214.13 710.632 Q214.13 719.359 211.051 723.965 Q207.996 728.548 202.186 728.548 Q196.376 728.548 193.297 723.965 Q190.241 719.359 190.241 710.632 Q190.241 701.882 193.297 697.298 Q196.376 692.692 202.186 692.692 Z" fill="#000000" fill-rule="evenodd" fill-opacity="1" /><path clip-path="url(#clip290)" d="M 0 0 M140.103 383.258 Q136.492 383.258 134.663 386.823 Q132.857 390.364 132.857 397.494 Q132.857 404.6 134.663 408.165 Q136.492 411.707 140.103 411.707 Q143.737 411.707 145.542 408.165 Q147.371 404.6 147.371 397.494 Q147.371 390.364 145.542 386.823 Q143.737 383.258 140.103 383.258 M140.103 379.554 Q145.913 379.554 148.968 384.161 Q152.047 388.744 152.047 397.494 Q152.047 406.221 148.968 410.827 Q145.913 415.41 140.103 415.41 Q134.293 415.41 131.214 410.827 Q128.158 406.221 128.158 397.494 Q128.158 388.744 131.214 384.161 Q134.293 379.554 140.103 379.554 Z" fill="#000000" fill-rule="evenodd" fill-opacity="1" /><path clip-path="url(#clip290)" d="M 0 0 M157.116 408.859 L162.001 408.859 L162.001 414.739 L157.116 414.739 L157.116 408.859 Z" fill="#000000" fill-rule="evenodd" fill-opacity="1" /><path clip-path="url(#clip290)" d="M 0 0 M165.89 380.179 L188.112 380.179 L188.112 382.17 L175.565 414.739 L170.681 414.739 L182.487 384.114 L165.89 384.114 L165.89 380.179 Z" fill="#000000" fill-rule="evenodd" fill-opacity="1" /><path clip-path="url(#clip290)" d="M 0 0 M193.227 380.179 L211.584 380.179 L211.584 384.114 L197.51 384.114 L197.51 392.586 Q198.528 392.239 199.547 392.077 Q200.565 391.892 201.584 391.892 Q207.371 391.892 210.75 395.063 Q214.13 398.235 214.13 403.651 Q214.13 409.23 210.658 412.332 Q207.186 415.41 200.866 415.41 Q198.69 415.41 196.422 415.04 Q194.176 414.67 191.769 413.929 L191.769 409.23 Q193.852 410.364 196.075 410.92 Q198.297 411.475 200.774 411.475 Q204.778 411.475 207.116 409.369 Q209.454 407.262 209.454 403.651 Q209.454 400.04 207.116 397.934 Q204.778 395.827 200.774 395.827 Q198.899 395.827 197.024 396.244 Q195.172 396.66 193.227 397.54 L193.227 380.179 Z" fill="#000000" fill-rule="evenodd" fill-opacity="1" /><path clip-path="url(#clip290)" d="M 0 0 M130.242 97.666 L137.88 97.666 L137.88 71.3004 L129.57 72.9671 L129.57 68.7079 L137.834 67.0412 L142.51 67.0412 L142.51 97.666 L150.149 97.666 L150.149 101.601 L130.242 101.601 L130.242 97.666 Z" fill="#000000" fill-rule="evenodd" fill-opacity="1" /><path clip-path="url(#clip290)" d="M 0 0 M155.218 95.7216 L160.103 95.7216 L160.103 101.601 L155.218 101.601 L155.218 95.7216 Z" fill="#000000" fill-rule="evenodd" fill-opacity="1" /><path clip-path="url(#clip290)" d="M 0 0 M175.172 70.1199 Q171.561 70.1199 169.732 73.6847 Q167.927 77.2263 167.927 84.3559 Q167.927 91.4624 169.732 95.0272 Q171.561 98.5688 175.172 98.5688 Q178.806 98.5688 180.612 95.0272 Q182.44 91.4624 182.44 84.3559 Q182.44 77.2263 180.612 73.6847 Q178.806 70.1199 175.172 70.1199 M175.172 66.4162 Q180.982 66.4162 184.038 71.0227 Q187.116 75.606 187.116 84.3559 Q187.116 93.0827 184.038 97.6892 Q180.982 102.273 175.172 102.273 Q169.362 102.273 166.283 97.6892 Q163.228 93.0827 163.228 84.3559 Q163.228 75.606 166.283 71.0227 Q169.362 66.4162 175.172 66.4162 Z" fill="#000000" fill-rule="evenodd" fill-opacity="1" /><path clip-path="url(#clip290)" d="M 0 0 M202.186 70.1199 Q198.575 70.1199 196.746 73.6847 Q194.94 77.2263 194.94 84.3559 Q194.94 91.4624 196.746 95.0272 Q198.575 98.5688 202.186 98.5688 Q205.82 98.5688 207.625 95.0272 Q209.454 91.4624 209.454 84.3559 Q209.454 77.2263 207.625 73.6847 Q205.82 70.1199 202.186 70.1199 M202.186 66.4162 Q207.996 66.4162 211.051 71.0227 Q214.13 75.606 214.13 84.3559 Q214.13 93.0827 211.051 97.6892 Q207.996 102.273 202.186 102.273 Q196.376 102.273 193.297 97.6892 Q190.241 93.0827 190.241 84.3559 Q190.241 75.606 193.297 71.0227 Q196.376 66.4162 202.186 66.4162 Z" fill="#000000" fill-rule="evenodd" fill-opacity="1" /><path clip-path="url(#clip290)" d="M 0 0 M924.015 1449.49 L924.015 1486.44 L931.781 1486.44 Q941.616 1486.44 946.167 1481.98 Q950.751 1477.53 950.751 1467.92 Q950.751 1458.37 946.167 1453.94 Q941.616 1449.49 931.781 1449.49 L924.015 1449.49 M917.585 1444.2 L930.794 1444.2 Q944.608 1444.2 951.069 1449.96 Q957.53 1455.69 957.53 1467.92 Q957.53 1480.2 951.037 1485.96 Q944.544 1491.72 930.794 1491.72 L917.585 1491.72 L917.585 1444.2 Z" fill="#000000" fill-rule="evenodd" fill-opacity="1" /><path clip-path="url(#clip290)" d="M 0 0 M963.673 1456.08 L969.53 1456.08 L969.53 1491.72 L963.673 1491.72 L963.673 1456.08 M963.673 1442.2 L969.53 1442.2 L969.53 1449.61 L963.673 1449.61 L963.673 1442.2 Z" fill="#000000" fill-rule="evenodd" fill-opacity="1" /><path clip-path="url(#clip290)" d="M 0 0 M998.398 1457.13 L998.398 1462.66 Q995.915 1461.39 993.242 1460.75 Q990.568 1460.12 987.704 1460.12 Q983.343 1460.12 981.147 1461.45 Q978.983 1462.79 978.983 1465.47 Q978.983 1467.5 980.542 1468.68 Q982.102 1469.83 986.812 1470.88 L988.818 1471.32 Q995.056 1472.66 997.666 1475.11 Q1000.31 1477.53 1000.31 1481.89 Q1000.31 1486.85 996.361 1489.75 Q992.446 1492.65 985.571 1492.65 Q982.707 1492.65 979.587 1492.07 Q976.5 1491.53 973.063 1490.42 L973.063 1484.37 Q976.309 1486.06 979.46 1486.92 Q982.611 1487.75 985.698 1487.75 Q989.836 1487.75 992.064 1486.34 Q994.292 1484.91 994.292 1482.33 Q994.292 1479.95 992.669 1478.67 Q991.077 1477.4 985.635 1476.22 L983.598 1475.75 Q978.155 1474.6 975.736 1472.24 Q973.317 1469.86 973.317 1465.72 Q973.317 1460.69 976.882 1457.95 Q980.447 1455.22 987.003 1455.22 Q990.25 1455.22 993.115 1455.69 Q995.979 1456.17 998.398 1457.13 Z" fill="#000000" fill-rule="evenodd" fill-opacity="1" /><path clip-path="url(#clip290)" d="M 0 0 M1012.24 1445.95 L1012.24 1456.08 L1024.31 1456.08 L1024.31 1460.63 L1012.24 1460.63 L1012.24 1479.98 Q1012.24 1484.34 1013.42 1485.58 Q1014.63 1486.82 1018.29 1486.82 L1024.31 1486.82 L1024.31 1491.72 L1018.29 1491.72 Q1011.51 1491.72 1008.93 1489.21 Q1006.36 1486.66 1006.36 1479.98 L1006.36 1460.63 L1002.06 1460.63 L1002.06 1456.08 L1006.36 1456.08 L1006.36 1445.95 L1012.24 1445.95 Z" fill="#000000" fill-rule="evenodd" fill-opacity="1" /><path clip-path="url(#clip290)" d="M 0 0 M1046.65 1473.8 Q1039.55 1473.8 1036.82 1475.43 Q1034.08 1477.05 1034.08 1480.97 Q1034.08 1484.08 1036.11 1485.93 Q1038.18 1487.75 1041.72 1487.75 Q1046.59 1487.75 1049.51 1484.31 Q1052.47 1480.84 1052.47 1475.11 L1052.47 1473.8 L1046.65 1473.8 M1058.33 1471.39 L1058.33 1491.72 L1052.47 1491.72 L1052.47 1486.31 Q1050.47 1489.56 1047.48 1491.12 Q1044.49 1492.65 1040.16 1492.65 Q1034.68 1492.65 1031.44 1489.59 Q1028.22 1486.5 1028.22 1481.35 Q1028.22 1475.33 1032.23 1472.28 Q1036.27 1469.22 1044.26 1469.22 L1052.47 1469.22 L1052.47 1468.65 Q1052.47 1464.61 1049.8 1462.41 Q1047.16 1460.18 1042.35 1460.18 Q1039.3 1460.18 1036.4 1460.91 Q1033.5 1461.65 1030.83 1463.11 L1030.83 1457.7 Q1034.05 1456.46 1037.07 1455.85 Q1040.09 1455.22 1042.96 1455.22 Q1050.69 1455.22 1054.51 1459.23 Q1058.33 1463.24 1058.33 1471.39 Z" fill="#000000" fill-rule="evenodd" fill-opacity="1" /><path clip-path="url(#clip290)" d="M 0 0 M1094.11 1470.21 L1094.11 1491.72 L1088.25 1491.72 L1088.25 1470.4 Q1088.25 1465.34 1086.28 1462.82 Q1084.3 1460.31 1080.36 1460.31 Q1075.61 1460.31 1072.88 1463.33 Q1070.14 1466.36 1070.14 1471.58 L1070.14 1491.72 L1064.25 1491.72 L1064.25 1456.08 L1070.14 1456.08 L1070.14 1461.61 Q1072.24 1458.4 1075.07 1456.81 Q1077.94 1455.22 1081.66 1455.22 Q1087.8 1455.22 1090.96 1459.04 Q1094.11 1462.82 1094.11 1470.21 Z" fill="#000000" fill-rule="evenodd" fill-opacity="1" /><path clip-path="url(#clip290)" d="M 0 0 M1125.9 1457.44 L1125.9 1462.92 Q1123.42 1461.55 1120.91 1460.88 Q1118.42 1460.18 1115.88 1460.18 Q1110.18 1460.18 1107.03 1463.81 Q1103.88 1467.41 1103.88 1473.93 Q1103.88 1480.46 1107.03 1484.08 Q1110.18 1487.68 1115.88 1487.68 Q1118.42 1487.68 1120.91 1487.01 Q1123.42 1486.31 1125.9 1484.94 L1125.9 1490.36 Q1123.45 1491.5 1120.81 1492.07 Q1118.2 1492.65 1115.24 1492.65 Q1107.19 1492.65 1102.45 1487.59 Q1097.7 1482.53 1097.7 1473.93 Q1097.7 1465.21 1102.48 1460.21 Q1107.28 1455.22 1115.62 1455.22 Q1118.33 1455.22 1120.91 1455.79 Q1123.48 1456.33 1125.9 1457.44 Z" fill="#000000" fill-rule="evenodd" fill-opacity="1" /><path clip-path="url(#clip290)" d="M 0 0 M1162.54 1472.44 L1162.54 1475.3 L1135.61 1475.3 Q1135.99 1481.35 1139.24 1484.53 Q1142.52 1487.68 1148.34 1487.68 Q1151.72 1487.68 1154.87 1486.85 Q1158.05 1486.03 1161.17 1484.37 L1161.17 1489.91 Q1158.02 1491.25 1154.71 1491.95 Q1151.4 1492.65 1147.99 1492.65 Q1139.46 1492.65 1134.47 1487.68 Q1129.5 1482.72 1129.5 1474.25 Q1129.5 1465.5 1134.21 1460.37 Q1138.95 1455.22 1146.97 1455.22 Q1154.17 1455.22 1158.34 1459.86 Q1162.54 1464.48 1162.54 1472.44 M1156.68 1470.72 Q1156.62 1465.91 1153.98 1463.05 Q1151.37 1460.18 1147.04 1460.18 Q1142.14 1460.18 1139.18 1462.95 Q1136.25 1465.72 1135.8 1470.75 L1156.68 1470.72 Z" fill="#000000" fill-rule="evenodd" fill-opacity="1" /><path clip-path="url(#clip290)" d="M 0 0 M1207.45 1442.2 L1207.45 1447.07 L1201.85 1447.07 Q1198.7 1447.07 1197.45 1448.34 Q1196.24 1449.61 1196.24 1452.92 L1196.24 1456.08 L1205.89 1456.08 L1205.89 1460.63 L1196.24 1460.63 L1196.24 1491.72 L1190.36 1491.72 L1190.36 1460.63 L1184.75 1460.63 L1184.75 1456.08 L1190.36 1456.08 L1190.36 1453.59 Q1190.36 1447.64 1193.13 1444.94 Q1195.89 1442.2 1201.91 1442.2 L1207.45 1442.2 Z" fill="#000000" fill-rule="evenodd" fill-opacity="1" /><path clip-path="url(#clip290)" d="M 0 0 M1234.25 1461.55 Q1233.26 1460.98 1232.08 1460.72 Q1230.94 1460.44 1229.54 1460.44 Q1224.57 1460.44 1221.9 1463.68 Q1219.26 1466.9 1219.26 1472.95 L1219.26 1491.72 L1213.37 1491.72 L1213.37 1456.08 L1219.26 1456.08 L1219.26 1461.61 Q1221.1 1458.37 1224.06 1456.81 Q1227.02 1455.22 1231.26 1455.22 Q1231.86 1455.22 1232.59 1455.31 Q1233.32 1455.38 1234.22 1455.53 L1234.25 1461.55 Z" fill="#000000" fill-rule="evenodd" fill-opacity="1" /><path clip-path="url(#clip290)" d="M 0 0 M1252.77 1460.18 Q1248.06 1460.18 1245.32 1463.87 Q1242.59 1467.53 1242.59 1473.93 Q1242.59 1480.33 1245.29 1484.02 Q1248.03 1487.68 1252.77 1487.68 Q1257.45 1487.68 1260.19 1483.99 Q1262.92 1480.3 1262.92 1473.93 Q1262.92 1467.6 1260.19 1463.91 Q1257.45 1460.18 1252.77 1460.18 M1252.77 1455.22 Q1260.41 1455.22 1264.77 1460.18 Q1269.13 1465.15 1269.13 1473.93 Q1269.13 1482.68 1264.77 1487.68 Q1260.41 1492.65 1252.77 1492.65 Q1245.1 1492.65 1240.74 1487.68 Q1236.41 1482.68 1236.41 1473.93 Q1236.41 1465.15 1240.74 1460.18 Q1245.1 1455.22 1252.77 1455.22 Z" fill="#000000" fill-rule="evenodd" fill-opacity="1" /><path clip-path="url(#clip290)" d="M 0 0 M1303.03 1462.92 Q1305.23 1458.97 1308.28 1457.09 Q1311.34 1455.22 1315.47 1455.22 Q1321.04 1455.22 1324.07 1459.13 Q1327.09 1463.01 1327.09 1470.21 L1327.09 1491.72 L1321.2 1491.72 L1321.2 1470.4 Q1321.2 1465.27 1319.39 1462.79 Q1317.57 1460.31 1313.85 1460.31 Q1309.3 1460.31 1306.66 1463.33 Q1304.02 1466.36 1304.02 1471.58 L1304.02 1491.72 L1298.13 1491.72 L1298.13 1470.4 Q1298.13 1465.24 1296.31 1462.79 Q1294.5 1460.31 1290.71 1460.31 Q1286.22 1460.31 1283.58 1463.36 Q1280.94 1466.39 1280.94 1471.58 L1280.94 1491.72 L1275.05 1491.72 L1275.05 1456.08 L1280.94 1456.08 L1280.94 1461.61 Q1282.95 1458.34 1285.75 1456.78 Q1288.55 1455.22 1292.4 1455.22 Q1296.28 1455.22 1298.99 1457.19 Q1301.72 1459.16 1303.03 1462.92 Z" fill="#000000" fill-rule="evenodd" fill-opacity="1" /><path clip-path="url(#clip290)" d="M 0 0 M1383.59 1470.21 L1383.59 1491.72 L1377.73 1491.72 L1377.73 1470.4 Q1377.73 1465.34 1375.76 1462.82 Q1373.78 1460.31 1369.84 1460.31 Q1365.09 1460.31 1362.36 1463.33 Q1359.62 1466.36 1359.62 1471.58 L1359.62 1491.72 L1353.73 1491.72 L1353.73 1442.2 L1359.62 1442.2 L1359.62 1461.61 Q1361.72 1458.4 1364.55 1456.81 Q1367.42 1455.22 1371.14 1455.22 Q1377.28 1455.22 1380.44 1459.04 Q1383.59 1462.82 1383.59 1470.21 Z" fill="#000000" fill-rule="evenodd" fill-opacity="1" /><path clip-path="url(#clip290)" d="M 0 0 M1403.54 1460.18 Q1398.83 1460.18 1396.1 1463.87 Q1393.36 1467.53 1393.36 1473.93 Q1393.36 1480.33 1396.06 1484.02 Q1398.8 1487.68 1403.54 1487.68 Q1408.22 1487.68 1410.96 1483.99 Q1413.7 1480.3 1413.7 1473.93 Q1413.7 1467.6 1410.96 1463.91 Q1408.22 1460.18 1403.54 1460.18 M1403.54 1455.22 Q1411.18 1455.22 1415.54 1460.18 Q1419.9 1465.15 1419.9 1473.93 Q1419.9 1482.68 1415.54 1487.68 Q1411.18 1492.65 1403.54 1492.65 Q1395.87 1492.65 1391.51 1487.68 Q1387.18 1482.68 1387.18 1473.93 Q1387.18 1465.15 1391.51 1460.18 Q1395.87 1455.22 1403.54 1455.22 Z" fill="#000000" fill-rule="evenodd" fill-opacity="1" /><path clip-path="url(#clip290)" d="M 0 0 M1426.05 1442.2 L1431.9 1442.2 L1431.9 1491.72 L1426.05 1491.72 L1426.05 1442.2 Z" fill="#000000" fill-rule="evenodd" fill-opacity="1" /><path clip-path="url(#clip290)" d="M 0 0 M1468.54 1472.44 L1468.54 1475.3 L1441.61 1475.3 Q1441.99 1481.35 1445.24 1484.53 Q1448.52 1487.68 1454.34 1487.68 Q1457.72 1487.68 1460.87 1486.85 Q1464.05 1486.03 1467.17 1484.37 L1467.17 1489.91 Q1464.02 1491.25 1460.71 1491.95 Q1457.4 1492.65 1453.99 1492.65 Q1445.46 1492.65 1440.46 1487.68 Q1435.5 1482.72 1435.5 1474.25 Q1435.5 1465.5 1440.21 1460.37 Q1444.95 1455.22 1452.97 1455.22 Q1460.17 1455.22 1464.34 1459.86 Q1468.54 1464.48 1468.54 1472.44 M1462.68 1470.72 Q1462.62 1465.91 1459.98 1463.05 Q1457.37 1460.18 1453.04 1460.18 Q1448.14 1460.18 1445.18 1462.95 Q1442.25 1465.72 1441.8 1470.75 L1462.68 1470.72 Z" fill="#000000" fill-rule="evenodd" fill-opacity="1" /><path clip-path="url(#clip290)" d="M 0 0 M1509.47 1442.26 Q1505.2 1449.58 1503.13 1456.74 Q1501.07 1463.91 1501.07 1471.26 Q1501.07 1478.61 1503.13 1485.84 Q1505.24 1493.03 1509.47 1500.32 L1504.38 1500.32 Q1499.6 1492.84 1497.21 1485.61 Q1494.86 1478.39 1494.86 1471.26 Q1494.86 1464.16 1497.21 1456.97 Q1499.57 1449.77 1504.38 1442.26 L1509.47 1442.26 Z" fill="#000000" fill-rule="evenodd" fill-opacity="1" /><path clip-path="url(#clip290)" d="M 0 0 M1533.66 1442.2 L1533.66 1447.07 L1528.06 1447.07 Q1524.91 1447.07 1523.66 1448.34 Q1522.45 1449.61 1522.45 1452.92 L1522.45 1456.08 L1532.1 1456.08 L1532.1 1460.63 L1522.45 1460.63 L1522.45 1491.72 L1516.57 1491.72 L1516.57 1460.63 L1510.96 1460.63 L1510.96 1456.08 L1516.57 1456.08 L1516.57 1453.59 Q1516.57 1447.64 1519.34 1444.94 Q1522.1 1442.2 1528.12 1442.2 L1533.66 1442.2 Z" fill="#000000" fill-rule="evenodd" fill-opacity="1" /><path clip-path="url(#clip290)" d="M 0 0 M1544.45 1445.95 L1544.45 1456.08 L1556.51 1456.08 L1556.51 1460.63 L1544.45 1460.63 L1544.45 1479.98 Q1544.45 1484.34 1545.63 1485.58 Q1546.84 1486.82 1550.5 1486.82 L1556.51 1486.82 L1556.51 1491.72 L1550.5 1491.72 Q1543.72 1491.72 1541.14 1489.21 Q1538.56 1486.66 1538.56 1479.98 L1538.56 1460.63 L1534.26 1460.63 L1534.26 1456.08 L1538.56 1456.08 L1538.56 1445.95 L1544.45 1445.95 Z" fill="#000000" fill-rule="evenodd" fill-opacity="1" /><path clip-path="url(#clip290)" d="M 0 0 M1561.73 1442.26 L1566.82 1442.26 Q1571.6 1449.77 1573.95 1456.97 Q1576.34 1464.16 1576.34 1471.26 Q1576.34 1478.39 1573.95 1485.61 Q1571.6 1492.84 1566.82 1500.32 L1561.73 1500.32 Q1565.96 1493.03 1568.03 1485.84 Q1570.13 1478.61 1570.13 1471.26 Q1570.13 1463.91 1568.03 1456.74 Q1565.96 1449.58 1561.73 1442.26 Z" fill="#000000" fill-rule="evenodd" fill-opacity="1" /><path clip-path="url(#clip290)" d="M 0 0 M46.7277 1014.29 L64.5835 1014.29 L64.5835 1006.21 Q64.5835 1001.72 62.26 999.267 Q59.9365 996.816 55.6397 996.816 Q51.3747 996.816 49.0512 999.267 Q46.7277 1001.72 46.7277 1006.21 L46.7277 1014.29 M41.4442 1020.72 L41.4442 1006.21 Q41.4442 998.216 45.0726 994.142 Q48.6692 990.037 55.6397 990.037 Q62.6738 990.037 66.2704 994.142 Q69.867 998.216 69.867 1006.21 L69.867 1014.29 L88.9642 1014.29 L88.9642 1020.72 L41.4442 1020.72 Z" fill="#000000" fill-rule="evenodd" fill-opacity="1" /><path clip-path="url(#clip290)" d="M 0 0 M58.7907 964.383 Q58.2178 965.369 57.9632 966.547 Q57.6767 967.693 57.6767 969.093 Q57.6767 974.059 60.9232 976.732 Q64.1379 979.374 70.1853 979.374 L88.9642 979.374 L88.9642 985.262 L53.3162 985.262 L53.3162 979.374 L58.8544 979.374 Q55.6079 977.528 54.0483 974.568 Q52.4568 971.608 52.4568 967.375 Q52.4568 966.77 52.5523 966.038 Q52.616 965.306 52.7751 964.415 L58.7907 964.383 Z" fill="#000000" fill-rule="evenodd" fill-opacity="1" /><path clip-path="url(#clip290)" d="M 0 0 M57.4221 945.859 Q57.4221 950.569 61.1142 953.306 Q64.7745 956.044 71.172 956.044 Q77.5695 956.044 81.2617 953.338 Q84.9219 950.601 84.9219 945.859 Q84.9219 941.18 81.2298 938.442 Q77.5377 935.705 71.172 935.705 Q64.8381 935.705 61.146 938.442 Q57.4221 941.18 57.4221 945.859 M52.4568 945.859 Q52.4568 938.22 57.4221 933.859 Q62.3873 929.499 71.172 929.499 Q79.9249 929.499 84.9219 933.859 Q89.8872 938.22 89.8872 945.859 Q89.8872 953.529 84.9219 957.89 Q79.9249 962.218 71.172 962.218 Q62.3873 962.218 57.4221 957.89 Q52.4568 953.529 52.4568 945.859 Z" fill="#000000" fill-rule="evenodd" fill-opacity="1" /><path clip-path="url(#clip290)" d="M 0 0 M71.172 897.766 Q64.7108 897.766 61.0505 900.439 Q57.3584 903.081 57.3584 907.728 Q57.3584 912.375 61.0505 915.048 Q64.7108 917.69 71.172 917.69 Q77.6332 917.69 81.3253 915.048 Q84.9856 912.375 84.9856 907.728 Q84.9856 903.081 81.3253 900.439 Q77.6332 897.766 71.172 897.766 M58.7271 917.69 Q55.5442 915.844 54.0164 913.043 Q52.4568 910.211 52.4568 906.296 Q52.4568 899.803 57.6131 895.76 Q62.7693 891.686 71.172 891.686 Q79.5747 891.686 84.731 895.76 Q89.8872 899.803 89.8872 906.296 Q89.8872 910.211 88.3594 913.043 Q86.7998 915.844 83.617 917.69 L88.9642 917.69 L88.9642 923.579 L39.439 923.579 L39.439 917.69 L58.7271 917.69 Z" fill="#000000" fill-rule="evenodd" fill-opacity="1" /><path clip-path="url(#clip290)" d="M 0 0 M71.0447 869.343 Q71.0447 876.44 72.6679 879.178 Q74.2912 881.915 78.2061 881.915 Q81.3253 881.915 83.1714 879.878 Q84.9856 877.809 84.9856 874.276 Q84.9856 869.406 81.5481 866.478 Q78.0788 863.518 72.3497 863.518 L71.0447 863.518 L71.0447 869.343 M68.6257 857.662 L88.9642 857.662 L88.9642 863.518 L83.5533 863.518 Q86.7998 865.523 88.3594 868.515 Q89.8872 871.507 89.8872 875.836 Q89.8872 881.31 86.8316 884.557 Q83.7443 887.771 78.5881 887.771 Q72.5725 887.771 69.5169 883.761 Q66.4614 879.719 66.4614 871.73 L66.4614 863.518 L65.8885 863.518 Q61.8462 863.518 59.6501 866.192 Q57.4221 868.833 57.4221 873.64 Q57.4221 876.695 58.1541 879.591 Q58.8862 882.488 60.3503 885.161 L54.9395 885.161 Q53.6981 881.947 53.0934 878.923 Q52.4568 875.899 52.4568 873.035 Q52.4568 865.3 56.4672 861.481 Q60.4776 857.662 68.6257 857.662 Z" fill="#000000" fill-rule="evenodd" fill-opacity="1" /><path clip-path="url(#clip290)" d="M 0 0 M71.172 825.929 Q64.7108 825.929 61.0505 828.602 Q57.3584 831.244 57.3584 835.891 Q57.3584 840.538 61.0505 843.211 Q64.7108 845.853 71.172 845.853 Q77.6332 845.853 81.3253 843.211 Q84.9856 840.538 84.9856 835.891 Q84.9856 831.244 81.3253 828.602 Q77.6332 825.929 71.172 825.929 M58.7271 845.853 Q55.5442 844.007 54.0164 841.206 Q52.4568 838.374 52.4568 834.459 Q52.4568 827.966 57.6131 823.923 Q62.7693 819.849 71.172 819.849 Q79.5747 819.849 84.731 823.923 Q89.8872 827.966 89.8872 834.459 Q89.8872 838.374 88.3594 841.206 Q86.7998 844.007 83.617 845.853 L88.9642 845.853 L88.9642 851.742 L39.439 851.742 L39.439 845.853 L58.7271 845.853 Z" fill="#000000" fill-rule="evenodd" fill-opacity="1" /><path clip-path="url(#clip290)" d="M 0 0 M53.3162 813.706 L53.3162 807.85 L88.9642 807.85 L88.9642 813.706 L53.3162 813.706 M39.439 813.706 L39.439 807.85 L46.855 807.85 L46.855 813.706 L39.439 813.706 Z" fill="#000000" fill-rule="evenodd" fill-opacity="1" /><path clip-path="url(#clip290)" d="M 0 0 M39.439 801.707 L39.439 795.851 L88.9642 795.851 L88.9642 801.707 L39.439 801.707 Z" fill="#000000" fill-rule="evenodd" fill-opacity="1" /><path clip-path="url(#clip290)" d="M 0 0 M53.3162 789.708 L53.3162 783.851 L88.9642 783.851 L88.9642 789.708 L53.3162 789.708 M39.439 789.708 L39.439 783.851 L46.855 783.851 L46.855 789.708 L39.439 789.708 Z" fill="#000000" fill-rule="evenodd" fill-opacity="1" /><path clip-path="url(#clip290)" d="M 0 0 M43.1947 771.916 L53.3162 771.916 L53.3162 759.853 L57.8677 759.853 L57.8677 771.916 L77.2194 771.916 Q81.5799 771.916 82.8213 770.738 Q84.0626 769.528 84.0626 765.868 L84.0626 759.853 L88.9642 759.853 L88.9642 765.868 Q88.9642 772.648 86.4497 775.226 Q83.9034 777.804 77.2194 777.804 L57.8677 777.804 L57.8677 782.101 L53.3162 782.101 L53.3162 777.804 L43.1947 777.804 L43.1947 771.916 Z" fill="#000000" fill-rule="evenodd" fill-opacity="1" /><path clip-path="url(#clip290)" d="M 0 0 M92.2743 738.878 Q98.64 741.36 100.582 743.715 Q102.523 746.071 102.523 750.018 L102.523 754.696 L97.6215 754.696 L97.6215 751.259 Q97.6215 748.84 96.4757 747.503 Q95.3299 746.166 91.0648 744.543 L88.3912 743.493 L53.3162 757.911 L53.3162 751.704 L81.198 740.564 L53.3162 729.424 L53.3162 723.218 L92.2743 738.878 Z" fill="#000000" fill-rule="evenodd" fill-opacity="1" /><path clip-path="url(#clip290)" d="M 0 0 M57.4221 682.541 Q57.4221 687.252 61.1142 689.989 Q64.7745 692.726 71.172 692.726 Q77.5695 692.726 81.2617 690.021 Q84.9219 687.284 84.9219 682.541 Q84.9219 677.862 81.2298 675.125 Q77.5377 672.388 71.172 672.388 Q64.8381 672.388 61.146 675.125 Q57.4221 677.862 57.4221 682.541 M52.4568 682.541 Q52.4568 674.902 57.4221 670.542 Q62.3873 666.181 71.172 666.181 Q79.9249 666.181 84.9219 670.542 Q89.8872 674.902 89.8872 682.541 Q89.8872 690.212 84.9219 694.572 Q79.9249 698.901 71.172 698.901 Q62.3873 698.901 57.4221 694.572 Q52.4568 690.212 52.4568 682.541 Z" fill="#000000" fill-rule="evenodd" fill-opacity="1" /><path clip-path="url(#clip290)" d="M 0 0 M39.439 641.991 L44.3087 641.991 L44.3087 647.593 Q44.3087 650.744 45.5819 651.986 Q46.855 653.195 50.1652 653.195 L53.3162 653.195 L53.3162 643.551 L57.8677 643.551 L57.8677 653.195 L88.9642 653.195 L88.9642 659.083 L57.8677 659.083 L57.8677 664.685 L53.3162 664.685 L53.3162 659.083 L50.8336 659.083 Q44.8816 659.083 42.1762 656.314 Q39.439 653.545 39.439 647.53 L39.439 641.991 Z" fill="#000000" fill-rule="evenodd" fill-opacity="1" /><path clip-path="url(#clip290)" d="M 0 0 M43.0038 586.387 L49.274 586.387 Q47.5234 590.047 46.664 593.294 Q45.8047 596.54 45.8047 599.564 Q45.8047 604.816 47.8417 607.68 Q49.8787 610.513 53.6345 610.513 Q56.7855 610.513 58.4088 608.635 Q60.0002 606.725 60.9869 601.442 L61.7826 597.559 Q63.1512 590.366 66.6205 586.96 Q70.058 583.522 75.8508 583.522 Q82.7576 583.522 86.3224 588.169 Q89.8872 592.785 89.8872 601.728 Q89.8872 605.102 89.1233 608.922 Q88.3594 612.709 86.8635 616.783 L80.2431 616.783 Q82.4393 612.868 83.5533 609.113 Q84.6673 605.357 84.6673 601.728 Q84.6673 596.222 82.503 593.23 Q80.3386 590.238 76.3282 590.238 Q72.8271 590.238 70.8537 592.403 Q68.8804 594.535 67.8937 599.437 L67.1298 603.352 Q65.6975 610.545 62.642 613.76 Q59.5864 616.974 54.1437 616.974 Q47.8417 616.974 44.2132 612.55 Q40.5848 608.094 40.5848 600.296 Q40.5848 596.954 41.1895 593.485 Q41.7943 590.016 43.0038 586.387 Z" fill="#000000" fill-rule="evenodd" fill-opacity="1" /><path clip-path="url(#clip290)" d="M 0 0 M74.8959 577.984 L53.3162 577.984 L53.3162 572.128 L74.6731 572.128 Q79.7339 572.128 82.2802 570.155 Q84.7946 568.181 84.7946 564.234 Q84.7946 559.492 81.7709 556.755 Q78.7472 553.986 73.5273 553.986 L53.3162 553.986 L53.3162 548.129 L88.9642 548.129 L88.9642 553.986 L83.4896 553.986 Q86.7362 556.118 88.3276 558.951 Q89.8872 561.752 89.8872 565.476 Q89.8872 571.619 86.0678 574.801 Q82.2483 577.984 74.8959 577.984 M52.4568 563.248 L52.4568 563.248 Z" fill="#000000" fill-rule="evenodd" fill-opacity="1" /><path clip-path="url(#clip290)" d="M 0 0 M54.6848 516.332 L60.1593 516.332 Q58.7907 518.815 58.1223 521.33 Q57.4221 523.812 57.4221 526.358 Q57.4221 532.056 61.0505 535.207 Q64.6472 538.358 71.172 538.358 Q77.6969 538.358 81.3253 535.207 Q84.9219 532.056 84.9219 526.358 Q84.9219 523.812 84.2535 521.33 Q83.5533 518.815 82.1847 516.332 L87.5955 516.332 Q88.7414 518.783 89.3143 521.425 Q89.8872 524.035 89.8872 526.995 Q89.8872 535.048 84.8264 539.79 Q79.7657 544.533 71.172 544.533 Q62.451 544.533 57.4539 539.758 Q52.4568 534.952 52.4568 526.613 Q52.4568 523.908 53.0297 521.33 Q53.5708 518.751 54.6848 516.332 Z" fill="#000000" fill-rule="evenodd" fill-opacity="1" /><path clip-path="url(#clip290)" d="M 0 0 M54.6848 484.536 L60.1593 484.536 Q58.7907 487.018 58.1223 489.533 Q57.4221 492.015 57.4221 494.562 Q57.4221 500.259 61.0505 503.41 Q64.6472 506.561 71.172 506.561 Q77.6969 506.561 81.3253 503.41 Q84.9219 500.259 84.9219 494.562 Q84.9219 492.015 84.2535 489.533 Q83.5533 487.018 82.1847 484.536 L87.5955 484.536 Q88.7414 486.987 89.3143 489.628 Q89.8872 492.238 89.8872 495.198 Q89.8872 503.251 84.8264 507.993 Q79.7657 512.736 71.172 512.736 Q62.451 512.736 57.4539 507.962 Q52.4568 503.155 52.4568 494.816 Q52.4568 492.111 53.0297 489.533 Q53.5708 486.955 54.6848 484.536 Z" fill="#000000" fill-rule="evenodd" fill-opacity="1" /><path clip-path="url(#clip290)" d="M 0 0 M69.6761 447.901 L72.5406 447.901 L72.5406 474.828 Q78.5881 474.446 81.7709 471.2 Q84.9219 467.921 84.9219 462.097 Q84.9219 458.723 84.0944 455.572 Q83.2669 452.389 81.6118 449.27 L87.1499 449.27 Q88.4867 452.421 89.187 455.731 Q89.8872 459.041 89.8872 462.447 Q89.8872 470.977 84.9219 475.974 Q79.9567 480.939 71.4903 480.939 Q62.7374 480.939 57.6131 476.228 Q52.4568 471.486 52.4568 463.465 Q52.4568 456.272 57.1038 452.102 Q61.7189 447.901 69.6761 447.901 M67.9573 453.758 Q63.1512 453.821 60.2866 456.463 Q57.4221 459.073 57.4221 463.402 Q57.4221 468.303 60.1912 471.263 Q62.9602 474.191 67.9892 474.637 L67.9573 453.758 Z" fill="#000000" fill-rule="evenodd" fill-opacity="1" /><path clip-path="url(#clip290)" d="M 0 0 M54.3665 419.033 L59.9047 419.033 Q58.6316 421.515 57.995 424.189 Q57.3584 426.862 57.3584 429.727 Q57.3584 434.088 58.6952 436.284 Q60.032 438.448 62.7056 438.448 Q64.7426 438.448 65.9203 436.888 Q67.0661 435.329 68.1165 430.618 L68.5621 428.613 Q69.8989 422.375 72.3497 419.765 Q74.7686 417.123 79.1291 417.123 Q84.0944 417.123 86.9908 421.07 Q89.8872 424.985 89.8872 431.86 Q89.8872 434.724 89.3143 437.843 Q88.7732 440.931 87.6592 444.368 L81.6118 444.368 Q83.2987 441.122 84.158 437.971 Q84.9856 434.82 84.9856 431.732 Q84.9856 427.595 83.5851 425.367 Q82.1529 423.139 79.5747 423.139 Q77.1876 423.139 75.9145 424.762 Q74.6413 426.353 73.4637 431.796 L72.9862 433.833 Q71.8404 439.276 69.4851 441.695 Q67.098 444.114 62.9602 444.114 Q57.9313 444.114 55.1941 440.549 Q52.4568 436.984 52.4568 430.427 Q52.4568 427.181 52.9343 424.316 Q53.4117 421.452 54.3665 419.033 Z" fill="#000000" fill-rule="evenodd" fill-opacity="1" /><path clip-path="url(#clip290)" d="M 0 0 M54.3665 388.254 L59.9047 388.254 Q58.6316 390.737 57.995 393.411 Q57.3584 396.084 57.3584 398.949 Q57.3584 403.309 58.6952 405.505 Q60.032 407.67 62.7056 407.67 Q64.7426 407.67 65.9203 406.11 Q67.0661 404.551 68.1165 399.84 L68.5621 397.835 Q69.8989 391.596 72.3497 388.986 Q74.7686 386.345 79.1291 386.345 Q84.0944 386.345 86.9908 390.291 Q89.8872 394.206 89.8872 401.081 Q89.8872 403.946 89.3143 407.065 Q88.7732 410.152 87.6592 413.59 L81.6118 413.59 Q83.2987 410.343 84.158 407.192 Q84.9856 404.041 84.9856 400.954 Q84.9856 396.816 83.5851 394.588 Q82.1529 392.36 79.5747 392.36 Q77.1876 392.36 75.9145 393.984 Q74.6413 395.575 73.4637 401.018 L72.9862 403.055 Q71.8404 408.497 69.4851 410.916 Q67.098 413.335 62.9602 413.335 Q57.9313 413.335 55.1941 409.771 Q52.4568 406.206 52.4568 399.649 Q52.4568 396.403 52.9343 393.538 Q53.4117 390.673 54.3665 388.254 Z" fill="#000000" fill-rule="evenodd" fill-opacity="1" /><circle clip-path="url(#clip292)" cx="335.435" cy="168.519" r="14" fill="#009af9" fill-rule="evenodd" fill-opacity="1" stroke="#000000" stroke-opacity="1" stroke-width="3.072"/>
<circle clip-path="url(#clip292)" cx="359.335" cy="295.486" r="14" fill="#009af9" fill-rule="evenodd" fill-opacity="1" stroke="#000000" stroke-opacity="1" stroke-width="3.072"/>
<circle clip-path="url(#clip292)" cx="383.234" cy="409.159" r="14" fill="#009af9" fill-rule="evenodd" fill-opacity="1" stroke="#000000" stroke-opacity="1" stroke-width="3.072"/>
<circle clip-path="url(#clip292)" cx="407.134" cy="598.825" r="14" fill="#009af9" fill-rule="evenodd" fill-opacity="1" stroke="#000000" stroke-opacity="1" stroke-width="3.072"/>
<circle clip-path="url(#clip292)" cx="431.033" cy="650.732" r="14" fill="#009af9" fill-rule="evenodd" fill-opacity="1" stroke="#000000" stroke-opacity="1" stroke-width="3.072"/>
<circle clip-path="url(#clip292)" cx="454.933" cy="671.455" r="14" fill="#009af9" fill-rule="evenodd" fill-opacity="1" stroke="#000000" stroke-opacity="1" stroke-width="3.072"/>
<circle clip-path="url(#clip292)" cx="478.832" cy="757.568" r="14" fill="#009af9" fill-rule="evenodd" fill-opacity="1" stroke="#000000" stroke-opacity="1" stroke-width="3.072"/>
<circle clip-path="url(#clip292)" cx="502.732" cy="938.596" r="14" fill="#009af9" fill-rule="evenodd" fill-opacity="1" stroke="#000000" stroke-opacity="1" stroke-width="3.072"/>
<circle clip-path="url(#clip292)" cx="526.631" cy="917.268" r="14" fill="#009af9" fill-rule="evenodd" fill-opacity="1" stroke="#000000" stroke-opacity="1" stroke-width="3.072"/>
<circle clip-path="url(#clip292)" cx="550.531" cy="940.496" r="14" fill="#009af9" fill-rule="evenodd" fill-opacity="1" stroke="#000000" stroke-opacity="1" stroke-width="3.072"/>
<circle clip-path="url(#clip292)" cx="574.431" cy="1014.43" r="14" fill="#009af9" fill-rule="evenodd" fill-opacity="1" stroke="#000000" stroke-opacity="1" stroke-width="3.072"/>
<circle clip-path="url(#clip292)" cx="598.33" cy="1036.78" r="14" fill="#009af9" fill-rule="evenodd" fill-opacity="1" stroke="#000000" stroke-opacity="1" stroke-width="3.072"/>
<circle clip-path="url(#clip292)" cx="622.23" cy="948.15" r="14" fill="#009af9" fill-rule="evenodd" fill-opacity="1" stroke="#000000" stroke-opacity="1" stroke-width="3.072"/>
<circle clip-path="url(#clip292)" cx="646.129" cy="1126.86" r="14" fill="#009af9" fill-rule="evenodd" fill-opacity="1" stroke="#000000" stroke-opacity="1" stroke-width="3.072"/>
<circle clip-path="url(#clip292)" cx="670.029" cy="1168.62" r="14" fill="#009af9" fill-rule="evenodd" fill-opacity="1" stroke="#000000" stroke-opacity="1" stroke-width="3.072"/>
<circle clip-path="url(#clip292)" cx="693.928" cy="1137.75" r="14" fill="#009af9" fill-rule="evenodd" fill-opacity="1" stroke="#000000" stroke-opacity="1" stroke-width="3.072"/>
<circle clip-path="url(#clip292)" cx="717.828" cy="1120.46" r="14" fill="#009af9" fill-rule="evenodd" fill-opacity="1" stroke="#000000" stroke-opacity="1" stroke-width="3.072"/>
<circle clip-path="url(#clip292)" cx="741.727" cy="1166.46" r="14" fill="#009af9" fill-rule="evenodd" fill-opacity="1" stroke="#000000" stroke-opacity="1" stroke-width="3.072"/>
<circle clip-path="url(#clip292)" cx="765.627" cy="1139.1" r="14" fill="#009af9" fill-rule="evenodd" fill-opacity="1" stroke="#000000" stroke-opacity="1" stroke-width="3.072"/>
<circle clip-path="url(#clip292)" cx="294.328" cy="84.7369" r="14" fill="#e26f46" fill-rule="evenodd" fill-opacity="1" stroke="#000000" stroke-opacity="1" stroke-width="3.072"/>
<circle clip-path="url(#clip292)" cx="310.819" cy="85.1493" r="14" fill="#e26f46" fill-rule="evenodd" fill-opacity="1" stroke="#000000" stroke-opacity="1" stroke-width="3.072"/>
<circle clip-path="url(#clip292)" cx="333.762" cy="91.0383" r="14" fill="#e26f46" fill-rule="evenodd" fill-opacity="1" stroke="#000000" stroke-opacity="1" stroke-width="3.072"/>
<circle clip-path="url(#clip292)" cx="357.423" cy="130.184" r="14" fill="#e26f46" fill-rule="evenodd" fill-opacity="1" stroke="#000000" stroke-opacity="1" stroke-width="3.072"/>
<circle clip-path="url(#clip292)" cx="381.561" cy="238.908" r="14" fill="#e26f46" fill-rule="evenodd" fill-opacity="1" stroke="#000000" stroke-opacity="1" stroke-width="3.072"/>
<circle clip-path="url(#clip292)" cx="405.7" cy="377.343" r="14" fill="#e26f46" fill-rule="evenodd" fill-opacity="1" stroke="#000000" stroke-opacity="1" stroke-width="3.072"/>
<circle clip-path="url(#clip292)" cx="429.599" cy="515.114" r="14" fill="#e26f46" fill-rule="evenodd" fill-opacity="1" stroke="#000000" stroke-opacity="1" stroke-width="3.072"/>
<circle clip-path="url(#clip292)" cx="453.738" cy="615.633" r="14" fill="#e26f46" fill-rule="evenodd" fill-opacity="1" stroke="#000000" stroke-opacity="1" stroke-width="3.072"/>
<circle clip-path="url(#clip292)" cx="477.637" cy="711.444" r="14" fill="#e26f46" fill-rule="evenodd" fill-opacity="1" stroke="#000000" stroke-opacity="1" stroke-width="3.072"/>
<circle clip-path="url(#clip292)" cx="501.537" cy="788.384" r="14" fill="#e26f46" fill-rule="evenodd" fill-opacity="1" stroke="#000000" stroke-opacity="1" stroke-width="3.072"/>
<circle clip-path="url(#clip292)" cx="525.436" cy="853.12" r="14" fill="#e26f46" fill-rule="evenodd" fill-opacity="1" stroke="#000000" stroke-opacity="1" stroke-width="3.072"/>
<circle clip-path="url(#clip292)" cx="549.336" cy="905.719" r="14" fill="#e26f46" fill-rule="evenodd" fill-opacity="1" stroke="#000000" stroke-opacity="1" stroke-width="3.072"/>
<circle clip-path="url(#clip292)" cx="573.236" cy="946.048" r="14" fill="#e26f46" fill-rule="evenodd" fill-opacity="1" stroke="#000000" stroke-opacity="1" stroke-width="3.072"/>
<circle clip-path="url(#clip292)" cx="597.135" cy="984.695" r="14" fill="#e26f46" fill-rule="evenodd" fill-opacity="1" stroke="#000000" stroke-opacity="1" stroke-width="3.072"/>
<circle clip-path="url(#clip292)" cx="632.506" cy="1039.02" r="14" fill="#e26f46" fill-rule="evenodd" fill-opacity="1" stroke="#000000" stroke-opacity="1" stroke-width="3.072"/>
<circle clip-path="url(#clip292)" cx="680.305" cy="1084.48" r="14" fill="#e26f46" fill-rule="evenodd" fill-opacity="1" stroke="#000000" stroke-opacity="1" stroke-width="3.072"/>
<circle clip-path="url(#clip292)" cx="728.343" cy="1127.01" r="14" fill="#e26f46" fill-rule="evenodd" fill-opacity="1" stroke="#000000" stroke-opacity="1" stroke-width="3.072"/>
<circle clip-path="url(#clip292)" cx="776.142" cy="1155.9" r="14" fill="#e26f46" fill-rule="evenodd" fill-opacity="1" stroke="#000000" stroke-opacity="1" stroke-width="3.072"/>
<circle clip-path="url(#clip292)" cx="812.231" cy="1181.51" r="14" fill="#e26f46" fill-rule="evenodd" fill-opacity="1" stroke="#000000" stroke-opacity="1" stroke-width="3.072"/>
<circle clip-path="url(#clip292)" cx="870.546" cy="1208.66" r="14" fill="#e26f46" fill-rule="evenodd" fill-opacity="1" stroke="#000000" stroke-opacity="1" stroke-width="3.072"/>
<circle clip-path="url(#clip292)" cx="966.383" cy="1239.73" r="14" fill="#e26f46" fill-rule="evenodd" fill-opacity="1" stroke="#000000" stroke-opacity="1" stroke-width="3.072"/>
<circle clip-path="url(#clip292)" cx="1061.74" cy="1257.86" r="14" fill="#e26f46" fill-rule="evenodd" fill-opacity="1" stroke="#000000" stroke-opacity="1" stroke-width="3.072"/>
<circle clip-path="url(#clip292)" cx="1157.34" cy="1271.96" r="14" fill="#e26f46" fill-rule="evenodd" fill-opacity="1" stroke="#000000" stroke-opacity="1" stroke-width="3.072"/>
<circle clip-path="url(#clip292)" cx="1252.46" cy="1285.58" r="14" fill="#e26f46" fill-rule="evenodd" fill-opacity="1" stroke="#000000" stroke-opacity="1" stroke-width="3.072"/>
<circle clip-path="url(#clip292)" cx="1348.3" cy="1293.05" r="14" fill="#e26f46" fill-rule="evenodd" fill-opacity="1" stroke="#000000" stroke-opacity="1" stroke-width="3.072"/>
<circle clip-path="url(#clip292)" cx="1443.66" cy="1303.78" r="14" fill="#e26f46" fill-rule="evenodd" fill-opacity="1" stroke="#000000" stroke-opacity="1" stroke-width="3.072"/>
<circle clip-path="url(#clip292)" cx="1539.02" cy="1303.65" r="14" fill="#e26f46" fill-rule="evenodd" fill-opacity="1" stroke="#000000" stroke-opacity="1" stroke-width="3.072"/>
<circle clip-path="url(#clip292)" cx="1655.88" cy="1308.09" r="14" fill="#e26f46" fill-rule="evenodd" fill-opacity="1" stroke="#000000" stroke-opacity="1" stroke-width="3.072"/>
<circle clip-path="url(#clip292)" cx="1798.8" cy="1313.38" r="14" fill="#e26f46" fill-rule="evenodd" fill-opacity="1" stroke="#000000" stroke-opacity="1" stroke-width="3.072"/>
<circle clip-path="url(#clip292)" cx="1941.01" cy="1322.67" r="14" fill="#e26f46" fill-rule="evenodd" fill-opacity="1" stroke="#000000" stroke-opacity="1" stroke-width="3.072"/>
<circle clip-path="url(#clip292)" cx="2084.64" cy="1319.62" r="14" fill="#e26f46" fill-rule="evenodd" fill-opacity="1" stroke="#000000" stroke-opacity="1" stroke-width="3.072"/>
<polyline clip-path="url(#clip292)" style="stroke:#009af9; stroke-width:4; stroke-opacity:1; fill:none" points="
  311.536,84.3925 335.435,140.002 359.335,310.291 383.234,479.028 407.134,612.439 431.033,714.461 454.933,793.249 478.832,855.282 502.732,905.114 526.631,945.891 
  550.531,979.805 574.431,1008.42 598.33,1032.85 622.23,1053.96 646.129,1072.36 670.029,1088.53 693.928,1102.86 717.828,1115.64 741.727,1127.11 765.627,1137.45 
  789.526,1146.83 813.426,1155.37 837.325,1163.18 861.225,1170.35 885.124,1176.95 909.024,1183.05 932.923,1188.71 956.823,1193.96 980.722,1198.86 1004.62,1203.43 
  1028.52,1207.71 1052.42,1211.73 1076.32,1215.5 1100.22,1219.05 1124.12,1222.4 1148.02,1225.57 1171.92,1228.57 1195.82,1231.41 1219.72,1234.1 1243.62,1236.66 
  1267.52,1239.1 1291.42,1241.42 1315.32,1243.63 1339.22,1245.74 1363.11,1247.76 1387.01,1249.7 1410.91,1251.55 1434.81,1253.32 1458.71,1255.02 1482.61,1256.65 
  1506.51,1258.22 1530.41,1259.73 1554.31,1261.19 1578.21,1262.59 1602.11,1263.93 1626.01,1265.23 1649.91,1266.49 1673.81,1267.7 1697.71,1268.87 1721.61,1270 
  1745.51,1271.1 1769.41,1272.16 1793.31,1273.18 1817.21,1274.18 1841.11,1275.14 1865,1276.07 1888.9,1276.98 1912.8,1277.86 1936.7,1278.71 1960.6,1279.54 
  1984.5,1280.35 2008.4,1281.13 2032.3,1281.9 2056.2,1282.64 2080.1,1283.36 2104,1284.07 2127.9,1284.75 2151.8,1285.42 2175.7,1286.07 2199.6,1286.7 
  
  "/>
<path clip-path="url(#clip290)" d="
M1759.85 306.444 L2187.64 306.444 L2187.64 125.004 L1759.85 125.004  Z
  " fill="#ffffff" fill-rule="evenodd" fill-opacity="1"/>
<polyline clip-path="url(#clip290)" style="stroke:#000000; stroke-width:4; stroke-opacity:1; fill:none" points="
  1759.85,306.444 2187.64,306.444 2187.64,125.004 1759.85,125.004 1759.85,306.444 
  "/>
<circle clip-path="url(#clip290)" cx="1863.53" cy="185.484" r="23" fill="#009af9" fill-rule="evenodd" fill-opacity="1" stroke="#000000" stroke-opacity="1" stroke-width="4.9152"/>
<path clip-path="url(#clip290)" d="M 0 0 M1960.19 171.375 Q1955.1 171.375 1952.09 175.172 Q1949.1 178.968 1949.1 185.519 Q1949.1 192.047 1952.09 195.843 Q1955.1 199.639 1960.19 199.639 Q1965.28 199.639 1968.25 195.843 Q1971.23 192.047 1971.23 185.519 Q1971.23 178.968 1968.25 175.172 Q1965.28 171.375 1960.19 171.375 M1960.19 167.579 Q1967.46 167.579 1971.81 172.463 Q1976.16 177.324 1976.16 185.519 Q1976.16 193.69 1971.81 198.574 Q1967.46 203.435 1960.19 203.435 Q1952.9 203.435 1948.52 198.574 Q1944.17 193.713 1944.17 185.519 Q1944.17 177.324 1948.52 172.463 Q1952.9 167.579 1960.19 167.579 Z" fill="#000000" fill-rule="evenodd" fill-opacity="1" /><path clip-path="url(#clip290)" d="M 0 0 M1980.63 166.746 L1984.89 166.746 L1984.89 202.764 L1980.63 202.764 L1980.63 166.746 Z" fill="#000000" fill-rule="evenodd" fill-opacity="1" /><path clip-path="url(#clip290)" d="M 0 0 M2006.42 180.773 L2006.42 166.746 L2010.68 166.746 L2010.68 202.764 L2006.42 202.764 L2006.42 198.875 Q2005.08 201.19 2003.01 202.324 Q2000.98 203.435 1998.11 203.435 Q1993.41 203.435 1990.45 199.685 Q1987.51 195.935 1987.51 189.824 Q1987.51 183.713 1990.45 179.963 Q1993.41 176.213 1998.11 176.213 Q2000.98 176.213 2003.01 177.348 Q2005.08 178.459 2006.42 180.773 M1991.9 189.824 Q1991.9 194.523 1993.83 197.209 Q1995.77 199.871 1999.15 199.871 Q2002.53 199.871 2004.47 197.209 Q2006.42 194.523 2006.42 189.824 Q2006.42 185.125 2004.47 182.463 Q2002.53 179.778 1999.15 179.778 Q1995.77 179.778 1993.83 182.463 Q1991.9 185.125 1991.9 189.824 Z" fill="#000000" fill-rule="evenodd" fill-opacity="1" /><path clip-path="url(#clip290)" d="M 0 0 M2047.27 180.773 L2047.27 166.746 L2051.53 166.746 L2051.53 202.764 L2047.27 202.764 L2047.27 198.875 Q2045.93 201.19 2043.87 202.324 Q2041.83 203.435 2038.96 203.435 Q2034.26 203.435 2031.3 199.685 Q2028.36 195.935 2028.36 189.824 Q2028.36 183.713 2031.3 179.963 Q2034.26 176.213 2038.96 176.213 Q2041.83 176.213 2043.87 177.348 Q2045.93 178.459 2047.27 180.773 M2032.76 189.824 Q2032.76 194.523 2034.68 197.209 Q2036.63 199.871 2040.01 199.871 Q2043.39 199.871 2045.33 197.209 Q2047.27 194.523 2047.27 189.824 Q2047.27 185.125 2045.33 182.463 Q2043.39 179.778 2040.01 179.778 Q2036.63 179.778 2034.68 182.463 Q2032.76 185.125 2032.76 189.824 Z" fill="#000000" fill-rule="evenodd" fill-opacity="1" /><path clip-path="url(#clip290)" d="M 0 0 M2067.78 189.732 Q2062.62 189.732 2060.63 190.912 Q2058.64 192.093 2058.64 194.94 Q2058.64 197.209 2060.12 198.551 Q2061.63 199.871 2064.2 199.871 Q2067.74 199.871 2069.87 197.371 Q2072.02 194.847 2072.02 190.681 L2072.02 189.732 L2067.78 189.732 M2076.28 187.973 L2076.28 202.764 L2072.02 202.764 L2072.02 198.829 Q2070.56 201.19 2068.39 202.324 Q2066.21 203.435 2063.06 203.435 Q2059.08 203.435 2056.72 201.213 Q2054.38 198.968 2054.38 195.218 Q2054.38 190.843 2057.3 188.621 Q2060.24 186.398 2066.05 186.398 L2072.02 186.398 L2072.02 185.982 Q2072.02 183.042 2070.07 181.445 Q2068.15 179.824 2064.66 179.824 Q2062.44 179.824 2060.33 180.357 Q2058.22 180.889 2056.28 181.954 L2056.28 178.019 Q2058.62 177.116 2060.82 176.676 Q2063.01 176.213 2065.1 176.213 Q2070.72 176.213 2073.5 179.13 Q2076.28 182.047 2076.28 187.973 Z" fill="#000000" fill-rule="evenodd" fill-opacity="1" /><path clip-path="url(#clip290)" d="M 0 0 M2084.96 169.477 L2084.96 176.838 L2093.73 176.838 L2093.73 180.148 L2084.96 180.148 L2084.96 194.222 Q2084.96 197.394 2085.82 198.297 Q2086.7 199.199 2089.36 199.199 L2093.73 199.199 L2093.73 202.764 L2089.36 202.764 Q2084.43 202.764 2082.55 200.935 Q2080.68 199.084 2080.68 194.222 L2080.68 180.148 L2077.55 180.148 L2077.55 176.838 L2080.68 176.838 L2080.68 169.477 L2084.96 169.477 Z" fill="#000000" fill-rule="evenodd" fill-opacity="1" /><path clip-path="url(#clip290)" d="M 0 0 M2109.98 189.732 Q2104.82 189.732 2102.83 190.912 Q2100.84 192.093 2100.84 194.94 Q2100.84 197.209 2102.32 198.551 Q2103.82 199.871 2106.39 199.871 Q2109.94 199.871 2112.07 197.371 Q2114.22 194.847 2114.22 190.681 L2114.22 189.732 L2109.98 189.732 M2118.48 187.973 L2118.48 202.764 L2114.22 202.764 L2114.22 198.829 Q2112.76 201.19 2110.58 202.324 Q2108.41 203.435 2105.26 203.435 Q2101.28 203.435 2098.92 201.213 Q2096.58 198.968 2096.58 195.218 Q2096.58 190.843 2099.5 188.621 Q2102.44 186.398 2108.25 186.398 L2114.22 186.398 L2114.22 185.982 Q2114.22 183.042 2112.27 181.445 Q2110.35 179.824 2106.86 179.824 Q2104.63 179.824 2102.53 180.357 Q2100.42 180.889 2098.48 181.954 L2098.48 178.019 Q2100.82 177.116 2103.01 176.676 Q2105.21 176.213 2107.3 176.213 Q2112.92 176.213 2115.7 179.13 Q2118.48 182.047 2118.48 187.973 Z" fill="#000000" fill-rule="evenodd" fill-opacity="1" /><circle clip-path="url(#clip290)" cx="1863.53" cy="245.964" r="23" fill="#e26f46" fill-rule="evenodd" fill-opacity="1" stroke="#000000" stroke-opacity="1" stroke-width="4.9152"/>
<path clip-path="url(#clip290)" d="M 0 0 M1944.17 228.684 L1950.47 228.684 L1965.79 257.596 L1965.79 228.684 L1970.33 228.684 L1970.33 263.244 L1964.03 263.244 L1948.71 234.332 L1948.71 263.244 L1944.17 263.244 L1944.17 228.684 Z" fill="#000000" fill-rule="evenodd" fill-opacity="1" /><path clip-path="url(#clip290)" d="M 0 0 M1996.97 249.216 L1996.97 251.3 L1977.39 251.3 Q1977.67 255.698 1980.03 258.013 Q1982.41 260.304 1986.65 260.304 Q1989.1 260.304 1991.39 259.702 Q1993.71 259.101 1995.98 257.897 L1995.98 261.925 Q1993.69 262.897 1991.28 263.406 Q1988.87 263.915 1986.39 263.915 Q1980.19 263.915 1976.56 260.304 Q1972.95 256.693 1972.95 250.536 Q1972.95 244.17 1976.37 240.443 Q1979.82 236.693 1985.65 236.693 Q1990.89 236.693 1993.92 240.073 Q1996.97 243.429 1996.97 249.216 M1992.71 247.966 Q1992.67 244.471 1990.75 242.388 Q1988.85 240.304 1985.7 240.304 Q1982.14 240.304 1979.98 242.318 Q1977.85 244.332 1977.53 247.99 L1992.71 247.966 Z" fill="#000000" fill-rule="evenodd" fill-opacity="1" /><path clip-path="url(#clip290)" d="M 0 0 M1998.96 237.318 L2003.22 237.318 L2008.55 257.55 L2013.85 237.318 L2018.87 237.318 L2024.2 257.55 L2029.5 237.318 L2033.76 237.318 L2026.97 263.244 L2021.95 263.244 L2016.37 241.994 L2010.77 263.244 L2005.75 263.244 L1998.96 237.318 Z" fill="#000000" fill-rule="evenodd" fill-opacity="1" /><path clip-path="url(#clip290)" d="M 0 0 M2070.35 241.253 L2070.35 227.226 L2074.61 227.226 L2074.61 263.244 L2070.35 263.244 L2070.35 259.355 Q2069.01 261.67 2066.95 262.804 Q2064.91 263.915 2062.04 263.915 Q2057.34 263.915 2054.38 260.165 Q2051.44 256.415 2051.44 250.304 Q2051.44 244.193 2054.38 240.443 Q2057.34 236.693 2062.04 236.693 Q2064.91 236.693 2066.95 237.828 Q2069.01 238.939 2070.35 241.253 M2055.84 250.304 Q2055.84 255.003 2057.76 257.689 Q2059.7 260.351 2063.08 260.351 Q2066.46 260.351 2068.41 257.689 Q2070.35 255.003 2070.35 250.304 Q2070.35 245.605 2068.41 242.943 Q2066.46 240.258 2063.08 240.258 Q2059.7 240.258 2057.76 242.943 Q2055.84 245.605 2055.84 250.304 Z" fill="#000000" fill-rule="evenodd" fill-opacity="1" /><path clip-path="url(#clip290)" d="M 0 0 M2090.86 250.212 Q2085.7 250.212 2083.71 251.392 Q2081.72 252.573 2081.72 255.42 Q2081.72 257.689 2083.2 259.031 Q2084.7 260.351 2087.27 260.351 Q2090.82 260.351 2092.95 257.851 Q2095.1 255.327 2095.1 251.161 L2095.1 250.212 L2090.86 250.212 M2099.36 248.453 L2099.36 263.244 L2095.1 263.244 L2095.1 259.309 Q2093.64 261.67 2091.46 262.804 Q2089.29 263.915 2086.14 263.915 Q2082.16 263.915 2079.8 261.693 Q2077.46 259.448 2077.46 255.698 Q2077.46 251.323 2080.38 249.101 Q2083.32 246.878 2089.13 246.878 L2095.1 246.878 L2095.1 246.462 Q2095.1 243.522 2093.15 241.925 Q2091.23 240.304 2087.74 240.304 Q2085.51 240.304 2083.41 240.837 Q2081.3 241.369 2079.36 242.434 L2079.36 238.499 Q2081.7 237.596 2083.89 237.156 Q2086.09 236.693 2088.18 236.693 Q2093.8 236.693 2096.58 239.61 Q2099.36 242.527 2099.36 248.453 Z" fill="#000000" fill-rule="evenodd" fill-opacity="1" /><path clip-path="url(#clip290)" d="M 0 0 M2108.04 229.957 L2108.04 237.318 L2116.81 237.318 L2116.81 240.628 L2108.04 240.628 L2108.04 254.702 Q2108.04 257.874 2108.89 258.777 Q2109.77 259.679 2112.44 259.679 L2116.81 259.679 L2116.81 263.244 L2112.44 263.244 Q2107.51 263.244 2105.63 261.415 Q2103.76 259.564 2103.76 254.702 L2103.76 240.628 L2100.63 240.628 L2100.63 237.318 L2103.76 237.318 L2103.76 229.957 L2108.04 229.957 Z" fill="#000000" fill-rule="evenodd" fill-opacity="1" /><path clip-path="url(#clip290)" d="M 0 0 M2133.06 250.212 Q2127.9 250.212 2125.91 251.392 Q2123.92 252.573 2123.92 255.42 Q2123.92 257.689 2125.4 259.031 Q2126.9 260.351 2129.47 260.351 Q2133.01 260.351 2135.14 257.851 Q2137.3 255.327 2137.3 251.161 L2137.3 250.212 L2133.06 250.212 M2141.56 248.453 L2141.56 263.244 L2137.3 263.244 L2137.3 259.309 Q2135.84 261.67 2133.66 262.804 Q2131.49 263.915 2128.34 263.915 Q2124.36 263.915 2122 261.693 Q2119.66 259.448 2119.66 255.698 Q2119.66 251.323 2122.57 249.101 Q2125.51 246.878 2131.32 246.878 L2137.3 246.878 L2137.3 246.462 Q2137.3 243.522 2135.35 241.925 Q2133.43 240.304 2129.94 240.304 Q2127.71 240.304 2125.61 240.837 Q2123.5 241.369 2121.56 242.434 L2121.56 238.499 Q2123.89 237.596 2126.09 237.156 Q2128.29 236.693 2130.38 236.693 Q2136 236.693 2138.78 239.61 Q2141.56 242.527 2141.56 248.453 Z" fill="#000000" fill-rule="evenodd" fill-opacity="1" /></svg>
