<?xml version="1.0" encoding="utf-8"?>
<svg xmlns="http://www.w3.org/2000/svg" xmlns:xlink="http://www.w3.org/1999/xlink" width="576" height="384" viewBox="0 0 2304 1536">
<defs>
  <clipPath id="clip5700">
    <rect x="0" y="0" width="2304" height="1536"/>
  </clipPath>
</defs>
<path clip-path="url(#clip5700)" d="
M0 1536 L2304 1536 L2304 0 L0 0  Z
  " fill="#ffffff" fill-rule="evenodd" fill-opacity="1"/>
<defs>
  <clipPath id="clip5701">
    <rect x="460" y="0" width="1614" height="1536"/>
  </clipPath>
</defs>
<path clip-path="url(#clip5700)" d="
M214.794 1362.26 L2256.76 1362.26 L2256.76 47.2441 L214.794 47.2441  Z
  " fill="#ffffff" fill-rule="evenodd" fill-opacity="1"/>
<defs>
  <clipPath id="clip5702">
    <rect x="214" y="47" width="2043" height="1316"/>
  </clipPath>
</defs>
<polyline clip-path="url(#clip5702)" style="stroke:#000000; stroke-width:2; stroke-opacity:0.1; fill:none" points="
  657.861,1362.26 657.861,47.2441 
  "/>
<polyline clip-path="url(#clip5702)" style="stroke:#000000; stroke-width:2; stroke-opacity:0.1; fill:none" points="
  1139.46,1362.26 1139.46,47.2441 
  "/>
<polyline clip-path="url(#clip5702)" style="stroke:#000000; stroke-width:2; stroke-opacity:0.1; fill:none" points="
  1621.05,1362.26 1621.05,47.2441 
  "/>
<polyline clip-path="url(#clip5702)" style="stroke:#000000; stroke-width:2; stroke-opacity:0.1; fill:none" points="
  2102.65,1362.26 2102.65,47.2441 
  "/>
<polyline clip-path="url(#clip5702)" style="stroke:#000000; stroke-width:2; stroke-opacity:0.1; fill:none" points="
  214.794,1362.26 2256.76,1362.26 
  "/>
<polyline clip-path="url(#clip5702)" style="stroke:#000000; stroke-width:2; stroke-opacity:0.1; fill:none" points="
  214.794,1099.26 2256.76,1099.26 
  "/>
<polyline clip-path="url(#clip5702)" style="stroke:#000000; stroke-width:2; stroke-opacity:0.1; fill:none" points="
  214.794,836.253 2256.76,836.253 
  "/>
<polyline clip-path="url(#clip5702)" style="stroke:#000000; stroke-width:2; stroke-opacity:0.1; fill:none" points="
  214.794,573.25 2256.76,573.25 
  "/>
<polyline clip-path="url(#clip5702)" style="stroke:#000000; stroke-width:2; stroke-opacity:0.1; fill:none" points="
  214.794,310.247 2256.76,310.247 
  "/>
<polyline clip-path="url(#clip5702)" style="stroke:#000000; stroke-width:2; stroke-opacity:0.1; fill:none" points="
  214.794,47.2441 2256.76,47.2441 
  "/>
<polyline clip-path="url(#clip5700)" style="stroke:#000000; stroke-width:4; stroke-opacity:1; fill:none" points="
  214.794,1362.26 2256.76,1362.26 
  "/>
<polyline clip-path="url(#clip5700)" style="stroke:#000000; stroke-width:4; stroke-opacity:1; fill:none" points="
  214.794,1362.26 214.794,47.2441 
  "/>
<polyline clip-path="url(#clip5700)" style="stroke:#000000; stroke-width:4; stroke-opacity:1; fill:none" points="
  657.861,1362.26 657.861,1342.53 
  "/>
<polyline clip-path="url(#clip5700)" style="stroke:#000000; stroke-width:4; stroke-opacity:1; fill:none" points="
  1139.46,1362.26 1139.46,1342.53 
  "/>
<polyline clip-path="url(#clip5700)" style="stroke:#000000; stroke-width:4; stroke-opacity:1; fill:none" points="
  1621.05,1362.26 1621.05,1342.53 
  "/>
<polyline clip-path="url(#clip5700)" style="stroke:#000000; stroke-width:4; stroke-opacity:1; fill:none" points="
  2102.65,1362.26 2102.65,1342.53 
  "/>
<polyline clip-path="url(#clip5700)" style="stroke:#000000; stroke-width:4; stroke-opacity:1; fill:none" points="
  214.794,1362.26 245.424,1362.26 
  "/>
<polyline clip-path="url(#clip5700)" style="stroke:#000000; stroke-width:4; stroke-opacity:1; fill:none" points="
  214.794,1099.26 245.424,1099.26 
  "/>
<polyline clip-path="url(#clip5700)" style="stroke:#000000; stroke-width:4; stroke-opacity:1; fill:none" points="
  214.794,836.253 245.424,836.253 
  "/>
<polyline clip-path="url(#clip5700)" style="stroke:#000000; stroke-width:4; stroke-opacity:1; fill:none" points="
  214.794,573.25 245.424,573.25 
  "/>
<polyline clip-path="url(#clip5700)" style="stroke:#000000; stroke-width:4; stroke-opacity:1; fill:none" points="
  214.794,310.247 245.424,310.247 
  "/>
<polyline clip-path="url(#clip5700)" style="stroke:#000000; stroke-width:4; stroke-opacity:1; fill:none" points="
  214.794,47.2441 245.424,47.2441 
  "/>
<g clip-path="url(#clip5700)">
<text style="fill:#000000; fill-opacity:1; font-family:Arial,Helvetica Neue,Helvetica,sans-serif; font-size:48px; text-anchor:middle;" transform="rotate(0, 657.861, 1415.78)" x="657.861" y="1415.78">5</text>
</g>
<g clip-path="url(#clip5700)">
<text style="fill:#000000; fill-opacity:1; font-family:Arial,Helvetica Neue,Helvetica,sans-serif; font-size:48px; text-anchor:middle;" transform="rotate(0, 1139.46, 1415.78)" x="1139.46" y="1415.78">10</text>
</g>
<g clip-path="url(#clip5700)">
<text style="fill:#000000; fill-opacity:1; font-family:Arial,Helvetica Neue,Helvetica,sans-serif; font-size:48px; text-anchor:middle;" transform="rotate(0, 1621.05, 1415.78)" x="1621.05" y="1415.78">15</text>
</g>
<g clip-path="url(#clip5700)">
<text style="fill:#000000; fill-opacity:1; font-family:Arial,Helvetica Neue,Helvetica,sans-serif; font-size:48px; text-anchor:middle;" transform="rotate(0, 2102.65, 1415.78)" x="2102.65" y="1415.78">20</text>
</g>
<g clip-path="url(#clip5700)">
<text style="fill:#000000; fill-opacity:1; font-family:Arial,Helvetica Neue,Helvetica,sans-serif; font-size:48px; text-anchor:end;" transform="rotate(0, 191.754, 1379.76)" x="191.754" y="1379.76">0.0</text>
</g>
<g clip-path="url(#clip5700)">
<text style="fill:#000000; fill-opacity:1; font-family:Arial,Helvetica Neue,Helvetica,sans-serif; font-size:48px; text-anchor:end;" transform="rotate(0, 191.754, 1116.76)" x="191.754" y="1116.76">0.2</text>
</g>
<g clip-path="url(#clip5700)">
<text style="fill:#000000; fill-opacity:1; font-family:Arial,Helvetica Neue,Helvetica,sans-serif; font-size:48px; text-anchor:end;" transform="rotate(0, 191.754, 853.753)" x="191.754" y="853.753">0.4</text>
</g>
<g clip-path="url(#clip5700)">
<text style="fill:#000000; fill-opacity:1; font-family:Arial,Helvetica Neue,Helvetica,sans-serif; font-size:48px; text-anchor:end;" transform="rotate(0, 191.754, 590.75)" x="191.754" y="590.75">0.6</text>
</g>
<g clip-path="url(#clip5700)">
<text style="fill:#000000; fill-opacity:1; font-family:Arial,Helvetica Neue,Helvetica,sans-serif; font-size:48px; text-anchor:end;" transform="rotate(0, 191.754, 327.747)" x="191.754" y="327.747">0.8</text>
</g>
<g clip-path="url(#clip5700)">
<text style="fill:#000000; fill-opacity:1; font-family:Arial,Helvetica Neue,Helvetica,sans-serif; font-size:48px; text-anchor:end;" transform="rotate(0, 191.754, 64.7441)" x="191.754" y="64.7441">1.0</text>
</g>
<g clip-path="url(#clip5700)">
<text style="fill:#000000; fill-opacity:1; font-family:Arial,Helvetica Neue,Helvetica,sans-serif; font-size:66px; text-anchor:middle;" transform="rotate(0, 1235.77, 1495.16)" x="1235.77" y="1495.16">Distance from hole (ft)</text>
</g>
<g clip-path="url(#clip5700)">
<text style="fill:#000000; fill-opacity:1; font-family:Arial,Helvetica Neue,Helvetica,sans-serif; font-size:66px; text-anchor:middle;" transform="rotate(-90, 90.2461, 704.751)" x="90.2461" y="704.751">Probability of Success</text>
</g>
<circle clip-path="url(#clip5702)" style="fill:#000000; stroke:none; fill-opacity:1" cx="368.904" cy="135.641" r="18"/>
<circle clip-path="url(#clip5702)" style="fill:#009af9; stroke:none; fill-opacity:1" cx="368.904" cy="135.641" r="14"/>
<circle clip-path="url(#clip5702)" style="fill:#000000; stroke:none; fill-opacity:1" cx="465.223" cy="268.94" r="18"/>
<circle clip-path="url(#clip5702)" style="fill:#009af9; stroke:none; fill-opacity:1" cx="465.223" cy="268.94" r="14"/>
<circle clip-path="url(#clip5702)" style="fill:#000000; stroke:none; fill-opacity:1" cx="561.542" cy="388.281" r="18"/>
<circle clip-path="url(#clip5702)" style="fill:#009af9; stroke:none; fill-opacity:1" cx="561.542" cy="388.281" r="14"/>
<circle clip-path="url(#clip5702)" style="fill:#000000; stroke:none; fill-opacity:1" cx="657.861" cy="587.406" r="18"/>
<circle clip-path="url(#clip5702)" style="fill:#009af9; stroke:none; fill-opacity:1" cx="657.861" cy="587.406" r="14"/>
<circle clip-path="url(#clip5702)" style="fill:#000000; stroke:none; fill-opacity:1" cx="754.18" cy="641.901" r="18"/>
<circle clip-path="url(#clip5702)" style="fill:#009af9; stroke:none; fill-opacity:1" cx="754.18" cy="641.901" r="14"/>
<circle clip-path="url(#clip5702)" style="fill:#000000; stroke:none; fill-opacity:1" cx="850.499" cy="663.657" r="18"/>
<circle clip-path="url(#clip5702)" style="fill:#009af9; stroke:none; fill-opacity:1" cx="850.499" cy="663.657" r="14"/>
<circle clip-path="url(#clip5702)" style="fill:#000000; stroke:none; fill-opacity:1" cx="946.818" cy="754.064" r="18"/>
<circle clip-path="url(#clip5702)" style="fill:#009af9; stroke:none; fill-opacity:1" cx="946.818" cy="754.064" r="14"/>
<circle clip-path="url(#clip5702)" style="fill:#000000; stroke:none; fill-opacity:1" cx="1043.14" cy="944.12" r="18"/>
<circle clip-path="url(#clip5702)" style="fill:#009af9; stroke:none; fill-opacity:1" cx="1043.14" cy="944.12" r="14"/>
<circle clip-path="url(#clip5702)" style="fill:#000000; stroke:none; fill-opacity:1" cx="1139.46" cy="921.729" r="18"/>
<circle clip-path="url(#clip5702)" style="fill:#009af9; stroke:none; fill-opacity:1" cx="1139.46" cy="921.729" r="14"/>
<circle clip-path="url(#clip5702)" style="fill:#000000; stroke:none; fill-opacity:1" cx="1235.77" cy="946.115" r="18"/>
<circle clip-path="url(#clip5702)" style="fill:#009af9; stroke:none; fill-opacity:1" cx="1235.77" cy="946.115" r="14"/>
<circle clip-path="url(#clip5702)" style="fill:#000000; stroke:none; fill-opacity:1" cx="1332.09" cy="1023.74" r="18"/>
<circle clip-path="url(#clip5702)" style="fill:#009af9; stroke:none; fill-opacity:1" cx="1332.09" cy="1023.74" r="14"/>
<circle clip-path="url(#clip5702)" style="fill:#000000; stroke:none; fill-opacity:1" cx="1428.41" cy="1047.2" r="18"/>
<circle clip-path="url(#clip5702)" style="fill:#009af9; stroke:none; fill-opacity:1" cx="1428.41" cy="1047.2" r="14"/>
<circle clip-path="url(#clip5702)" style="fill:#000000; stroke:none; fill-opacity:1" cx="1524.73" cy="954.151" r="18"/>
<circle clip-path="url(#clip5702)" style="fill:#009af9; stroke:none; fill-opacity:1" cx="1524.73" cy="954.151" r="14"/>
<circle clip-path="url(#clip5702)" style="fill:#000000; stroke:none; fill-opacity:1" cx="1621.05" cy="1141.78" r="18"/>
<circle clip-path="url(#clip5702)" style="fill:#009af9; stroke:none; fill-opacity:1" cx="1621.05" cy="1141.78" r="14"/>
<circle clip-path="url(#clip5702)" style="fill:#000000; stroke:none; fill-opacity:1" cx="1717.37" cy="1185.61" r="18"/>
<circle clip-path="url(#clip5702)" style="fill:#009af9; stroke:none; fill-opacity:1" cx="1717.37" cy="1185.61" r="14"/>
<circle clip-path="url(#clip5702)" style="fill:#000000; stroke:none; fill-opacity:1" cx="1813.69" cy="1153.21" r="18"/>
<circle clip-path="url(#clip5702)" style="fill:#009af9; stroke:none; fill-opacity:1" cx="1813.69" cy="1153.21" r="14"/>
<circle clip-path="url(#clip5702)" style="fill:#000000; stroke:none; fill-opacity:1" cx="1910.01" cy="1135.06" r="18"/>
<circle clip-path="url(#clip5702)" style="fill:#009af9; stroke:none; fill-opacity:1" cx="1910.01" cy="1135.06" r="14"/>
<circle clip-path="url(#clip5702)" style="fill:#000000; stroke:none; fill-opacity:1" cx="2006.33" cy="1183.35" r="18"/>
<circle clip-path="url(#clip5702)" style="fill:#009af9; stroke:none; fill-opacity:1" cx="2006.33" cy="1183.35" r="14"/>
<circle clip-path="url(#clip5702)" style="fill:#000000; stroke:none; fill-opacity:1" cx="2102.65" cy="1154.62" r="18"/>
<circle clip-path="url(#clip5702)" style="fill:#009af9; stroke:none; fill-opacity:1" cx="2102.65" cy="1154.62" r="14"/>
<polyline clip-path="url(#clip5702)" style="stroke:#009af9; stroke-width:4; stroke-opacity:1; fill:none" points="
  368.904,144.309 368.904,126.972 
  "/>
<polyline clip-path="url(#clip5702)" style="stroke:#009af9; stroke-width:4; stroke-opacity:1; fill:none" points="
  465.223,287.628 465.223,250.251 
  "/>
<polyline clip-path="url(#clip5702)" style="stroke:#009af9; stroke-width:4; stroke-opacity:1; fill:none" points="
  561.542,415.3 561.542,361.262 
  "/>
<polyline clip-path="url(#clip5702)" style="stroke:#009af9; stroke-width:4; stroke-opacity:1; fill:none" points="
  657.861,621.84 657.861,552.972 
  "/>
<polyline clip-path="url(#clip5702)" style="stroke:#009af9; stroke-width:4; stroke-opacity:1; fill:none" points="
  754.18,681.586 754.18,602.217 
  "/>
<polyline clip-path="url(#clip5702)" style="stroke:#009af9; stroke-width:4; stroke-opacity:1; fill:none" points="
  850.499,704.671 850.499,622.643 
  "/>
<polyline clip-path="url(#clip5702)" style="stroke:#009af9; stroke-width:4; stroke-opacity:1; fill:none" points="
  946.818,796.387 946.818,711.742 
  "/>
<polyline clip-path="url(#clip5702)" style="stroke:#009af9; stroke-width:4; stroke-opacity:1; fill:none" points="
  1043.14,985.692 1043.14,902.549 
  "/>
<polyline clip-path="url(#clip5702)" style="stroke:#009af9; stroke-width:4; stroke-opacity:1; fill:none" points="
  1139.46,965.617 1139.46,877.84 
  "/>
<polyline clip-path="url(#clip5702)" style="stroke:#009af9; stroke-width:4; stroke-opacity:1; fill:none" points="
  1235.77,985.843 1235.77,906.387 
  "/>
<polyline clip-path="url(#clip5702)" style="stroke:#009af9; stroke-width:4; stroke-opacity:1; fill:none" points="
  1332.09,1064.19 1332.09,983.287 
  "/>
<polyline clip-path="url(#clip5702)" style="stroke:#009af9; stroke-width:4; stroke-opacity:1; fill:none" points="
  1428.41,1087.71 1428.41,1006.7 
  "/>
<polyline clip-path="url(#clip5702)" style="stroke:#009af9; stroke-width:4; stroke-opacity:1; fill:none" points="
  1524.73,1000.27 1524.73,908.03 
  "/>
<polyline clip-path="url(#clip5702)" style="stroke:#009af9; stroke-width:4; stroke-opacity:1; fill:none" points="
  1621.05,1179.79 1621.05,1103.76 
  "/>
<polyline clip-path="url(#clip5702)" style="stroke:#009af9; stroke-width:4; stroke-opacity:1; fill:none" points="
  1717.37,1217.24 1717.37,1153.99 
  "/>
<polyline clip-path="url(#clip5702)" style="stroke:#009af9; stroke-width:4; stroke-opacity:1; fill:none" points="
  1813.69,1187.64 1813.69,1118.77 
  "/>
<polyline clip-path="url(#clip5702)" style="stroke:#009af9; stroke-width:4; stroke-opacity:1; fill:none" points="
  1910.01,1171.03 1910.01,1099.09 
  "/>
<polyline clip-path="url(#clip5702)" style="stroke:#009af9; stroke-width:4; stroke-opacity:1; fill:none" points="
  2006.33,1220.53 2006.33,1146.16 
  "/>
<polyline clip-path="url(#clip5702)" style="stroke:#009af9; stroke-width:4; stroke-opacity:1; fill:none" points="
  2102.65,1193.52 2102.65,1115.73 
  "/>
<line clip-path="url(#clip5702)" x1="388.904" y1="144.309" x2="348.904" y2="144.309" style="stroke:#000000; stroke-width:4; stroke-opacity:1"/>
<line clip-path="url(#clip5702)" x1="388.904" y1="126.972" x2="348.904" y2="126.972" style="stroke:#000000; stroke-width:4; stroke-opacity:1"/>
<line clip-path="url(#clip5702)" x1="485.223" y1="287.628" x2="445.223" y2="287.628" style="stroke:#000000; stroke-width:4; stroke-opacity:1"/>
<line clip-path="url(#clip5702)" x1="485.223" y1="250.251" x2="445.223" y2="250.251" style="stroke:#000000; stroke-width:4; stroke-opacity:1"/>
<line clip-path="url(#clip5702)" x1="581.542" y1="415.3" x2="541.542" y2="415.3" style="stroke:#000000; stroke-width:4; stroke-opacity:1"/>
<line clip-path="url(#clip5702)" x1="581.542" y1="361.262" x2="541.542" y2="361.262" style="stroke:#000000; stroke-width:4; stroke-opacity:1"/>
<line clip-path="url(#clip5702)" x1="677.861" y1="621.84" x2="637.861" y2="621.84" style="stroke:#000000; stroke-width:4; stroke-opacity:1"/>
<line clip-path="url(#clip5702)" x1="677.861" y1="552.972" x2="637.861" y2="552.972" style="stroke:#000000; stroke-width:4; stroke-opacity:1"/>
<line clip-path="url(#clip5702)" x1="774.18" y1="681.586" x2="734.18" y2="681.586" style="stroke:#000000; stroke-width:4; stroke-opacity:1"/>
<line clip-path="url(#clip5702)" x1="774.18" y1="602.217" x2="734.18" y2="602.217" style="stroke:#000000; stroke-width:4; stroke-opacity:1"/>
<line clip-path="url(#clip5702)" x1="870.499" y1="704.671" x2="830.499" y2="704.671" style="stroke:#000000; stroke-width:4; stroke-opacity:1"/>
<line clip-path="url(#clip5702)" x1="870.499" y1="622.643" x2="830.499" y2="622.643" style="stroke:#000000; stroke-width:4; stroke-opacity:1"/>
<line clip-path="url(#clip5702)" x1="966.818" y1="796.387" x2="926.818" y2="796.387" style="stroke:#000000; stroke-width:4; stroke-opacity:1"/>
<line clip-path="url(#clip5702)" x1="966.818" y1="711.742" x2="926.818" y2="711.742" style="stroke:#000000; stroke-width:4; stroke-opacity:1"/>
<line clip-path="url(#clip5702)" x1="1063.14" y1="985.692" x2="1023.14" y2="985.692" style="stroke:#000000; stroke-width:4; stroke-opacity:1"/>
<line clip-path="url(#clip5702)" x1="1063.14" y1="902.549" x2="1023.14" y2="902.549" style="stroke:#000000; stroke-width:4; stroke-opacity:1"/>
<line clip-path="url(#clip5702)" x1="1159.46" y1="965.617" x2="1119.46" y2="965.617" style="stroke:#000000; stroke-width:4; stroke-opacity:1"/>
<line clip-path="url(#clip5702)" x1="1159.46" y1="877.84" x2="1119.46" y2="877.84" style="stroke:#000000; stroke-width:4; stroke-opacity:1"/>
<line clip-path="url(#clip5702)" x1="1255.77" y1="985.843" x2="1215.77" y2="985.843" style="stroke:#000000; stroke-width:4; stroke-opacity:1"/>
<line clip-path="url(#clip5702)" x1="1255.77" y1="906.387" x2="1215.77" y2="906.387" style="stroke:#000000; stroke-width:4; stroke-opacity:1"/>
<line clip-path="url(#clip5702)" x1="1352.09" y1="1064.19" x2="1312.09" y2="1064.19" style="stroke:#000000; stroke-width:4; stroke-opacity:1"/>
<line clip-path="url(#clip5702)" x1="1352.09" y1="983.287" x2="1312.09" y2="983.287" style="stroke:#000000; stroke-width:4; stroke-opacity:1"/>
<line clip-path="url(#clip5702)" x1="1448.41" y1="1087.71" x2="1408.41" y2="1087.71" style="stroke:#000000; stroke-width:4; stroke-opacity:1"/>
<line clip-path="url(#clip5702)" x1="1448.41" y1="1006.7" x2="1408.41" y2="1006.7" style="stroke:#000000; stroke-width:4; stroke-opacity:1"/>
<line clip-path="url(#clip5702)" x1="1544.73" y1="1000.27" x2="1504.73" y2="1000.27" style="stroke:#000000; stroke-width:4; stroke-opacity:1"/>
<line clip-path="url(#clip5702)" x1="1544.73" y1="908.03" x2="1504.73" y2="908.03" style="stroke:#000000; stroke-width:4; stroke-opacity:1"/>
<line clip-path="url(#clip5702)" x1="1641.05" y1="1179.79" x2="1601.05" y2="1179.79" style="stroke:#000000; stroke-width:4; stroke-opacity:1"/>
<line clip-path="url(#clip5702)" x1="1641.05" y1="1103.76" x2="1601.05" y2="1103.76" style="stroke:#000000; stroke-width:4; stroke-opacity:1"/>
<line clip-path="url(#clip5702)" x1="1737.37" y1="1217.24" x2="1697.37" y2="1217.24" style="stroke:#000000; stroke-width:4; stroke-opacity:1"/>
<line clip-path="url(#clip5702)" x1="1737.37" y1="1153.99" x2="1697.37" y2="1153.99" style="stroke:#000000; stroke-width:4; stroke-opacity:1"/>
<line clip-path="url(#clip5702)" x1="1833.69" y1="1187.64" x2="1793.69" y2="1187.64" style="stroke:#000000; stroke-width:4; stroke-opacity:1"/>
<line clip-path="url(#clip5702)" x1="1833.69" y1="1118.77" x2="1793.69" y2="1118.77" style="stroke:#000000; stroke-width:4; stroke-opacity:1"/>
<line clip-path="url(#clip5702)" x1="1930.01" y1="1171.03" x2="1890.01" y2="1171.03" style="stroke:#000000; stroke-width:4; stroke-opacity:1"/>
<line clip-path="url(#clip5702)" x1="1930.01" y1="1099.09" x2="1890.01" y2="1099.09" style="stroke:#000000; stroke-width:4; stroke-opacity:1"/>
<line clip-path="url(#clip5702)" x1="2026.33" y1="1220.53" x2="1986.33" y2="1220.53" style="stroke:#000000; stroke-width:4; stroke-opacity:1"/>
<line clip-path="url(#clip5702)" x1="2026.33" y1="1146.16" x2="1986.33" y2="1146.16" style="stroke:#000000; stroke-width:4; stroke-opacity:1"/>
<line clip-path="url(#clip5702)" x1="2122.65" y1="1193.52" x2="2082.65" y2="1193.52" style="stroke:#000000; stroke-width:4; stroke-opacity:1"/>
<line clip-path="url(#clip5702)" x1="2122.65" y1="1115.73" x2="2082.65" y2="1115.73" style="stroke:#000000; stroke-width:4; stroke-opacity:1"/>
<polyline clip-path="url(#clip5702)" style="stroke:#808080; stroke-width:4; stroke-opacity:0.5; fill:none" points="
  272.585,213.055 368.904,252.137 465.223,298.416 561.542,352.277 657.861,413.709 754.18,482.184 850.499,556.585 946.818,635.209 1043.14,715.898 1139.46,796.252 
  1235.77,873.913 1332.09,946.828 1428.41,1013.45 1524.73,1072.82 1621.05,1124.58 1717.37,1168.82 1813.69,1206.03 1910.01,1236.88 2006.33,1262.16 2102.65,1282.68 
  2198.96,1299.22 
  "/>
<polyline clip-path="url(#clip5702)" style="stroke:#808080; stroke-width:4; stroke-opacity:0.5; fill:none" points="
  272.585,203.677 368.904,243.165 465.223,290.529 561.542,346.283 657.861,410.484 754.18,482.562 850.499,561.219 946.818,644.441 1043.14,729.657 1139.46,814.045 
  1235.77,894.884 1332.09,969.903 1428.41,1037.49 1524.73,1096.79 1621.05,1147.61 1717.37,1190.29 1813.69,1225.54 1910.01,1254.25 2006.33,1277.36 2102.65,1295.8 
  2198.96,1310.41 
  "/>
<polyline clip-path="url(#clip5702)" style="stroke:#808080; stroke-width:4; stroke-opacity:0.5; fill:none" points="
  272.585,216.167 368.904,259.217 465.223,310.715 561.542,371.053 657.861,440.046 754.18,516.776 850.499,599.519 946.818,685.83 1043.14,772.798 1139.46,857.425 
  1235.77,937.022 1332.09,1009.53 1428.41,1073.69 1524.73,1129.01 1621.05,1175.65 1717.37,1214.24 1813.69,1245.67 1910.01,1270.95 2006.33,1291.08 2102.65,1306.97 
  2198.96,1319.43 
  "/>
<polyline clip-path="url(#clip5702)" style="stroke:#808080; stroke-width:4; stroke-opacity:0.5; fill:none" points="
  272.585,191.752 368.904,226.559 465.223,268.168 561.542,317.137 657.861,373.722 754.18,437.737 850.499,508.448 946.818,584.523 1043.14,664.08 1139.46,744.851 
  1235.77,824.425 1332.09,900.532 1428.41,971.286 1524.73,1035.35 1621.05,1091.99 1717.37,1141.01 1813.69,1182.67 1910.01,1217.53 2006.33,1246.31 2102.65,1269.81 
  2198.96,1288.85 
  "/>
<polyline clip-path="url(#clip5702)" style="stroke:#808080; stroke-width:4; stroke-opacity:0.5; fill:none" points="
  272.585,207.913 368.904,246.008 465.223,291.228 561.542,343.999 657.861,404.379 754.18,471.921 850.499,545.59 946.818,623.764 1043.14,704.334 1139.46,784.917 
  1235.77,863.127 1332.09,936.852 1428.41,1004.46 1524.73,1064.92 1621.05,1117.77 1717.37,1163.07 1813.69,1201.23 1910.01,1232.93 2006.33,1258.95 2102.65,1280.1 
  2198.96,1297.15 
  "/>
<polyline clip-path="url(#clip5702)" style="stroke:#808080; stroke-width:4; stroke-opacity:0.5; fill:none" points="
  272.585,210.922 368.904,252.394 465.223,302.049 561.542,360.333 657.861,427.17 754.18,501.803 850.499,582.701 946.818,667.616 1043.14,753.792 1139.46,838.307 
  1235.77,918.457 1332.09,992.083 1428.41,1057.76 1524.73,1114.84 1621.05,1163.33 1717.37,1203.72 1813.69,1236.84 1910.01,1263.62 2006.33,1285.06 2102.65,1302.07 
  2198.96,1315.47 
  "/>
<polyline clip-path="url(#clip5702)" style="stroke:#808080; stroke-width:4; stroke-opacity:0.5; fill:none" points="
  272.585,216.074 368.904,258.72 465.223,309.671 561.542,369.315 657.861,437.489 754.18,513.321 850.499,595.157 946.818,680.642 1043.14,766.95 1139.46,851.149 
  1235.77,930.581 1332.09,1003.18 1428.41,1067.65 1524.73,1123.43 1621.05,1170.63 1717.37,1209.83 1813.69,1241.87 1910.01,1267.72 2006.33,1288.36 2102.65,1304.71 
  2198.96,1317.57 
  "/>
<polyline clip-path="url(#clip5702)" style="stroke:#808080; stroke-width:4; stroke-opacity:0.5; fill:none" points="
  272.585,213.618 368.904,254.547 465.223,303.301 561.542,360.281 657.861,425.413 754.18,498 850.499,576.646 946.818,659.296 1043.14,743.416 1139.46,826.284 
  1235.77,905.339 1332.09,978.477 1428.41,1044.25 1524.73,1101.9 1621.05,1151.31 1717.37,1192.85 1813.69,1227.21 1910.01,1255.25 2006.33,1277.89 2102.65,1296 
  2198.96,1310.38 
  "/>
<polyline clip-path="url(#clip5702)" style="stroke:#808080; stroke-width:4; stroke-opacity:0.5; fill:none" points="
  272.585,210.427 368.904,251.202 465.223,299.931 561.542,357.056 657.861,422.532 754.18,495.673 850.499,575.063 946.818,658.592 1043.14,743.646 1139.46,827.413 
  1235.77,907.249 1332.09,980.991 1428.41,1047.16 1524.73,1105.01 1621.05,1154.45 1717.37,1195.88 1813.69,1230.03 1910.01,1257.82 2006.33,1280.17 2102.65,1297.99 
  2198.96,1312.1 
  "/>
<polyline clip-path="url(#clip5702)" style="stroke:#808080; stroke-width:4; stroke-opacity:0.5; fill:none" points="
  272.585,209.264 368.904,251.327 465.223,301.9 561.542,361.46 657.861,429.922 754.18,506.457 850.499,589.398 946.818,676.307 1043.14,764.224 1139.46,850.048 
  1235.77,930.964 1332.09,1004.79 1428.41,1070.16 1524.73,1126.51 1621.05,1174 1717.37,1213.24 1813.69,1245.15 1910.01,1270.76 2006.33,1291.11 2102.65,1307.13 
  2198.96,1319.67 
  "/>
<polyline clip-path="url(#clip5702)" style="stroke:#808080; stroke-width:4; stroke-opacity:0.5; fill:none" points="
  272.585,209.977 368.904,250.95 465.223,299.977 561.542,357.509 657.861,423.498 754.18,497.237 850.499,577.268 946.818,661.427 1043.14,747.036 1139.46,831.229 
  1235.77,911.325 1332.09,985.151 1428.41,1051.24 1524.73,1108.88 1621.05,1158.01 1717.37,1199.07 1813.69,1232.84 1910.01,1260.25 2006.33,1282.24 2102.65,1299.73 
  2198.96,1313.55 
  "/>
<polyline clip-path="url(#clip5702)" style="stroke:#808080; stroke-width:4; stroke-opacity:0.5; fill:none" points="
  272.585,215.193 368.904,256.138 465.223,304.824 561.542,361.631 657.861,426.474 754.18,498.658 850.499,576.805 946.818,658.9 1043.14,742.457 1139.46,824.81 
  1235.77,903.442 1332.09,976.28 1428.41,1041.88 1524.73,1099.49 1621.05,1148.96 1717.37,1190.63 1813.69,1225.18 1910.01,1253.43 2006.33,1276.29 2102.65,1294.61 
  2198.96,1309.2 
  "/>
<polyline clip-path="url(#clip5702)" style="stroke:#808080; stroke-width:4; stroke-opacity:0.5; fill:none" points="
  272.585,224.85 368.904,265.828 465.223,314.042 561.542,369.763 657.861,432.841 754.18,502.594 850.499,577.764 946.818,656.548 1043.14,736.748 1139.46,816.005 
  1235.77,892.068 1332.09,963.039 1428.41,1027.54 1524.73,1084.78 1621.05,1134.51 1717.37,1176.91 1813.69,1212.51 1910.01,1242 2006.33,1266.16 2102.65,1285.78 
  2198.96,1301.59 
  "/>
<polyline clip-path="url(#clip5702)" style="stroke:#808080; stroke-width:4; stroke-opacity:0.5; fill:none" points="
  272.585,205.393 368.904,245.766 465.223,294.245 561.542,351.338 657.861,417.058 754.18,490.751 850.499,570.99 946.818,655.614 1043.14,741.906 1139.46,826.933 
  1235.77,907.928 1332.09,982.636 1428.41,1049.52 1524.73,1107.83 1621.05,1157.49 1717.37,1198.94 1813.69,1232.99 1910.01,1260.56 2006.33,1282.65 2102.65,1300.18 
  2198.96,1314 
  "/>
<polyline clip-path="url(#clip5702)" style="stroke:#808080; stroke-width:4; stroke-opacity:0.5; fill:none" points="
  272.585,197.643 368.904,235.012 465.223,279.811 561.542,332.593 657.861,393.522 754.18,462.218 850.499,537.643 946.818,618.082 1043.14,701.252 1139.46,784.533 
  1235.77,865.295 1332.09,941.214 1428.41,1010.52 1524.73,1072.12 1621.05,1125.59 1717.37,1171.04 1813.69,1209 1910.01,1240.24 2006.33,1265.65 2102.65,1286.1 
  2198.96,1302.44 
  "/>
<polyline clip-path="url(#clip5702)" style="stroke:#808080; stroke-width:4; stroke-opacity:0.5; fill:none" points="
  272.585,202.393 368.904,240.888 465.223,286.959 561.542,341.12 657.861,403.464 754.18,473.512 850.499,550.111 946.818,631.426 1043.14,715.078 1139.46,798.397 
  1235.77,878.755 1332.09,953.888 1428.41,1022.12 1524.73,1082.47 1621.05,1134.61 1717.37,1178.76 1813.69,1215.5 1910.01,1245.65 2006.33,1270.09 2102.65,1289.71 
  2198.96,1305.36 
  "/>
<polyline clip-path="url(#clip5702)" style="stroke:#808080; stroke-width:4; stroke-opacity:0.5; fill:none" points="
  272.585,215.728 368.904,256.157 465.223,304.114 561.542,359.967 657.861,423.645 754.18,494.503 850.499,571.253 946.818,651.995 1043.14,734.371 1139.46,815.825 
  1235.77,893.915 1332.09,966.591 1428.41,1032.38 1524.73,1090.47 1621.05,1140.63 1717.37,1183.12 1813.69,1218.54 1910.01,1247.66 2006.33,1271.33 2102.65,1290.41 
  2198.96,1305.67 
  "/>
<polyline clip-path="url(#clip5702)" style="stroke:#808080; stroke-width:4; stroke-opacity:0.5; fill:none" points="
  272.585,212.154 368.904,253.685 465.223,303.347 561.542,361.569 657.861,428.263 754.18,502.669 850.499,583.265 946.818,667.828 1043.14,753.634 1139.46,837.798 
  1235.77,917.648 1332.09,991.05 1428.41,1056.59 1524.73,1113.61 1621.05,1162.1 1717.37,1202.55 1813.69,1235.75 1910.01,1262.65 2006.33,1284.2 2102.65,1301.32 
  2198.96,1314.83 
  "/>
<polyline clip-path="url(#clip5702)" style="stroke:#808080; stroke-width:4; stroke-opacity:0.5; fill:none" points="
  272.585,213.907 368.904,254.709 465.223,303.273 561.542,359.995 657.861,424.803 754.18,497.014 850.499,575.257 946.818,657.512 1043.14,741.279 1139.46,823.874 
  1235.77,902.757 1332.09,975.833 1428.41,1041.64 1524.73,1099.42 1621.05,1149.01 1717.37,1190.78 1813.69,1225.38 1910.01,1253.66 2006.33,1276.52 2102.65,1294.84 
  2198.96,1309.41 
  "/>
<polyline clip-path="url(#clip5702)" style="stroke:#808080; stroke-width:4; stroke-opacity:0.5; fill:none" points="
  272.585,204.147 368.904,243.067 465.223,289.621 561.542,344.305 657.861,407.185 754.18,477.748 850.499,554.792 946.818,636.439 1043.14,720.273 1139.46,803.605 
  1235.77,883.81 1332.09,958.645 1428.41,1026.47 1524.73,1086.35 1621.05,1138 1717.37,1181.66 1813.69,1217.94 1910.01,1247.67 2006.33,1271.75 2102.65,1291.07 
  2198.96,1306.46 
  "/>
<polyline clip-path="url(#clip5702)" style="stroke:#808080; stroke-width:4; stroke-opacity:0.5; fill:none" points="
  272.585,216.156 368.904,258.116 465.223,308.126 561.542,366.567 657.861,433.304 754.18,507.541 850.499,587.748 946.818,671.719 1043.14,756.785 1139.46,840.134 
  1235.77,919.173 1332.09,991.838 1428.41,1056.76 1524.73,1113.3 1621.05,1161.46 1717.37,1201.71 1813.69,1234.81 1910.01,1261.68 2006.33,1283.27 2102.65,1300.45 
  2198.96,1314.05 
  "/>
<polyline clip-path="url(#clip5702)" style="stroke:#808080; stroke-width:4; stroke-opacity:0.5; fill:none" points="
  272.585,217.726 368.904,258.983 465.223,307.949 561.542,364.978 657.861,429.954 754.18,502.156 850.499,580.194 946.818,662.048 1043.14,745.254 1139.46,827.178 
  1235.77,905.345 1332.09,977.723 1428.41,1042.9 1524.73,1100.15 1621.05,1149.32 1717.37,1190.78 1813.69,1225.16 1910.01,1253.31 2006.33,1276.1 2102.65,1294.4 
  2198.96,1308.97 
  "/>
<polyline clip-path="url(#clip5702)" style="stroke:#808080; stroke-width:4; stroke-opacity:0.5; fill:none" points="
  272.585,213.162 368.904,253.136 465.223,300.617 561.542,356.001 657.861,419.248 754.18,489.753 850.499,566.267 946.818,646.917 1043.14,729.361 1139.46,811.036 
  1235.77,889.477 1332.09,962.597 1428.41,1028.88 1524.73,1087.48 1621.05,1138.12 1717.37,1181.06 1813.69,1216.87 1910.01,1246.32 2006.33,1270.28 2102.65,1289.59 
  2198.96,1305.03 
  "/>
<polyline clip-path="url(#clip5702)" style="stroke:#808080; stroke-width:4; stroke-opacity:0.5; fill:none" points="
  272.585,212.914 368.904,254.9 465.223,305.139 561.542,364.056 657.861,431.538 754.18,506.778 850.499,588.187 946.818,673.461 1043.14,759.803 1139.46,844.274 
  1235.77,924.183 1332.09,997.408 1428.41,1062.58 1524.73,1119.08 1621.05,1166.98 1717.37,1206.82 1813.69,1239.42 1910.01,1265.75 2006.33,1286.79 2102.65,1303.47 
  2198.96,1316.6 
  "/>
<polyline clip-path="url(#clip5702)" style="stroke:#808080; stroke-width:4; stroke-opacity:0.5; fill:none" points="
  272.585,206.762 368.904,245.916 465.223,292.641 561.542,347.399 657.861,410.23 754.18,480.597 850.499,557.297 946.818,638.469 1043.14,721.734 1139.46,804.458 
  1235.77,884.073 1332.09,958.385 1428.41,1025.79 1524.73,1085.37 1621.05,1136.82 1717.37,1180.39 1813.69,1216.67 1910.01,1246.45 2006.33,1270.61 2102.65,1290.04 
  2198.96,1305.54 
  "/>
<polyline clip-path="url(#clip5702)" style="stroke:#808080; stroke-width:4; stroke-opacity:0.5; fill:none" points="
  272.585,201.496 368.904,241.608 465.223,289.969 561.542,347.143 657.861,413.189 754.18,487.472 850.499,568.551 946.818,654.202 1043.14,741.614 1139.46,827.738 
  1235.77,909.7 1332.09,985.167 1428.41,1052.57 1524.73,1111.15 1621.05,1160.87 1717.37,1202.22 1813.69,1236.05 1910.01,1263.33 2006.33,1285.11 2102.65,1302.32 
  2198.96,1315.84 
  "/>
<polyline clip-path="url(#clip5702)" style="stroke:#808080; stroke-width:4; stroke-opacity:0.5; fill:none" points="
  272.585,201.526 368.904,238.901 465.223,283.488 561.542,335.782 657.861,395.912 754.18,463.49 850.499,537.521 946.818,616.382 1043.14,697.919 1139.46,779.667 
  1235.77,859.134 1332.09,934.098 1428.41,1002.84 1524.73,1064.25 1621.05,1117.85 1717.37,1163.7 1813.69,1202.23 1910.01,1234.14 2006.33,1260.25 2102.65,1281.4 
  2198.96,1298.4 
  "/>
<polyline clip-path="url(#clip5702)" style="stroke:#808080; stroke-width:4; stroke-opacity:0.5; fill:none" points="
  272.585,216.877 368.904,257.885 465.223,306.562 561.542,363.27 657.861,427.907 754.18,499.775 850.499,577.511 946.818,659.128 1043.14,742.182 1139.46,824.054 
  1235.77,902.272 1332.09,974.793 1428.41,1040.19 1524.73,1097.69 1621.05,1147.15 1717.37,1188.89 1813.69,1223.56 1910.01,1251.96 2006.33,1274.98 2102.65,1293.46 
  2198.96,1308.21 
  "/>
<polyline clip-path="url(#clip5702)" style="stroke:#808080; stroke-width:4; stroke-opacity:0.5; fill:none" points="
  272.585,204.198 368.904,243.995 465.223,291.751 561.542,347.982 657.861,412.729 754.18,485.395 850.499,564.635 946.818,648.382 1043.14,734.013 1139.46,818.66 
  1235.77,899.586 1332.09,974.52 1428.41,1041.88 1524.73,1100.84 1621.05,1151.25 1717.37,1193.49 1813.69,1228.31 1910.01,1256.6 2006.33,1279.34 2102.65,1297.44 
  2198.96,1311.76 
  "/>
<polyline clip-path="url(#clip5702)" style="stroke:#808080; stroke-width:4; stroke-opacity:0.5; fill:none" points="
  272.585,216.594 368.904,257.053 465.223,305.004 561.542,360.805 657.861,424.376 754.18,495.072 850.499,571.612 946.818,652.108 1043.14,734.225 1139.46,815.431 
  1235.77,893.304 1332.09,965.811 1428.41,1031.49 1524.73,1089.52 1621.05,1139.67 1717.37,1182.19 1813.69,1217.67 1910.01,1246.86 2006.33,1270.62 2102.65,1289.79 
  2198.96,1305.13 
  "/>
<polyline clip-path="url(#clip5702)" style="stroke:#808080; stroke-width:4; stroke-opacity:0.5; fill:none" points="
  272.585,214.487 368.904,254.553 465.223,302.086 561.542,357.465 657.861,420.641 754.18,491 850.499,567.294 946.818,647.666 1043.14,729.795 1139.46,811.148 
  1235.77,889.288 1332.09,962.152 1428.41,1028.24 1524.73,1086.71 1621.05,1137.28 1717.37,1180.2 1813.69,1216.03 1910.01,1245.54 2006.33,1269.56 2102.65,1288.94 
  2198.96,1304.46 
  "/>
<polyline clip-path="url(#clip5702)" style="stroke:#808080; stroke-width:4; stroke-opacity:0.5; fill:none" points="
  272.585,196.801 368.904,235.978 465.223,283.34 561.542,339.502 657.861,404.6 754.18,478.089 850.499,558.62 946.818,644.045 1043.14,731.587 1139.46,818.187 
  1235.77,900.912 1332.09,977.338 1428.41,1045.8 1524.73,1105.44 1621.05,1156.17 1717.37,1198.42 1813.69,1233.03 1910.01,1260.96 2006.33,1283.26 2102.65,1300.9 
  2198.96,1314.75 
  "/>
<polyline clip-path="url(#clip5702)" style="stroke:#808080; stroke-width:4; stroke-opacity:0.5; fill:none" points="
  272.585,196.304 368.904,232.423 465.223,275.579 561.542,326.309 657.861,384.808 754.18,450.793 850.499,523.394 946.818,601.119 1043.14,681.931 1139.46,763.441 
  1235.77,843.171 1332.09,918.858 1428.41,988.689 1524.73,1051.44 1621.05,1106.52 1717.37,1153.86 1813.69,1193.83 1910.01,1227.08 2006.33,1254.37 2102.65,1276.56 
  2198.96,1294.44 
  "/>
<polyline clip-path="url(#clip5702)" style="stroke:#808080; stroke-width:4; stroke-opacity:0.5; fill:none" points="
  272.585,207.83 368.904,246.995 465.223,293.672 561.542,348.313 657.861,410.946 754.18,481.033 850.499,557.385 946.818,638.163 1043.14,721.025 1139.46,803.373 
  1235.77,882.673 1332.09,956.755 1428.41,1024.03 1524.73,1083.56 1621.05,1135.05 1717.37,1178.71 1813.69,1215.12 1910.01,1245.05 2006.33,1269.38 2102.65,1288.97 
  2198.96,1304.62 
  "/>
<polyline clip-path="url(#clip5702)" style="stroke:#808080; stroke-width:4; stroke-opacity:0.5; fill:none" points="
  272.585,199.739 368.904,238.782 465.223,285.771 561.542,341.27 657.861,405.386 754.18,477.591 850.499,556.603 946.818,640.396 1043.14,726.354 1139.46,811.578 
  1235.77,893.269 1332.09,969.076 1428.41,1037.33 1524.73,1097.15 1621.05,1148.34 1717.37,1191.25 1813.69,1226.61 1910.01,1255.35 2006.33,1278.43 2102.65,1296.79 
  2198.96,1311.3 
  "/>
<polyline clip-path="url(#clip5702)" style="stroke:#808080; stroke-width:4; stroke-opacity:0.5; fill:none" points="
  272.585,195.743 368.904,232.645 465.223,276.911 561.542,329.108 657.861,389.429 754.18,457.533 850.499,532.43 946.818,612.459 1043.14,695.378 1139.46,778.596 
  1235.77,859.485 1332.09,935.702 1428.41,1005.44 1524.73,1067.56 1621.05,1121.58 1717.37,1167.59 1813.69,1206.08 1910.01,1237.81 2006.33,1263.64 2102.65,1284.45 
  2198.96,1301.1 
  "/>
<polyline clip-path="url(#clip5702)" style="stroke:#808080; stroke-width:4; stroke-opacity:0.5; fill:none" points="
  272.585,209.84 368.904,249.651 465.223,297.096 561.542,352.61 657.861,416.186 754.18,487.23 850.499,564.476 946.818,646.003 1043.14,729.393 1139.46,811.996 
  1235.77,891.262 1332.09,965.041 1428.41,1031.79 1524.73,1090.64 1621.05,1141.36 1717.37,1184.23 1813.69,1219.86 1910.01,1249.07 2006.33,1272.74 2102.65,1291.75 
  2198.96,1306.91 
  "/>
<polyline clip-path="url(#clip5702)" style="stroke:#808080; stroke-width:4; stroke-opacity:0.5; fill:none" points="
  272.585,221.309 368.904,264.952 465.223,316.951 561.542,377.631 657.861,446.745 754.18,523.326 850.499,605.634 946.818,691.248 1043.14,777.323 1139.46,860.951 
  1235.77,939.546 1332.09,1011.14 1428.41,1074.51 1524.73,1129.21 1621.05,1175.41 1717.37,1213.7 1813.69,1244.96 1910.01,1270.17 2006.33,1290.28 2102.65,1306.2 
  2198.96,1318.73 
  "/>
<polyline clip-path="url(#clip5702)" style="stroke:#808080; stroke-width:4; stroke-opacity:0.5; fill:none" points="
  272.585,206.006 368.904,245.207 465.223,292.039 561.542,346.978 657.861,410.066 754.18,480.762 850.499,557.847 946.818,639.431 1043.14,723.098 1139.46,806.175 
  1235.77,886.062 1332.09,960.546 1428.41,1028.02 1524.73,1087.57 1621.05,1138.93 1717.37,1182.35 1813.69,1218.43 1910.01,1248.01 2006.33,1271.97 2102.65,1291.21 
  2198.96,1306.53 
  "/>
<polyline clip-path="url(#clip5702)" style="stroke:#808080; stroke-width:4; stroke-opacity:0.5; fill:none" points="
  272.585,204.786 368.904,245.25 465.223,293.891 561.542,351.23 657.861,417.281 754.18,491.38 850.499,572.076 946.818,657.165 1043.14,743.887 1139.46,829.264 
  1235.77,910.498 1332.09,985.318 1428.41,1052.2 1524.73,1110.4 1621.05,1159.87 1717.37,1201.1 1813.69,1234.89 1910.01,1262.21 2006.33,1284.06 2102.65,1301.37 
  2198.96,1315 
  "/>
<polyline clip-path="url(#clip5702)" style="stroke:#808080; stroke-width:4; stroke-opacity:0.5; fill:none" points="
  272.585,202.81 368.904,241.6 465.223,288.055 561.542,342.686 657.861,405.576 754.18,476.221 850.499,553.424 946.818,635.3 1043.14,719.414 1139.46,803.051 
  1235.77,883.555 1332.09,958.659 1428.41,1026.71 1524.73,1086.75 1621.05,1138.5 1717.37,1182.22 1813.69,1218.52 1910.01,1248.24 2006.33,1272.28 2102.65,1291.55 
  2198.96,1306.88 
  "/>
<polyline clip-path="url(#clip5702)" style="stroke:#808080; stroke-width:4; stroke-opacity:0.5; fill:none" points="
  272.585,221.397 368.904,266.821 465.223,321.247 561.542,385.004 657.861,457.747 754.18,538.285 850.499,624.538 946.818,713.688 1043.14,802.511 1139.46,887.829 
  1235.77,966.949 1332.09,1037.96 1428.41,1099.86 1524.73,1152.45 1621.05,1196.16 1717.37,1231.84 1813.69,1260.53 1910.01,1283.33 2006.33,1301.28 2102.65,1315.3 
  2198.96,1326.19 
  "/>
<polyline clip-path="url(#clip5702)" style="stroke:#808080; stroke-width:4; stroke-opacity:0.5; fill:none" points="
  272.585,211.631 368.904,251.256 465.223,298.349 561.542,353.316 657.861,416.145 754.18,486.258 850.499,562.441 946.818,642.855 1043.14,725.182 1139.46,806.873 
  1235.77,885.456 1332.09,958.825 1428.41,1025.44 1524.73,1084.41 1621.05,1135.45 1717.37,1178.77 1813.69,1214.94 1910.01,1244.72 2006.33,1268.96 2102.65,1288.51 
  2198.96,1304.15 
  "/>
<polyline clip-path="url(#clip5702)" style="stroke:#808080; stroke-width:4; stroke-opacity:0.5; fill:none" points="
  272.585,193.409 368.904,228.294 465.223,269.918 561.542,318.82 657.861,375.237 754.18,438.974 850.499,509.298 946.818,584.896 1043.14,663.919 1139.46,744.145 
  1235.77,823.211 1332.09,898.888 1428.41,969.321 1524.73,1033.18 1621.05,1089.74 1717.37,1138.77 1813.69,1180.52 1910.01,1215.52 2006.33,1244.48 2102.65,1268.19 
  2198.96,1287.42 
  "/>
<polyline clip-path="url(#clip5702)" style="stroke:#808080; stroke-width:4; stroke-opacity:0.5; fill:none" points="
  272.585,213.474 368.904,252.464 465.223,298.598 561.542,352.253 657.861,413.419 754.18,481.575 850.499,555.621 946.818,633.881 1043.14,714.228 1139.46,794.292 
  1235.77,871.739 1332.09,944.531 1428.41,1011.12 1524.73,1070.55 1621.05,1122.42 1717.37,1166.83 1813.69,1204.22 1910.01,1235.27 2006.33,1260.76 2102.65,1281.48 
  2198.96,1298.19 
  "/>
<polyline clip-path="url(#clip5702)" style="stroke:#808080; stroke-width:4; stroke-opacity:0.5; fill:none" points="
  272.585,209.571 368.904,250.652 465.223,299.852 561.542,357.63 657.861,423.938 754.18,498.054 850.499,578.496 946.818,663.064 1043.14,749.04 1139.46,833.521 
  1235.77,913.801 1332.09,987.698 1428.41,1053.75 1524.73,1111.27 1621.05,1160.21 1717.37,1201.06 1813.69,1234.6 1910.01,1261.76 2006.33,1283.53 2102.65,1300.82 
  2198.96,1314.46 
  "/>
<polyline clip-path="url(#clip5702)" style="stroke:#808080; stroke-width:4; stroke-opacity:0.5; fill:none" points="
  272.585,219.887 368.904,263.16 465.223,314.739 561.542,374.967 657.861,443.623 754.18,519.779 850.499,601.735 946.818,687.109 1043.14,773.083 1139.46,856.757 
  1235.77,935.535 1332.09,1007.42 1428.41,1071.16 1524.73,1126.26 1621.05,1172.87 1717.37,1211.55 1813.69,1243.17 1910.01,1268.69 2006.33,1289.08 2102.65,1305.23 
  2198.96,1317.94 
  "/>
<polyline clip-path="url(#clip5702)" style="stroke:#808080; stroke-width:4; stroke-opacity:0.5; fill:none" points="
  272.585,219.114 368.904,261.859 465.223,312.766 561.542,372.182 657.861,439.919 754.18,515.104 850.499,596.118 946.818,680.67 1043.14,766.028 1139.46,849.353 
  1235.77,928.066 1332.09,1000.15 1428.41,1064.32 1524.73,1120.01 1621.05,1167.28 1717.37,1206.67 1813.69,1238.97 1910.01,1265.13 2006.33,1286.1 2102.65,1302.76 
  2198.96,1315.91 
  "/>
<polyline clip-path="url(#clip5702)" style="stroke:#808080; stroke-width:4; stroke-opacity:0.5; fill:none" points="
  272.585,215.998 368.904,255.931 465.223,303.205 561.542,358.177 657.861,420.791 754.18,490.449 850.499,565.94 946.818,645.466 1043.14,726.78 1139.46,807.425 
  1235.77,885.023 1332.09,957.546 1428.41,1023.51 1524.73,1082.02 1621.05,1132.81 1717.37,1176.05 1813.69,1212.26 1910.01,1242.18 2006.33,1266.63 2102.65,1286.41 
  2198.96,1302.3 
  "/>
<polyline clip-path="url(#clip5702)" style="stroke:#808080; stroke-width:4; stroke-opacity:0.5; fill:none" points="
  272.585,202.225 368.904,240.248 465.223,285.681 561.542,339.027 657.861,400.395 754.18,469.344 850.499,544.792 946.818,625 1043.14,707.691 1139.46,790.29 
  1235.77,870.23 1332.09,945.268 1428.41,1013.71 1524.73,1074.52 1621.05,1127.29 1717.37,1172.18 1813.69,1209.71 1910.01,1240.62 2006.33,1265.79 2102.65,1286.09 
  2198.96,1302.32 
  "/>
<polyline clip-path="url(#clip5702)" style="stroke:#000000; stroke-width:4; stroke-opacity:1; fill:none" points="
  272.585,208.274 368.904,247.945 465.223,295.289 561.542,350.758 657.861,414.364 754.18,485.524 850.499,562.973 946.818,644.779 1043.14,728.502 1139.46,811.461 
  1235.77,891.071 1332.09,965.154 1428.41,1032.15 1524.73,1091.17 1621.05,1142.01 1717.37,1184.93 1813.69,1220.57 1910.01,1249.75 2006.33,1273.38 2102.65,1292.34 
  2198.96,1307.43 
  "/>
</svg>
