<?xml version="1.0" encoding="utf-8"?>
<svg xmlns="http://www.w3.org/2000/svg" xmlns:xlink="http://www.w3.org/1999/xlink" width="576" height="384" viewBox="0 0 2304 1536">
<defs>
  <clipPath id="clip5900">
    <rect x="0" y="0" width="2000" height="2000"/>
  </clipPath>
</defs>
<defs>
  <clipPath id="clip5901">
    <rect x="0" y="0" width="2304" height="1536"/>
  </clipPath>
</defs>
<polygon clip-path="url(#clip5901)" points="
0,1536 2304,1536 2304,0 0,0 
  " fill="#ffffff" fill-rule="evenodd" fill-opacity="1"/>
<defs>
  <clipPath id="clip5902">
    <rect x="460" y="0" width="1614" height="1536"/>
  </clipPath>
</defs>
<polygon clip-path="url(#clip5901)" points="
193.776,1437.46 2225.26,1437.46 2225.26,47.2441 193.776,47.2441 
  " fill="#ffffff" fill-rule="evenodd" fill-opacity="1"/>
<defs>
  <clipPath id="clip5903">
    <rect x="193" y="47" width="2032" height="1391"/>
  </clipPath>
</defs>
<polyline clip-path="url(#clip5903)" style="stroke:#000000; stroke-width:2; stroke-opacity:0.1; fill:none" points="
  274.362,1437.46 274.362,47.2441 
  "/>
<polyline clip-path="url(#clip5903)" style="stroke:#000000; stroke-width:2; stroke-opacity:0.1; fill:none" points="
  736.167,1437.46 736.167,47.2441 
  "/>
<polyline clip-path="url(#clip5903)" style="stroke:#000000; stroke-width:2; stroke-opacity:0.1; fill:none" points="
  1197.97,1437.46 1197.97,47.2441 
  "/>
<polyline clip-path="url(#clip5903)" style="stroke:#000000; stroke-width:2; stroke-opacity:0.1; fill:none" points="
  1659.78,1437.46 1659.78,47.2441 
  "/>
<polyline clip-path="url(#clip5903)" style="stroke:#000000; stroke-width:2; stroke-opacity:0.1; fill:none" points="
  2121.58,1437.46 2121.58,47.2441 
  "/>
<polyline clip-path="url(#clip5903)" style="stroke:#000000; stroke-width:2; stroke-opacity:0.1; fill:none" points="
  193.776,1398.12 2225.26,1398.12 
  "/>
<polyline clip-path="url(#clip5903)" style="stroke:#000000; stroke-width:2; stroke-opacity:0.1; fill:none" points="
  193.776,1070.24 2225.26,1070.24 
  "/>
<polyline clip-path="url(#clip5903)" style="stroke:#000000; stroke-width:2; stroke-opacity:0.1; fill:none" points="
  193.776,742.353 2225.26,742.353 
  "/>
<polyline clip-path="url(#clip5903)" style="stroke:#000000; stroke-width:2; stroke-opacity:0.1; fill:none" points="
  193.776,414.472 2225.26,414.472 
  "/>
<polyline clip-path="url(#clip5903)" style="stroke:#000000; stroke-width:2; stroke-opacity:0.1; fill:none" points="
  193.776,86.5899 2225.26,86.5899 
  "/>
<polyline clip-path="url(#clip5901)" style="stroke:#000000; stroke-width:4; stroke-opacity:1; fill:none" points="
  193.776,1437.46 2225.26,1437.46 
  "/>
<polyline clip-path="url(#clip5901)" style="stroke:#000000; stroke-width:4; stroke-opacity:1; fill:none" points="
  193.776,1437.46 193.776,47.2441 
  "/>
<polyline clip-path="url(#clip5901)" style="stroke:#000000; stroke-width:4; stroke-opacity:1; fill:none" points="
  274.362,1437.46 274.362,1416.61 
  "/>
<polyline clip-path="url(#clip5901)" style="stroke:#000000; stroke-width:4; stroke-opacity:1; fill:none" points="
  736.167,1437.46 736.167,1416.61 
  "/>
<polyline clip-path="url(#clip5901)" style="stroke:#000000; stroke-width:4; stroke-opacity:1; fill:none" points="
  1197.97,1437.46 1197.97,1416.61 
  "/>
<polyline clip-path="url(#clip5901)" style="stroke:#000000; stroke-width:4; stroke-opacity:1; fill:none" points="
  1659.78,1437.46 1659.78,1416.61 
  "/>
<polyline clip-path="url(#clip5901)" style="stroke:#000000; stroke-width:4; stroke-opacity:1; fill:none" points="
  2121.58,1437.46 2121.58,1416.61 
  "/>
<polyline clip-path="url(#clip5901)" style="stroke:#000000; stroke-width:4; stroke-opacity:1; fill:none" points="
  193.776,1398.12 224.249,1398.12 
  "/>
<polyline clip-path="url(#clip5901)" style="stroke:#000000; stroke-width:4; stroke-opacity:1; fill:none" points="
  193.776,1070.24 224.249,1070.24 
  "/>
<polyline clip-path="url(#clip5901)" style="stroke:#000000; stroke-width:4; stroke-opacity:1; fill:none" points="
  193.776,742.353 224.249,742.353 
  "/>
<polyline clip-path="url(#clip5901)" style="stroke:#000000; stroke-width:4; stroke-opacity:1; fill:none" points="
  193.776,414.472 224.249,414.472 
  "/>
<polyline clip-path="url(#clip5901)" style="stroke:#000000; stroke-width:4; stroke-opacity:1; fill:none" points="
  193.776,86.5899 224.249,86.5899 
  "/>
<g clip-path="url(#clip5901)">
<text style="fill:#000000; fill-opacity:1; font-family:Arial,Helvetica Neue,Helvetica,sans-serif; font-size:48px; text-anchor:middle;" transform="rotate(0, 274.362, 1490.98)" x="274.362" y="1490.98">-2</text>
</g>
<g clip-path="url(#clip5901)">
<text style="fill:#000000; fill-opacity:1; font-family:Arial,Helvetica Neue,Helvetica,sans-serif; font-size:48px; text-anchor:middle;" transform="rotate(0, 736.167, 1490.98)" x="736.167" y="1490.98">0</text>
</g>
<g clip-path="url(#clip5901)">
<text style="fill:#000000; fill-opacity:1; font-family:Arial,Helvetica Neue,Helvetica,sans-serif; font-size:48px; text-anchor:middle;" transform="rotate(0, 1197.97, 1490.98)" x="1197.97" y="1490.98">2</text>
</g>
<g clip-path="url(#clip5901)">
<text style="fill:#000000; fill-opacity:1; font-family:Arial,Helvetica Neue,Helvetica,sans-serif; font-size:48px; text-anchor:middle;" transform="rotate(0, 1659.78, 1490.98)" x="1659.78" y="1490.98">4</text>
</g>
<g clip-path="url(#clip5901)">
<text style="fill:#000000; fill-opacity:1; font-family:Arial,Helvetica Neue,Helvetica,sans-serif; font-size:48px; text-anchor:middle;" transform="rotate(0, 2121.58, 1490.98)" x="2121.58" y="1490.98">6</text>
</g>
<g clip-path="url(#clip5901)">
<text style="fill:#000000; fill-opacity:1; font-family:Arial,Helvetica Neue,Helvetica,sans-serif; font-size:48px; text-anchor:end;" transform="rotate(0, 170.736, 1415.62)" x="170.736" y="1415.62">0.00</text>
</g>
<g clip-path="url(#clip5901)">
<text style="fill:#000000; fill-opacity:1; font-family:Arial,Helvetica Neue,Helvetica,sans-serif; font-size:48px; text-anchor:end;" transform="rotate(0, 170.736, 1087.74)" x="170.736" y="1087.74">0.25</text>
</g>
<g clip-path="url(#clip5901)">
<text style="fill:#000000; fill-opacity:1; font-family:Arial,Helvetica Neue,Helvetica,sans-serif; font-size:48px; text-anchor:end;" transform="rotate(0, 170.736, 759.853)" x="170.736" y="759.853">0.50</text>
</g>
<g clip-path="url(#clip5901)">
<text style="fill:#000000; fill-opacity:1; font-family:Arial,Helvetica Neue,Helvetica,sans-serif; font-size:48px; text-anchor:end;" transform="rotate(0, 170.736, 431.972)" x="170.736" y="431.972">0.75</text>
</g>
<g clip-path="url(#clip5901)">
<text style="fill:#000000; fill-opacity:1; font-family:Arial,Helvetica Neue,Helvetica,sans-serif; font-size:48px; text-anchor:end;" transform="rotate(0, 170.736, 104.09)" x="170.736" y="104.09">1.00</text>
</g>
<circle clip-path="url(#clip5903)" style="fill:#000000; stroke:none; fill-opacity:1" cx="251.271" cy="1398.12" r="18"/>
<circle clip-path="url(#clip5903)" style="fill:#009af9; stroke:none; fill-opacity:1" cx="251.271" cy="1398.12" r="14"/>
<circle clip-path="url(#clip5903)" style="fill:#000000; stroke:none; fill-opacity:1" cx="435.994" cy="1398.12" r="18"/>
<circle clip-path="url(#clip5903)" style="fill:#009af9; stroke:none; fill-opacity:1" cx="435.994" cy="1398.12" r="14"/>
<circle clip-path="url(#clip5903)" style="fill:#000000; stroke:none; fill-opacity:1" cx="643.806" cy="1398.12" r="18"/>
<circle clip-path="url(#clip5903)" style="fill:#009af9; stroke:none; fill-opacity:1" cx="643.806" cy="1398.12" r="14"/>
<circle clip-path="url(#clip5903)" style="fill:#000000; stroke:none; fill-opacity:1" cx="1174.88" cy="1398.12" r="18"/>
<circle clip-path="url(#clip5903)" style="fill:#009af9; stroke:none; fill-opacity:1" cx="1174.88" cy="1398.12" r="14"/>
<circle clip-path="url(#clip5903)" style="fill:#000000; stroke:none; fill-opacity:1" cx="1913.77" cy="1398.12" r="18"/>
<circle clip-path="url(#clip5903)" style="fill:#009af9; stroke:none; fill-opacity:1" cx="1913.77" cy="1398.12" r="14"/>
<circle clip-path="url(#clip5903)" style="fill:#000000; stroke:none; fill-opacity:1" cx="2167.77" cy="1398.12" r="18"/>
<circle clip-path="url(#clip5903)" style="fill:#009af9; stroke:none; fill-opacity:1" cx="2167.77" cy="1398.12" r="14"/>
</svg>
