<?xml version="1.0" encoding="utf-8"?>
<svg xmlns="http://www.w3.org/2000/svg" xmlns:xlink="http://www.w3.org/1999/xlink" width="576" height="384" viewBox="0 0 2304 1536">
<defs>
  <clipPath id="clip5400">
    <rect x="0" y="0" width="2304" height="1536"/>
  </clipPath>
</defs>
<path clip-path="url(#clip5400)" d="
M0 1536 L2304 1536 L2304 0 L0 0  Z
  " fill="#ffffff" fill-rule="evenodd" fill-opacity="1"/>
<defs>
  <clipPath id="clip5401">
    <rect x="460" y="0" width="1614" height="1536"/>
  </clipPath>
</defs>
<path clip-path="url(#clip5400)" d="
M215.754 1361.62 L2256.76 1361.62 L2256.76 47.2441 L215.754 47.2441  Z
  " fill="#ffffff" fill-rule="evenodd" fill-opacity="1"/>
<defs>
  <clipPath id="clip5402">
    <rect x="215" y="47" width="2042" height="1315"/>
  </clipPath>
</defs>
<polyline clip-path="url(#clip5402)" style="stroke:#000000; stroke-width:2; stroke-opacity:0.1; fill:none" points="
  594.431,1361.62 594.431,47.2441 
  "/>
<polyline clip-path="url(#clip5402)" style="stroke:#000000; stroke-width:2; stroke-opacity:0.1; fill:none" points="
  1129.28,1361.62 1129.28,47.2441 
  "/>
<polyline clip-path="url(#clip5402)" style="stroke:#000000; stroke-width:2; stroke-opacity:0.1; fill:none" points="
  1664.14,1361.62 1664.14,47.2441 
  "/>
<polyline clip-path="url(#clip5402)" style="stroke:#000000; stroke-width:2; stroke-opacity:0.1; fill:none" points="
  2198.99,1361.62 2198.99,47.2441 
  "/>
<polyline clip-path="url(#clip5402)" style="stroke:#000000; stroke-width:2; stroke-opacity:0.1; fill:none" points="
  215.754,1361.62 2256.76,1361.62 
  "/>
<polyline clip-path="url(#clip5402)" style="stroke:#000000; stroke-width:2; stroke-opacity:0.1; fill:none" points="
  215.754,1098.74 2256.76,1098.74 
  "/>
<polyline clip-path="url(#clip5402)" style="stroke:#000000; stroke-width:2; stroke-opacity:0.1; fill:none" points="
  215.754,835.869 2256.76,835.869 
  "/>
<polyline clip-path="url(#clip5402)" style="stroke:#000000; stroke-width:2; stroke-opacity:0.1; fill:none" points="
  215.754,572.994 2256.76,572.994 
  "/>
<polyline clip-path="url(#clip5402)" style="stroke:#000000; stroke-width:2; stroke-opacity:0.1; fill:none" points="
  215.754,310.119 2256.76,310.119 
  "/>
<polyline clip-path="url(#clip5402)" style="stroke:#000000; stroke-width:2; stroke-opacity:0.1; fill:none" points="
  215.754,47.2441 2256.76,47.2441 
  "/>
<polyline clip-path="url(#clip5400)" style="stroke:#000000; stroke-width:4; stroke-opacity:1; fill:none" points="
  215.754,1361.62 2256.76,1361.62 
  "/>
<polyline clip-path="url(#clip5400)" style="stroke:#000000; stroke-width:4; stroke-opacity:1; fill:none" points="
  215.754,1361.62 215.754,47.2441 
  "/>
<polyline clip-path="url(#clip5400)" style="stroke:#000000; stroke-width:4; stroke-opacity:1; fill:none" points="
  594.431,1361.62 594.431,1341.9 
  "/>
<polyline clip-path="url(#clip5400)" style="stroke:#000000; stroke-width:4; stroke-opacity:1; fill:none" points="
  1129.28,1361.62 1129.28,1341.9 
  "/>
<polyline clip-path="url(#clip5400)" style="stroke:#000000; stroke-width:4; stroke-opacity:1; fill:none" points="
  1664.14,1361.62 1664.14,1341.9 
  "/>
<polyline clip-path="url(#clip5400)" style="stroke:#000000; stroke-width:4; stroke-opacity:1; fill:none" points="
  2198.99,1361.62 2198.99,1341.9 
  "/>
<polyline clip-path="url(#clip5400)" style="stroke:#000000; stroke-width:4; stroke-opacity:1; fill:none" points="
  215.754,1361.62 246.369,1361.62 
  "/>
<polyline clip-path="url(#clip5400)" style="stroke:#000000; stroke-width:4; stroke-opacity:1; fill:none" points="
  215.754,1098.74 246.369,1098.74 
  "/>
<polyline clip-path="url(#clip5400)" style="stroke:#000000; stroke-width:4; stroke-opacity:1; fill:none" points="
  215.754,835.869 246.369,835.869 
  "/>
<polyline clip-path="url(#clip5400)" style="stroke:#000000; stroke-width:4; stroke-opacity:1; fill:none" points="
  215.754,572.994 246.369,572.994 
  "/>
<polyline clip-path="url(#clip5400)" style="stroke:#000000; stroke-width:4; stroke-opacity:1; fill:none" points="
  215.754,310.119 246.369,310.119 
  "/>
<polyline clip-path="url(#clip5400)" style="stroke:#000000; stroke-width:4; stroke-opacity:1; fill:none" points="
  215.754,47.2441 246.369,47.2441 
  "/>
<g clip-path="url(#clip5400)">
<text style="fill:#000000; fill-opacity:1; font-family:Arial,Helvetica Neue,Helvetica,sans-serif; font-size:48px; text-anchor:middle;" transform="rotate(0, 594.431, 1415.14)" x="594.431" y="1415.14">5</text>
</g>
<g clip-path="url(#clip5400)">
<text style="fill:#000000; fill-opacity:1; font-family:Arial,Helvetica Neue,Helvetica,sans-serif; font-size:48px; text-anchor:middle;" transform="rotate(0, 1129.28, 1415.14)" x="1129.28" y="1415.14">10</text>
</g>
<g clip-path="url(#clip5400)">
<text style="fill:#000000; fill-opacity:1; font-family:Arial,Helvetica Neue,Helvetica,sans-serif; font-size:48px; text-anchor:middle;" transform="rotate(0, 1664.14, 1415.14)" x="1664.14" y="1415.14">15</text>
</g>
<g clip-path="url(#clip5400)">
<text style="fill:#000000; fill-opacity:1; font-family:Arial,Helvetica Neue,Helvetica,sans-serif; font-size:48px; text-anchor:middle;" transform="rotate(0, 2198.99, 1415.14)" x="2198.99" y="1415.14">20</text>
</g>
<g clip-path="url(#clip5400)">
<text style="fill:#000000; fill-opacity:1; font-family:Arial,Helvetica Neue,Helvetica,sans-serif; font-size:48px; text-anchor:end;" transform="rotate(0, 192.714, 1379.12)" x="192.714" y="1379.12">0.0</text>
</g>
<g clip-path="url(#clip5400)">
<text style="fill:#000000; fill-opacity:1; font-family:Arial,Helvetica Neue,Helvetica,sans-serif; font-size:48px; text-anchor:end;" transform="rotate(0, 192.714, 1116.24)" x="192.714" y="1116.24">0.2</text>
</g>
<g clip-path="url(#clip5400)">
<text style="fill:#000000; fill-opacity:1; font-family:Arial,Helvetica Neue,Helvetica,sans-serif; font-size:48px; text-anchor:end;" transform="rotate(0, 192.714, 853.369)" x="192.714" y="853.369">0.4</text>
</g>
<g clip-path="url(#clip5400)">
<text style="fill:#000000; fill-opacity:1; font-family:Arial,Helvetica Neue,Helvetica,sans-serif; font-size:48px; text-anchor:end;" transform="rotate(0, 192.714, 590.494)" x="192.714" y="590.494">0.6</text>
</g>
<g clip-path="url(#clip5400)">
<text style="fill:#000000; fill-opacity:1; font-family:Arial,Helvetica Neue,Helvetica,sans-serif; font-size:48px; text-anchor:end;" transform="rotate(0, 192.714, 327.619)" x="192.714" y="327.619">0.8</text>
</g>
<g clip-path="url(#clip5400)">
<text style="fill:#000000; fill-opacity:1; font-family:Arial,Helvetica Neue,Helvetica,sans-serif; font-size:48px; text-anchor:end;" transform="rotate(0, 192.714, 64.7441)" x="192.714" y="64.7441">1.0</text>
</g>
<g clip-path="url(#clip5400)">
<text style="fill:#000000; fill-opacity:1; font-family:Arial,Helvetica Neue,Helvetica,sans-serif; font-size:66px; text-anchor:middle;" transform="rotate(0, 1236.25, 1494.52)" x="1236.25" y="1494.52">Distance from hole (ft)</text>
</g>
<g clip-path="url(#clip5400)">
<text style="fill:#000000; fill-opacity:1; font-family:Arial,Helvetica Neue,Helvetica,sans-serif; font-size:66px; text-anchor:middle;" transform="rotate(-90, 91.2061, 704.431)" x="91.2061" y="704.431">Probability of Success</text>
</g>
<circle clip-path="url(#clip5402)" style="fill:#000000; stroke:none; fill-opacity:1" cx="273.518" cy="135.598" r="18"/>
<circle clip-path="url(#clip5402)" style="fill:#009af9; stroke:none; fill-opacity:1" cx="273.518" cy="135.598" r="14"/>
<circle clip-path="url(#clip5402)" style="fill:#000000; stroke:none; fill-opacity:1" cx="380.489" cy="268.832" r="18"/>
<circle clip-path="url(#clip5402)" style="fill:#009af9; stroke:none; fill-opacity:1" cx="380.489" cy="268.832" r="14"/>
<circle clip-path="url(#clip5402)" style="fill:#000000; stroke:none; fill-opacity:1" cx="487.46" cy="388.115" r="18"/>
<circle clip-path="url(#clip5402)" style="fill:#009af9; stroke:none; fill-opacity:1" cx="487.46" cy="388.115" r="14"/>
<circle clip-path="url(#clip5402)" style="fill:#000000; stroke:none; fill-opacity:1" cx="594.431" cy="587.143" r="18"/>
<circle clip-path="url(#clip5402)" style="fill:#009af9; stroke:none; fill-opacity:1" cx="594.431" cy="587.143" r="14"/>
<circle clip-path="url(#clip5402)" style="fill:#000000; stroke:none; fill-opacity:1" cx="701.401" cy="641.612" r="18"/>
<circle clip-path="url(#clip5402)" style="fill:#009af9; stroke:none; fill-opacity:1" cx="701.401" cy="641.612" r="14"/>
<circle clip-path="url(#clip5402)" style="fill:#000000; stroke:none; fill-opacity:1" cx="808.372" cy="663.357" r="18"/>
<circle clip-path="url(#clip5402)" style="fill:#009af9; stroke:none; fill-opacity:1" cx="808.372" cy="663.357" r="14"/>
<circle clip-path="url(#clip5402)" style="fill:#000000; stroke:none; fill-opacity:1" cx="915.343" cy="753.72" r="18"/>
<circle clip-path="url(#clip5402)" style="fill:#009af9; stroke:none; fill-opacity:1" cx="915.343" cy="753.72" r="14"/>
<circle clip-path="url(#clip5402)" style="fill:#000000; stroke:none; fill-opacity:1" cx="1022.31" cy="943.684" r="18"/>
<circle clip-path="url(#clip5402)" style="fill:#009af9; stroke:none; fill-opacity:1" cx="1022.31" cy="943.684" r="14"/>
<circle clip-path="url(#clip5402)" style="fill:#000000; stroke:none; fill-opacity:1" cx="1129.28" cy="921.303" r="18"/>
<circle clip-path="url(#clip5402)" style="fill:#009af9; stroke:none; fill-opacity:1" cx="1129.28" cy="921.303" r="14"/>
<circle clip-path="url(#clip5402)" style="fill:#000000; stroke:none; fill-opacity:1" cx="1236.25" cy="945.677" r="18"/>
<circle clip-path="url(#clip5402)" style="fill:#009af9; stroke:none; fill-opacity:1" cx="1236.25" cy="945.677" r="14"/>
<circle clip-path="url(#clip5402)" style="fill:#000000; stroke:none; fill-opacity:1" cx="1343.23" cy="1023.26" r="18"/>
<circle clip-path="url(#clip5402)" style="fill:#009af9; stroke:none; fill-opacity:1" cx="1343.23" cy="1023.26" r="14"/>
<circle clip-path="url(#clip5402)" style="fill:#000000; stroke:none; fill-opacity:1" cx="1450.2" cy="1046.72" r="18"/>
<circle clip-path="url(#clip5402)" style="fill:#009af9; stroke:none; fill-opacity:1" cx="1450.2" cy="1046.72" r="14"/>
<circle clip-path="url(#clip5402)" style="fill:#000000; stroke:none; fill-opacity:1" cx="1557.17" cy="953.709" r="18"/>
<circle clip-path="url(#clip5402)" style="fill:#009af9; stroke:none; fill-opacity:1" cx="1557.17" cy="953.709" r="14"/>
<circle clip-path="url(#clip5402)" style="fill:#000000; stroke:none; fill-opacity:1" cx="1664.14" cy="1141.24" r="18"/>
<circle clip-path="url(#clip5402)" style="fill:#009af9; stroke:none; fill-opacity:1" cx="1664.14" cy="1141.24" r="14"/>
<circle clip-path="url(#clip5402)" style="fill:#000000; stroke:none; fill-opacity:1" cx="1771.11" cy="1185.06" r="18"/>
<circle clip-path="url(#clip5402)" style="fill:#009af9; stroke:none; fill-opacity:1" cx="1771.11" cy="1185.06" r="14"/>
<circle clip-path="url(#clip5402)" style="fill:#000000; stroke:none; fill-opacity:1" cx="1878.08" cy="1152.67" r="18"/>
<circle clip-path="url(#clip5402)" style="fill:#009af9; stroke:none; fill-opacity:1" cx="1878.08" cy="1152.67" r="14"/>
<circle clip-path="url(#clip5402)" style="fill:#000000; stroke:none; fill-opacity:1" cx="1985.05" cy="1134.53" r="18"/>
<circle clip-path="url(#clip5402)" style="fill:#009af9; stroke:none; fill-opacity:1" cx="1985.05" cy="1134.53" r="14"/>
<circle clip-path="url(#clip5402)" style="fill:#000000; stroke:none; fill-opacity:1" cx="2092.02" cy="1182.79" r="18"/>
<circle clip-path="url(#clip5402)" style="fill:#009af9; stroke:none; fill-opacity:1" cx="2092.02" cy="1182.79" r="14"/>
<circle clip-path="url(#clip5402)" style="fill:#000000; stroke:none; fill-opacity:1" cx="2198.99" cy="1154.09" r="18"/>
<circle clip-path="url(#clip5402)" style="fill:#009af9; stroke:none; fill-opacity:1" cx="2198.99" cy="1154.09" r="14"/>
<polyline clip-path="url(#clip5402)" style="stroke:#009af9; stroke-width:4; stroke-opacity:1; fill:none" points="
  273.518,144.262 273.518,126.934 
  "/>
<polyline clip-path="url(#clip5402)" style="stroke:#009af9; stroke-width:4; stroke-opacity:1; fill:none" points="
  380.489,287.511 380.489,250.152 
  "/>
<polyline clip-path="url(#clip5402)" style="stroke:#009af9; stroke-width:4; stroke-opacity:1; fill:none" points="
  487.46,415.121 487.46,361.109 
  "/>
<polyline clip-path="url(#clip5402)" style="stroke:#009af9; stroke-width:4; stroke-opacity:1; fill:none" points="
  594.431,621.56 594.431,552.726 
  "/>
<polyline clip-path="url(#clip5402)" style="stroke:#009af9; stroke-width:4; stroke-opacity:1; fill:none" points="
  701.401,681.277 701.401,601.947 
  "/>
<polyline clip-path="url(#clip5402)" style="stroke:#009af9; stroke-width:4; stroke-opacity:1; fill:none" points="
  808.372,704.351 808.372,622.363 
  "/>
<polyline clip-path="url(#clip5402)" style="stroke:#009af9; stroke-width:4; stroke-opacity:1; fill:none" points="
  915.343,796.022 915.343,711.419 
  "/>
<polyline clip-path="url(#clip5402)" style="stroke:#009af9; stroke-width:4; stroke-opacity:1; fill:none" points="
  1022.31,985.235 1022.31,902.133 
  "/>
<polyline clip-path="url(#clip5402)" style="stroke:#009af9; stroke-width:4; stroke-opacity:1; fill:none" points="
  1129.28,965.17 1129.28,877.436 
  "/>
<polyline clip-path="url(#clip5402)" style="stroke:#009af9; stroke-width:4; stroke-opacity:1; fill:none" points="
  1236.25,985.386 1236.25,905.969 
  "/>
<polyline clip-path="url(#clip5402)" style="stroke:#009af9; stroke-width:4; stroke-opacity:1; fill:none" points="
  1343.23,1063.7 1343.23,982.831 
  "/>
<polyline clip-path="url(#clip5402)" style="stroke:#009af9; stroke-width:4; stroke-opacity:1; fill:none" points="
  1450.2,1087.2 1450.2,1006.23 
  "/>
<polyline clip-path="url(#clip5402)" style="stroke:#009af9; stroke-width:4; stroke-opacity:1; fill:none" points="
  1557.17,999.807 1557.17,907.611 
  "/>
<polyline clip-path="url(#clip5402)" style="stroke:#009af9; stroke-width:4; stroke-opacity:1; fill:none" points="
  1664.14,1179.24 1664.14,1103.25 
  "/>
<polyline clip-path="url(#clip5402)" style="stroke:#009af9; stroke-width:4; stroke-opacity:1; fill:none" points="
  1771.11,1216.67 1771.11,1153.45 
  "/>
<polyline clip-path="url(#clip5402)" style="stroke:#009af9; stroke-width:4; stroke-opacity:1; fill:none" points="
  1878.08,1187.08 1878.08,1118.25 
  "/>
<polyline clip-path="url(#clip5402)" style="stroke:#009af9; stroke-width:4; stroke-opacity:1; fill:none" points="
  1985.05,1170.48 1985.05,1098.57 
  "/>
<polyline clip-path="url(#clip5402)" style="stroke:#009af9; stroke-width:4; stroke-opacity:1; fill:none" points="
  2092.02,1219.96 2092.02,1145.62 
  "/>
<polyline clip-path="url(#clip5402)" style="stroke:#009af9; stroke-width:4; stroke-opacity:1; fill:none" points="
  2198.99,1192.96 2198.99,1115.21 
  "/>
<line clip-path="url(#clip5402)" x1="293.518" y1="144.262" x2="253.518" y2="144.262" style="stroke:#000000; stroke-width:4; stroke-opacity:1"/>
<line clip-path="url(#clip5402)" x1="293.518" y1="126.934" x2="253.518" y2="126.934" style="stroke:#000000; stroke-width:4; stroke-opacity:1"/>
<line clip-path="url(#clip5402)" x1="400.489" y1="287.511" x2="360.489" y2="287.511" style="stroke:#000000; stroke-width:4; stroke-opacity:1"/>
<line clip-path="url(#clip5402)" x1="400.489" y1="250.152" x2="360.489" y2="250.152" style="stroke:#000000; stroke-width:4; stroke-opacity:1"/>
<line clip-path="url(#clip5402)" x1="507.46" y1="415.121" x2="467.46" y2="415.121" style="stroke:#000000; stroke-width:4; stroke-opacity:1"/>
<line clip-path="url(#clip5402)" x1="507.46" y1="361.109" x2="467.46" y2="361.109" style="stroke:#000000; stroke-width:4; stroke-opacity:1"/>
<line clip-path="url(#clip5402)" x1="614.431" y1="621.56" x2="574.431" y2="621.56" style="stroke:#000000; stroke-width:4; stroke-opacity:1"/>
<line clip-path="url(#clip5402)" x1="614.431" y1="552.726" x2="574.431" y2="552.726" style="stroke:#000000; stroke-width:4; stroke-opacity:1"/>
<line clip-path="url(#clip5402)" x1="721.401" y1="681.277" x2="681.401" y2="681.277" style="stroke:#000000; stroke-width:4; stroke-opacity:1"/>
<line clip-path="url(#clip5402)" x1="721.401" y1="601.947" x2="681.401" y2="601.947" style="stroke:#000000; stroke-width:4; stroke-opacity:1"/>
<line clip-path="url(#clip5402)" x1="828.372" y1="704.351" x2="788.372" y2="704.351" style="stroke:#000000; stroke-width:4; stroke-opacity:1"/>
<line clip-path="url(#clip5402)" x1="828.372" y1="622.363" x2="788.372" y2="622.363" style="stroke:#000000; stroke-width:4; stroke-opacity:1"/>
<line clip-path="url(#clip5402)" x1="935.343" y1="796.022" x2="895.343" y2="796.022" style="stroke:#000000; stroke-width:4; stroke-opacity:1"/>
<line clip-path="url(#clip5402)" x1="935.343" y1="711.419" x2="895.343" y2="711.419" style="stroke:#000000; stroke-width:4; stroke-opacity:1"/>
<line clip-path="url(#clip5402)" x1="1042.31" y1="985.235" x2="1002.31" y2="985.235" style="stroke:#000000; stroke-width:4; stroke-opacity:1"/>
<line clip-path="url(#clip5402)" x1="1042.31" y1="902.133" x2="1002.31" y2="902.133" style="stroke:#000000; stroke-width:4; stroke-opacity:1"/>
<line clip-path="url(#clip5402)" x1="1149.28" y1="965.17" x2="1109.28" y2="965.17" style="stroke:#000000; stroke-width:4; stroke-opacity:1"/>
<line clip-path="url(#clip5402)" x1="1149.28" y1="877.436" x2="1109.28" y2="877.436" style="stroke:#000000; stroke-width:4; stroke-opacity:1"/>
<line clip-path="url(#clip5402)" x1="1256.25" y1="985.386" x2="1216.25" y2="985.386" style="stroke:#000000; stroke-width:4; stroke-opacity:1"/>
<line clip-path="url(#clip5402)" x1="1256.25" y1="905.969" x2="1216.25" y2="905.969" style="stroke:#000000; stroke-width:4; stroke-opacity:1"/>
<line clip-path="url(#clip5402)" x1="1363.23" y1="1063.7" x2="1323.23" y2="1063.7" style="stroke:#000000; stroke-width:4; stroke-opacity:1"/>
<line clip-path="url(#clip5402)" x1="1363.23" y1="982.831" x2="1323.23" y2="982.831" style="stroke:#000000; stroke-width:4; stroke-opacity:1"/>
<line clip-path="url(#clip5402)" x1="1470.2" y1="1087.2" x2="1430.2" y2="1087.2" style="stroke:#000000; stroke-width:4; stroke-opacity:1"/>
<line clip-path="url(#clip5402)" x1="1470.2" y1="1006.23" x2="1430.2" y2="1006.23" style="stroke:#000000; stroke-width:4; stroke-opacity:1"/>
<line clip-path="url(#clip5402)" x1="1577.17" y1="999.807" x2="1537.17" y2="999.807" style="stroke:#000000; stroke-width:4; stroke-opacity:1"/>
<line clip-path="url(#clip5402)" x1="1577.17" y1="907.611" x2="1537.17" y2="907.611" style="stroke:#000000; stroke-width:4; stroke-opacity:1"/>
<line clip-path="url(#clip5402)" x1="1684.14" y1="1179.24" x2="1644.14" y2="1179.24" style="stroke:#000000; stroke-width:4; stroke-opacity:1"/>
<line clip-path="url(#clip5402)" x1="1684.14" y1="1103.25" x2="1644.14" y2="1103.25" style="stroke:#000000; stroke-width:4; stroke-opacity:1"/>
<line clip-path="url(#clip5402)" x1="1791.11" y1="1216.67" x2="1751.11" y2="1216.67" style="stroke:#000000; stroke-width:4; stroke-opacity:1"/>
<line clip-path="url(#clip5402)" x1="1791.11" y1="1153.45" x2="1751.11" y2="1153.45" style="stroke:#000000; stroke-width:4; stroke-opacity:1"/>
<line clip-path="url(#clip5402)" x1="1898.08" y1="1187.08" x2="1858.08" y2="1187.08" style="stroke:#000000; stroke-width:4; stroke-opacity:1"/>
<line clip-path="url(#clip5402)" x1="1898.08" y1="1118.25" x2="1858.08" y2="1118.25" style="stroke:#000000; stroke-width:4; stroke-opacity:1"/>
<line clip-path="url(#clip5402)" x1="2005.05" y1="1170.48" x2="1965.05" y2="1170.48" style="stroke:#000000; stroke-width:4; stroke-opacity:1"/>
<line clip-path="url(#clip5402)" x1="2005.05" y1="1098.57" x2="1965.05" y2="1098.57" style="stroke:#000000; stroke-width:4; stroke-opacity:1"/>
<line clip-path="url(#clip5402)" x1="2112.02" y1="1219.96" x2="2072.02" y2="1219.96" style="stroke:#000000; stroke-width:4; stroke-opacity:1"/>
<line clip-path="url(#clip5402)" x1="2112.02" y1="1145.62" x2="2072.02" y2="1145.62" style="stroke:#000000; stroke-width:4; stroke-opacity:1"/>
<line clip-path="url(#clip5402)" x1="2218.99" y1="1192.96" x2="2178.99" y2="1192.96" style="stroke:#000000; stroke-width:4; stroke-opacity:1"/>
<line clip-path="url(#clip5402)" x1="2218.99" y1="1115.21" x2="2178.99" y2="1115.21" style="stroke:#000000; stroke-width:4; stroke-opacity:1"/>
</svg>
