<?xml version="1.0" encoding="utf-8"?>
<svg xmlns="http://www.w3.org/2000/svg" xmlns:xlink="http://www.w3.org/1999/xlink" width="576" height="384" viewBox="0 0 2304 1536">
<defs>
  <clipPath id="clip8400">
    <rect x="0" y="0" width="2304" height="1536"/>
  </clipPath>
</defs>
<path clip-path="url(#clip8400)" d="
M0 1536 L2304 1536 L2304 0 L0 0  Z
  " fill="#ffffff" fill-rule="evenodd" fill-opacity="1"/>
<defs>
  <clipPath id="clip8401">
    <rect x="460" y="0" width="1614" height="1536"/>
  </clipPath>
</defs>
<path clip-path="url(#clip8400)" d="
M241.556 1362.26 L2256.76 1362.26 L2256.76 47.2441 L241.556 47.2441  Z
  " fill="#ffffff" fill-rule="evenodd" fill-opacity="1"/>
<defs>
  <clipPath id="clip8402">
    <rect x="241" y="47" width="2016" height="1316"/>
  </clipPath>
</defs>
<polyline clip-path="url(#clip8402)" style="stroke:#000000; stroke-width:2; stroke-opacity:0.1; fill:none" points="
  291.913,1362.26 291.913,47.2441 
  "/>
<polyline clip-path="url(#clip8402)" style="stroke:#000000; stroke-width:2; stroke-opacity:0.1; fill:none" points="
  768.865,1362.26 768.865,47.2441 
  "/>
<polyline clip-path="url(#clip8402)" style="stroke:#000000; stroke-width:2; stroke-opacity:0.1; fill:none" points="
  1245.82,1362.26 1245.82,47.2441 
  "/>
<polyline clip-path="url(#clip8402)" style="stroke:#000000; stroke-width:2; stroke-opacity:0.1; fill:none" points="
  1722.77,1362.26 1722.77,47.2441 
  "/>
<polyline clip-path="url(#clip8402)" style="stroke:#000000; stroke-width:2; stroke-opacity:0.1; fill:none" points="
  2199.72,1362.26 2199.72,47.2441 
  "/>
<polyline clip-path="url(#clip8402)" style="stroke:#000000; stroke-width:2; stroke-opacity:0.1; fill:none" points="
  241.556,1335.81 2256.76,1335.81 
  "/>
<polyline clip-path="url(#clip8402)" style="stroke:#000000; stroke-width:2; stroke-opacity:0.1; fill:none" points="
  241.556,1022.93 2256.76,1022.93 
  "/>
<polyline clip-path="url(#clip8402)" style="stroke:#000000; stroke-width:2; stroke-opacity:0.1; fill:none" points="
  241.556,710.051 2256.76,710.051 
  "/>
<polyline clip-path="url(#clip8402)" style="stroke:#000000; stroke-width:2; stroke-opacity:0.1; fill:none" points="
  241.556,397.172 2256.76,397.172 
  "/>
<polyline clip-path="url(#clip8402)" style="stroke:#000000; stroke-width:2; stroke-opacity:0.1; fill:none" points="
  241.556,84.2933 2256.76,84.2933 
  "/>
<polyline clip-path="url(#clip8400)" style="stroke:#000000; stroke-width:4; stroke-opacity:1; fill:none" points="
  241.556,1362.26 2256.76,1362.26 
  "/>
<polyline clip-path="url(#clip8400)" style="stroke:#000000; stroke-width:4; stroke-opacity:1; fill:none" points="
  241.556,1362.26 241.556,47.2441 
  "/>
<polyline clip-path="url(#clip8400)" style="stroke:#000000; stroke-width:4; stroke-opacity:1; fill:none" points="
  291.913,1362.26 291.913,1342.53 
  "/>
<polyline clip-path="url(#clip8400)" style="stroke:#000000; stroke-width:4; stroke-opacity:1; fill:none" points="
  768.865,1362.26 768.865,1342.53 
  "/>
<polyline clip-path="url(#clip8400)" style="stroke:#000000; stroke-width:4; stroke-opacity:1; fill:none" points="
  1245.82,1362.26 1245.82,1342.53 
  "/>
<polyline clip-path="url(#clip8400)" style="stroke:#000000; stroke-width:4; stroke-opacity:1; fill:none" points="
  1722.77,1362.26 1722.77,1342.53 
  "/>
<polyline clip-path="url(#clip8400)" style="stroke:#000000; stroke-width:4; stroke-opacity:1; fill:none" points="
  2199.72,1362.26 2199.72,1342.53 
  "/>
<polyline clip-path="url(#clip8400)" style="stroke:#000000; stroke-width:4; stroke-opacity:1; fill:none" points="
  241.556,1335.81 271.784,1335.81 
  "/>
<polyline clip-path="url(#clip8400)" style="stroke:#000000; stroke-width:4; stroke-opacity:1; fill:none" points="
  241.556,1022.93 271.784,1022.93 
  "/>
<polyline clip-path="url(#clip8400)" style="stroke:#000000; stroke-width:4; stroke-opacity:1; fill:none" points="
  241.556,710.051 271.784,710.051 
  "/>
<polyline clip-path="url(#clip8400)" style="stroke:#000000; stroke-width:4; stroke-opacity:1; fill:none" points="
  241.556,397.172 271.784,397.172 
  "/>
<polyline clip-path="url(#clip8400)" style="stroke:#000000; stroke-width:4; stroke-opacity:1; fill:none" points="
  241.556,84.2933 271.784,84.2933 
  "/>
<g clip-path="url(#clip8400)">
<text style="fill:#000000; fill-opacity:1; font-family:Arial,Helvetica Neue,Helvetica,sans-serif; font-size:48px; text-anchor:middle;" transform="rotate(0, 291.913, 1415.78)" x="291.913" y="1415.78">0</text>
</g>
<g clip-path="url(#clip8400)">
<text style="fill:#000000; fill-opacity:1; font-family:Arial,Helvetica Neue,Helvetica,sans-serif; font-size:48px; text-anchor:middle;" transform="rotate(0, 768.865, 1415.78)" x="768.865" y="1415.78">20</text>
</g>
<g clip-path="url(#clip8400)">
<text style="fill:#000000; fill-opacity:1; font-family:Arial,Helvetica Neue,Helvetica,sans-serif; font-size:48px; text-anchor:middle;" transform="rotate(0, 1245.82, 1415.78)" x="1245.82" y="1415.78">40</text>
</g>
<g clip-path="url(#clip8400)">
<text style="fill:#000000; fill-opacity:1; font-family:Arial,Helvetica Neue,Helvetica,sans-serif; font-size:48px; text-anchor:middle;" transform="rotate(0, 1722.77, 1415.78)" x="1722.77" y="1415.78">60</text>
</g>
<g clip-path="url(#clip8400)">
<text style="fill:#000000; fill-opacity:1; font-family:Arial,Helvetica Neue,Helvetica,sans-serif; font-size:48px; text-anchor:middle;" transform="rotate(0, 2199.72, 1415.78)" x="2199.72" y="1415.78">80</text>
</g>
<g clip-path="url(#clip8400)">
<text style="fill:#000000; fill-opacity:1; font-family:Arial,Helvetica Neue,Helvetica,sans-serif; font-size:48px; text-anchor:end;" transform="rotate(0, 218.516, 1353.31)" x="218.516" y="1353.31">0.00</text>
</g>
<g clip-path="url(#clip8400)">
<text style="fill:#000000; fill-opacity:1; font-family:Arial,Helvetica Neue,Helvetica,sans-serif; font-size:48px; text-anchor:end;" transform="rotate(0, 218.516, 1040.43)" x="218.516" y="1040.43">0.25</text>
</g>
<g clip-path="url(#clip8400)">
<text style="fill:#000000; fill-opacity:1; font-family:Arial,Helvetica Neue,Helvetica,sans-serif; font-size:48px; text-anchor:end;" transform="rotate(0, 218.516, 727.551)" x="218.516" y="727.551">0.50</text>
</g>
<g clip-path="url(#clip8400)">
<text style="fill:#000000; fill-opacity:1; font-family:Arial,Helvetica Neue,Helvetica,sans-serif; font-size:48px; text-anchor:end;" transform="rotate(0, 218.516, 414.672)" x="218.516" y="414.672">0.75</text>
</g>
<g clip-path="url(#clip8400)">
<text style="fill:#000000; fill-opacity:1; font-family:Arial,Helvetica Neue,Helvetica,sans-serif; font-size:48px; text-anchor:end;" transform="rotate(0, 218.516, 101.793)" x="218.516" y="101.793">1.00</text>
</g>
<g clip-path="url(#clip8400)">
<text style="fill:#000000; fill-opacity:1; font-family:Arial,Helvetica Neue,Helvetica,sans-serif; font-size:66px; text-anchor:middle;" transform="rotate(0, 1249.16, 1495.16)" x="1249.16" y="1495.16">Distance from hole (ft)</text>
</g>
<g clip-path="url(#clip8400)">
<text style="fill:#000000; fill-opacity:1; font-family:Arial,Helvetica Neue,Helvetica,sans-serif; font-size:66px; text-anchor:middle;" transform="rotate(-90, 90.2461, 704.751)" x="90.2461" y="704.751">Probability of Success</text>
</g>
<circle clip-path="url(#clip8402)" style="fill:#000000; stroke:none; fill-opacity:1" cx="298.59" cy="84.7086" r="18"/>
<circle clip-path="url(#clip8402)" style="fill:#e26f46; stroke:none; fill-opacity:1" cx="298.59" cy="84.7086" r="14"/>
<circle clip-path="url(#clip8402)" style="fill:#000000; stroke:none; fill-opacity:1" cx="315.045" cy="85.1207" r="18"/>
<circle clip-path="url(#clip8402)" style="fill:#e26f46; stroke:none; fill-opacity:1" cx="315.045" cy="85.1207" r="14"/>
<circle clip-path="url(#clip8402)" style="fill:#000000; stroke:none; fill-opacity:1" cx="337.939" cy="91.0048" r="18"/>
<circle clip-path="url(#clip8402)" style="fill:#e26f46; stroke:none; fill-opacity:1" cx="337.939" cy="91.0048" r="14"/>
<circle clip-path="url(#clip8402)" style="fill:#000000; stroke:none; fill-opacity:1" cx="361.548" cy="130.118" r="18"/>
<circle clip-path="url(#clip8402)" style="fill:#e26f46; stroke:none; fill-opacity:1" cx="361.548" cy="130.118" r="14"/>
<circle clip-path="url(#clip8402)" style="fill:#000000; stroke:none; fill-opacity:1" cx="385.634" cy="238.752" r="18"/>
<circle clip-path="url(#clip8402)" style="fill:#e26f46; stroke:none; fill-opacity:1" cx="385.634" cy="238.752" r="14"/>
<circle clip-path="url(#clip8402)" style="fill:#000000; stroke:none; fill-opacity:1" cx="409.72" cy="377.073" r="18"/>
<circle clip-path="url(#clip8402)" style="fill:#e26f46; stroke:none; fill-opacity:1" cx="409.72" cy="377.073" r="14"/>
<circle clip-path="url(#clip8402)" style="fill:#000000; stroke:none; fill-opacity:1" cx="433.568" cy="514.73" r="18"/>
<circle clip-path="url(#clip8402)" style="fill:#e26f46; stroke:none; fill-opacity:1" cx="433.568" cy="514.73" r="14"/>
<circle clip-path="url(#clip8402)" style="fill:#000000; stroke:none; fill-opacity:1" cx="457.654" cy="615.166" r="18"/>
<circle clip-path="url(#clip8402)" style="fill:#e26f46; stroke:none; fill-opacity:1" cx="457.654" cy="615.166" r="14"/>
<circle clip-path="url(#clip8402)" style="fill:#000000; stroke:none; fill-opacity:1" cx="481.502" cy="710.897" r="18"/>
<circle clip-path="url(#clip8402)" style="fill:#e26f46; stroke:none; fill-opacity:1" cx="481.502" cy="710.897" r="14"/>
<circle clip-path="url(#clip8402)" style="fill:#000000; stroke:none; fill-opacity:1" cx="505.349" cy="787.774" r="18"/>
<circle clip-path="url(#clip8402)" style="fill:#e26f46; stroke:none; fill-opacity:1" cx="505.349" cy="787.774" r="14"/>
<circle clip-path="url(#clip8402)" style="fill:#000000; stroke:none; fill-opacity:1" cx="529.197" cy="852.457" r="18"/>
<circle clip-path="url(#clip8402)" style="fill:#e26f46; stroke:none; fill-opacity:1" cx="529.197" cy="852.457" r="14"/>
<circle clip-path="url(#clip8402)" style="fill:#000000; stroke:none; fill-opacity:1" cx="553.044" cy="905.012" r="18"/>
<circle clip-path="url(#clip8402)" style="fill:#e26f46; stroke:none; fill-opacity:1" cx="553.044" cy="905.012" r="14"/>
<circle clip-path="url(#clip8402)" style="fill:#000000; stroke:none; fill-opacity:1" cx="576.892" cy="945.307" r="18"/>
<circle clip-path="url(#clip8402)" style="fill:#e26f46; stroke:none; fill-opacity:1" cx="576.892" cy="945.307" r="14"/>
<circle clip-path="url(#clip8402)" style="fill:#000000; stroke:none; fill-opacity:1" cx="600.74" cy="983.923" r="18"/>
<circle clip-path="url(#clip8402)" style="fill:#e26f46; stroke:none; fill-opacity:1" cx="600.74" cy="983.923" r="14"/>
<circle clip-path="url(#clip8402)" style="fill:#000000; stroke:none; fill-opacity:1" cx="636.034" cy="1038.21" r="18"/>
<circle clip-path="url(#clip8402)" style="fill:#e26f46; stroke:none; fill-opacity:1" cx="636.034" cy="1038.21" r="14"/>
<circle clip-path="url(#clip8402)" style="fill:#000000; stroke:none; fill-opacity:1" cx="683.729" cy="1083.63" r="18"/>
<circle clip-path="url(#clip8402)" style="fill:#e26f46; stroke:none; fill-opacity:1" cx="683.729" cy="1083.63" r="14"/>
<circle clip-path="url(#clip8402)" style="fill:#000000; stroke:none; fill-opacity:1" cx="731.663" cy="1126.12" r="18"/>
<circle clip-path="url(#clip8402)" style="fill:#e26f46; stroke:none; fill-opacity:1" cx="731.663" cy="1126.12" r="14"/>
<circle clip-path="url(#clip8402)" style="fill:#000000; stroke:none; fill-opacity:1" cx="779.358" cy="1154.99" r="18"/>
<circle clip-path="url(#clip8402)" style="fill:#e26f46; stroke:none; fill-opacity:1" cx="779.358" cy="1154.99" r="14"/>
<circle clip-path="url(#clip8402)" style="fill:#000000; stroke:none; fill-opacity:1" cx="815.368" cy="1180.57" r="18"/>
<circle clip-path="url(#clip8402)" style="fill:#e26f46; stroke:none; fill-opacity:1" cx="815.368" cy="1180.57" r="14"/>
<circle clip-path="url(#clip8402)" style="fill:#000000; stroke:none; fill-opacity:1" cx="873.556" cy="1207.7" r="18"/>
<circle clip-path="url(#clip8402)" style="fill:#e26f46; stroke:none; fill-opacity:1" cx="873.556" cy="1207.7" r="14"/>
<circle clip-path="url(#clip8402)" style="fill:#000000; stroke:none; fill-opacity:1" cx="969.185" cy="1238.74" r="18"/>
<circle clip-path="url(#clip8402)" style="fill:#e26f46; stroke:none; fill-opacity:1" cx="969.185" cy="1238.74" r="14"/>
<circle clip-path="url(#clip8402)" style="fill:#000000; stroke:none; fill-opacity:1" cx="1064.34" cy="1256.86" r="18"/>
<circle clip-path="url(#clip8402)" style="fill:#e26f46; stroke:none; fill-opacity:1" cx="1064.34" cy="1256.86" r="14"/>
<circle clip-path="url(#clip8402)" style="fill:#000000; stroke:none; fill-opacity:1" cx="1159.73" cy="1270.95" r="18"/>
<circle clip-path="url(#clip8402)" style="fill:#e26f46; stroke:none; fill-opacity:1" cx="1159.73" cy="1270.95" r="14"/>
<circle clip-path="url(#clip8402)" style="fill:#000000; stroke:none; fill-opacity:1" cx="1254.64" cy="1284.56" r="18"/>
<circle clip-path="url(#clip8402)" style="fill:#e26f46; stroke:none; fill-opacity:1" cx="1254.64" cy="1284.56" r="14"/>
<circle clip-path="url(#clip8402)" style="fill:#000000; stroke:none; fill-opacity:1" cx="1350.27" cy="1292.02" r="18"/>
<circle clip-path="url(#clip8402)" style="fill:#e26f46; stroke:none; fill-opacity:1" cx="1350.27" cy="1292.02" r="14"/>
<circle clip-path="url(#clip8402)" style="fill:#000000; stroke:none; fill-opacity:1" cx="1445.42" cy="1302.74" r="18"/>
<circle clip-path="url(#clip8402)" style="fill:#e26f46; stroke:none; fill-opacity:1" cx="1445.42" cy="1302.74" r="14"/>
<circle clip-path="url(#clip8402)" style="fill:#000000; stroke:none; fill-opacity:1" cx="1540.57" cy="1302.61" r="18"/>
<circle clip-path="url(#clip8402)" style="fill:#e26f46; stroke:none; fill-opacity:1" cx="1540.57" cy="1302.61" r="14"/>
<circle clip-path="url(#clip8402)" style="fill:#000000; stroke:none; fill-opacity:1" cx="1657.19" cy="1307.05" r="18"/>
<circle clip-path="url(#clip8402)" style="fill:#e26f46; stroke:none; fill-opacity:1" cx="1657.19" cy="1307.05" r="14"/>
<circle clip-path="url(#clip8402)" style="fill:#000000; stroke:none; fill-opacity:1" cx="1799.8" cy="1312.34" r="18"/>
<circle clip-path="url(#clip8402)" style="fill:#e26f46; stroke:none; fill-opacity:1" cx="1799.8" cy="1312.34" r="14"/>
<circle clip-path="url(#clip8402)" style="fill:#000000; stroke:none; fill-opacity:1" cx="1941.69" cy="1321.62" r="18"/>
<circle clip-path="url(#clip8402)" style="fill:#e26f46; stroke:none; fill-opacity:1" cx="1941.69" cy="1321.62" r="14"/>
<circle clip-path="url(#clip8402)" style="fill:#000000; stroke:none; fill-opacity:1" cx="2085.01" cy="1318.57" r="18"/>
<circle clip-path="url(#clip8402)" style="fill:#e26f46; stroke:none; fill-opacity:1" cx="2085.01" cy="1318.57" r="14"/>
<polyline clip-path="url(#clip8402)" style="stroke:#e26f46; stroke-width:4; stroke-opacity:1; fill:none" points="
  315.761,84.4615 339.608,93.8354 363.456,136.042 387.303,228.155 411.151,352.174 434.999,480.793 458.846,599.043 482.694,701.812 506.542,788.823 530.389,861.69 
  554.237,922.538 578.084,973.426 601.932,1016.15 625.78,1052.2 649.627,1082.81 673.475,1108.94 697.322,1131.38 721.17,1150.77 745.018,1167.61 768.865,1182.32 
  792.713,1195.23 816.56,1206.61 840.408,1216.7 864.256,1225.67 888.103,1233.68 911.951,1240.87 935.799,1247.33 959.646,1253.16 983.494,1258.45 1007.34,1263.25 
  1031.19,1267.62 1055.04,1271.61 1078.88,1275.27 1102.73,1278.62 1126.58,1281.71 1150.43,1284.55 1174.27,1287.18 1198.12,1289.61 1221.97,1291.87 1245.82,1293.97 
  1269.67,1295.92 1293.51,1297.74 1317.36,1299.43 1341.21,1301.02 1365.06,1302.51 1388.9,1303.9 1412.75,1305.21 1436.6,1306.44 1460.45,1307.59 1484.29,1308.68 
  1508.14,1309.71 1531.99,1310.68 1555.84,1311.6 1579.68,1312.47 1603.53,1313.3 1627.38,1314.08 1651.23,1314.82 1675.07,1315.52 1698.92,1316.19 1722.77,1316.83 
  1746.62,1317.43 1770.46,1318.01 1794.31,1318.56 1818.16,1319.09 1842.01,1319.59 1865.86,1320.07 1889.7,1320.53 1913.55,1320.97 1937.4,1321.39 1961.25,1321.79 
  1985.09,1322.18 2008.94,1322.55 2032.79,1322.91 2056.64,1323.25 2080.48,1323.58 2104.33,1323.89 2128.18,1324.2 2152.03,1324.49 2175.87,1324.77 2199.72,1325.04 
  
  "/>
</svg>
