<?xml version="1.0" encoding="utf-8"?>
<svg xmlns="http://www.w3.org/2000/svg" xmlns:xlink="http://www.w3.org/1999/xlink" width="576" height="384" viewBox="0 0 2304 1536">
<defs>
  <clipPath id="clip6500">
    <rect x="0" y="0" width="2000" height="2000"/>
  </clipPath>
</defs>
<defs>
  <clipPath id="clip6501">
    <rect x="0" y="0" width="2304" height="1536"/>
  </clipPath>
</defs>
<polygon clip-path="url(#clip6501)" points="
0,1536 2304,1536 2304,0 0,0 
  " fill="#ffffff" fill-rule="evenodd" fill-opacity="1"/>
<defs>
  <clipPath id="clip6502">
    <rect x="460" y="0" width="1614" height="1536"/>
  </clipPath>
</defs>
<polygon clip-path="url(#clip6501)" points="
188.156,1439.47 2225.26,1439.47 2225.26,47.2441 188.156,47.2441 
  " fill="#ffffff" fill-rule="evenodd" fill-opacity="1"/>
<defs>
  <clipPath id="clip6503">
    <rect x="188" y="47" width="2038" height="1393"/>
  </clipPath>
</defs>
<polyline clip-path="url(#clip6503)" style="stroke:#000000; stroke-width:2; stroke-opacity:0.1; fill:none" points="
  268.964,1439.47 268.964,47.2441 
  "/>
<polyline clip-path="url(#clip6503)" style="stroke:#000000; stroke-width:2; stroke-opacity:0.1; fill:none" points="
  732.048,1439.47 732.048,47.2441 
  "/>
<polyline clip-path="url(#clip6503)" style="stroke:#000000; stroke-width:2; stroke-opacity:0.1; fill:none" points="
  1195.13,1439.47 1195.13,47.2441 
  "/>
<polyline clip-path="url(#clip6503)" style="stroke:#000000; stroke-width:2; stroke-opacity:0.1; fill:none" points="
  1658.21,1439.47 1658.21,47.2441 
  "/>
<polyline clip-path="url(#clip6503)" style="stroke:#000000; stroke-width:2; stroke-opacity:0.1; fill:none" points="
  2121.3,1439.47 2121.3,47.2441 
  "/>
<polyline clip-path="url(#clip6503)" style="stroke:#000000; stroke-width:2; stroke-opacity:0.1; fill:none" points="
  188.156,1400.07 2225.26,1400.07 
  "/>
<polyline clip-path="url(#clip6503)" style="stroke:#000000; stroke-width:2; stroke-opacity:0.1; fill:none" points="
  188.156,1071.72 2225.26,1071.72 
  "/>
<polyline clip-path="url(#clip6503)" style="stroke:#000000; stroke-width:2; stroke-opacity:0.1; fill:none" points="
  188.156,743.359 2225.26,743.359 
  "/>
<polyline clip-path="url(#clip6503)" style="stroke:#000000; stroke-width:2; stroke-opacity:0.1; fill:none" points="
  188.156,415.003 2225.26,415.003 
  "/>
<polyline clip-path="url(#clip6503)" style="stroke:#000000; stroke-width:2; stroke-opacity:0.1; fill:none" points="
  188.156,86.6468 2225.26,86.6468 
  "/>
<polyline clip-path="url(#clip6501)" style="stroke:#000000; stroke-width:4; stroke-opacity:1; fill:none" points="
  188.156,1439.47 2225.26,1439.47 
  "/>
<polyline clip-path="url(#clip6501)" style="stroke:#000000; stroke-width:4; stroke-opacity:1; fill:none" points="
  188.156,1439.47 188.156,47.2441 
  "/>
<polyline clip-path="url(#clip6501)" style="stroke:#000000; stroke-width:4; stroke-opacity:1; fill:none" points="
  268.964,1439.47 268.964,1418.59 
  "/>
<polyline clip-path="url(#clip6501)" style="stroke:#000000; stroke-width:4; stroke-opacity:1; fill:none" points="
  732.048,1439.47 732.048,1418.59 
  "/>
<polyline clip-path="url(#clip6501)" style="stroke:#000000; stroke-width:4; stroke-opacity:1; fill:none" points="
  1195.13,1439.47 1195.13,1418.59 
  "/>
<polyline clip-path="url(#clip6501)" style="stroke:#000000; stroke-width:4; stroke-opacity:1; fill:none" points="
  1658.21,1439.47 1658.21,1418.59 
  "/>
<polyline clip-path="url(#clip6501)" style="stroke:#000000; stroke-width:4; stroke-opacity:1; fill:none" points="
  2121.3,1439.47 2121.3,1418.59 
  "/>
<polyline clip-path="url(#clip6501)" style="stroke:#000000; stroke-width:4; stroke-opacity:1; fill:none" points="
  188.156,1400.07 218.713,1400.07 
  "/>
<polyline clip-path="url(#clip6501)" style="stroke:#000000; stroke-width:4; stroke-opacity:1; fill:none" points="
  188.156,1071.72 218.713,1071.72 
  "/>
<polyline clip-path="url(#clip6501)" style="stroke:#000000; stroke-width:4; stroke-opacity:1; fill:none" points="
  188.156,743.359 218.713,743.359 
  "/>
<polyline clip-path="url(#clip6501)" style="stroke:#000000; stroke-width:4; stroke-opacity:1; fill:none" points="
  188.156,415.003 218.713,415.003 
  "/>
<polyline clip-path="url(#clip6501)" style="stroke:#000000; stroke-width:4; stroke-opacity:1; fill:none" points="
  188.156,86.6468 218.713,86.6468 
  "/>
<g clip-path="url(#clip6501)">
<text style="fill:#000000; fill-opacity:1; font-family:Arial,Helvetica Neue,Helvetica,sans-serif; font-size:48px; text-anchor:middle;" transform="rotate(0, 268.964, 1492.99)" x="268.964" y="1492.99">-2</text>
</g>
<g clip-path="url(#clip6501)">
<text style="fill:#000000; fill-opacity:1; font-family:Arial,Helvetica Neue,Helvetica,sans-serif; font-size:48px; text-anchor:middle;" transform="rotate(0, 732.048, 1492.99)" x="732.048" y="1492.99">0</text>
</g>
<g clip-path="url(#clip6501)">
<text style="fill:#000000; fill-opacity:1; font-family:Arial,Helvetica Neue,Helvetica,sans-serif; font-size:48px; text-anchor:middle;" transform="rotate(0, 1195.13, 1492.99)" x="1195.13" y="1492.99">2</text>
</g>
<g clip-path="url(#clip6501)">
<text style="fill:#000000; fill-opacity:1; font-family:Arial,Helvetica Neue,Helvetica,sans-serif; font-size:48px; text-anchor:middle;" transform="rotate(0, 1658.21, 1492.99)" x="1658.21" y="1492.99">4</text>
</g>
<g clip-path="url(#clip6501)">
<text style="fill:#000000; fill-opacity:1; font-family:Arial,Helvetica Neue,Helvetica,sans-serif; font-size:48px; text-anchor:middle;" transform="rotate(0, 2121.3, 1492.99)" x="2121.3" y="1492.99">6</text>
</g>
<g clip-path="url(#clip6501)">
<text style="fill:#000000; fill-opacity:1; font-family:Arial,Helvetica Neue,Helvetica,sans-serif; font-size:48px; text-anchor:end;" transform="rotate(0, 165.116, 1417.57)" x="165.116" y="1417.57">0.00</text>
</g>
<g clip-path="url(#clip6501)">
<text style="fill:#000000; fill-opacity:1; font-family:Arial,Helvetica Neue,Helvetica,sans-serif; font-size:48px; text-anchor:end;" transform="rotate(0, 165.116, 1089.22)" x="165.116" y="1089.22">0.25</text>
</g>
<g clip-path="url(#clip6501)">
<text style="fill:#000000; fill-opacity:1; font-family:Arial,Helvetica Neue,Helvetica,sans-serif; font-size:48px; text-anchor:end;" transform="rotate(0, 165.116, 760.859)" x="165.116" y="760.859">0.50</text>
</g>
<g clip-path="url(#clip6501)">
<text style="fill:#000000; fill-opacity:1; font-family:Arial,Helvetica Neue,Helvetica,sans-serif; font-size:48px; text-anchor:end;" transform="rotate(0, 165.116, 432.503)" x="165.116" y="432.503">0.75</text>
</g>
<g clip-path="url(#clip6501)">
<text style="fill:#000000; fill-opacity:1; font-family:Arial,Helvetica Neue,Helvetica,sans-serif; font-size:48px; text-anchor:end;" transform="rotate(0, 165.116, 104.147)" x="165.116" y="104.147">1.00</text>
</g>
<circle clip-path="url(#clip6503)" style="fill:#000000; stroke:none; fill-opacity:1" cx="245.81" cy="1400.07" r="18"/>
<circle clip-path="url(#clip6503)" style="fill:#009af9; stroke:none; fill-opacity:1" cx="245.81" cy="1400.07" r="14"/>
<circle clip-path="url(#clip6503)" style="fill:#000000; stroke:none; fill-opacity:1" cx="431.044" cy="1400.07" r="18"/>
<circle clip-path="url(#clip6503)" style="fill:#009af9; stroke:none; fill-opacity:1" cx="431.044" cy="1400.07" r="14"/>
<circle clip-path="url(#clip6503)" style="fill:#000000; stroke:none; fill-opacity:1" cx="639.431" cy="1400.07" r="18"/>
<circle clip-path="url(#clip6503)" style="fill:#009af9; stroke:none; fill-opacity:1" cx="639.431" cy="1400.07" r="14"/>
<circle clip-path="url(#clip6503)" style="fill:#000000; stroke:none; fill-opacity:1" cx="1171.98" cy="1400.07" r="18"/>
<circle clip-path="url(#clip6503)" style="fill:#009af9; stroke:none; fill-opacity:1" cx="1171.98" cy="1400.07" r="14"/>
<circle clip-path="url(#clip6503)" style="fill:#000000; stroke:none; fill-opacity:1" cx="1912.91" cy="1400.07" r="18"/>
<circle clip-path="url(#clip6503)" style="fill:#009af9; stroke:none; fill-opacity:1" cx="1912.91" cy="1400.07" r="14"/>
<circle clip-path="url(#clip6503)" style="fill:#000000; stroke:none; fill-opacity:1" cx="2167.61" cy="1400.07" r="18"/>
<circle clip-path="url(#clip6503)" style="fill:#009af9; stroke:none; fill-opacity:1" cx="2167.61" cy="1400.07" r="14"/>
</svg>
